G04 Layer_Physical_Order=1*
G04 Layer_Color=48896*
%FSLAX25Y25*%
%MOIN*%
G70*
G01*
G75*
%ADD10C,0.07874*%
%ADD11C,0.00787*%
%ADD12C,0.00787*%
%ADD13C,0.01575*%
%ADD14C,0.01968*%
%ADD15R,0.01575X0.05315*%
%ADD16R,0.04331X0.03937*%
%ADD17R,0.06299X0.07087*%
%ADD18R,0.07087X0.06299*%
%ADD19R,0.03937X0.05905*%
%ADD20R,0.27559X0.27559*%
%ADD21R,0.05905X0.09842*%
%ADD22R,0.35433X0.45276*%
%ADD23C,0.00984*%
%ADD24C,0.10236*%
%ADD25R,0.07087X0.07087*%
%ADD26C,0.07087*%
%ADD27R,0.04921X0.04921*%
G04:AMPARAMS|DCode=28|XSize=49.21mil|YSize=49.21mil|CornerRadius=12.3mil|HoleSize=0mil|Usage=FLASHONLY|Rotation=270.000|XOffset=0mil|YOffset=0mil|HoleType=Round|Shape=RoundedRectangle|*
%AMROUNDEDRECTD28*
21,1,0.04921,0.02461,0,0,270.0*
21,1,0.02461,0.04921,0,0,270.0*
1,1,0.02461,-0.01230,-0.01230*
1,1,0.02461,-0.01230,0.01230*
1,1,0.02461,0.01230,0.01230*
1,1,0.02461,0.01230,-0.01230*
%
%ADD28ROUNDEDRECTD28*%
%ADD29R,0.07087X0.07087*%
%ADD30R,0.05905X0.05905*%
%ADD31C,0.05905*%
%ADD32C,0.02756*%
G36*
X53958Y232855D02*
X53303Y232453D01*
X51536Y230944D01*
X50027Y229177D01*
X48813Y227196D01*
X47923Y225049D01*
X47381Y222789D01*
X47199Y220472D01*
X47202D01*
X47371Y219188D01*
X47867Y217991D01*
X47911Y217933D01*
X46746Y215570D01*
X41339D01*
X40955Y215494D01*
X40629Y215277D01*
X40411Y214951D01*
X40335Y214567D01*
Y169291D01*
X40411Y168907D01*
X40629Y168582D01*
X40955Y168364D01*
X41339Y168288D01*
X43937D01*
X46063Y167717D01*
X46063Y165926D01*
Y155905D01*
X46823D01*
Y152559D01*
X43799D01*
Y147006D01*
X43767Y146242D01*
X42913Y144140D01*
X41991Y143957D01*
X41210Y143435D01*
X40688Y142654D01*
X40505Y141732D01*
X40538Y141562D01*
X39393Y139629D01*
X38923Y139200D01*
X38543D01*
X38481Y139188D01*
X36863Y139347D01*
X35247Y139837D01*
X33758Y140633D01*
X32453Y141705D01*
X31381Y143010D01*
X30585Y144499D01*
X30095Y146115D01*
X29936Y147733D01*
X29948Y147795D01*
Y154165D01*
X29956D01*
X29816Y155950D01*
X29702Y156425D01*
X29398Y157692D01*
X28712Y159346D01*
X28032Y160457D01*
X27777Y160873D01*
X26614Y162235D01*
X26608Y162230D01*
X23280Y165557D01*
X23521Y166138D01*
X23656Y167165D01*
X23521Y168193D01*
X23124Y169151D01*
X22493Y169973D01*
X21670Y170604D01*
X20861Y170940D01*
X20713Y171001D01*
X20896Y171807D01*
X20896D01*
X20896Y171807D01*
X22670Y173228D01*
X23622D01*
Y176673D01*
X19685D01*
X15748D01*
Y173228D01*
X16700D01*
X18474Y171807D01*
X18474Y171807D01*
X18474D01*
X18657Y171001D01*
X18509Y170940D01*
X17699Y170604D01*
X16877Y169973D01*
X16246Y169151D01*
X15849Y168193D01*
X15714Y167165D01*
X15849Y166138D01*
X15868Y166093D01*
X14725Y164204D01*
X13562Y162842D01*
X13307Y162426D01*
X13057Y162018D01*
X10455Y161441D01*
X10307Y162008D01*
X10581Y164280D01*
X10682Y164357D01*
X11313Y165180D01*
X11710Y166138D01*
X11845Y167165D01*
X11710Y168193D01*
X11313Y169151D01*
X10682Y169973D01*
X9860Y170604D01*
X9164Y170893D01*
X8902Y171001D01*
Y173330D01*
X9164Y173438D01*
X9860Y173726D01*
X10682Y174357D01*
X11313Y175180D01*
X11710Y176138D01*
X11780Y176673D01*
X7874D01*
X3968D01*
X4038Y176138D01*
X4435Y175180D01*
X5066Y174357D01*
X5889Y173726D01*
X6584Y173438D01*
X6846Y173330D01*
Y171001D01*
X6584Y170893D01*
X5889Y170604D01*
X5066Y169973D01*
X4435Y169151D01*
X4038Y168193D01*
X3903Y167165D01*
X4038Y166138D01*
X4435Y165180D01*
X5066Y164357D01*
X5889Y163726D01*
X6584Y163438D01*
X6846Y163330D01*
Y161774D01*
X6846D01*
Y161001D01*
X6584Y160893D01*
X5889Y160604D01*
X5066Y159973D01*
X4435Y159151D01*
X4038Y158193D01*
X3903Y157165D01*
X4038Y156138D01*
X4435Y155180D01*
X5066Y154357D01*
X5889Y153726D01*
X6846Y153330D01*
X7874Y153194D01*
X8902Y153330D01*
X9028Y153382D01*
X11018Y152362D01*
X11390Y151924D01*
Y102992D01*
X3937D01*
Y95118D01*
X6339D01*
X6846Y92891D01*
X5889Y92494D01*
X5066Y91863D01*
X4435Y91041D01*
X4038Y90083D01*
X3968Y89547D01*
X7874D01*
Y88563D01*
X3968D01*
X4038Y88027D01*
X4435Y87070D01*
X5066Y86247D01*
X5889Y85616D01*
X6846Y85220D01*
Y82891D01*
X5889Y82494D01*
X5066Y81863D01*
X4435Y81041D01*
X4038Y80083D01*
X3903Y79055D01*
X4038Y78027D01*
X4435Y77070D01*
X5066Y76247D01*
X5889Y75616D01*
X6584Y75328D01*
X6846Y75219D01*
Y72891D01*
X6584Y72782D01*
X5889Y72494D01*
X5066Y71863D01*
X4435Y71041D01*
X4038Y70083D01*
X3903Y69055D01*
X4038Y68027D01*
X4435Y67070D01*
X5066Y66247D01*
X5889Y65616D01*
X6846Y65219D01*
X7874Y65084D01*
X8902Y65219D01*
X9860Y65616D01*
X10682Y66247D01*
X11313Y67070D01*
X11710Y68027D01*
X11845Y69055D01*
X11710Y70083D01*
X11313Y71041D01*
X10682Y71863D01*
X9860Y72494D01*
X9164Y72782D01*
X8902Y72891D01*
Y75219D01*
X9164Y75328D01*
X9860Y75616D01*
X10682Y76247D01*
X11313Y77070D01*
X11327Y77104D01*
X13135Y77984D01*
X13493Y78077D01*
X14101Y78094D01*
X14821Y77796D01*
X16010Y77639D01*
X16246Y77070D01*
X16877Y76247D01*
X17700Y75616D01*
X18657Y75220D01*
Y72891D01*
X17699Y72494D01*
X16877Y71863D01*
X16246Y71041D01*
X15849Y70083D01*
X15714Y69055D01*
X15849Y68027D01*
X16246Y67070D01*
X16877Y66247D01*
X17699Y65616D01*
X18657Y65219D01*
Y62891D01*
X17700Y62494D01*
X16877Y61863D01*
X16246Y61041D01*
X15849Y60083D01*
X15714Y59055D01*
X15849Y58027D01*
X16246Y57070D01*
X16877Y56247D01*
X17700Y55616D01*
X18657Y55220D01*
X19685Y55084D01*
X20713Y55220D01*
X21670Y55616D01*
X22493Y56247D01*
X23124Y57070D01*
X23521Y58027D01*
X23656Y59055D01*
X23524Y60056D01*
X26049Y62581D01*
X26057Y62592D01*
X27272Y64015D01*
X28256Y65621D01*
X28977Y67361D01*
X29417Y69193D01*
X29564Y71058D01*
X29566Y71071D01*
Y90346D01*
X29564Y90359D01*
X29417Y92224D01*
X28977Y94056D01*
X28256Y95796D01*
X27272Y97403D01*
X26057Y98825D01*
X26049Y98836D01*
X24033Y100853D01*
X23956Y100904D01*
X23017Y102049D01*
X22275Y103435D01*
X21819Y104940D01*
X21674Y106413D01*
X21692Y106504D01*
Y108004D01*
X21910Y108330D01*
X22094Y109252D01*
X21910Y110174D01*
X21692Y110500D01*
Y142891D01*
X22808Y143859D01*
X25170Y142781D01*
Y139921D01*
X25162D01*
X25302Y138136D01*
X25416Y137661D01*
X25720Y136394D01*
X26406Y134740D01*
X27341Y133213D01*
X28504Y131851D01*
X29866Y130688D01*
X31393Y129752D01*
X33048Y129067D01*
X34315Y128763D01*
X34789Y128649D01*
X36575Y128508D01*
Y128516D01*
X38923D01*
X39394Y128087D01*
X40539Y126154D01*
X40505Y125985D01*
X40689Y125063D01*
X41211Y124282D01*
X41992Y123759D01*
X42914Y123576D01*
X43526Y121313D01*
X43504Y121063D01*
X43504Y120751D01*
Y117618D01*
X46457D01*
Y117126D01*
X46949D01*
Y113189D01*
X48622D01*
X49409Y113189D01*
X50984D01*
X51772Y113189D01*
X56890D01*
Y120751D01*
X56890Y121063D01*
X56890D01*
X56693Y123032D01*
X56693D01*
Y128543D01*
X56693Y128937D01*
X56693Y130091D01*
X58574Y132453D01*
X68692D01*
Y132445D01*
X70478Y132585D01*
X70952Y132699D01*
X72219Y133003D01*
X73874Y133689D01*
X74984Y134369D01*
X75401Y134625D01*
X76762Y135788D01*
X78458Y137398D01*
X79081Y137910D01*
X80570Y138706D01*
X82186Y139196D01*
X83804Y139355D01*
X83867Y139343D01*
X89173D01*
Y138287D01*
X92323D01*
Y137303D01*
X89173D01*
Y135236D01*
X89173Y134842D01*
Y132874D01*
X89173Y132480D01*
Y130413D01*
X92323D01*
Y129429D01*
X89173D01*
Y127362D01*
X89173Y126968D01*
Y125000D01*
X89173Y124606D01*
Y122539D01*
X92322D01*
Y121555D01*
X89173D01*
Y119488D01*
X89173Y119094D01*
Y117126D01*
X89173Y116732D01*
Y114665D01*
X92323D01*
Y113681D01*
X89173D01*
Y111614D01*
X89173Y111220D01*
Y109252D01*
X89173Y108858D01*
Y106791D01*
X92323D01*
Y105807D01*
X89173D01*
Y103740D01*
X89173Y103346D01*
Y101378D01*
X89173Y100984D01*
Y98917D01*
X92322D01*
Y97933D01*
X89173D01*
Y95499D01*
X75205D01*
Y95508D01*
X73420Y95367D01*
X72945Y95253D01*
X71678Y94949D01*
X70024Y94264D01*
X68913Y93583D01*
X68497Y93328D01*
X67135Y92165D01*
X67141Y92159D01*
X64548Y89567D01*
X60433D01*
Y83661D01*
X65857D01*
X67551Y81638D01*
X67127Y80315D01*
X64173D01*
Y70295D01*
X64173Y68504D01*
X62048Y67933D01*
X56063D01*
X53937Y68504D01*
Y69095D01*
X46063D01*
Y68504D01*
X43937Y67933D01*
X41339D01*
X40955Y67856D01*
X40629Y67639D01*
X40411Y67313D01*
X40335Y66929D01*
Y21654D01*
X40411Y21270D01*
X40629Y20944D01*
X40955Y20726D01*
X41339Y20650D01*
X45431D01*
X47638Y20276D01*
Y17677D01*
X47371Y17033D01*
X47202Y15748D01*
X47199D01*
X47381Y13431D01*
X47638Y12361D01*
Y11220D01*
X47912D01*
X47923Y11172D01*
X48813Y9025D01*
X50027Y7043D01*
X51536Y5276D01*
X53303Y3767D01*
X53958Y3366D01*
X53292Y1003D01*
X23032D01*
X21943Y3366D01*
X22514Y4035D01*
X23599Y5805D01*
X24393Y7723D01*
X24878Y9741D01*
X25041Y11811D01*
X24878Y13881D01*
X24393Y15899D01*
X23599Y17817D01*
X22514Y19587D01*
X21166Y21166D01*
X19587Y22514D01*
X17817Y23599D01*
X15899Y24393D01*
X13881Y24878D01*
X11811Y25041D01*
X9741Y24878D01*
X7723Y24393D01*
X5805Y23599D01*
X4035Y22514D01*
X3366Y21943D01*
X1003Y23032D01*
Y213189D01*
X3366Y214278D01*
X4035Y213706D01*
X5805Y212622D01*
X7723Y211827D01*
X9741Y211343D01*
X11811Y211180D01*
X13881Y211343D01*
X15899Y211827D01*
X17817Y212622D01*
X19587Y213706D01*
X21166Y215055D01*
X22514Y216633D01*
X23599Y218403D01*
X24393Y220321D01*
X24878Y222340D01*
X25041Y224410D01*
X24878Y226479D01*
X24393Y228498D01*
X23599Y230416D01*
X22514Y232186D01*
X21943Y232855D01*
X23032Y235217D01*
X53292D01*
X53958Y232855D01*
D02*
G37*
G36*
X316219Y168582D02*
X316545Y168364D01*
X316929Y168288D01*
X319528D01*
X321654Y167717D01*
X321654Y165926D01*
Y155905D01*
X322414D01*
Y152559D01*
X320177Y152559D01*
X317815Y152559D01*
X313484D01*
Y148443D01*
X305774Y140733D01*
X305739Y140681D01*
X304482Y139649D01*
X302993Y138853D01*
X301377Y138363D01*
X299759Y138204D01*
X299696Y138216D01*
X283682D01*
X282810Y140578D01*
X282964Y140709D01*
X282958Y140715D01*
X288897Y146654D01*
X293012D01*
Y152559D01*
X288447D01*
X287058Y154922D01*
X287605Y155905D01*
X290158D01*
Y165926D01*
X290158Y167717D01*
X292283Y168288D01*
X298268D01*
X300394Y167717D01*
Y167323D01*
X308268D01*
Y167717D01*
X310393Y168288D01*
X312992D01*
X313376Y168364D01*
X313702Y168582D01*
X314842Y168743D01*
X315080D01*
X316219Y168582D01*
D02*
G37*
G36*
X276850D02*
X277175Y168364D01*
X277559Y168288D01*
X280158D01*
X282283Y167717D01*
X282283Y165926D01*
Y155905D01*
X283044D01*
Y152559D01*
X280020D01*
Y146654D01*
X281837D01*
X282740Y144472D01*
X280971Y142702D01*
X280936Y142649D01*
X279679Y141618D01*
X278189Y140822D01*
X276574Y140331D01*
X274955Y140172D01*
X274893Y140184D01*
X246280D01*
X245409Y142547D01*
X245562Y142678D01*
X245556Y142683D01*
X249527Y146654D01*
X253642D01*
Y152559D01*
X249077D01*
X247688Y154922D01*
X248235Y155905D01*
X250787D01*
Y165926D01*
X250787Y167717D01*
X252913Y168288D01*
X258898D01*
X261024Y167717D01*
Y167323D01*
X268898D01*
Y167717D01*
X271023Y168288D01*
X273622D01*
X274006Y168364D01*
X274332Y168582D01*
X275471Y168743D01*
X275710D01*
X276850Y168582D01*
D02*
G37*
G36*
X237479D02*
X237805Y168364D01*
X238189Y168288D01*
X240788D01*
X242913Y167717D01*
X242913Y165926D01*
Y155905D01*
X243674D01*
Y152559D01*
X240650D01*
Y146654D01*
X242610D01*
X242801Y146232D01*
X243137Y144292D01*
X242277Y143586D01*
X240788Y142790D01*
X239172Y142300D01*
X237554Y142141D01*
X237492Y142153D01*
X216239D01*
Y142171D01*
X214425Y141992D01*
X214267Y141944D01*
X212635Y143523D01*
X212922Y145914D01*
X214272Y146654D01*
Y152559D01*
X209707D01*
X208318Y154922D01*
X208865Y155905D01*
X211417D01*
Y165926D01*
X211417Y167717D01*
X213543Y168288D01*
X219528D01*
X221654Y167717D01*
Y167323D01*
X229528D01*
Y167717D01*
X231653Y168288D01*
X234252D01*
X234636Y168364D01*
X234962Y168582D01*
X236101Y168743D01*
X236339D01*
X237479Y168582D01*
D02*
G37*
G36*
X198109D02*
X198435Y168364D01*
X198819Y168288D01*
X201418D01*
X203543Y167717D01*
X203543Y165926D01*
Y155905D01*
X204304D01*
Y152559D01*
X201280D01*
Y148536D01*
X200884Y148372D01*
X198810Y147677D01*
X197448Y148840D01*
X197032Y149095D01*
X195921Y149776D01*
X194266Y150461D01*
X193000Y150765D01*
X192525Y150879D01*
X190739Y151020D01*
Y151012D01*
X174902D01*
Y152559D01*
X170337D01*
X168948Y154922D01*
X169495Y155905D01*
X172047D01*
Y165926D01*
X172047Y167717D01*
X174173Y168288D01*
X180158D01*
X182283Y167717D01*
Y167323D01*
X190157D01*
Y167717D01*
X192283Y168288D01*
X194882D01*
X195266Y168364D01*
X195591Y168582D01*
X196731Y168743D01*
X196969D01*
X198109Y168582D01*
D02*
G37*
G36*
X158739D02*
X159065Y168364D01*
X159449Y168288D01*
X162048D01*
X164173Y167717D01*
X164173Y165926D01*
Y155905D01*
X164934D01*
Y152559D01*
X161910D01*
Y149253D01*
X161894Y149224D01*
X159704Y147855D01*
X158482Y148640D01*
X157249Y149652D01*
X156664Y149965D01*
X155842Y150404D01*
X154950Y150675D01*
X154950Y150675D01*
X154950Y150675D01*
X154315Y150867D01*
X152727Y151024D01*
Y151012D01*
X135532D01*
Y152559D01*
X130967D01*
X129578Y154922D01*
X130125Y155905D01*
X132677D01*
Y165926D01*
X132677Y167717D01*
X134803Y168288D01*
X140788D01*
X142913Y167717D01*
Y167323D01*
X150787D01*
Y167717D01*
X152913Y168288D01*
X155512D01*
X155896Y168364D01*
X156221Y168582D01*
X157361Y168743D01*
X157599D01*
X158739Y168582D01*
D02*
G37*
G36*
X119369D02*
X119695Y168364D01*
X120079Y168288D01*
X122678D01*
X124803Y167717D01*
X124803Y165926D01*
Y155905D01*
X125564D01*
Y152559D01*
X122540D01*
Y148058D01*
X117941D01*
X117873Y148045D01*
X116560Y148218D01*
X116058Y148426D01*
X114192Y149625D01*
X113202Y150385D01*
X112626Y150624D01*
X112626Y150624D01*
X112049Y150863D01*
X110812Y151025D01*
Y151012D01*
X97048D01*
Y152559D01*
X92717D01*
X90748Y152559D01*
X88610Y153100D01*
Y155905D01*
X93307D01*
Y165926D01*
X93307Y167717D01*
X95433Y168288D01*
X101418D01*
X103543Y167717D01*
Y167323D01*
X111417D01*
Y167717D01*
X113543Y168288D01*
X116142D01*
X116526Y168364D01*
X116851Y168582D01*
X117991Y168743D01*
X118229D01*
X119369Y168582D01*
D02*
G37*
G36*
X79999D02*
X80325Y168364D01*
X80709Y168288D01*
X83307D01*
X85433Y167717D01*
X85433Y165926D01*
Y155905D01*
X85800D01*
Y152559D01*
X84055D01*
Y148452D01*
X84055Y146654D01*
X81927Y146090D01*
X77587D01*
X77518Y146076D01*
X76205Y146249D01*
X75672Y146470D01*
X73810Y147677D01*
X72448Y148840D01*
X72032Y149095D01*
X70921Y149776D01*
X69266Y150461D01*
X68000Y150765D01*
X67525Y150879D01*
X65739Y151020D01*
Y151012D01*
X56792D01*
Y152559D01*
X52227D01*
X50838Y154922D01*
X51385Y155905D01*
X53937D01*
Y165926D01*
X53937Y167717D01*
X56063Y168288D01*
X62048D01*
X64173Y167717D01*
Y167323D01*
X72047D01*
Y167717D01*
X74173Y168288D01*
X76772D01*
X77156Y168364D01*
X77481Y168582D01*
X78621Y168743D01*
X78859D01*
X79999Y168582D01*
D02*
G37*
G36*
X371758Y232855D02*
X371187Y232186D01*
X370102Y230416D01*
X369307Y228498D01*
X368823Y226479D01*
X368660Y224410D01*
X368823Y222340D01*
X369307Y220321D01*
X370102Y218403D01*
X371187Y216633D01*
X372535Y215055D01*
X374113Y213706D01*
X375884Y212622D01*
X377801Y211827D01*
X379820Y211343D01*
X381890Y211180D01*
X383959Y211343D01*
X385978Y211827D01*
X387896Y212622D01*
X389666Y213706D01*
X390335Y214278D01*
X392697Y213189D01*
Y23032D01*
X390335Y21943D01*
X389666Y22514D01*
X387896Y23599D01*
X385978Y24393D01*
X383959Y24878D01*
X381890Y25041D01*
X379820Y24878D01*
X377801Y24393D01*
X375884Y23599D01*
X374113Y22514D01*
X372535Y21166D01*
X371187Y19587D01*
X370102Y17817D01*
X369307Y15899D01*
X368823Y13881D01*
X368660Y11811D01*
X368823Y9741D01*
X369307Y7723D01*
X370102Y5805D01*
X371187Y4035D01*
X371758Y3366D01*
X370669Y1003D01*
X358832D01*
X358166Y3366D01*
X358518Y3581D01*
X360167Y4990D01*
X361576Y6639D01*
X362709Y8489D01*
X363539Y10492D01*
X364017Y12484D01*
X364046Y12601D01*
X364216Y14764D01*
X364216D01*
Y24114D01*
X364201Y24229D01*
X364336Y25257D01*
X364777Y26323D01*
X365479Y27237D01*
X366394Y27939D01*
X366461Y27967D01*
X368602Y28499D01*
Y28499D01*
X370842Y28675D01*
X373026Y29200D01*
X375102Y30059D01*
X377017Y31233D01*
X378725Y32692D01*
X380184Y34400D01*
X381358Y36316D01*
X382218Y38391D01*
X382742Y40576D01*
X382918Y42815D01*
X382916D01*
Y52165D01*
Y65945D01*
X382905Y66034D01*
X382761Y67860D01*
X382313Y69728D01*
X381577Y71503D01*
X380574Y73141D01*
X379326Y74602D01*
X377865Y75849D01*
X376227Y76853D01*
X374452Y77588D01*
X372585Y78037D01*
X370759Y78180D01*
X370669Y78192D01*
X361880D01*
X360827Y80118D01*
X360827Y80554D01*
Y83760D01*
X356299D01*
X351772D01*
Y80118D01*
X351772D01*
X352394Y77756D01*
X352040Y77362D01*
X351772D01*
Y75158D01*
X351505Y74513D01*
X351336Y73228D01*
X351505Y71944D01*
X351772Y71299D01*
X351772Y69095D01*
X349891Y67933D01*
X349763D01*
X347638Y68504D01*
X347638Y70295D01*
Y80315D01*
X341948D01*
X337584Y84678D01*
X337590Y84684D01*
X336228Y85847D01*
X335812Y86102D01*
X334701Y86783D01*
X333047Y87468D01*
X331780Y87773D01*
X331305Y87887D01*
X329520Y88027D01*
Y88019D01*
X326279D01*
Y89567D01*
X321949D01*
X319980Y89567D01*
X317618Y89567D01*
X315471D01*
X312485Y92553D01*
X312491Y92558D01*
X311129Y93722D01*
X310712Y93977D01*
X309602Y94657D01*
X307947Y95343D01*
X306680Y95647D01*
X306206Y95761D01*
X304420Y95901D01*
Y95893D01*
X218798D01*
X218771Y95888D01*
X217535Y96009D01*
X216320Y96378D01*
X215200Y96977D01*
X214218Y97782D01*
X213413Y98764D01*
X212814Y99884D01*
X212600Y100590D01*
X213170Y101762D01*
X214469Y102952D01*
X215255D01*
Y106101D01*
X213483D01*
Y106594D01*
X212991D01*
Y110235D01*
X194231D01*
X191870Y110236D01*
X191710Y111857D01*
X191527Y112462D01*
X191237Y113415D01*
X190470Y114852D01*
X189436Y116111D01*
X188728Y116692D01*
X188487Y117736D01*
Y118485D01*
X188728Y119528D01*
X189436Y120110D01*
X190470Y121369D01*
X191237Y122805D01*
X191710Y124364D01*
X191870Y125983D01*
X192519D01*
Y129625D01*
X193503D01*
Y125983D01*
X215255D01*
Y133267D01*
X216425Y135144D01*
X216839Y135316D01*
X217520Y135406D01*
Y135406D01*
X299696D01*
Y135398D01*
X301482Y135538D01*
X301957Y135652D01*
X303223Y135957D01*
X304878Y136642D01*
X305989Y137322D01*
X306405Y137578D01*
X307767Y138741D01*
X307761Y138747D01*
X315668Y146653D01*
X319783Y146653D01*
X322145Y146653D01*
X326476D01*
Y152559D01*
X325224D01*
Y155905D01*
X329528D01*
Y165926D01*
X329528Y167717D01*
X331653Y168288D01*
X337638D01*
X339764Y167717D01*
Y167323D01*
X347638D01*
Y167717D01*
X349763Y168288D01*
X349891D01*
X351772Y167126D01*
X351772Y166180D01*
Y164922D01*
X351505Y164277D01*
X351336Y162992D01*
X351505Y161707D01*
X351772Y161063D01*
Y158858D01*
X352040D01*
X352394Y158465D01*
X351772Y156102D01*
X351772D01*
Y152461D01*
X360827D01*
Y155666D01*
X360827Y156102D01*
X361880Y158028D01*
X370669D01*
X370759Y158040D01*
X372585Y158184D01*
X374452Y158632D01*
X376227Y159368D01*
X377865Y160371D01*
X379326Y161619D01*
X380574Y163080D01*
X381577Y164718D01*
X382004Y165748D01*
X382480D01*
Y167191D01*
X382761Y168360D01*
X382905Y170186D01*
X382916Y170276D01*
Y184055D01*
Y193405D01*
X382918D01*
X382742Y195645D01*
X382218Y197829D01*
X381358Y199905D01*
X380184Y201820D01*
X378725Y203528D01*
X377017Y204987D01*
X375102Y206161D01*
X373026Y207021D01*
X370842Y207545D01*
X368602Y207721D01*
X368602Y207721D01*
X366461Y208254D01*
X366394Y208281D01*
X365479Y208983D01*
X364777Y209898D01*
X364336Y210963D01*
X364201Y211991D01*
X364216Y212106D01*
Y221457D01*
X364216D01*
X364046Y223619D01*
X364017Y223737D01*
X363539Y225728D01*
X362709Y227732D01*
X361576Y229581D01*
X360167Y231230D01*
X358518Y232639D01*
X358166Y232855D01*
X358832Y235217D01*
X370669D01*
X371758Y232855D01*
D02*
G37*
G36*
X313287Y85777D02*
Y83661D01*
X317618D01*
X319586Y83661D01*
X321949Y83661D01*
X326279D01*
Y85209D01*
X329520D01*
X329582Y85221D01*
X331200Y85062D01*
X332816Y84572D01*
X334305Y83776D01*
X335562Y82744D01*
X335597Y82692D01*
X339764Y78525D01*
Y70295D01*
X339764Y68504D01*
X337638Y67933D01*
X331653D01*
X329528Y68504D01*
Y69095D01*
X321654D01*
Y68504D01*
X319528Y67933D01*
X316929D01*
X316545Y67856D01*
X316219Y67639D01*
X315080Y67477D01*
X314842D01*
X313702Y67639D01*
X313376Y67856D01*
X312992Y67933D01*
X310393D01*
X308268Y68504D01*
X308268Y70295D01*
Y80315D01*
X307507D01*
Y83661D01*
X310531D01*
Y84777D01*
X312893Y86040D01*
X313287Y85777D01*
D02*
G37*
G36*
X292321Y90968D02*
X293937Y90478D01*
X295426Y89682D01*
X296683Y88650D01*
X296718Y88597D01*
X297539Y87776D01*
Y83661D01*
X302104D01*
X303493Y81299D01*
X302946Y80315D01*
X300394D01*
Y70295D01*
X300394Y68504D01*
X298268Y67933D01*
X292283D01*
X290158Y68504D01*
Y69095D01*
X282283D01*
Y68504D01*
X280158Y67933D01*
X277559D01*
X277175Y67856D01*
X276850Y67639D01*
X275710Y67477D01*
X275471D01*
X274332Y67639D01*
X274006Y67856D01*
X273622Y67933D01*
X271023D01*
X268898Y68504D01*
X268898Y70295D01*
Y80315D01*
X268137D01*
Y83661D01*
X270275D01*
Y88753D01*
X270275Y89567D01*
X271996Y91115D01*
X290641D01*
X290703Y91127D01*
X292321Y90968D01*
D02*
G37*
G36*
X254034Y88999D02*
X255649Y88509D01*
X257139Y87713D01*
X257283Y87594D01*
Y83661D01*
X262708Y83661D01*
X264402Y81638D01*
X263977Y80315D01*
X261024D01*
Y70295D01*
X261024Y68504D01*
X258898Y67933D01*
X252913D01*
X250787Y68504D01*
Y69095D01*
X242913D01*
Y68504D01*
X240788Y67933D01*
X238189D01*
X237805Y67856D01*
X237479Y67639D01*
X236339Y67477D01*
X236101D01*
X234962Y67639D01*
X234636Y67856D01*
X234252Y67933D01*
X231653D01*
X229528Y68504D01*
X229528Y70295D01*
Y80315D01*
X228767D01*
Y83661D01*
X230905D01*
Y89146D01*
X252353D01*
X252415Y89159D01*
X254034Y88999D01*
D02*
G37*
G36*
X203527Y90700D02*
X204014Y89905D01*
X205177Y88544D01*
X206539Y87380D01*
X208066Y86445D01*
X209720Y85759D01*
X210987Y85455D01*
X211462Y85341D01*
X213247Y85201D01*
Y85209D01*
X217913D01*
Y83661D01*
X223338D01*
X225031Y81638D01*
X224607Y80315D01*
X221654D01*
Y70295D01*
X221654Y68504D01*
X219528Y67933D01*
X213543D01*
X211417Y68504D01*
Y69095D01*
X203543D01*
Y68504D01*
X201418Y67933D01*
X198819D01*
X198435Y67856D01*
X198109Y67639D01*
X196969Y67477D01*
X196731D01*
X195591Y67639D01*
X195266Y67856D01*
X194882Y67933D01*
X192283D01*
X190157Y68504D01*
X190157Y70295D01*
Y80315D01*
X185567D01*
X185522Y80346D01*
X184951Y81306D01*
X184993Y81654D01*
X186299Y83662D01*
X191536D01*
X191929Y85188D01*
X193916Y85383D01*
X194186Y85465D01*
X195827Y85963D01*
X197588Y86904D01*
X199132Y88171D01*
X200398Y89714D01*
X200868Y90594D01*
X201379Y90788D01*
X203251Y90798D01*
X203527Y90700D01*
D02*
G37*
G36*
X178544Y83662D02*
X180286Y83050D01*
X180403Y81858D01*
X180751Y80712D01*
X181316Y79655D01*
X182076Y78729D01*
X182283Y76453D01*
Y70295D01*
X182283Y68504D01*
X180158Y67933D01*
X174173D01*
X172047Y68504D01*
Y69095D01*
X164173D01*
Y68504D01*
X162048Y67933D01*
X159449D01*
X159065Y67856D01*
X158739Y67639D01*
X157599Y67477D01*
X157361D01*
X156221Y67639D01*
X155896Y67856D01*
X155512Y67933D01*
X152913D01*
X150787Y68504D01*
X150787Y70295D01*
Y80315D01*
X150027D01*
Y83661D01*
X152165D01*
Y88753D01*
X178544D01*
Y83662D01*
D02*
G37*
G36*
X139173Y89567D02*
Y83661D01*
X144598D01*
X146291Y81638D01*
X145867Y80315D01*
X142913D01*
Y70295D01*
X142913Y68504D01*
X140788Y67933D01*
X134803D01*
X132677Y68504D01*
Y69095D01*
X124803D01*
Y68504D01*
X122678Y67933D01*
X120079D01*
X119695Y67856D01*
X119369Y67639D01*
X118229Y67477D01*
X117991D01*
X116851Y67639D01*
X116526Y67856D01*
X116142Y67933D01*
X113543D01*
X111417Y68504D01*
X111417Y70295D01*
Y80315D01*
X110657D01*
Y83661D01*
X112795D01*
Y88220D01*
X112795Y89567D01*
X114842Y90327D01*
X137126D01*
X139173Y89567D01*
D02*
G37*
G36*
X75205Y92690D02*
X101670D01*
X102949Y90327D01*
X102495Y89632D01*
X101886Y89567D01*
X99803D01*
Y83661D01*
X105227D01*
X106921Y81638D01*
X106497Y80315D01*
X103543D01*
Y70295D01*
X103543Y68504D01*
X101418Y67933D01*
X95433D01*
X93307Y68504D01*
Y69095D01*
X85433D01*
Y68504D01*
X83307Y67933D01*
X80709D01*
X80325Y67856D01*
X79999Y67639D01*
X78859Y67477D01*
X78621D01*
X77481Y67639D01*
X77156Y67856D01*
X76772Y67933D01*
X74173D01*
X72047Y68504D01*
X72047Y70295D01*
Y80315D01*
X71287D01*
Y83661D01*
X73425D01*
Y89567D01*
X73425D01*
X73159Y91929D01*
X73911Y92581D01*
X75143Y92702D01*
X75205Y92690D01*
D02*
G37*
G36*
X1137613Y-64032D02*
X1137326D01*
Y-64318D01*
X1137040D01*
Y-64605D01*
Y-64891D01*
X1136754D01*
Y-65177D01*
X1136467D01*
Y-65464D01*
X1136181D01*
Y-65750D01*
Y-66036D01*
X1135895D01*
Y-66322D01*
X1135608D01*
Y-66609D01*
X1135322D01*
Y-66895D01*
X1135036D01*
Y-67181D01*
Y-67468D01*
X1134750D01*
Y-67754D01*
X1134463D01*
Y-68040D01*
X1134177D01*
Y-68327D01*
Y-68613D01*
X1133891D01*
Y-68899D01*
X1133604D01*
Y-69186D01*
X1133318D01*
Y-69472D01*
X1133032D01*
Y-69758D01*
Y-70044D01*
X1132745D01*
Y-70331D01*
X1132459D01*
Y-70617D01*
X1132173D01*
Y-70903D01*
Y-71190D01*
X1131886D01*
Y-71476D01*
X1131600D01*
Y-71762D01*
X1131314D01*
Y-72049D01*
Y-72335D01*
X1131028D01*
Y-72621D01*
X1130741D01*
Y-72908D01*
X1130455D01*
Y-73194D01*
X1130169D01*
Y-73480D01*
Y-73767D01*
X1129882D01*
Y-74053D01*
X1129596D01*
Y-74339D01*
X1129310D01*
Y-74625D01*
Y-74912D01*
X1129023D01*
Y-75198D01*
X1128737D01*
Y-75485D01*
X1128451D01*
Y-75771D01*
Y-76057D01*
X1128164D01*
Y-76343D01*
X1127878D01*
Y-76630D01*
X1127592D01*
Y-76916D01*
X1127306D01*
Y-77202D01*
Y-77489D01*
X1127019D01*
Y-77775D01*
X1126733D01*
Y-78061D01*
X1126447D01*
Y-78348D01*
Y-78634D01*
X1126160D01*
Y-78920D01*
X1125874D01*
Y-79207D01*
X1125588D01*
Y-79493D01*
Y-79779D01*
X1125301D01*
Y-80066D01*
X1125015D01*
Y-80352D01*
X1124729D01*
Y-80638D01*
X1124442D01*
Y-80924D01*
Y-81211D01*
X1124156D01*
Y-81497D01*
X1123870D01*
Y-81783D01*
X1123583D01*
Y-82070D01*
Y-82356D01*
X1123297D01*
Y-82642D01*
X1123011D01*
Y-82929D01*
X1122725D01*
Y-83215D01*
X1122438D01*
Y-83501D01*
Y-83788D01*
X1122725D01*
Y-84074D01*
Y-84360D01*
X1123011D01*
Y-84646D01*
Y-84933D01*
X1123297D01*
Y-85219D01*
X1123583D01*
Y-85505D01*
Y-85792D01*
X1123870D01*
Y-86078D01*
Y-86364D01*
X1124156D01*
Y-86651D01*
Y-86937D01*
X1124442D01*
Y-87223D01*
Y-87510D01*
X1124729D01*
Y-87796D01*
Y-88082D01*
X1125015D01*
Y-88369D01*
Y-88655D01*
X1125301D01*
Y-88941D01*
Y-89227D01*
X1125588D01*
Y-89514D01*
Y-89800D01*
X1125874D01*
Y-90086D01*
X1126160D01*
Y-90373D01*
Y-90659D01*
X1126447D01*
Y-90945D01*
Y-91232D01*
X1126733D01*
Y-91518D01*
Y-91804D01*
X1127019D01*
Y-92091D01*
Y-92377D01*
X1127306D01*
Y-92663D01*
Y-92950D01*
X1127592D01*
Y-93236D01*
Y-93522D01*
X1127878D01*
Y-93809D01*
Y-94095D01*
X1128164D01*
Y-94381D01*
X1128451D01*
Y-94667D01*
Y-94954D01*
X1128737D01*
Y-95240D01*
Y-95526D01*
X1129023D01*
Y-95813D01*
Y-96099D01*
X1129310D01*
Y-96385D01*
Y-96672D01*
X1129596D01*
Y-96958D01*
Y-97244D01*
X1129882D01*
Y-97531D01*
Y-97817D01*
X1130169D01*
Y-98103D01*
Y-98390D01*
X1130455D01*
Y-98676D01*
X1130741D01*
Y-98962D01*
Y-99248D01*
X1131028D01*
Y-99535D01*
Y-99821D01*
X1131314D01*
Y-100107D01*
X1116139D01*
Y-99821D01*
X1115853D01*
Y-99535D01*
Y-99248D01*
Y-98962D01*
X1115567D01*
Y-98676D01*
Y-98390D01*
Y-98103D01*
X1115280D01*
Y-97817D01*
Y-97531D01*
X1114994D01*
Y-97244D01*
Y-96958D01*
Y-96672D01*
X1114708D01*
Y-96385D01*
Y-96099D01*
Y-95813D01*
X1114421D01*
Y-95526D01*
Y-95240D01*
X1114135D01*
Y-94954D01*
Y-94667D01*
Y-94381D01*
X1113849D01*
Y-94095D01*
Y-93809D01*
Y-93522D01*
X1113562D01*
Y-93236D01*
Y-92950D01*
Y-92663D01*
X1113276D01*
Y-92377D01*
X1112704D01*
Y-92663D01*
Y-92950D01*
X1112417D01*
Y-93236D01*
X1112131D01*
Y-93522D01*
Y-93809D01*
X1111845D01*
Y-94095D01*
X1111558D01*
Y-94381D01*
Y-94667D01*
X1111272D01*
Y-94954D01*
X1110986D01*
Y-95240D01*
Y-95526D01*
X1110699D01*
Y-95813D01*
X1110413D01*
Y-96099D01*
X1110127D01*
Y-96385D01*
Y-96672D01*
X1109840D01*
Y-96958D01*
X1109554D01*
Y-97244D01*
Y-97531D01*
X1109268D01*
Y-97817D01*
X1108981D01*
Y-98103D01*
Y-98390D01*
X1108695D01*
Y-98676D01*
X1108409D01*
Y-98962D01*
Y-99248D01*
X1108123D01*
Y-99535D01*
X1107836D01*
Y-99821D01*
Y-100107D01*
X1091803D01*
Y-99821D01*
X1092089D01*
Y-99535D01*
X1092375D01*
Y-99248D01*
X1092662D01*
Y-98962D01*
X1092948D01*
Y-98676D01*
Y-98390D01*
X1093234D01*
Y-98103D01*
X1093521D01*
Y-97817D01*
X1093807D01*
Y-97531D01*
X1094093D01*
Y-97244D01*
Y-96958D01*
X1094380D01*
Y-96672D01*
X1094666D01*
Y-96385D01*
X1094952D01*
Y-96099D01*
Y-95813D01*
X1095238D01*
Y-95526D01*
X1095525D01*
Y-95240D01*
X1095811D01*
Y-94954D01*
X1096097D01*
Y-94667D01*
Y-94381D01*
X1096384D01*
Y-94095D01*
X1096670D01*
Y-93809D01*
X1096956D01*
Y-93522D01*
X1097243D01*
Y-93236D01*
Y-92950D01*
X1097529D01*
Y-92663D01*
X1097815D01*
Y-92377D01*
X1098102D01*
Y-92091D01*
Y-91804D01*
X1098388D01*
Y-91518D01*
X1098674D01*
Y-91232D01*
X1098960D01*
Y-90945D01*
X1099247D01*
Y-90659D01*
Y-90373D01*
X1099533D01*
Y-90086D01*
X1099819D01*
Y-89800D01*
X1100106D01*
Y-89514D01*
Y-89227D01*
X1100392D01*
Y-88941D01*
X1100678D01*
Y-88655D01*
X1100965D01*
Y-88369D01*
X1101251D01*
Y-88082D01*
Y-87796D01*
X1101537D01*
Y-87510D01*
X1101824D01*
Y-87223D01*
X1102110D01*
Y-86937D01*
Y-86651D01*
X1102396D01*
Y-86364D01*
X1102683D01*
Y-86078D01*
X1102969D01*
Y-85792D01*
X1103255D01*
Y-85505D01*
Y-85219D01*
X1103541D01*
Y-84933D01*
X1103828D01*
Y-84646D01*
X1104114D01*
Y-84360D01*
X1104400D01*
Y-84074D01*
Y-83788D01*
X1104687D01*
Y-83501D01*
X1104973D01*
Y-83215D01*
X1105259D01*
Y-82929D01*
Y-82642D01*
X1105546D01*
Y-82356D01*
X1105832D01*
Y-82070D01*
X1106118D01*
Y-81783D01*
X1106405D01*
Y-81497D01*
Y-81211D01*
X1106691D01*
Y-80924D01*
Y-80638D01*
Y-80352D01*
X1106405D01*
Y-80066D01*
X1106118D01*
Y-79779D01*
Y-79493D01*
X1105832D01*
Y-79207D01*
Y-78920D01*
X1105546D01*
Y-78634D01*
Y-78348D01*
X1105259D01*
Y-78061D01*
Y-77775D01*
X1104973D01*
Y-77489D01*
Y-77202D01*
X1104687D01*
Y-76916D01*
Y-76630D01*
X1104400D01*
Y-76343D01*
X1104114D01*
Y-76057D01*
Y-75771D01*
X1103828D01*
Y-75485D01*
Y-75198D01*
X1103541D01*
Y-74912D01*
Y-74625D01*
X1103255D01*
Y-74339D01*
Y-74053D01*
X1102969D01*
Y-73767D01*
Y-73480D01*
X1102683D01*
Y-73194D01*
Y-72908D01*
X1102396D01*
Y-72621D01*
X1102110D01*
Y-72335D01*
Y-72049D01*
X1101824D01*
Y-71762D01*
Y-71476D01*
X1101537D01*
Y-71190D01*
Y-70903D01*
X1101251D01*
Y-70617D01*
Y-70331D01*
X1100965D01*
Y-70044D01*
Y-69758D01*
X1100678D01*
Y-69472D01*
Y-69186D01*
X1100392D01*
Y-68899D01*
Y-68613D01*
X1100106D01*
Y-68327D01*
X1099819D01*
Y-68040D01*
Y-67754D01*
X1099533D01*
Y-67468D01*
Y-67181D01*
X1099247D01*
Y-66895D01*
Y-66609D01*
X1098960D01*
Y-66322D01*
Y-66036D01*
X1098674D01*
Y-65750D01*
Y-65464D01*
X1098388D01*
Y-65177D01*
Y-64891D01*
X1098102D01*
Y-64605D01*
X1097815D01*
Y-64318D01*
Y-64032D01*
X1097529D01*
Y-63746D01*
X1113276D01*
Y-64032D01*
X1113562D01*
Y-64318D01*
Y-64605D01*
Y-64891D01*
X1113849D01*
Y-65177D01*
Y-65464D01*
Y-65750D01*
X1114135D01*
Y-66036D01*
Y-66322D01*
Y-66609D01*
X1114421D01*
Y-66895D01*
Y-67181D01*
Y-67468D01*
X1114708D01*
Y-67754D01*
Y-68040D01*
Y-68327D01*
X1114994D01*
Y-68613D01*
Y-68899D01*
Y-69186D01*
X1115280D01*
Y-69472D01*
Y-69758D01*
Y-70044D01*
X1115567D01*
Y-70331D01*
Y-70617D01*
Y-70903D01*
X1115853D01*
Y-71190D01*
Y-71476D01*
Y-71762D01*
Y-72049D01*
X1116426D01*
Y-71762D01*
X1116712D01*
Y-71476D01*
X1116998D01*
Y-71190D01*
Y-70903D01*
X1117284D01*
Y-70617D01*
X1117571D01*
Y-70331D01*
Y-70044D01*
X1117857D01*
Y-69758D01*
X1118143D01*
Y-69472D01*
Y-69186D01*
X1118430D01*
Y-68899D01*
X1118716D01*
Y-68613D01*
Y-68327D01*
X1119002D01*
Y-68040D01*
X1119289D01*
Y-67754D01*
Y-67468D01*
X1119575D01*
Y-67181D01*
X1119861D01*
Y-66895D01*
Y-66609D01*
X1120148D01*
Y-66322D01*
X1120434D01*
Y-66036D01*
Y-65750D01*
X1120720D01*
Y-65464D01*
X1121007D01*
Y-65177D01*
Y-64891D01*
X1121293D01*
Y-64605D01*
X1121579D01*
Y-64318D01*
Y-64032D01*
X1121865D01*
Y-63746D01*
X1137613D01*
Y-64032D01*
D02*
G37*
G36*
X1004477Y-50003D02*
X1006195D01*
Y-50289D01*
X1007054D01*
Y-50575D01*
X1007913D01*
Y-50862D01*
X1008772D01*
Y-51148D01*
X1009345D01*
Y-51434D01*
X1009631D01*
Y-51720D01*
X1010203D01*
Y-52007D01*
X1010490D01*
Y-52293D01*
X1011062D01*
Y-52579D01*
X1011349D01*
Y-52866D01*
X1011635D01*
Y-53152D01*
X1011921D01*
Y-53438D01*
X1012208D01*
Y-53725D01*
X1012494D01*
Y-54011D01*
X1012780D01*
Y-54297D01*
Y-54584D01*
X1013067D01*
Y-54870D01*
X1013353D01*
Y-55156D01*
Y-55443D01*
X1013639D01*
Y-55729D01*
X1013926D01*
Y-56015D01*
Y-56301D01*
X1014212D01*
Y-56588D01*
Y-56874D01*
Y-57161D01*
X1014498D01*
Y-57447D01*
Y-57733D01*
Y-58019D01*
X1014785D01*
Y-58306D01*
Y-58592D01*
Y-58878D01*
Y-59165D01*
X1015071D01*
Y-59451D01*
Y-59737D01*
Y-60024D01*
Y-60310D01*
Y-60596D01*
X1015357D01*
Y-60883D01*
Y-61169D01*
Y-61455D01*
Y-61742D01*
Y-62028D01*
Y-62314D01*
Y-62600D01*
Y-62887D01*
Y-63173D01*
Y-63459D01*
Y-63746D01*
Y-64032D01*
Y-64318D01*
Y-64605D01*
Y-64891D01*
Y-65177D01*
Y-65464D01*
Y-65750D01*
Y-66036D01*
Y-66322D01*
X1015071D01*
Y-66609D01*
Y-66895D01*
Y-67181D01*
Y-67468D01*
Y-67754D01*
Y-68040D01*
Y-68327D01*
X1014785D01*
Y-68613D01*
Y-68899D01*
Y-69186D01*
Y-69472D01*
Y-69758D01*
X1014498D01*
Y-70044D01*
Y-70331D01*
Y-70617D01*
Y-70903D01*
Y-71190D01*
X1014212D01*
Y-71476D01*
Y-71762D01*
Y-72049D01*
X1013926D01*
Y-72335D01*
Y-72621D01*
Y-72908D01*
Y-73194D01*
X1013639D01*
Y-73480D01*
Y-73767D01*
Y-74053D01*
X1013353D01*
Y-74339D01*
Y-74625D01*
X1013067D01*
Y-74912D01*
Y-75198D01*
Y-75485D01*
X1012780D01*
Y-75771D01*
Y-76057D01*
X1012494D01*
Y-76343D01*
Y-76630D01*
X1012208D01*
Y-76916D01*
Y-77202D01*
X1011921D01*
Y-77489D01*
X1011635D01*
Y-77775D01*
Y-78061D01*
X1011349D01*
Y-78348D01*
X1011062D01*
Y-78634D01*
X1010776D01*
Y-78920D01*
Y-79207D01*
X1010490D01*
Y-79493D01*
X1010203D01*
Y-79779D01*
X1009917D01*
Y-80066D01*
X1009631D01*
Y-80352D01*
X1009345D01*
Y-80638D01*
X1008772D01*
Y-80924D01*
X1008486D01*
Y-81211D01*
X1007913D01*
Y-81497D01*
X1007627D01*
Y-81783D01*
X1007054D01*
Y-82070D01*
X1006195D01*
Y-82356D01*
X1005336D01*
Y-82642D01*
X1004477D01*
Y-82929D01*
X1002759D01*
Y-83215D01*
X997606D01*
Y-82929D01*
X995029D01*
Y-82642D01*
X993025D01*
Y-82356D01*
X991593D01*
Y-82070D01*
X990162D01*
Y-81783D01*
X988730D01*
Y-82070D01*
Y-82356D01*
Y-82642D01*
Y-82929D01*
Y-83215D01*
Y-83501D01*
Y-83788D01*
X988444D01*
Y-84074D01*
Y-84360D01*
Y-84646D01*
Y-84933D01*
Y-85219D01*
Y-85505D01*
X988157D01*
Y-85792D01*
Y-86078D01*
Y-86364D01*
Y-86651D01*
Y-86937D01*
Y-87223D01*
X987871D01*
Y-87510D01*
Y-87796D01*
Y-88082D01*
Y-88369D01*
Y-88655D01*
Y-88941D01*
Y-89227D01*
X987585D01*
Y-89514D01*
Y-89800D01*
Y-90086D01*
Y-90373D01*
Y-90659D01*
Y-90945D01*
X987298D01*
Y-91232D01*
Y-91518D01*
Y-91804D01*
Y-92091D01*
Y-92377D01*
Y-92663D01*
X987012D01*
Y-92950D01*
Y-93236D01*
Y-93522D01*
Y-93809D01*
Y-94095D01*
Y-94381D01*
Y-94667D01*
X986726D01*
Y-94954D01*
Y-95240D01*
Y-95526D01*
Y-95813D01*
Y-96099D01*
Y-96385D01*
X986440D01*
Y-96672D01*
Y-96958D01*
Y-97244D01*
Y-97531D01*
Y-97817D01*
Y-98103D01*
X986153D01*
Y-98390D01*
Y-98676D01*
Y-98962D01*
Y-99248D01*
Y-99535D01*
Y-99821D01*
Y-100107D01*
X972696D01*
Y-99821D01*
X972983D01*
Y-99535D01*
Y-99248D01*
Y-98962D01*
Y-98676D01*
Y-98390D01*
X973269D01*
Y-98103D01*
Y-97817D01*
Y-97531D01*
Y-97244D01*
Y-96958D01*
Y-96672D01*
Y-96385D01*
X973555D01*
Y-96099D01*
Y-95813D01*
Y-95526D01*
Y-95240D01*
Y-94954D01*
Y-94667D01*
X973842D01*
Y-94381D01*
Y-94095D01*
Y-93809D01*
Y-93522D01*
Y-93236D01*
Y-92950D01*
X974128D01*
Y-92663D01*
Y-92377D01*
Y-92091D01*
Y-91804D01*
Y-91518D01*
Y-91232D01*
Y-90945D01*
X974414D01*
Y-90659D01*
Y-90373D01*
Y-90086D01*
Y-89800D01*
Y-89514D01*
Y-89227D01*
X974701D01*
Y-88941D01*
Y-88655D01*
Y-88369D01*
Y-88082D01*
Y-87796D01*
Y-87510D01*
X974987D01*
Y-87223D01*
Y-86937D01*
Y-86651D01*
Y-86364D01*
Y-86078D01*
Y-85792D01*
X975273D01*
Y-85505D01*
Y-85219D01*
Y-84933D01*
Y-84646D01*
Y-84360D01*
Y-84074D01*
Y-83788D01*
X975560D01*
Y-83501D01*
Y-83215D01*
Y-82929D01*
Y-82642D01*
Y-82356D01*
Y-82070D01*
X975846D01*
Y-81783D01*
Y-81497D01*
Y-81211D01*
Y-80924D01*
Y-80638D01*
Y-80352D01*
X976132D01*
Y-80066D01*
Y-79779D01*
Y-79493D01*
Y-79207D01*
Y-78920D01*
Y-78634D01*
X976419D01*
Y-78348D01*
Y-78061D01*
Y-77775D01*
Y-77489D01*
Y-77202D01*
Y-76916D01*
Y-76630D01*
X976705D01*
Y-76343D01*
Y-76057D01*
Y-75771D01*
Y-75485D01*
Y-75198D01*
Y-74912D01*
X976991D01*
Y-74625D01*
Y-74339D01*
Y-74053D01*
Y-73767D01*
Y-73480D01*
Y-73194D01*
X977277D01*
Y-72908D01*
Y-72621D01*
Y-72335D01*
Y-72049D01*
Y-71762D01*
Y-71476D01*
Y-71190D01*
X977564D01*
Y-70903D01*
Y-70617D01*
Y-70331D01*
Y-70044D01*
Y-69758D01*
Y-69472D01*
X977850D01*
Y-69186D01*
Y-68899D01*
Y-68613D01*
Y-68327D01*
Y-68040D01*
Y-67754D01*
X978137D01*
Y-67468D01*
Y-67181D01*
Y-66895D01*
Y-66609D01*
Y-66322D01*
Y-66036D01*
X978423D01*
Y-65750D01*
Y-65464D01*
Y-65177D01*
Y-64891D01*
Y-64605D01*
Y-64318D01*
Y-64032D01*
X978709D01*
Y-63746D01*
Y-63459D01*
Y-63173D01*
Y-62887D01*
Y-62600D01*
Y-62314D01*
X978995D01*
Y-62028D01*
Y-61742D01*
Y-61455D01*
Y-61169D01*
Y-60883D01*
Y-60596D01*
X979282D01*
Y-60310D01*
Y-60024D01*
Y-59737D01*
Y-59451D01*
Y-59165D01*
Y-58878D01*
Y-58592D01*
X979568D01*
Y-58306D01*
Y-58019D01*
Y-57733D01*
Y-57447D01*
Y-57161D01*
Y-56874D01*
X979854D01*
Y-56588D01*
Y-56301D01*
Y-56015D01*
Y-55729D01*
Y-55443D01*
Y-55156D01*
X980141D01*
Y-54870D01*
Y-54584D01*
Y-54297D01*
Y-54011D01*
Y-53725D01*
Y-53438D01*
Y-53152D01*
X980427D01*
Y-52866D01*
Y-52579D01*
Y-52293D01*
Y-52007D01*
Y-51720D01*
Y-51434D01*
X980713D01*
Y-51148D01*
Y-50862D01*
Y-50575D01*
Y-50289D01*
Y-50003D01*
Y-49716D01*
X1004477D01*
Y-50003D01*
D02*
G37*
G36*
X1093521Y-64032D02*
Y-64318D01*
Y-64605D01*
Y-64891D01*
Y-65177D01*
Y-65464D01*
Y-65750D01*
Y-66036D01*
Y-66322D01*
Y-66609D01*
Y-66895D01*
Y-67181D01*
Y-67468D01*
Y-67754D01*
Y-68040D01*
Y-68327D01*
Y-68613D01*
Y-68899D01*
Y-69186D01*
Y-69472D01*
Y-69758D01*
X1093234D01*
Y-70044D01*
Y-70331D01*
Y-70617D01*
Y-70903D01*
Y-71190D01*
X1092948D01*
Y-71476D01*
Y-71762D01*
Y-72049D01*
Y-72335D01*
X1092662D01*
Y-72621D01*
Y-72908D01*
Y-73194D01*
Y-73480D01*
X1092375D01*
Y-73767D01*
Y-74053D01*
Y-74339D01*
X1092089D01*
Y-74625D01*
Y-74912D01*
Y-75198D01*
X1091803D01*
Y-75485D01*
Y-75771D01*
Y-76057D01*
X1091516D01*
Y-76343D01*
Y-76630D01*
Y-76916D01*
X1091230D01*
Y-77202D01*
Y-77489D01*
X1090944D01*
Y-77775D01*
Y-78061D01*
X1090657D01*
Y-78348D01*
Y-78634D01*
Y-78920D01*
X1090371D01*
Y-79207D01*
Y-79493D01*
X1090085D01*
Y-79779D01*
Y-80066D01*
Y-80352D01*
X1089799D01*
Y-80638D01*
Y-80924D01*
X1089512D01*
Y-81211D01*
Y-81497D01*
Y-81783D01*
X1089226D01*
Y-82070D01*
Y-82356D01*
X1088939D01*
Y-82642D01*
Y-82929D01*
Y-83215D01*
X1088653D01*
Y-83501D01*
Y-83788D01*
X1088367D01*
Y-84074D01*
Y-84360D01*
Y-84646D01*
X1088081D01*
Y-84933D01*
Y-85219D01*
X1087794D01*
Y-85505D01*
Y-85792D01*
Y-86078D01*
X1087508D01*
Y-86364D01*
Y-86651D01*
X1087222D01*
Y-86937D01*
Y-87223D01*
Y-87510D01*
X1086935D01*
Y-87796D01*
Y-88082D01*
X1086649D01*
Y-88369D01*
Y-88655D01*
Y-88941D01*
X1086363D01*
Y-89227D01*
Y-89514D01*
X1086076D01*
Y-89800D01*
Y-90086D01*
Y-90373D01*
X1085790D01*
Y-90659D01*
Y-90945D01*
X1085504D01*
Y-91232D01*
Y-91518D01*
Y-91804D01*
X1085217D01*
Y-92091D01*
Y-92377D01*
X1084931D01*
Y-92663D01*
Y-92950D01*
Y-93236D01*
X1084645D01*
Y-93522D01*
Y-93809D01*
X1084359D01*
Y-94095D01*
Y-94381D01*
Y-94667D01*
X1084072D01*
Y-94954D01*
Y-95240D01*
X1083786D01*
Y-95526D01*
Y-95813D01*
Y-96099D01*
X1083500D01*
Y-96385D01*
Y-96672D01*
X1083213D01*
Y-96958D01*
Y-97244D01*
Y-97531D01*
X1082927D01*
Y-97817D01*
Y-98103D01*
X1082641D01*
Y-98390D01*
Y-98676D01*
Y-98962D01*
X1082354D01*
Y-99248D01*
Y-99535D01*
X1082068D01*
Y-99821D01*
Y-100107D01*
Y-100394D01*
X1081782D01*
Y-100680D01*
Y-100966D01*
X1081495D01*
Y-101253D01*
Y-101539D01*
X1081209D01*
Y-101825D01*
Y-102112D01*
X1080923D01*
Y-102398D01*
Y-102684D01*
Y-102971D01*
X1080637D01*
Y-103257D01*
X1080350D01*
Y-103543D01*
Y-103829D01*
Y-104116D01*
X1080064D01*
Y-104402D01*
X1079778D01*
Y-104688D01*
Y-104975D01*
X1079491D01*
Y-105261D01*
Y-105547D01*
X1079205D01*
Y-105834D01*
Y-106120D01*
X1078919D01*
Y-106406D01*
Y-106693D01*
X1078632D01*
Y-106979D01*
X1078346D01*
Y-107265D01*
Y-107552D01*
X1078060D01*
Y-107838D01*
Y-108124D01*
X1077773D01*
Y-108410D01*
X1077487D01*
Y-108697D01*
X1077201D01*
Y-108983D01*
Y-109269D01*
X1076914D01*
Y-109556D01*
X1076628D01*
Y-109842D01*
Y-110128D01*
X1076342D01*
Y-110415D01*
X1076056D01*
Y-110701D01*
X1075769D01*
Y-110987D01*
Y-111274D01*
X1075483D01*
Y-111560D01*
X1075196D01*
Y-111846D01*
X1074910D01*
Y-112133D01*
X1074624D01*
Y-112419D01*
X1074338D01*
Y-112705D01*
Y-112991D01*
X1074051D01*
Y-113278D01*
X1073765D01*
Y-113564D01*
X1073479D01*
Y-113850D01*
X1073192D01*
Y-114137D01*
X1072906D01*
Y-114423D01*
X1072620D01*
Y-114709D01*
X1072333D01*
Y-114996D01*
X1071761D01*
Y-115282D01*
X1071474D01*
Y-115568D01*
X1071188D01*
Y-115855D01*
X1070902D01*
Y-116141D01*
X1070615D01*
Y-116427D01*
X1070043D01*
Y-116714D01*
X1069757D01*
Y-117000D01*
X1069184D01*
Y-117286D01*
X1068898D01*
Y-117572D01*
X1068325D01*
Y-117859D01*
X1068039D01*
Y-118145D01*
X1067466D01*
Y-118431D01*
X1066893D01*
Y-118718D01*
X1066321D01*
Y-119004D01*
X1065748D01*
Y-119290D01*
X1065176D01*
Y-119577D01*
X1064317D01*
Y-119863D01*
X1063744D01*
Y-120149D01*
X1062885D01*
Y-120436D01*
X1061740D01*
Y-120722D01*
X1060595D01*
Y-121008D01*
X1058877D01*
Y-121294D01*
X1056872D01*
Y-121581D01*
X1056586D01*
Y-121294D01*
Y-121008D01*
Y-120722D01*
Y-120436D01*
Y-120149D01*
Y-119863D01*
Y-119577D01*
Y-119290D01*
Y-119004D01*
Y-118718D01*
Y-118431D01*
Y-118145D01*
Y-117859D01*
Y-117572D01*
Y-117286D01*
Y-117000D01*
Y-116714D01*
Y-116427D01*
Y-116141D01*
Y-115855D01*
Y-115568D01*
Y-115282D01*
Y-114996D01*
Y-114709D01*
Y-114423D01*
Y-114137D01*
Y-113850D01*
Y-113564D01*
Y-113278D01*
Y-112991D01*
Y-112705D01*
Y-112419D01*
Y-112133D01*
X1057159D01*
Y-111846D01*
X1057731D01*
Y-111560D01*
X1058304D01*
Y-111274D01*
X1058877D01*
Y-110987D01*
X1059449D01*
Y-110701D01*
X1060022D01*
Y-110415D01*
X1060308D01*
Y-110128D01*
X1060881D01*
Y-109842D01*
X1061167D01*
Y-109556D01*
X1061740D01*
Y-109269D01*
X1062026D01*
Y-108983D01*
X1062312D01*
Y-108697D01*
X1062885D01*
Y-108410D01*
X1063171D01*
Y-108124D01*
X1063458D01*
Y-107838D01*
X1063744D01*
Y-107552D01*
X1064030D01*
Y-107265D01*
X1064317D01*
Y-106979D01*
X1064603D01*
Y-106693D01*
X1064889D01*
Y-106406D01*
X1065176D01*
Y-106120D01*
X1065462D01*
Y-105834D01*
X1065748D01*
Y-105547D01*
X1066035D01*
Y-105261D01*
Y-104975D01*
X1066321D01*
Y-104688D01*
X1066607D01*
Y-104402D01*
X1066893D01*
Y-104116D01*
Y-103829D01*
X1067180D01*
Y-103543D01*
X1067466D01*
Y-103257D01*
Y-102971D01*
X1067752D01*
Y-102684D01*
Y-102398D01*
X1068039D01*
Y-102112D01*
X1068325D01*
Y-101825D01*
Y-101539D01*
X1068611D01*
Y-101253D01*
Y-100966D01*
X1068898D01*
Y-100680D01*
Y-100394D01*
X1067180D01*
Y-100107D01*
X1065176D01*
Y-99821D01*
X1064030D01*
Y-99535D01*
X1063458D01*
Y-99248D01*
X1062599D01*
Y-98962D01*
X1062026D01*
Y-98676D01*
X1061740D01*
Y-98390D01*
X1061167D01*
Y-98103D01*
X1060881D01*
Y-97817D01*
X1060595D01*
Y-97531D01*
X1060308D01*
Y-97244D01*
X1060022D01*
Y-96958D01*
X1059736D01*
Y-96672D01*
Y-96385D01*
X1059449D01*
Y-96099D01*
X1059163D01*
Y-95813D01*
Y-95526D01*
X1058877D01*
Y-95240D01*
Y-94954D01*
X1058590D01*
Y-94667D01*
Y-94381D01*
X1058304D01*
Y-94095D01*
Y-93809D01*
Y-93522D01*
X1058018D01*
Y-93236D01*
Y-92950D01*
Y-92663D01*
Y-92377D01*
X1057731D01*
Y-92091D01*
Y-91804D01*
Y-91518D01*
Y-91232D01*
Y-90945D01*
Y-90659D01*
Y-90373D01*
X1057445D01*
Y-90086D01*
Y-89800D01*
Y-89514D01*
Y-89227D01*
Y-88941D01*
Y-88655D01*
Y-88369D01*
Y-88082D01*
Y-87796D01*
Y-87510D01*
Y-87223D01*
Y-86937D01*
Y-86651D01*
Y-86364D01*
Y-86078D01*
X1057159D01*
Y-85792D01*
Y-85505D01*
Y-85219D01*
Y-84933D01*
Y-84646D01*
Y-84360D01*
Y-84074D01*
Y-83788D01*
Y-83501D01*
Y-83215D01*
Y-82929D01*
Y-82642D01*
Y-82356D01*
Y-82070D01*
Y-81783D01*
X1056872D01*
Y-81497D01*
Y-81211D01*
Y-80924D01*
Y-80638D01*
Y-80352D01*
Y-80066D01*
Y-79779D01*
Y-79493D01*
Y-79207D01*
Y-78920D01*
Y-78634D01*
Y-78348D01*
Y-78061D01*
Y-77775D01*
Y-77489D01*
Y-77202D01*
X1056586D01*
Y-76916D01*
Y-76630D01*
Y-76343D01*
Y-76057D01*
Y-75771D01*
Y-75485D01*
Y-75198D01*
Y-74912D01*
Y-74625D01*
Y-74339D01*
Y-74053D01*
Y-73767D01*
Y-73480D01*
Y-73194D01*
Y-72908D01*
Y-72621D01*
X1056300D01*
Y-72335D01*
Y-72049D01*
Y-71762D01*
Y-71476D01*
Y-71190D01*
Y-70903D01*
Y-70617D01*
Y-70331D01*
Y-70044D01*
Y-69758D01*
Y-69472D01*
Y-69186D01*
Y-68899D01*
Y-68613D01*
X1056014D01*
Y-68327D01*
Y-68040D01*
Y-67754D01*
Y-67468D01*
Y-67181D01*
Y-66895D01*
Y-66609D01*
Y-66322D01*
Y-66036D01*
Y-65750D01*
Y-65464D01*
Y-65177D01*
Y-64891D01*
Y-64605D01*
Y-64318D01*
Y-64032D01*
X1055727D01*
Y-63746D01*
X1069470D01*
Y-64032D01*
Y-64318D01*
Y-64605D01*
Y-64891D01*
Y-65177D01*
Y-65464D01*
Y-65750D01*
Y-66036D01*
Y-66322D01*
Y-66609D01*
Y-66895D01*
Y-67181D01*
Y-67468D01*
Y-67754D01*
X1069757D01*
Y-68040D01*
Y-68327D01*
Y-68613D01*
Y-68899D01*
Y-69186D01*
Y-69472D01*
Y-69758D01*
Y-70044D01*
Y-70331D01*
Y-70617D01*
Y-70903D01*
Y-71190D01*
Y-71476D01*
Y-71762D01*
Y-72049D01*
Y-72335D01*
Y-72621D01*
Y-72908D01*
Y-73194D01*
Y-73480D01*
Y-73767D01*
Y-74053D01*
Y-74339D01*
Y-74625D01*
Y-74912D01*
Y-75198D01*
Y-75485D01*
Y-75771D01*
Y-76057D01*
Y-76343D01*
Y-76630D01*
Y-76916D01*
Y-77202D01*
Y-77489D01*
Y-77775D01*
Y-78061D01*
Y-78348D01*
Y-78634D01*
Y-78920D01*
Y-79207D01*
Y-79493D01*
X1070043D01*
Y-79779D01*
X1069757D01*
Y-80066D01*
Y-80352D01*
X1070043D01*
Y-80638D01*
Y-80924D01*
Y-81211D01*
Y-81497D01*
Y-81783D01*
Y-82070D01*
Y-82356D01*
Y-82642D01*
Y-82929D01*
Y-83215D01*
Y-83501D01*
Y-83788D01*
Y-84074D01*
Y-84360D01*
Y-84646D01*
Y-84933D01*
Y-85219D01*
Y-85505D01*
Y-85792D01*
Y-86078D01*
Y-86364D01*
Y-86651D01*
Y-86937D01*
Y-87223D01*
Y-87510D01*
Y-87796D01*
X1070329D01*
Y-88082D01*
Y-88369D01*
Y-88655D01*
X1070615D01*
Y-88941D01*
X1070902D01*
Y-89227D01*
X1071188D01*
Y-89514D01*
X1072047D01*
Y-89800D01*
X1072906D01*
Y-89514D01*
X1073192D01*
Y-89227D01*
Y-88941D01*
Y-88655D01*
X1073479D01*
Y-88369D01*
Y-88082D01*
X1073765D01*
Y-87796D01*
Y-87510D01*
Y-87223D01*
X1074051D01*
Y-86937D01*
Y-86651D01*
Y-86364D01*
X1074338D01*
Y-86078D01*
Y-85792D01*
Y-85505D01*
X1074624D01*
Y-85219D01*
Y-84933D01*
Y-84646D01*
X1074910D01*
Y-84360D01*
Y-84074D01*
X1075196D01*
Y-83788D01*
Y-83501D01*
Y-83215D01*
X1075483D01*
Y-82929D01*
Y-82642D01*
Y-82356D01*
X1075769D01*
Y-82070D01*
Y-81783D01*
Y-81497D01*
X1076056D01*
Y-81211D01*
Y-80924D01*
X1076342D01*
Y-80638D01*
Y-80352D01*
Y-80066D01*
X1076628D01*
Y-79779D01*
Y-79493D01*
Y-79207D01*
X1076914D01*
Y-78920D01*
Y-78634D01*
Y-78348D01*
X1077201D01*
Y-78061D01*
Y-77775D01*
X1077487D01*
Y-77489D01*
Y-77202D01*
Y-76916D01*
X1077773D01*
Y-76630D01*
Y-76343D01*
Y-76057D01*
X1078060D01*
Y-75771D01*
Y-75485D01*
Y-75198D01*
X1078346D01*
Y-74912D01*
Y-74625D01*
X1078632D01*
Y-74339D01*
Y-74053D01*
Y-73767D01*
X1078919D01*
Y-73480D01*
Y-73194D01*
Y-72908D01*
X1079205D01*
Y-72621D01*
Y-72335D01*
Y-72049D01*
X1079491D01*
Y-71762D01*
Y-71476D01*
Y-71190D01*
Y-70903D01*
X1079778D01*
Y-70617D01*
Y-70331D01*
Y-70044D01*
Y-69758D01*
X1080064D01*
Y-69472D01*
Y-69186D01*
Y-68899D01*
Y-68613D01*
Y-68327D01*
X1080350D01*
Y-68040D01*
Y-67754D01*
Y-67468D01*
Y-67181D01*
Y-66895D01*
Y-66609D01*
X1080637D01*
Y-66322D01*
Y-66036D01*
Y-65750D01*
Y-65464D01*
Y-65177D01*
Y-64891D01*
Y-64605D01*
Y-64318D01*
Y-64032D01*
Y-63746D01*
X1093521D01*
Y-64032D01*
D02*
G37*
G36*
X1035685Y-46567D02*
Y-46853D01*
X1035399D01*
Y-47139D01*
Y-47426D01*
Y-47712D01*
Y-47998D01*
Y-48285D01*
Y-48571D01*
X1035113D01*
Y-48857D01*
Y-49144D01*
Y-49430D01*
Y-49716D01*
Y-50003D01*
Y-50289D01*
X1034826D01*
Y-50575D01*
Y-50862D01*
Y-51148D01*
Y-51434D01*
Y-51720D01*
Y-52007D01*
Y-52293D01*
X1034540D01*
Y-52579D01*
Y-52866D01*
Y-53152D01*
Y-53438D01*
Y-53725D01*
Y-54011D01*
X1034254D01*
Y-54297D01*
Y-54584D01*
Y-54870D01*
Y-55156D01*
Y-55443D01*
Y-55729D01*
X1033967D01*
Y-56015D01*
Y-56301D01*
Y-56588D01*
Y-56874D01*
Y-57161D01*
Y-57447D01*
Y-57733D01*
X1033681D01*
Y-58019D01*
Y-58306D01*
Y-58592D01*
Y-58878D01*
Y-59165D01*
Y-59451D01*
X1033395D01*
Y-59737D01*
Y-60024D01*
Y-60310D01*
Y-60596D01*
Y-60883D01*
Y-61169D01*
X1033109D01*
Y-61455D01*
Y-61742D01*
Y-62028D01*
Y-62314D01*
Y-62600D01*
Y-62887D01*
X1032822D01*
Y-63173D01*
Y-63459D01*
Y-63746D01*
Y-64032D01*
Y-64318D01*
Y-64605D01*
Y-64891D01*
X1032536D01*
Y-65177D01*
Y-65464D01*
Y-65750D01*
Y-66036D01*
Y-66322D01*
Y-66609D01*
X1032250D01*
Y-66895D01*
Y-67181D01*
X1032822D01*
Y-66895D01*
X1033109D01*
Y-66609D01*
X1033395D01*
Y-66322D01*
X1033967D01*
Y-66036D01*
X1034254D01*
Y-65750D01*
X1034540D01*
Y-65464D01*
X1035113D01*
Y-65177D01*
X1035685D01*
Y-64891D01*
X1035972D01*
Y-64605D01*
X1036544D01*
Y-64318D01*
X1037403D01*
Y-64032D01*
X1037976D01*
Y-63746D01*
X1038835D01*
Y-63459D01*
X1040266D01*
Y-63173D01*
X1046565D01*
Y-63459D01*
X1047711D01*
Y-63746D01*
X1048569D01*
Y-64032D01*
X1049142D01*
Y-64318D01*
X1049428D01*
Y-64605D01*
X1050001D01*
Y-64891D01*
X1050287D01*
Y-65177D01*
X1050574D01*
Y-65464D01*
X1050860D01*
Y-65750D01*
X1051146D01*
Y-66036D01*
Y-66322D01*
X1051433D01*
Y-66609D01*
Y-66895D01*
X1051719D01*
Y-67181D01*
Y-67468D01*
Y-67754D01*
X1052005D01*
Y-68040D01*
Y-68327D01*
Y-68613D01*
Y-68899D01*
X1052291D01*
Y-69186D01*
Y-69472D01*
Y-69758D01*
Y-70044D01*
Y-70331D01*
Y-70617D01*
Y-70903D01*
Y-71190D01*
Y-71476D01*
Y-71762D01*
Y-72049D01*
Y-72335D01*
Y-72621D01*
Y-72908D01*
Y-73194D01*
Y-73480D01*
Y-73767D01*
Y-74053D01*
X1052005D01*
Y-74339D01*
Y-74625D01*
Y-74912D01*
Y-75198D01*
Y-75485D01*
Y-75771D01*
Y-76057D01*
X1051719D01*
Y-76343D01*
Y-76630D01*
Y-76916D01*
Y-77202D01*
Y-77489D01*
Y-77775D01*
Y-78061D01*
X1051433D01*
Y-78348D01*
Y-78634D01*
Y-78920D01*
Y-79207D01*
Y-79493D01*
Y-79779D01*
X1051146D01*
Y-80066D01*
Y-80352D01*
Y-80638D01*
Y-80924D01*
Y-81211D01*
Y-81497D01*
X1050860D01*
Y-81783D01*
Y-82070D01*
Y-82356D01*
Y-82642D01*
Y-82929D01*
Y-83215D01*
X1050574D01*
Y-83501D01*
Y-83788D01*
Y-84074D01*
Y-84360D01*
Y-84646D01*
Y-84933D01*
Y-85219D01*
X1050287D01*
Y-85505D01*
Y-85792D01*
Y-86078D01*
Y-86364D01*
Y-86651D01*
Y-86937D01*
X1050001D01*
Y-87223D01*
Y-87510D01*
Y-87796D01*
Y-88082D01*
Y-88369D01*
Y-88655D01*
X1049715D01*
Y-88941D01*
Y-89227D01*
Y-89514D01*
Y-89800D01*
Y-90086D01*
Y-90373D01*
Y-90659D01*
X1049428D01*
Y-90945D01*
Y-91232D01*
Y-91518D01*
Y-91804D01*
Y-92091D01*
Y-92377D01*
X1049142D01*
Y-92663D01*
Y-92950D01*
Y-93236D01*
Y-93522D01*
Y-93809D01*
Y-94095D01*
X1048856D01*
Y-94381D01*
Y-94667D01*
Y-94954D01*
Y-95240D01*
Y-95526D01*
Y-95813D01*
X1048569D01*
Y-96099D01*
Y-96385D01*
Y-96672D01*
Y-96958D01*
Y-97244D01*
Y-97531D01*
Y-97817D01*
X1048283D01*
Y-98103D01*
Y-98390D01*
Y-98676D01*
Y-98962D01*
Y-99248D01*
Y-99535D01*
X1047997D01*
Y-99821D01*
Y-100107D01*
X1034826D01*
Y-99821D01*
Y-99535D01*
X1035113D01*
Y-99248D01*
Y-98962D01*
Y-98676D01*
Y-98390D01*
Y-98103D01*
Y-97817D01*
X1035399D01*
Y-97531D01*
Y-97244D01*
Y-96958D01*
Y-96672D01*
Y-96385D01*
Y-96099D01*
Y-95813D01*
X1035685D01*
Y-95526D01*
Y-95240D01*
Y-94954D01*
Y-94667D01*
Y-94381D01*
Y-94095D01*
X1035972D01*
Y-93809D01*
Y-93522D01*
Y-93236D01*
Y-92950D01*
Y-92663D01*
Y-92377D01*
X1036258D01*
Y-92091D01*
Y-91804D01*
Y-91518D01*
Y-91232D01*
Y-90945D01*
Y-90659D01*
Y-90373D01*
X1036544D01*
Y-90086D01*
Y-89800D01*
Y-89514D01*
Y-89227D01*
Y-88941D01*
Y-88655D01*
X1036831D01*
Y-88369D01*
Y-88082D01*
Y-87796D01*
Y-87510D01*
Y-87223D01*
Y-86937D01*
Y-86651D01*
X1037117D01*
Y-86364D01*
Y-86078D01*
Y-85792D01*
Y-85505D01*
Y-85219D01*
Y-84933D01*
X1037403D01*
Y-84646D01*
Y-84360D01*
Y-84074D01*
Y-83788D01*
Y-83501D01*
Y-83215D01*
X1037689D01*
Y-82929D01*
Y-82642D01*
Y-82356D01*
Y-82070D01*
Y-81783D01*
Y-81497D01*
X1037976D01*
Y-81211D01*
Y-80924D01*
Y-80638D01*
Y-80352D01*
Y-80066D01*
Y-79779D01*
Y-79493D01*
X1038262D01*
Y-79207D01*
Y-78920D01*
Y-78634D01*
Y-78348D01*
Y-78061D01*
Y-77775D01*
X1038548D01*
Y-77489D01*
Y-77202D01*
Y-76916D01*
Y-76630D01*
Y-76343D01*
Y-76057D01*
Y-75771D01*
X1038835D01*
Y-75485D01*
Y-75198D01*
Y-74912D01*
Y-74625D01*
Y-74339D01*
Y-74053D01*
X1038548D01*
Y-73767D01*
Y-73480D01*
X1038262D01*
Y-73194D01*
X1037976D01*
Y-72908D01*
X1037403D01*
Y-72621D01*
X1035685D01*
Y-72908D01*
X1034254D01*
Y-73194D01*
X1033395D01*
Y-73480D01*
X1032822D01*
Y-73767D01*
X1032536D01*
Y-74053D01*
X1031963D01*
Y-74339D01*
X1031677D01*
Y-74625D01*
X1031391D01*
Y-74912D01*
Y-75198D01*
X1031104D01*
Y-75485D01*
Y-75771D01*
Y-76057D01*
X1030818D01*
Y-76343D01*
Y-76630D01*
Y-76916D01*
Y-77202D01*
Y-77489D01*
Y-77775D01*
X1030532D01*
Y-78061D01*
Y-78348D01*
Y-78634D01*
Y-78920D01*
Y-79207D01*
Y-79493D01*
Y-79779D01*
X1030245D01*
Y-80066D01*
Y-80352D01*
Y-80638D01*
Y-80924D01*
Y-81211D01*
Y-81497D01*
X1029959D01*
Y-81783D01*
Y-82070D01*
Y-82356D01*
Y-82642D01*
Y-82929D01*
Y-83215D01*
X1029673D01*
Y-83501D01*
Y-83788D01*
Y-84074D01*
Y-84360D01*
Y-84646D01*
Y-84933D01*
X1029387D01*
Y-85219D01*
Y-85505D01*
Y-85792D01*
Y-86078D01*
Y-86364D01*
Y-86651D01*
Y-86937D01*
X1029100D01*
Y-87223D01*
Y-87510D01*
Y-87796D01*
Y-88082D01*
Y-88369D01*
Y-88655D01*
X1028814D01*
Y-88941D01*
Y-89227D01*
Y-89514D01*
Y-89800D01*
Y-90086D01*
Y-90373D01*
X1028528D01*
Y-90659D01*
Y-90945D01*
Y-91232D01*
Y-91518D01*
Y-91804D01*
Y-92091D01*
Y-92377D01*
X1028241D01*
Y-92663D01*
Y-92950D01*
Y-93236D01*
Y-93522D01*
Y-93809D01*
Y-94095D01*
X1027955D01*
Y-94381D01*
Y-94667D01*
Y-94954D01*
Y-95240D01*
Y-95526D01*
Y-95813D01*
X1027669D01*
Y-96099D01*
Y-96385D01*
Y-96672D01*
Y-96958D01*
Y-97244D01*
Y-97531D01*
X1027382D01*
Y-97817D01*
Y-98103D01*
Y-98390D01*
Y-98676D01*
Y-98962D01*
Y-99248D01*
Y-99535D01*
X1027096D01*
Y-99821D01*
Y-100107D01*
X1013926D01*
Y-99821D01*
Y-99535D01*
X1014212D01*
Y-99248D01*
Y-98962D01*
Y-98676D01*
Y-98390D01*
Y-98103D01*
Y-97817D01*
Y-97531D01*
X1014498D01*
Y-97244D01*
Y-96958D01*
Y-96672D01*
Y-96385D01*
Y-96099D01*
Y-95813D01*
X1014785D01*
Y-95526D01*
Y-95240D01*
Y-94954D01*
Y-94667D01*
Y-94381D01*
Y-94095D01*
X1015071D01*
Y-93809D01*
Y-93522D01*
Y-93236D01*
Y-92950D01*
Y-92663D01*
Y-92377D01*
Y-92091D01*
X1015357D01*
Y-91804D01*
Y-91518D01*
Y-91232D01*
Y-90945D01*
Y-90659D01*
Y-90373D01*
X1015643D01*
Y-90086D01*
Y-89800D01*
Y-89514D01*
Y-89227D01*
Y-88941D01*
Y-88655D01*
X1015930D01*
Y-88369D01*
Y-88082D01*
Y-87796D01*
Y-87510D01*
Y-87223D01*
Y-86937D01*
X1016216D01*
Y-86651D01*
Y-86364D01*
Y-86078D01*
Y-85792D01*
Y-85505D01*
Y-85219D01*
Y-84933D01*
X1016502D01*
Y-84646D01*
Y-84360D01*
Y-84074D01*
Y-83788D01*
Y-83501D01*
Y-83215D01*
X1016789D01*
Y-82929D01*
Y-82642D01*
Y-82356D01*
Y-82070D01*
Y-81783D01*
Y-81497D01*
X1017075D01*
Y-81211D01*
Y-80924D01*
Y-80638D01*
Y-80352D01*
Y-80066D01*
Y-79779D01*
Y-79493D01*
X1017361D01*
Y-79207D01*
Y-78920D01*
Y-78634D01*
Y-78348D01*
Y-78061D01*
Y-77775D01*
X1017648D01*
Y-77489D01*
Y-77202D01*
Y-76916D01*
Y-76630D01*
Y-76343D01*
Y-76057D01*
X1017934D01*
Y-75771D01*
Y-75485D01*
Y-75198D01*
Y-74912D01*
Y-74625D01*
Y-74339D01*
X1018220D01*
Y-74053D01*
Y-73767D01*
Y-73480D01*
Y-73194D01*
Y-72908D01*
Y-72621D01*
Y-72335D01*
X1018507D01*
Y-72049D01*
Y-71762D01*
Y-71476D01*
Y-71190D01*
Y-70903D01*
Y-70617D01*
X1018793D01*
Y-70331D01*
Y-70044D01*
Y-69758D01*
Y-69472D01*
Y-69186D01*
Y-68899D01*
X1019079D01*
Y-68613D01*
Y-68327D01*
Y-68040D01*
Y-67754D01*
Y-67468D01*
Y-67181D01*
X1019366D01*
Y-66895D01*
Y-66609D01*
Y-66322D01*
Y-66036D01*
Y-65750D01*
Y-65464D01*
Y-65177D01*
X1019652D01*
Y-64891D01*
Y-64605D01*
Y-64318D01*
Y-64032D01*
Y-63746D01*
Y-63459D01*
X1019938D01*
Y-63173D01*
Y-62887D01*
Y-62600D01*
Y-62314D01*
Y-62028D01*
Y-61742D01*
X1020224D01*
Y-61455D01*
Y-61169D01*
Y-60883D01*
Y-60596D01*
Y-60310D01*
Y-60024D01*
Y-59737D01*
X1020511D01*
Y-59451D01*
Y-59165D01*
Y-58878D01*
Y-58592D01*
Y-58306D01*
Y-58019D01*
X1020797D01*
Y-57733D01*
Y-57447D01*
Y-57161D01*
Y-56874D01*
Y-56588D01*
Y-56301D01*
X1021083D01*
Y-56015D01*
Y-55729D01*
Y-55443D01*
Y-55156D01*
Y-54870D01*
Y-54584D01*
X1021370D01*
Y-54297D01*
Y-54011D01*
Y-53725D01*
Y-53438D01*
Y-53152D01*
Y-52866D01*
Y-52579D01*
X1021656D01*
Y-52293D01*
Y-52007D01*
Y-51720D01*
Y-51434D01*
Y-51148D01*
Y-50862D01*
X1021942D01*
Y-50575D01*
Y-50289D01*
Y-50003D01*
Y-49716D01*
Y-49430D01*
Y-49144D01*
X1022229D01*
Y-48857D01*
Y-48571D01*
Y-48285D01*
Y-47998D01*
Y-47712D01*
Y-47426D01*
Y-47139D01*
X1022515D01*
Y-46853D01*
Y-46567D01*
Y-46281D01*
X1035685D01*
Y-46567D01*
D02*
G37*
%LPC*%
G36*
X11811Y191102D02*
X3937D01*
Y183228D01*
X4889D01*
X6663Y181807D01*
X6663Y181807D01*
X6663D01*
X6846Y181001D01*
X6698Y180940D01*
X5889Y180604D01*
X5066Y179973D01*
X4435Y179151D01*
X4038Y178193D01*
X3968Y177657D01*
X7874D01*
X11780D01*
X11710Y178193D01*
X11313Y179151D01*
X10682Y179973D01*
X9860Y180604D01*
X9050Y180940D01*
X8902Y181001D01*
X9085Y181807D01*
X9085D01*
X9085Y181807D01*
X10859Y183228D01*
X11811D01*
Y191102D01*
D02*
G37*
G36*
X23622Y181102D02*
X20177D01*
Y177657D01*
X23622D01*
Y181102D01*
D02*
G37*
G36*
X19193D02*
X15748D01*
Y177657D01*
X19193D01*
Y181102D01*
D02*
G37*
G36*
X45965Y116634D02*
X43504D01*
Y113189D01*
X45965D01*
Y116634D01*
D02*
G37*
G36*
X53937Y80315D02*
X50492D01*
Y79921D01*
X53937D01*
Y80315D01*
D02*
G37*
G36*
X49508D02*
X46063D01*
Y79921D01*
X49508D01*
Y80315D01*
D02*
G37*
G36*
X308268Y156496D02*
X304823D01*
Y155905D01*
X308268D01*
Y156496D01*
D02*
G37*
G36*
X303839D02*
X300394D01*
Y155905D01*
X303839D01*
Y156496D01*
D02*
G37*
G36*
X268898D02*
X265453D01*
Y155905D01*
X268898D01*
Y156496D01*
D02*
G37*
G36*
X264469D02*
X261024D01*
Y155905D01*
X264469D01*
Y156496D01*
D02*
G37*
G36*
X229528D02*
X226083D01*
Y155905D01*
X229528D01*
Y156496D01*
D02*
G37*
G36*
X225098D02*
X221654D01*
Y155905D01*
X225098D01*
Y156496D01*
D02*
G37*
G36*
X190157D02*
X186713D01*
Y155905D01*
X190157D01*
Y156496D01*
D02*
G37*
G36*
X185728D02*
X182283D01*
Y155905D01*
X185728D01*
Y156496D01*
D02*
G37*
G36*
X150787D02*
X147343D01*
Y155905D01*
X150787D01*
Y156496D01*
D02*
G37*
G36*
X146358D02*
X142913D01*
Y155905D01*
X146358D01*
Y156496D01*
D02*
G37*
G36*
X111417D02*
X107972D01*
Y155905D01*
X111417D01*
Y156496D01*
D02*
G37*
G36*
X106988D02*
X103543D01*
Y155905D01*
X106988D01*
Y156496D01*
D02*
G37*
G36*
X72047D02*
X68602D01*
Y155905D01*
X72047D01*
Y156496D01*
D02*
G37*
G36*
X67618D02*
X64173D01*
Y155905D01*
X67618D01*
Y156496D01*
D02*
G37*
G36*
X347638D02*
X344193D01*
Y155905D01*
X347638D01*
Y156496D01*
D02*
G37*
G36*
X343209D02*
X339764D01*
Y155905D01*
X343209D01*
Y156496D01*
D02*
G37*
G36*
X360827Y151476D02*
X356791D01*
Y147835D01*
X360827D01*
Y151476D01*
D02*
G37*
G36*
X355807D02*
X351772D01*
Y147835D01*
X355807D01*
Y151476D01*
D02*
G37*
G36*
X378445Y149187D02*
Y145177D01*
X382455D01*
X382364Y145867D01*
X381908Y146968D01*
X381182Y147914D01*
X380236Y148640D01*
X379135Y149096D01*
X378445Y149187D01*
D02*
G37*
G36*
X377461Y149187D02*
X376771Y149096D01*
X375670Y148640D01*
X374724Y147914D01*
X373998Y146968D01*
X373542Y145867D01*
X373451Y145177D01*
X377461D01*
Y149187D01*
D02*
G37*
G36*
X382455Y144193D02*
X378445D01*
Y140183D01*
X379135Y140274D01*
X380236Y140730D01*
X381182Y141456D01*
X381908Y142402D01*
X382364Y143503D01*
X382455Y144193D01*
D02*
G37*
G36*
X377461D02*
X373451D01*
X373542Y143503D01*
X373998Y142402D01*
X374724Y141456D01*
X375670Y140730D01*
X376771Y140274D01*
X377461Y140183D01*
Y144193D01*
D02*
G37*
G36*
X342028Y146161D02*
X335138D01*
Y139272D01*
X342028D01*
Y146161D01*
D02*
G37*
G36*
X382480Y135433D02*
X378445D01*
Y131398D01*
X382480D01*
Y135433D01*
D02*
G37*
G36*
X377461D02*
X373425D01*
Y131398D01*
X377461D01*
Y135433D01*
D02*
G37*
G36*
X339813Y132425D02*
X339075D01*
Y129429D01*
X342071D01*
Y130167D01*
X341899Y131031D01*
X341410Y131764D01*
X340677Y132253D01*
X339813Y132425D01*
D02*
G37*
G36*
X338091D02*
X337352D01*
X336488Y132253D01*
X335756Y131764D01*
X335266Y131031D01*
X335094Y130167D01*
Y129429D01*
X338091D01*
Y132425D01*
D02*
G37*
G36*
X382480Y130413D02*
X378445D01*
Y126378D01*
X382480D01*
Y130413D01*
D02*
G37*
G36*
X377461D02*
X373425D01*
Y126378D01*
X377461D01*
Y130413D01*
D02*
G37*
G36*
X342071Y128445D02*
X339075D01*
Y125449D01*
X339813D01*
X340677Y125621D01*
X341410Y126110D01*
X341899Y126843D01*
X342071Y127707D01*
Y128445D01*
D02*
G37*
G36*
X338091D02*
X335094D01*
Y127707D01*
X335266Y126843D01*
X335756Y126110D01*
X336488Y125621D01*
X337352Y125449D01*
X338091D01*
Y128445D01*
D02*
G37*
G36*
X339813Y110772D02*
X339075D01*
Y107776D01*
X342071D01*
Y108514D01*
X341899Y109378D01*
X341410Y110110D01*
X340677Y110600D01*
X339813Y110772D01*
D02*
G37*
G36*
X338091D02*
X337352D01*
X336488Y110600D01*
X335756Y110110D01*
X335266Y109378D01*
X335094Y108514D01*
Y107776D01*
X338091D01*
Y110772D01*
D02*
G37*
G36*
X215255Y110235D02*
X213975D01*
Y107086D01*
X215255D01*
Y110235D01*
D02*
G37*
G36*
X378445Y109817D02*
Y105807D01*
X382455D01*
X382364Y106497D01*
X381908Y107598D01*
X381182Y108544D01*
X380236Y109270D01*
X379135Y109726D01*
X378445Y109817D01*
D02*
G37*
G36*
X377461Y109817D02*
X376771Y109726D01*
X375670Y109270D01*
X374724Y108544D01*
X373998Y107598D01*
X373542Y106497D01*
X373451Y105807D01*
X377461D01*
Y109817D01*
D02*
G37*
G36*
X342071Y106791D02*
X339075D01*
Y103795D01*
X339813D01*
X340677Y103967D01*
X341410Y104456D01*
X341899Y105189D01*
X342071Y106053D01*
Y106791D01*
D02*
G37*
G36*
X338091D02*
X335094D01*
Y106053D01*
X335266Y105189D01*
X335756Y104456D01*
X336488Y103967D01*
X337352Y103795D01*
X338091D01*
Y106791D01*
D02*
G37*
G36*
X382455Y104823D02*
X378445D01*
Y100813D01*
X379135Y100904D01*
X380236Y101360D01*
X381182Y102086D01*
X381908Y103032D01*
X382364Y104133D01*
X382455Y104823D01*
D02*
G37*
G36*
X377461D02*
X373451D01*
X373542Y104133D01*
X373998Y103032D01*
X374724Y102086D01*
X375670Y101360D01*
X376771Y100904D01*
X377461Y100813D01*
Y104823D01*
D02*
G37*
G36*
X382480Y96063D02*
X378445D01*
Y92027D01*
X382480D01*
Y96063D01*
D02*
G37*
G36*
X377461D02*
X373425D01*
Y92027D01*
X377461D01*
Y96063D01*
D02*
G37*
G36*
X342028Y96949D02*
X335138D01*
Y90059D01*
X342028D01*
Y96949D01*
D02*
G37*
G36*
X382480Y91043D02*
X378445D01*
Y87008D01*
X382480D01*
Y91043D01*
D02*
G37*
G36*
X377461D02*
X373425D01*
Y87008D01*
X377461D01*
Y91043D01*
D02*
G37*
G36*
X360827Y88386D02*
X356791D01*
Y84744D01*
X360827D01*
Y88386D01*
D02*
G37*
G36*
X355807D02*
X351772D01*
Y84744D01*
X355807D01*
Y88386D01*
D02*
G37*
G36*
X329528Y80315D02*
X326083D01*
Y79921D01*
X329528D01*
Y80315D01*
D02*
G37*
G36*
X325098D02*
X321654D01*
Y79921D01*
X325098D01*
Y80315D01*
D02*
G37*
G36*
X290158D02*
X286713D01*
Y79921D01*
X290158D01*
Y80315D01*
D02*
G37*
G36*
X285728D02*
X282283D01*
Y79921D01*
X285728D01*
Y80315D01*
D02*
G37*
G36*
X250787D02*
X247342D01*
Y79921D01*
X250787D01*
Y80315D01*
D02*
G37*
G36*
X246358D02*
X242913D01*
Y79921D01*
X246358D01*
Y80315D01*
D02*
G37*
G36*
X211417D02*
X207972D01*
Y79921D01*
X211417D01*
Y80315D01*
D02*
G37*
G36*
X206988D02*
X203543D01*
Y79921D01*
X206988D01*
Y80315D01*
D02*
G37*
G36*
X172047D02*
X168602D01*
Y79921D01*
X172047D01*
Y80315D01*
D02*
G37*
G36*
X167618D02*
X164173D01*
Y79921D01*
X167618D01*
Y80315D01*
D02*
G37*
G36*
X132677D02*
X129232D01*
Y79921D01*
X132677D01*
Y80315D01*
D02*
G37*
G36*
X128248D02*
X124803D01*
Y79921D01*
X128248D01*
Y80315D01*
D02*
G37*
G36*
X93307D02*
X89862D01*
Y79921D01*
X93307D01*
Y80315D01*
D02*
G37*
G36*
X88878D02*
X85433D01*
Y79921D01*
X88878D01*
Y80315D01*
D02*
G37*
G36*
X1000183Y-60883D02*
X992166D01*
Y-61169D01*
Y-61455D01*
Y-61742D01*
Y-62028D01*
Y-62314D01*
X991879D01*
Y-62600D01*
Y-62887D01*
Y-63173D01*
Y-63459D01*
Y-63746D01*
Y-64032D01*
X991593D01*
Y-64318D01*
Y-64605D01*
Y-64891D01*
Y-65177D01*
Y-65464D01*
Y-65750D01*
X991307D01*
Y-66036D01*
Y-66322D01*
Y-66609D01*
Y-66895D01*
Y-67181D01*
Y-67468D01*
X991020D01*
Y-67754D01*
Y-68040D01*
Y-68327D01*
Y-68613D01*
Y-68899D01*
Y-69186D01*
Y-69472D01*
X990734D01*
Y-69758D01*
Y-70044D01*
Y-70331D01*
Y-70617D01*
Y-70903D01*
Y-71190D01*
X990448D01*
Y-71476D01*
Y-71762D01*
Y-72049D01*
X997606D01*
Y-71762D01*
X998751D01*
Y-71476D01*
X999324D01*
Y-71190D01*
X999610D01*
Y-70903D01*
X999896D01*
Y-70617D01*
X1000183D01*
Y-70331D01*
X1000469D01*
Y-70044D01*
Y-69758D01*
X1000755D01*
Y-69472D01*
Y-69186D01*
X1001042D01*
Y-68899D01*
Y-68613D01*
X1001328D01*
Y-68327D01*
Y-68040D01*
Y-67754D01*
Y-67468D01*
X1001614D01*
Y-67181D01*
Y-66895D01*
Y-66609D01*
Y-66322D01*
Y-66036D01*
X1001900D01*
Y-65750D01*
Y-65464D01*
Y-65177D01*
Y-64891D01*
Y-64605D01*
Y-64318D01*
Y-64032D01*
Y-63746D01*
Y-63459D01*
Y-63173D01*
Y-62887D01*
X1001614D01*
Y-62600D01*
Y-62314D01*
X1001328D01*
Y-62028D01*
Y-61742D01*
X1001042D01*
Y-61455D01*
X1000755D01*
Y-61169D01*
X1000183D01*
Y-60883D01*
D02*
G37*
%LPD*%
D10*
X62008Y230315D02*
G03*
X52165Y220472I0J-9843D01*
G01*
Y15748D02*
G03*
X62008Y5906I9843J0D01*
G01*
X377953Y193405D02*
G03*
X368602Y202756I-9350J0D01*
G01*
X359252Y212106D02*
G03*
X368602Y202756I9350J0D01*
G01*
X359252Y221457D02*
G03*
X350394Y230315I-8858J0D01*
G01*
X377953Y65945D02*
G03*
X370669Y73228I-7283J0D01*
G01*
Y162992D02*
G03*
X377953Y170276I0J7283D01*
G01*
X350394Y5906D02*
G03*
X359252Y14764I0J8858D01*
G01*
X368602Y33465D02*
G03*
X359252Y24114I0J-9350D01*
G01*
X368602Y33465D02*
G03*
X377953Y42815I0J9350D01*
G01*
X62008Y230315D02*
X91535D01*
X62008Y5906D02*
X91535D01*
X65945Y188976D02*
Y220472D01*
X105315Y188976D02*
Y220472D01*
X144685Y188976D02*
Y220472D01*
X184055Y188976D02*
Y220472D01*
X223425Y188976D02*
Y220472D01*
X262795Y188976D02*
Y220472D01*
X302165Y188976D02*
Y220472D01*
X341535Y188976D02*
Y220472D01*
X327756D02*
Y230315D01*
X91535Y220472D02*
Y230315D01*
X130905Y220472D02*
Y230315D01*
X91535D02*
X130905D01*
X170276Y220472D02*
Y230315D01*
X130905D02*
X170276D01*
X209646Y220472D02*
Y230315D01*
X170276D02*
X209646D01*
X249016Y220472D02*
Y230315D01*
X209646D02*
X249016D01*
X288386Y220472D02*
Y230315D01*
X327756D01*
X249016D02*
X288386D01*
X377953Y170276D02*
Y184055D01*
Y193405D01*
X327756Y230315D02*
X350394D01*
X359252Y212106D02*
Y221457D01*
X356299Y73228D02*
X370669D01*
X377953Y52165D02*
Y65945D01*
X356299Y162992D02*
X370669D01*
X359252Y14764D02*
Y24114D01*
X327756Y5906D02*
X350394D01*
X377953Y42815D02*
Y52165D01*
X249016Y5906D02*
X288386D01*
X327756D01*
X288386D02*
Y15748D01*
X209646Y5906D02*
X249016D01*
Y15748D01*
X170276Y5906D02*
X209646D01*
Y15748D01*
X130905Y5906D02*
X170276D01*
Y15748D01*
X91535Y5906D02*
X130905D01*
Y15748D01*
X91535Y5906D02*
Y15748D01*
X327756Y5906D02*
Y15748D01*
X341535D02*
Y47244D01*
X302165Y15748D02*
Y47244D01*
X262795Y15748D02*
Y47244D01*
X223425Y15748D02*
Y47244D01*
X184055Y15748D02*
Y47244D01*
X144685Y15748D02*
Y47244D01*
X105315Y15748D02*
Y47244D01*
X65945Y15748D02*
Y47244D01*
D11*
X17693Y155173D02*
G03*
X14764Y148102I7071J-7071D01*
G01*
X15724Y163205D02*
G03*
X12795Y156133I7071J-7071D01*
G01*
X28543Y154165D02*
G03*
X25614Y161236I-10000J0D01*
G01*
X183759Y94095D02*
G03*
X193011Y103347I0J9252D01*
G01*
X185570Y91732D02*
G03*
X195570Y101732I0J10000D01*
G01*
X188129Y90158D02*
G03*
X198129Y100157I0J10000D01*
G01*
X191929Y86615D02*
G03*
X200688Y95373I0J8759D01*
G01*
X210924Y102362D02*
G03*
X218798Y94488I7874J0D01*
G01*
X208365Y101378D02*
G03*
X217224Y92520I8858J0D01*
G01*
X205806Y100551D02*
G03*
X215806Y90551I10000J0D01*
G01*
X203247Y96614D02*
G03*
X213247Y86614I10000J0D01*
G01*
X217520Y136811D02*
G03*
X213483Y132775I0J-4036D01*
G01*
X216830Y138779D02*
G03*
X210924Y132874I0J-5906D01*
G01*
X216239Y140748D02*
G03*
X208365Y132874I0J-7874D01*
G01*
X208659Y139761D02*
G03*
X205806Y132874I6887J-6887D01*
G01*
X208659Y139761D02*
G03*
X210572Y142717I-5947J5947D01*
G01*
D02*
G03*
X211122Y145709I-7861J2992D01*
G01*
X197810Y146678D02*
G03*
X190739Y149607I-7071J-7071D01*
G01*
X203247Y137099D02*
G03*
X200318Y144170I-10000J0D01*
G01*
X200688Y134737D02*
G03*
X197759Y141808I-10000J0D01*
G01*
X196827Y142740D02*
G03*
X189755Y145669I-7071J-7071D01*
G01*
X237492Y140748D02*
G03*
X244563Y143677I0J10000D01*
G01*
X274893Y138779D02*
G03*
X281964Y141709I0J10000D01*
G01*
X299696Y136811D02*
G03*
X306768Y139740I0J10000D01*
G01*
X259424Y87622D02*
G03*
X252353Y90551I-7071J-7071D01*
G01*
X297712Y89591D02*
G03*
X290641Y92520I-7071J-7071D01*
G01*
X311491Y91559D02*
G03*
X304420Y94488I-7071J-7071D01*
G01*
X112205Y91732D02*
G03*
X105148Y88809I0J-9980D01*
G01*
X75205Y94095D02*
G03*
X68134Y91166I0J-10000D01*
G01*
X143898Y90158D02*
G03*
X142717Y88976I0J-1181D01*
G01*
X142323Y86614D02*
G03*
X142717Y87008I0J394D01*
G01*
X72835Y146653D02*
G03*
X77587Y144685I4752J4752D01*
G01*
X72811Y146678D02*
G03*
X65739Y149607I-7071J-7071D01*
G01*
X113189Y148622D02*
G03*
X110812Y149607I-2377J-2377D01*
G01*
X113189Y148622D02*
G03*
X117941Y146653I4752J4752D01*
G01*
X117740Y128913D02*
G03*
X124811Y125984I7071J7071D01*
G01*
X117740Y121039D02*
G03*
X124811Y118110I7071J7071D01*
G01*
X117740Y113165D02*
G03*
X124811Y110236I7071J7071D01*
G01*
X118859Y104172D02*
G03*
X120852Y103347I1992J1992D01*
G01*
X121063Y101378D02*
G03*
X118711Y100404I0J-3327D01*
G01*
X178247Y101378D02*
G03*
X179105Y101575I0J1969D01*
G01*
D02*
G03*
X180216Y103347I-858J1772D01*
G01*
X169291D02*
G03*
X173228Y107283I0J3937D01*
G01*
X176181Y111811D02*
G03*
X173228Y108858I0J-2953D01*
G01*
X182775Y110236D02*
G03*
X181200Y111811I-1575J0D01*
G01*
X185334Y109942D02*
G03*
X182087Y113189I-3247J0D01*
G01*
X187893Y110236D02*
G03*
X182972Y115157I-4921J0D01*
G01*
X190452Y110236D02*
G03*
X183562Y117126I-6890J0D01*
G01*
X179478Y123031D02*
G03*
X182775Y126328I0J3297D01*
G01*
X180412Y121063D02*
G03*
X185334Y125984I0J4921D01*
G01*
X183562Y119095D02*
G03*
X190452Y125984I0J6890D01*
G01*
X170276Y110236D02*
G03*
X171260Y111221I0J984D01*
G01*
X173228Y113189D02*
G03*
X171260Y111221I0J-1969D01*
G01*
X137795Y116142D02*
G03*
X133043Y118110I-4752J-4752D01*
G01*
X137795Y116142D02*
G03*
X139764Y115182I2376J2376D01*
G01*
D02*
G03*
X140172Y115157I408J3336D01*
G01*
X135803Y123055D02*
G03*
X128732Y125984I-7071J-7071D01*
G01*
X138803Y120055D02*
G03*
X143701Y117365I7071J7071D01*
G01*
D02*
G03*
X145874Y117126I2174J9761D01*
G01*
X136811Y128937D02*
G03*
X131890Y133858I-4921J0D01*
G01*
X117740Y136787D02*
G03*
X124811Y133858I7071J7071D01*
G01*
X136811Y128937D02*
G03*
X138779Y123031I9843J0D01*
G01*
D02*
G03*
X140748Y121063I7874J5906D01*
G01*
X140748Y121063D02*
G03*
X146653Y119095I5906J7874D01*
G01*
X142717Y134843D02*
G03*
X136811Y140748I-5906J0D01*
G01*
X142717Y125984D02*
G03*
X147638Y121063I4921J0D01*
G01*
X144685Y127953D02*
G03*
X149606Y123031I4921J0D01*
G01*
X144685Y134843D02*
G03*
X136811Y142717I-7874J0D01*
G01*
X151575D02*
G03*
X146822Y144685I-4752J-4752D01*
G01*
X151575Y142717D02*
G03*
X156327Y140748I4752J4752D01*
G01*
X193874Y138803D02*
G03*
X189179Y140748I-4695J-4695D01*
G01*
X195570Y134742D02*
G03*
X193898Y138779I-5709J0D01*
G01*
X154504Y143725D02*
G03*
X147433Y146653I-7071J-7071D01*
G01*
X154504Y143725D02*
G03*
X156937Y142717I2434J2434D01*
G01*
X195842Y140772D02*
G03*
X191147Y142717I-4695J-4695D01*
G01*
X198129Y135251D02*
G03*
X195842Y140772I-7807J0D01*
G01*
X157480Y147638D02*
G03*
X152727Y149607I-4753J-4753D01*
G01*
X157480Y147638D02*
G03*
X160433Y145915I4752J4752D01*
G01*
D02*
G03*
X162233Y145669I1800J6476D01*
G01*
X336591Y83685D02*
G03*
X329520Y86614I-7071J-7071D01*
G01*
X343701Y74409D02*
G03*
X342170Y78106I-5228J0D01*
G01*
X186221Y74409D02*
G03*
X184689Y78106I-5228J0D01*
G01*
X181693Y83050D02*
G03*
X183071Y79724I4704J0D01*
G01*
X83867Y140748D02*
G03*
X76796Y137819I0J-10000D01*
G01*
X28543Y147795D02*
G03*
X38543Y137795I10000J0D01*
G01*
X45464D02*
G03*
X52535Y140724I0J10000D01*
G01*
X26575Y146653D02*
G03*
X24014Y152837I-8744J0D01*
G01*
X26575Y139921D02*
G03*
X36575Y129921I10000J0D01*
G01*
X45464D02*
G03*
X52535Y132850I0J10000D01*
G01*
X68692Y133858D02*
G03*
X75763Y136787I0J10000D01*
G01*
X54528Y142717D02*
G03*
X53543Y141732I0J-985D01*
G01*
X187795Y129722D02*
G03*
X187893Y129625I97J0D01*
G01*
X188976Y134252D02*
G03*
X187795Y133071I0J-1181D01*
G01*
X193011Y133367D02*
G03*
X192126Y134252I-885J0D01*
G01*
X193011Y125887D02*
G03*
X202362Y116535I9351J0D01*
G01*
X213483Y114076D02*
G03*
X211024Y116535I-2460J0D01*
G01*
X14764Y86811D02*
G03*
X15159Y85336I2953J0D01*
G01*
D02*
G03*
X17717Y83858I2558J1475D01*
G01*
X24016Y79528D02*
G03*
X19685Y83858I-4331J0D01*
G01*
X21087Y70457D02*
G03*
X24016Y77528I-7071J7071D01*
G01*
X12795Y82284D02*
G03*
X16024Y79055I3228J0D01*
G01*
X120852Y103346D02*
X125998D01*
X125998Y103347D01*
X19685Y157165D02*
X24014Y152837D01*
X193011Y103347D02*
Y106594D01*
X195570Y101732D02*
Y106594D01*
X198129Y100157D02*
Y106594D01*
X200688Y95373D02*
Y106594D01*
X188386Y86615D02*
X191929D01*
X210924Y102362D02*
Y106594D01*
X208365Y101378D02*
Y106594D01*
X205806Y100551D02*
Y106594D01*
X203247Y96614D02*
Y106594D01*
X213247Y86614D02*
X221063D01*
X213483Y129625D02*
Y132775D01*
X210924Y129625D02*
Y132874D01*
X208365Y129625D02*
Y132874D01*
X205806Y129625D02*
Y132874D01*
X211122Y145709D02*
Y149607D01*
X171752D02*
X190739D01*
X197810Y146678D02*
X200318Y144170D01*
X203247Y129625D02*
Y137099D01*
X200688Y129625D02*
Y134737D01*
X196827Y142740D02*
X197759Y141808D01*
X198129Y129625D02*
Y135251D01*
X195570Y129625D02*
Y134742D01*
X216239Y140748D02*
X237492D01*
X244563Y143677D02*
X250492Y149607D01*
X216830Y138779D02*
X274893D01*
X281964Y141709D02*
X289862Y149607D01*
X217520Y136811D02*
X299696D01*
X306768Y139740D02*
X316634Y149606D01*
X215806Y90551D02*
X252353D01*
X259424Y87622D02*
X260433Y86614D01*
X217224Y92520D02*
X290641D01*
X297712Y89591D02*
X300689Y86614D01*
X218798Y94488D02*
X304420D01*
X311491Y91559D02*
X316437Y86614D01*
X102952D02*
X105148Y88809D01*
X112205Y91732D02*
X185570D01*
X75205Y94095D02*
X183759D01*
X63582Y86614D02*
X68134Y91166D01*
X143898Y90158D02*
X188129D01*
X142717Y87008D02*
Y88976D01*
X72811Y146678D02*
X72835Y146653D01*
X53642Y149607D02*
X65739D01*
X93898D02*
X110812D01*
X116732Y106299D02*
X118859Y104172D01*
X120852Y103347D02*
X120852Y103346D01*
X118711Y100404D02*
X118711Y100404D01*
X121063Y101378D02*
X178247D01*
X180216Y103347D02*
Y106594D01*
X125998Y103347D02*
X169291D01*
X173228Y107283D02*
Y108858D01*
X176181Y111811D02*
X181200D01*
X182775Y106594D02*
Y110236D01*
X185334Y106594D02*
Y109942D01*
X187893Y106594D02*
Y110236D01*
X190452Y106594D02*
Y110236D01*
X182775Y126328D02*
Y129625D01*
X185334Y125984D02*
Y129625D01*
X190452Y125984D02*
Y129625D01*
X124811Y110236D02*
X170276D01*
X173228Y113189D02*
X182087D01*
X124811Y118110D02*
X133043D01*
X140172Y115157D02*
X182972D01*
X124811Y125984D02*
X128732D01*
X135803Y123055D02*
X138803Y120055D01*
X145874Y117126D02*
X183562D01*
X124811Y133858D02*
X131890D01*
X146653Y119095D02*
X183562D01*
X142717Y125984D02*
Y134843D01*
X147638Y121063D02*
X180412D01*
X144685Y127953D02*
Y134843D01*
X149606Y123031D02*
X179478D01*
X77587Y144685D02*
X146822D01*
X156327Y140748D02*
X189179D01*
X193874Y138803D02*
X193898Y138779D01*
X117941Y146653D02*
X147433D01*
X156937Y142717D02*
X191147D01*
X132382Y149607D02*
X152727D01*
X162233Y145669D02*
X189755D01*
X87205Y161811D02*
X89370D01*
X87205Y149607D02*
Y161811D01*
X46949Y149607D02*
X48228D01*
Y161811D02*
X50000D01*
X48228Y149607D02*
Y161811D01*
X125689Y149607D02*
X126969D01*
Y161811D02*
X128740D01*
X126969Y149607D02*
Y161811D01*
X166339Y149607D02*
Y161811D01*
X168110D01*
X165059Y149607D02*
X166339D01*
X205709D02*
Y161811D01*
X207480D01*
X204429Y149607D02*
X205709D01*
X245079D02*
Y161811D01*
X246850D01*
X243799Y149607D02*
X245079D01*
X284449D02*
Y161811D01*
X286221D01*
X283170Y149607D02*
X284449D01*
X323819D02*
Y161811D01*
X325590D01*
X322540Y149607D02*
X323819D01*
X323130Y86614D02*
X329520D01*
X336591Y83685D02*
X342170Y78106D01*
X306102Y74409D02*
Y86614D01*
X304331Y74409D02*
X306102D01*
Y86614D02*
X307382D01*
X266732Y74409D02*
Y86614D01*
X264961Y74409D02*
X266732D01*
Y86614D02*
X268011D01*
X227362Y74409D02*
Y86614D01*
X225590Y74409D02*
X227362D01*
Y86614D02*
X228641D01*
X148622Y74409D02*
Y86614D01*
X146850Y74409D02*
X148622D01*
Y86614D02*
X149901D01*
X109252Y74409D02*
Y86614D01*
X107480Y74409D02*
X109252D01*
Y86614D02*
X110531D01*
X69882Y74409D02*
Y86614D01*
X68110Y74409D02*
X69882D01*
Y86614D02*
X71161D01*
X181693Y83050D02*
Y86615D01*
X183071Y79724D02*
X184689Y78106D01*
X99015Y137795D02*
X116732D01*
X116732Y137795D01*
X117740Y136787D01*
X99015Y129921D02*
X116732D01*
X116732Y129921D01*
X117740Y128913D01*
X99015Y122047D02*
X116732D01*
X116732Y122047D01*
X117740Y121039D01*
X99015Y114173D02*
X116732D01*
X117740Y113165D01*
X99015Y106299D02*
X116732D01*
X116732Y106299D01*
X99015Y98425D02*
X116732D01*
X116732Y98425D01*
X118711Y100404D01*
X83867Y140748D02*
X136811D01*
X28543Y147795D02*
Y154165D01*
X38543Y137795D02*
X45464D01*
X26575Y139921D02*
Y146653D01*
X36575Y129921D02*
X45464D01*
X53543Y133858D02*
X68692D01*
X52535Y132850D02*
X53543Y133858D01*
X75763Y136787D02*
X76796Y137819D01*
X54528Y142717D02*
X136811D01*
X52535Y140724D02*
X53543Y141732D01*
X53544Y117126D02*
X53937D01*
X53544D02*
Y125985D01*
X187795Y129722D02*
Y133071D01*
X188976Y134252D02*
X192126D01*
X193011Y125887D02*
Y129625D01*
Y133367D01*
X202362Y116535D02*
X211024D01*
X213483Y106594D02*
Y114076D01*
X14764Y86811D02*
Y148102D01*
X17717Y83858D02*
X19685D01*
X24016Y77528D02*
Y79528D01*
X12795Y82284D02*
Y156133D01*
X17693Y155173D02*
X19685Y157165D01*
Y167165D02*
X25614Y161236D01*
X15724Y163205D02*
X19685Y167165D01*
X20659Y70029D02*
X21087Y70457D01*
X16024Y79055D02*
X19685D01*
X0Y11811D02*
G03*
X11811Y0I11811J0D01*
G01*
X381890D02*
G03*
X393701Y11811I0J11811D01*
G01*
Y224410D02*
G03*
X381890Y236221I-11811J0D01*
G01*
X11811D02*
G03*
X0Y224410I0J-11811D01*
G01*
X11811Y0D02*
X381890D01*
X393701Y11811D02*
Y224409D01*
X11811Y236221D02*
X381890D01*
X0Y11811D02*
Y224410D01*
X-224410Y-177165D02*
X1429134D01*
X-224410D02*
Y992126D01*
X1429134Y-177165D02*
Y992126D01*
X-224410D02*
X1429134D01*
X1153543Y-177165D02*
Y-19685D01*
X956693Y-177165D02*
Y-19685D01*
X1429134D01*
X956693Y-137795D02*
X1429134D01*
X1153543Y-98425D02*
X1429134D01*
X1153543Y-59055D02*
X1429134D01*
X1311024Y-137795D02*
Y-98425D01*
X1163386Y-169291D02*
X1165354D01*
X1164370D01*
Y-163388D01*
X1163386Y-164372D01*
X1172241Y-163388D02*
X1170273Y-164372D01*
X1168305Y-166340D01*
Y-168307D01*
X1169289Y-169291D01*
X1171257D01*
X1172241Y-168307D01*
Y-167324D01*
X1171257Y-166340D01*
X1168305D01*
X1178145Y-164372D02*
X1177161Y-163388D01*
X1175193D01*
X1174209Y-164372D01*
Y-168307D01*
X1175193Y-169291D01*
X1177161D01*
X1178145Y-168307D01*
X1180113Y-163388D02*
Y-169291D01*
Y-166340D01*
X1184048D01*
Y-163388D01*
Y-169291D01*
X1186016Y-170275D02*
X1189952D01*
X1191920Y-169291D02*
Y-163388D01*
X1194872D01*
X1195856Y-164372D01*
Y-166340D01*
X1194872Y-167324D01*
X1191920D01*
X1197824Y-163388D02*
Y-169291D01*
X1199791Y-167324D01*
X1201759Y-169291D01*
Y-163388D01*
X1203727Y-169291D02*
Y-163388D01*
X1205695Y-165356D01*
X1207663Y-163388D01*
Y-169291D01*
X1209631Y-170275D02*
X1213566D01*
X1215534Y-169291D02*
Y-163388D01*
X1218486D01*
X1219470Y-164372D01*
Y-166340D01*
X1218486Y-167324D01*
X1215534D01*
X1224390Y-163388D02*
X1222422D01*
X1221438Y-164372D01*
Y-168307D01*
X1222422Y-169291D01*
X1224390D01*
X1225374Y-168307D01*
Y-164372D01*
X1224390Y-163388D01*
X1227341D02*
Y-169291D01*
X1229309Y-167324D01*
X1231277Y-169291D01*
Y-163388D01*
X1237181D02*
X1233245D01*
Y-169291D01*
X1237181D01*
X1233245Y-166340D02*
X1235213D01*
X1239149Y-169291D02*
Y-163388D01*
X1242101D01*
X1243084Y-164372D01*
Y-166340D01*
X1242101Y-167324D01*
X1239149D01*
X1241117D02*
X1243084Y-169291D01*
X1245052Y-170275D02*
X1248988D01*
X1250956Y-164372D02*
X1251940Y-163388D01*
X1253908D01*
X1254892Y-164372D01*
Y-168307D01*
X1253908Y-169291D01*
X1251940D01*
X1250956Y-168307D01*
Y-164372D01*
X1256859D02*
X1257843Y-163388D01*
X1259811D01*
X1260795Y-164372D01*
Y-168307D01*
X1259811Y-169291D01*
X1257843D01*
X1256859Y-168307D01*
Y-164372D01*
X1262763Y-169291D02*
Y-168307D01*
X1263747D01*
Y-169291D01*
X1262763D01*
X1267683D02*
Y-163388D01*
X1270635D01*
X1271618Y-164372D01*
Y-166340D01*
X1270635Y-167324D01*
X1267683D01*
X1277522Y-165356D02*
X1274570D01*
X1273586Y-166340D01*
Y-168307D01*
X1274570Y-169291D01*
X1277522D01*
X1279490Y-163388D02*
Y-169291D01*
X1282442D01*
X1283426Y-168307D01*
Y-167324D01*
Y-166340D01*
X1282442Y-165356D01*
X1279490D01*
X1285394Y-163388D02*
Y-169291D01*
X1288345D01*
X1289329Y-168307D01*
Y-164372D01*
X1288345Y-163388D01*
X1285394D01*
X1292281Y-169291D02*
X1294249D01*
X1295233Y-168307D01*
Y-166340D01*
X1294249Y-165356D01*
X1292281D01*
X1291297Y-166340D01*
Y-168307D01*
X1292281Y-169291D01*
X1301136Y-165356D02*
X1298185D01*
X1297201Y-166340D01*
Y-168307D01*
X1298185Y-169291D01*
X1301136D01*
D12*
X118711Y100404D02*
D03*
D13*
X179134Y125984D02*
G03*
X180216Y127066I0J1082D01*
G01*
X166733Y126969D02*
G03*
X167717Y125984I985J0D01*
G01*
X123425Y137795D02*
X127362D01*
X123425Y129921D02*
X127362D01*
X123425Y122047D02*
X127362D01*
X123425Y114173D02*
X127362D01*
X123425Y106299D02*
X127362D01*
X123425Y98425D02*
X127362D01*
X166929Y133071D02*
X170866D01*
X180216Y127066D02*
Y129625D01*
X167717Y125984D02*
X179134D01*
X166733Y126969D02*
Y132941D01*
X92322Y98425D02*
Y106299D01*
Y114173D01*
Y122047D01*
Y129921D01*
Y137795D01*
X42913Y133858D02*
X46850D01*
X42913Y141732D02*
X46850D01*
X42914Y125985D02*
X46851D01*
X42520Y117126D02*
X46457D01*
X166929Y136614D02*
X170866D01*
X150000D02*
X153937D01*
X150000Y133071D02*
X153937D01*
X156103Y126969D02*
X160040D01*
X1175197Y-76776D02*
X1184380D01*
X1179789D01*
Y-90551D01*
X1191268D02*
X1195860D01*
X1198155Y-88255D01*
Y-83664D01*
X1195860Y-81368D01*
X1191268D01*
X1188972Y-83664D01*
Y-88255D01*
X1191268Y-90551D01*
X1202747Y-95143D02*
Y-81368D01*
X1209635D01*
X1211930Y-83664D01*
Y-88255D01*
X1209635Y-90551D01*
X1202747D01*
X1230297Y-76776D02*
Y-90551D01*
X1239481D01*
X1246368Y-81368D02*
X1250960D01*
X1253256Y-83664D01*
Y-90551D01*
X1246368D01*
X1244072Y-88255D01*
X1246368Y-85960D01*
X1253256D01*
X1257847Y-81368D02*
Y-88255D01*
X1260143Y-90551D01*
X1267031D01*
Y-92847D01*
X1264735Y-95143D01*
X1262439D01*
X1267031Y-90551D02*
Y-81368D01*
X1278510Y-90551D02*
X1273918D01*
X1271622Y-88255D01*
Y-83664D01*
X1273918Y-81368D01*
X1278510D01*
X1280806Y-83664D01*
Y-85960D01*
X1271622D01*
X1285398Y-81368D02*
Y-90551D01*
Y-85960D01*
X1287693Y-83664D01*
X1289989Y-81368D01*
X1292285D01*
X1163386Y-53150D02*
X1168633D01*
X1166010D01*
Y-37407D01*
X1163386Y-40031D01*
X1187000Y-37407D02*
X1181753Y-40031D01*
X1176505Y-45278D01*
Y-50526D01*
X1179129Y-53150D01*
X1184376D01*
X1187000Y-50526D01*
Y-47902D01*
X1184376Y-45278D01*
X1176505D01*
X1202743Y-40031D02*
X1200119Y-37407D01*
X1194872D01*
X1192248Y-40031D01*
Y-50526D01*
X1194872Y-53150D01*
X1200119D01*
X1202743Y-50526D01*
X1207991Y-37407D02*
Y-53150D01*
Y-45278D01*
X1210615Y-42654D01*
X1215862D01*
X1218486Y-45278D01*
Y-53150D01*
X1239477D02*
Y-37407D01*
X1247348D01*
X1249972Y-40031D01*
Y-45278D01*
X1247348Y-47902D01*
X1239477D01*
X1255220Y-37407D02*
Y-53150D01*
X1260467Y-47902D01*
X1265715Y-53150D01*
Y-37407D01*
X1270963Y-53150D02*
Y-37407D01*
X1276210Y-42654D01*
X1281458Y-37407D01*
Y-53150D01*
X1302448D02*
Y-37407D01*
X1310320D01*
X1312944Y-40031D01*
Y-45278D01*
X1310320Y-47902D01*
X1302448D01*
X1320815Y-53150D02*
X1326063D01*
X1328687Y-50526D01*
Y-45278D01*
X1326063Y-42654D01*
X1320815D01*
X1318191Y-45278D01*
Y-50526D01*
X1320815Y-53150D01*
X1333934Y-42654D02*
Y-50526D01*
X1336558Y-53150D01*
X1339182Y-50526D01*
X1341806Y-53150D01*
X1344430Y-50526D01*
Y-42654D01*
X1357549Y-53150D02*
X1352301D01*
X1349677Y-50526D01*
Y-45278D01*
X1352301Y-42654D01*
X1357549D01*
X1360173Y-45278D01*
Y-47902D01*
X1349677D01*
X1365420Y-42654D02*
Y-53150D01*
Y-47902D01*
X1368044Y-45278D01*
X1370668Y-42654D01*
X1373292D01*
X1178475Y-131890D02*
X1169291D01*
X1178475Y-122706D01*
Y-120411D01*
X1176179Y-118115D01*
X1171587D01*
X1169291Y-120411D01*
X1192250Y-118115D02*
X1187658Y-120411D01*
X1183066Y-125002D01*
Y-129594D01*
X1185362Y-131890D01*
X1189954D01*
X1192250Y-129594D01*
Y-127298D01*
X1189954Y-125002D01*
X1183066D01*
X1196842Y-131890D02*
X1206025Y-122706D01*
X1210617Y-131890D02*
X1215208D01*
X1212912D01*
Y-118115D01*
X1210617Y-120411D01*
X1222096D02*
X1224392Y-118115D01*
X1228983D01*
X1231279Y-120411D01*
Y-129594D01*
X1228983Y-131890D01*
X1224392D01*
X1222096Y-129594D01*
Y-120411D01*
X1235871Y-131890D02*
X1245054Y-122706D01*
X1258829Y-131890D02*
X1249646D01*
X1258829Y-122706D01*
Y-120411D01*
X1256534Y-118115D01*
X1251942D01*
X1249646Y-120411D01*
X1263421D02*
X1265717Y-118115D01*
X1270309D01*
X1272604Y-120411D01*
Y-129594D01*
X1270309Y-131890D01*
X1265717D01*
X1263421Y-129594D01*
Y-120411D01*
X1277196Y-131890D02*
X1281788D01*
X1279492D01*
Y-118115D01*
X1277196Y-120411D01*
X1288675Y-118115D02*
X1297859D01*
Y-120411D01*
X1288675Y-129594D01*
Y-131890D01*
X1332677Y-118771D02*
X1335301Y-116147D01*
X1340549D01*
X1343172Y-118771D01*
Y-129266D01*
X1340549Y-131890D01*
X1335301D01*
X1332677Y-129266D01*
Y-118771D01*
X1348420D02*
X1351044Y-116147D01*
X1356292D01*
X1358915Y-118771D01*
Y-129266D01*
X1356292Y-131890D01*
X1351044D01*
X1348420Y-129266D01*
Y-118771D01*
X978347Y-155517D02*
Y-171260D01*
X983594Y-166012D01*
X988842Y-171260D01*
Y-155517D01*
X994089Y-171260D02*
X999337D01*
X996713D01*
Y-160765D01*
X994089D01*
X1007209Y-171260D02*
Y-160765D01*
X1009832D01*
X1012456Y-163388D01*
Y-171260D01*
Y-163388D01*
X1015080Y-160765D01*
X1017704Y-163388D01*
Y-171260D01*
X1022952Y-155517D02*
Y-166012D01*
X1028199Y-171260D01*
X1033447Y-166012D01*
Y-155517D01*
X1049190Y-158141D02*
X1046566Y-155517D01*
X1041318D01*
X1038694Y-158141D01*
Y-168636D01*
X1041318Y-171260D01*
X1046566D01*
X1049190Y-168636D01*
Y-163388D01*
X1043942D01*
D14*
X24630Y64000D02*
G03*
X27559Y71071I-7071J7071D01*
G01*
Y90346D02*
G03*
X24630Y97417I-10000J0D01*
G01*
X19685Y106504D02*
G03*
X22614Y99433I10000J0D01*
G01*
X19685Y59055D02*
X24630Y64000D01*
X27559Y71071D02*
Y90346D01*
X22614Y99433D02*
X24630Y97417D01*
X19685Y106504D02*
Y109252D01*
Y147165D01*
D15*
X213483Y129625D02*
D03*
X210924D02*
D03*
X208365D02*
D03*
X205806D02*
D03*
X203247D02*
D03*
X200688D02*
D03*
X198129D02*
D03*
X195570D02*
D03*
X193011D02*
D03*
X190452D02*
D03*
X187893D02*
D03*
X185334D02*
D03*
X182775D02*
D03*
X180216D02*
D03*
X213483Y106594D02*
D03*
X210924D02*
D03*
X208365D02*
D03*
X205806D02*
D03*
X203247D02*
D03*
X200688D02*
D03*
X198129D02*
D03*
X195570D02*
D03*
X193011D02*
D03*
X190452D02*
D03*
X187893D02*
D03*
X185334D02*
D03*
X182775D02*
D03*
X180216D02*
D03*
D16*
X166733Y126969D02*
D03*
X160040D02*
D03*
X99015Y106299D02*
D03*
X92322D02*
D03*
X99015Y114173D02*
D03*
X92322D02*
D03*
X99015Y122047D02*
D03*
X92322D02*
D03*
X99015Y129921D02*
D03*
X92322D02*
D03*
X99015Y137795D02*
D03*
X92322D02*
D03*
X99015Y98425D02*
D03*
X92322D02*
D03*
X123425Y129921D02*
D03*
X116732D02*
D03*
X123425Y122047D02*
D03*
X116732D02*
D03*
X123425Y114173D02*
D03*
X116732D02*
D03*
X123425Y106299D02*
D03*
X116732D02*
D03*
X123425Y137795D02*
D03*
X116732D02*
D03*
X123425Y98425D02*
D03*
X116732D02*
D03*
X70275Y86614D02*
D03*
X63582D02*
D03*
X109645D02*
D03*
X102952D02*
D03*
X149015D02*
D03*
X142323D02*
D03*
X267126D02*
D03*
X260433D02*
D03*
X307382D02*
D03*
X300689D02*
D03*
X227756D02*
D03*
X221063D02*
D03*
X181693Y86615D02*
D03*
X188386D02*
D03*
X46949Y149607D02*
D03*
X53642D02*
D03*
X165059D02*
D03*
X171752D02*
D03*
X204429D02*
D03*
X211122D02*
D03*
X243799D02*
D03*
X250492D02*
D03*
X87205D02*
D03*
X93898D02*
D03*
X125689D02*
D03*
X132382D02*
D03*
X283170D02*
D03*
X289862D02*
D03*
X323326Y149606D02*
D03*
X316634D02*
D03*
X323130Y86614D02*
D03*
X316437D02*
D03*
X53543Y141732D02*
D03*
X46850D02*
D03*
X53543Y133858D02*
D03*
X46850D02*
D03*
X46851Y125985D02*
D03*
X53544D02*
D03*
D17*
X154921Y134843D02*
D03*
X165945D02*
D03*
D18*
X356299Y84252D02*
D03*
Y73228D02*
D03*
Y151969D02*
D03*
Y162992D02*
D03*
D19*
X53937Y117126D02*
D03*
X46457D02*
D03*
D20*
X59055Y188976D02*
D03*
X98425D02*
D03*
X137795D02*
D03*
X177165D02*
D03*
X216535D02*
D03*
X255906D02*
D03*
X295276D02*
D03*
X334646D02*
D03*
Y47244D02*
D03*
X295276D02*
D03*
X255906D02*
D03*
X216535D02*
D03*
X177165D02*
D03*
X137795D02*
D03*
X98425D02*
D03*
X59055D02*
D03*
D21*
X68110Y161811D02*
D03*
X50000D02*
D03*
X107480D02*
D03*
X89370D02*
D03*
X146850D02*
D03*
X128740D02*
D03*
X186221D02*
D03*
X168110D02*
D03*
X225590D02*
D03*
X207480D02*
D03*
X264961D02*
D03*
X246850D02*
D03*
X304331D02*
D03*
X286221D02*
D03*
X343701D02*
D03*
X325590D02*
D03*
Y74409D02*
D03*
X343701D02*
D03*
X286221D02*
D03*
X304331D02*
D03*
X246850D02*
D03*
X264961D02*
D03*
X207480D02*
D03*
X225590D02*
D03*
X168110D02*
D03*
X186221D02*
D03*
X128740D02*
D03*
X146850D02*
D03*
X89370D02*
D03*
X107480D02*
D03*
X50000D02*
D03*
X68110D02*
D03*
D22*
X98425Y44291D02*
D03*
X59055D02*
D03*
X98425D02*
D03*
X137795D02*
D03*
X177165D02*
D03*
X216535D02*
D03*
X255906D02*
D03*
X295276D02*
D03*
X334646D02*
D03*
X334646Y191929D02*
D03*
X295276D02*
D03*
X255906D02*
D03*
X216535D02*
D03*
X177165D02*
D03*
X137795D02*
D03*
X98425D02*
D03*
X59055D02*
D03*
D23*
X1157480Y-141735D02*
Y-149606D01*
X1161416D01*
X1162728Y-148294D01*
Y-143047D01*
X1161416Y-141735D01*
X1157480D01*
X1166664Y-149606D02*
X1169287D01*
X1170599Y-148294D01*
Y-145671D01*
X1169287Y-144359D01*
X1166664D01*
X1165352Y-145671D01*
Y-148294D01*
X1166664Y-149606D01*
X1178471Y-144359D02*
X1174535D01*
X1173223Y-145671D01*
Y-148294D01*
X1174535Y-149606D01*
X1178471D01*
X1181095Y-144359D02*
Y-148294D01*
X1182407Y-149606D01*
X1186342D01*
Y-144359D01*
X1188966Y-149606D02*
Y-144359D01*
X1190278D01*
X1191590Y-145671D01*
Y-149606D01*
Y-145671D01*
X1192902Y-144359D01*
X1194214Y-145671D01*
Y-149606D01*
X1200774D02*
X1198150D01*
X1196838Y-148294D01*
Y-145671D01*
X1198150Y-144359D01*
X1200774D01*
X1202085Y-145671D01*
Y-146983D01*
X1196838D01*
X1204709Y-149606D02*
Y-144359D01*
X1208645D01*
X1209957Y-145671D01*
Y-149606D01*
X1213893Y-143047D02*
Y-144359D01*
X1212581D01*
X1215205D01*
X1213893D01*
Y-148294D01*
X1215205Y-149606D01*
X1157480Y-102365D02*
Y-110236D01*
X1161416D01*
X1162728Y-108924D01*
Y-103677D01*
X1161416Y-102365D01*
X1157480D01*
X1166664Y-104989D02*
X1169287D01*
X1170599Y-106300D01*
Y-110236D01*
X1166664D01*
X1165352Y-108924D01*
X1166664Y-107612D01*
X1170599D01*
X1174535Y-103677D02*
Y-104989D01*
X1173223D01*
X1175847D01*
X1174535D01*
Y-108924D01*
X1175847Y-110236D01*
X1183719D02*
X1181095D01*
X1179783Y-108924D01*
Y-106300D01*
X1181095Y-104989D01*
X1183719D01*
X1185030Y-106300D01*
Y-107612D01*
X1179783D01*
X1157480Y-62995D02*
Y-70866D01*
X1162728D01*
X1166664Y-65618D02*
X1169287D01*
X1170599Y-66930D01*
Y-70866D01*
X1166664D01*
X1165352Y-69554D01*
X1166664Y-68242D01*
X1170599D01*
X1173223Y-65618D02*
Y-69554D01*
X1174535Y-70866D01*
X1178471D01*
Y-72178D01*
X1177159Y-73490D01*
X1175847D01*
X1178471Y-70866D02*
Y-65618D01*
X1185030Y-70866D02*
X1182407D01*
X1181095Y-69554D01*
Y-66930D01*
X1182407Y-65618D01*
X1185030D01*
X1186342Y-66930D01*
Y-68242D01*
X1181095D01*
X1188966Y-65618D02*
Y-70866D01*
Y-68242D01*
X1190278Y-66930D01*
X1191590Y-65618D01*
X1192902D01*
X1204709Y-70866D02*
Y-62995D01*
X1209957Y-70866D01*
Y-62995D01*
X1213893Y-65618D02*
X1216516D01*
X1217828Y-66930D01*
Y-70866D01*
X1213893D01*
X1212581Y-69554D01*
X1213893Y-68242D01*
X1217828D01*
X1220452Y-70866D02*
Y-65618D01*
X1221764D01*
X1223076Y-66930D01*
Y-70866D01*
Y-66930D01*
X1224388Y-65618D01*
X1225700Y-66930D01*
Y-70866D01*
X1232259D02*
X1229636D01*
X1228324Y-69554D01*
Y-66930D01*
X1229636Y-65618D01*
X1232259D01*
X1233571Y-66930D01*
Y-68242D01*
X1228324D01*
X1157480Y-23625D02*
Y-31496D01*
X1161416D01*
X1162728Y-30184D01*
Y-24937D01*
X1161416Y-23625D01*
X1157480D01*
X1166664Y-31496D02*
X1169287D01*
X1170599Y-30184D01*
Y-27560D01*
X1169287Y-26248D01*
X1166664D01*
X1165352Y-27560D01*
Y-30184D01*
X1166664Y-31496D01*
X1178471Y-26248D02*
X1174535D01*
X1173223Y-27560D01*
Y-30184D01*
X1174535Y-31496D01*
X1178471D01*
X1181095Y-26248D02*
Y-30184D01*
X1182407Y-31496D01*
X1186342D01*
Y-26248D01*
X1188966Y-31496D02*
Y-26248D01*
X1190278D01*
X1191590Y-27560D01*
Y-31496D01*
Y-27560D01*
X1192902Y-26248D01*
X1194214Y-27560D01*
Y-31496D01*
X1200774D02*
X1198150D01*
X1196838Y-30184D01*
Y-27560D01*
X1198150Y-26248D01*
X1200774D01*
X1202085Y-27560D01*
Y-28872D01*
X1196838D01*
X1204709Y-31496D02*
Y-26248D01*
X1208645D01*
X1209957Y-27560D01*
Y-31496D01*
X1213893Y-24937D02*
Y-26248D01*
X1212581D01*
X1215205D01*
X1213893D01*
Y-30184D01*
X1215205Y-31496D01*
X960630Y-141735D02*
Y-149606D01*
X964566D01*
X965878Y-148294D01*
Y-143047D01*
X964566Y-141735D01*
X960630D01*
X972437Y-149606D02*
X969813D01*
X968501Y-148294D01*
Y-145671D01*
X969813Y-144359D01*
X972437D01*
X973749Y-145671D01*
Y-146983D01*
X968501D01*
X976373Y-149606D02*
X980309D01*
X981621Y-148294D01*
X980309Y-146983D01*
X977685D01*
X976373Y-145671D01*
X977685Y-144359D01*
X981621D01*
X986868Y-152230D02*
X988180D01*
X989492Y-150918D01*
Y-144359D01*
X985556D01*
X984244Y-145671D01*
Y-148294D01*
X985556Y-149606D01*
X989492D01*
X992116D02*
X994740D01*
X993428D01*
Y-144359D01*
X992116D01*
X998675Y-149606D02*
Y-144359D01*
X1002611D01*
X1003923Y-145671D01*
Y-149606D01*
X1010483D02*
X1007859D01*
X1006547Y-148294D01*
Y-145671D01*
X1007859Y-144359D01*
X1010483D01*
X1011794Y-145671D01*
Y-146983D01*
X1006547D01*
X1014418Y-144359D02*
Y-149606D01*
Y-146983D01*
X1015730Y-145671D01*
X1017042Y-144359D01*
X1018354D01*
X1314961Y-110236D02*
Y-102365D01*
X1318896D01*
X1320208Y-103677D01*
Y-106300D01*
X1318896Y-107612D01*
X1314961D01*
X1317584D02*
X1320208Y-110236D01*
X1326768D02*
X1324144D01*
X1322832Y-108924D01*
Y-106300D01*
X1324144Y-104989D01*
X1326768D01*
X1328080Y-106300D01*
Y-107612D01*
X1322832D01*
X1330704Y-104989D02*
X1333327Y-110236D01*
X1335951Y-104989D01*
D24*
X11811Y11811D02*
D03*
X381890D02*
D03*
Y224410D02*
D03*
X11811D02*
D03*
D25*
X377953Y52165D02*
D03*
Y91535D02*
D03*
Y130905D02*
D03*
Y170276D02*
D03*
D26*
Y65945D02*
D03*
Y105315D02*
D03*
Y144685D02*
D03*
Y184055D02*
D03*
X52165Y220472D02*
D03*
X91535D02*
D03*
X170276D02*
D03*
X209646D02*
D03*
X249016D02*
D03*
X327756D02*
D03*
X130905D02*
D03*
X288386D02*
D03*
X65945Y15748D02*
D03*
X105315D02*
D03*
X144685D02*
D03*
X184055D02*
D03*
X223425D02*
D03*
X262795D02*
D03*
X341535D02*
D03*
X302165D02*
D03*
D27*
X338583Y142717D02*
D03*
Y93504D02*
D03*
D28*
Y128937D02*
D03*
Y107283D02*
D03*
D29*
X65945Y220472D02*
D03*
X105315D02*
D03*
X184055D02*
D03*
X223425D02*
D03*
X262795D02*
D03*
X341535D02*
D03*
X144685D02*
D03*
X302165D02*
D03*
X52165Y15748D02*
D03*
X91535D02*
D03*
X130905D02*
D03*
X170276D02*
D03*
X209646D02*
D03*
X249016D02*
D03*
X327756D02*
D03*
X288386D02*
D03*
D30*
X19685Y89055D02*
D03*
X7874Y99055D02*
D03*
X19685Y177165D02*
D03*
X7874Y187165D02*
D03*
D31*
X19685Y79055D02*
D03*
Y69055D02*
D03*
Y59055D02*
D03*
X7874Y89055D02*
D03*
Y79055D02*
D03*
Y69055D02*
D03*
X19685Y167165D02*
D03*
Y157165D02*
D03*
Y147165D02*
D03*
X7874Y177165D02*
D03*
Y167165D02*
D03*
Y157165D02*
D03*
D32*
X74803Y29528D02*
D03*
X62992Y165354D02*
D03*
Y158465D02*
D03*
X61024Y161909D02*
D03*
X75197D02*
D03*
X73228Y158465D02*
D03*
Y165354D02*
D03*
X112598D02*
D03*
Y158465D02*
D03*
X114567Y161909D02*
D03*
X100394D02*
D03*
X102362Y158465D02*
D03*
Y165354D02*
D03*
X151969D02*
D03*
Y158465D02*
D03*
X153937Y161909D02*
D03*
X139764D02*
D03*
X141732Y158465D02*
D03*
Y165354D02*
D03*
X191339D02*
D03*
Y158465D02*
D03*
X193307Y161909D02*
D03*
X179134D02*
D03*
X181102Y158465D02*
D03*
Y165354D02*
D03*
X230709D02*
D03*
Y158465D02*
D03*
X232677Y161909D02*
D03*
X218504D02*
D03*
X220472Y158465D02*
D03*
Y165354D02*
D03*
X270079D02*
D03*
Y158465D02*
D03*
X272047Y161909D02*
D03*
X257874D02*
D03*
X259842Y158465D02*
D03*
Y165354D02*
D03*
X309449D02*
D03*
Y158465D02*
D03*
X311417Y161909D02*
D03*
X297244D02*
D03*
X299213Y158465D02*
D03*
Y165354D02*
D03*
X348819D02*
D03*
Y158465D02*
D03*
X348819Y161909D02*
D03*
X336614D02*
D03*
X338583Y158465D02*
D03*
Y165354D02*
D03*
X330709Y77953D02*
D03*
Y71063D02*
D03*
X332677Y74508D02*
D03*
X318504D02*
D03*
X320472Y71063D02*
D03*
Y77953D02*
D03*
X291339D02*
D03*
Y71063D02*
D03*
X293307Y74508D02*
D03*
X279134D02*
D03*
X281102Y71063D02*
D03*
Y77953D02*
D03*
X251969D02*
D03*
Y71063D02*
D03*
X253937Y74508D02*
D03*
X239764D02*
D03*
X241732Y71063D02*
D03*
Y77953D02*
D03*
X212598D02*
D03*
Y71063D02*
D03*
X214567Y74508D02*
D03*
X200394D02*
D03*
X202362Y71063D02*
D03*
Y77953D02*
D03*
X173228D02*
D03*
Y71063D02*
D03*
X175197Y74508D02*
D03*
X161024D02*
D03*
X162992Y71063D02*
D03*
Y77953D02*
D03*
X133858D02*
D03*
Y71063D02*
D03*
X135827Y74508D02*
D03*
X121653D02*
D03*
X123622Y71063D02*
D03*
Y77953D02*
D03*
X94488D02*
D03*
Y71063D02*
D03*
X96457Y74508D02*
D03*
X82284D02*
D03*
X84252Y71063D02*
D03*
Y77953D02*
D03*
X74803Y59055D02*
D03*
Y64961D02*
D03*
Y53150D02*
D03*
Y47244D02*
D03*
Y41339D02*
D03*
Y35433D02*
D03*
Y23622D02*
D03*
X43307D02*
D03*
Y29528D02*
D03*
Y35433D02*
D03*
Y41339D02*
D03*
Y47244D02*
D03*
Y53150D02*
D03*
Y64961D02*
D03*
Y59055D02*
D03*
X82677D02*
D03*
Y64961D02*
D03*
Y53150D02*
D03*
Y47244D02*
D03*
Y41339D02*
D03*
Y35433D02*
D03*
Y29528D02*
D03*
Y23622D02*
D03*
X114173D02*
D03*
Y29528D02*
D03*
Y35433D02*
D03*
Y41339D02*
D03*
Y47244D02*
D03*
Y53150D02*
D03*
Y64961D02*
D03*
Y59055D02*
D03*
X122047D02*
D03*
Y64961D02*
D03*
Y53150D02*
D03*
Y47244D02*
D03*
Y41339D02*
D03*
Y35433D02*
D03*
Y29528D02*
D03*
Y23622D02*
D03*
X153543D02*
D03*
Y29528D02*
D03*
Y35433D02*
D03*
Y41339D02*
D03*
Y47244D02*
D03*
Y53150D02*
D03*
Y64961D02*
D03*
Y59055D02*
D03*
X161417D02*
D03*
Y64961D02*
D03*
Y53150D02*
D03*
Y47244D02*
D03*
Y41339D02*
D03*
Y35433D02*
D03*
Y29528D02*
D03*
Y23622D02*
D03*
X192913D02*
D03*
Y29528D02*
D03*
Y35433D02*
D03*
Y41339D02*
D03*
Y47244D02*
D03*
Y53150D02*
D03*
Y64961D02*
D03*
Y59055D02*
D03*
X200787D02*
D03*
Y64961D02*
D03*
Y53150D02*
D03*
Y47244D02*
D03*
Y41339D02*
D03*
Y35433D02*
D03*
Y29528D02*
D03*
Y23622D02*
D03*
X232283D02*
D03*
Y29528D02*
D03*
Y35433D02*
D03*
Y41339D02*
D03*
Y47244D02*
D03*
Y53150D02*
D03*
Y64961D02*
D03*
Y59055D02*
D03*
X240158D02*
D03*
Y64961D02*
D03*
Y53150D02*
D03*
Y47244D02*
D03*
Y41339D02*
D03*
Y35433D02*
D03*
Y29528D02*
D03*
Y23622D02*
D03*
X271654D02*
D03*
Y29528D02*
D03*
Y35433D02*
D03*
Y41339D02*
D03*
Y47244D02*
D03*
Y53150D02*
D03*
Y64961D02*
D03*
Y59055D02*
D03*
X279528D02*
D03*
Y64961D02*
D03*
Y53150D02*
D03*
Y47244D02*
D03*
Y41339D02*
D03*
Y35433D02*
D03*
Y29528D02*
D03*
Y23622D02*
D03*
X311024D02*
D03*
Y29528D02*
D03*
Y35433D02*
D03*
Y41339D02*
D03*
Y47244D02*
D03*
Y53150D02*
D03*
Y64961D02*
D03*
Y59055D02*
D03*
X318898D02*
D03*
Y64961D02*
D03*
Y53150D02*
D03*
Y47244D02*
D03*
Y41339D02*
D03*
Y35433D02*
D03*
Y29528D02*
D03*
Y23622D02*
D03*
X350394D02*
D03*
Y29528D02*
D03*
Y35433D02*
D03*
Y41339D02*
D03*
Y47244D02*
D03*
Y53150D02*
D03*
Y64961D02*
D03*
Y59055D02*
D03*
Y177165D02*
D03*
Y171260D02*
D03*
Y183071D02*
D03*
Y188976D02*
D03*
Y194882D02*
D03*
Y200787D02*
D03*
Y206693D02*
D03*
Y212598D02*
D03*
X318898D02*
D03*
Y206693D02*
D03*
Y200787D02*
D03*
Y194882D02*
D03*
Y188976D02*
D03*
Y183071D02*
D03*
Y171260D02*
D03*
Y177165D02*
D03*
X311024D02*
D03*
Y171260D02*
D03*
Y183071D02*
D03*
Y188976D02*
D03*
Y194882D02*
D03*
Y200787D02*
D03*
Y206693D02*
D03*
Y212598D02*
D03*
X279528D02*
D03*
Y206693D02*
D03*
Y200787D02*
D03*
Y194882D02*
D03*
Y188976D02*
D03*
Y183071D02*
D03*
Y171260D02*
D03*
Y177165D02*
D03*
X271654D02*
D03*
Y171260D02*
D03*
Y183071D02*
D03*
Y188976D02*
D03*
Y194882D02*
D03*
Y200787D02*
D03*
Y206693D02*
D03*
Y212598D02*
D03*
X240158D02*
D03*
Y206693D02*
D03*
Y200787D02*
D03*
Y194882D02*
D03*
Y188976D02*
D03*
Y183071D02*
D03*
Y171260D02*
D03*
Y177165D02*
D03*
X232283D02*
D03*
Y171260D02*
D03*
Y183071D02*
D03*
Y188976D02*
D03*
Y194882D02*
D03*
Y200787D02*
D03*
Y206693D02*
D03*
Y212598D02*
D03*
X200787D02*
D03*
Y206693D02*
D03*
Y200787D02*
D03*
Y194882D02*
D03*
Y188976D02*
D03*
Y183071D02*
D03*
Y171260D02*
D03*
Y177165D02*
D03*
X192913D02*
D03*
Y171260D02*
D03*
Y183071D02*
D03*
Y188976D02*
D03*
Y194882D02*
D03*
Y200787D02*
D03*
Y206693D02*
D03*
Y212598D02*
D03*
X161417D02*
D03*
Y206693D02*
D03*
Y200787D02*
D03*
Y194882D02*
D03*
Y188976D02*
D03*
Y183071D02*
D03*
Y171260D02*
D03*
Y177165D02*
D03*
X153543D02*
D03*
Y171260D02*
D03*
Y183071D02*
D03*
Y188976D02*
D03*
Y194882D02*
D03*
Y200787D02*
D03*
Y206693D02*
D03*
Y212598D02*
D03*
X122047D02*
D03*
Y206693D02*
D03*
Y200787D02*
D03*
Y194882D02*
D03*
Y188976D02*
D03*
Y183071D02*
D03*
Y171260D02*
D03*
Y177165D02*
D03*
X114173D02*
D03*
Y171260D02*
D03*
Y183071D02*
D03*
Y188976D02*
D03*
Y194882D02*
D03*
Y200787D02*
D03*
Y206693D02*
D03*
Y212598D02*
D03*
X82677D02*
D03*
Y206693D02*
D03*
Y200787D02*
D03*
Y194882D02*
D03*
Y188976D02*
D03*
Y183071D02*
D03*
Y171260D02*
D03*
Y177165D02*
D03*
X74803D02*
D03*
Y171260D02*
D03*
Y183071D02*
D03*
Y188976D02*
D03*
Y194882D02*
D03*
Y200787D02*
D03*
Y206693D02*
D03*
Y212598D02*
D03*
X43307D02*
D03*
Y206693D02*
D03*
Y200787D02*
D03*
Y194882D02*
D03*
Y188976D02*
D03*
Y183071D02*
D03*
Y171260D02*
D03*
Y177165D02*
D03*
X127362Y137795D02*
D03*
Y129921D02*
D03*
Y122047D02*
D03*
Y114173D02*
D03*
Y106299D02*
D03*
Y98425D02*
D03*
X170866Y133071D02*
D03*
X92322Y118110D02*
D03*
X42913Y133858D02*
D03*
Y141732D02*
D03*
X42914Y125985D02*
D03*
X42520Y117126D02*
D03*
X170866Y136614D02*
D03*
X205906Y116535D02*
D03*
X150000Y136614D02*
D03*
Y133071D02*
D03*
X156103Y126969D02*
D03*
X44882Y77953D02*
D03*
Y71063D02*
D03*
X42913Y74508D02*
D03*
X57087D02*
D03*
X55118Y71063D02*
D03*
Y77953D02*
D03*
X19685Y109252D02*
D03*
M02*
