G04 Layer_Color=16711935*
%FSLAX25Y25*%
%MOIN*%
G70*
G01*
G75*
%ADD10C,0.07874*%
%ADD11C,0.00787*%
%ADD13C,0.01575*%
%ADD23C,0.00984*%
%ADD45C,0.22835*%
%ADD46R,0.07480X0.07480*%
%ADD47C,0.07480*%
%ADD48R,0.05315X0.05315*%
G04:AMPARAMS|DCode=49|XSize=53.15mil|YSize=53.15mil|CornerRadius=14.27mil|HoleSize=0mil|Usage=FLASHONLY|Rotation=270.000|XOffset=0mil|YOffset=0mil|HoleType=Round|Shape=RoundedRectangle|*
%AMROUNDEDRECTD49*
21,1,0.05315,0.02461,0,0,270.0*
21,1,0.02461,0.05315,0,0,270.0*
1,1,0.02854,-0.01230,-0.01230*
1,1,0.02854,-0.01230,0.01230*
1,1,0.02854,0.01230,0.01230*
1,1,0.02854,0.01230,-0.01230*
%
%ADD49ROUNDEDRECTD49*%
%ADD50R,0.07480X0.07480*%
%ADD51R,0.06299X0.06299*%
%ADD52C,0.06299*%
G36*
X350908Y166954D02*
X352143Y166241D01*
X353151Y165233D01*
X353863Y163999D01*
X354232Y162622D01*
Y161197D01*
X353863Y159820D01*
X353151Y158586D01*
X352143Y157578D01*
X350908Y156865D01*
X349532Y156496D01*
X337870D01*
X336493Y156865D01*
X335259Y157578D01*
X334251Y158586D01*
X333538Y159820D01*
X333169Y161197D01*
Y162622D01*
X333538Y163999D01*
X334251Y165233D01*
X335259Y166241D01*
X336493Y166954D01*
X337870Y167323D01*
X349532D01*
X350908Y166954D01*
D02*
G37*
G36*
X311538D02*
X312773Y166241D01*
X313781Y165233D01*
X314493Y163999D01*
X314862Y162622D01*
Y161197D01*
X314493Y159820D01*
X313781Y158586D01*
X312773Y157578D01*
X311538Y156865D01*
X310161Y156496D01*
X298500D01*
X297123Y156865D01*
X295889Y157578D01*
X294881Y158586D01*
X294168Y159820D01*
X293799Y161197D01*
Y162622D01*
X294168Y163999D01*
X294881Y165233D01*
X295889Y166241D01*
X297123Y166954D01*
X298500Y167323D01*
X310161D01*
X311538Y166954D01*
D02*
G37*
G36*
X272168D02*
X273403Y166241D01*
X274411Y165233D01*
X275123Y163999D01*
X275492Y162622D01*
Y161197D01*
X275123Y159820D01*
X274411Y158586D01*
X273403Y157578D01*
X272168Y156865D01*
X270791Y156496D01*
X259130D01*
X257753Y156865D01*
X256519Y157578D01*
X255511Y158586D01*
X254798Y159820D01*
X254429Y161197D01*
Y162622D01*
X254798Y163999D01*
X255511Y165233D01*
X256519Y166241D01*
X257753Y166954D01*
X259130Y167323D01*
X270791D01*
X272168Y166954D01*
D02*
G37*
G36*
X232798D02*
X234033Y166241D01*
X235040Y165233D01*
X235753Y163999D01*
X236122Y162622D01*
Y161197D01*
X235753Y159820D01*
X235040Y158586D01*
X234033Y157578D01*
X232798Y156865D01*
X231421Y156496D01*
X219760D01*
X218383Y156865D01*
X217148Y157578D01*
X216141Y158586D01*
X215428Y159820D01*
X215059Y161197D01*
Y162622D01*
X215428Y163999D01*
X216141Y165233D01*
X217148Y166241D01*
X218383Y166954D01*
X219760Y167323D01*
X231421D01*
X232798Y166954D01*
D02*
G37*
G36*
X193428D02*
X194662Y166241D01*
X195670Y165233D01*
X196383Y163999D01*
X196752Y162622D01*
Y161197D01*
X196383Y159820D01*
X195670Y158586D01*
X194662Y157578D01*
X193428Y156865D01*
X192051Y156496D01*
X180390D01*
X179013Y156865D01*
X177778Y157578D01*
X176771Y158586D01*
X176058Y159820D01*
X175689Y161197D01*
Y162622D01*
X176058Y163999D01*
X176771Y165233D01*
X177778Y166241D01*
X179013Y166954D01*
X180390Y167323D01*
X192051D01*
X193428Y166954D01*
D02*
G37*
G36*
X154058D02*
X155292Y166241D01*
X156300Y165233D01*
X157013Y163999D01*
X157382Y162622D01*
Y161197D01*
X157013Y159820D01*
X156300Y158586D01*
X155292Y157578D01*
X154058Y156865D01*
X152681Y156496D01*
X141020D01*
X139643Y156865D01*
X138408Y157578D01*
X137400Y158586D01*
X136688Y159820D01*
X136319Y161197D01*
Y162622D01*
X136688Y163999D01*
X137400Y165233D01*
X138408Y166241D01*
X139643Y166954D01*
X141020Y167323D01*
X152681D01*
X154058Y166954D01*
D02*
G37*
G36*
X114688D02*
X115922Y166241D01*
X116930Y165233D01*
X117643Y163999D01*
X118012Y162622D01*
Y161197D01*
X117643Y159820D01*
X116930Y158586D01*
X115922Y157578D01*
X114688Y156865D01*
X113311Y156496D01*
X101649D01*
X100273Y156865D01*
X99038Y157578D01*
X98030Y158586D01*
X97318Y159820D01*
X96949Y161197D01*
Y162622D01*
X97318Y163999D01*
X98030Y165233D01*
X99038Y166241D01*
X100273Y166954D01*
X101649Y167323D01*
X113311D01*
X114688Y166954D01*
D02*
G37*
G36*
X75318D02*
X76552Y166241D01*
X77560Y165233D01*
X78273Y163999D01*
X78642Y162622D01*
Y161197D01*
X78273Y159820D01*
X77560Y158586D01*
X76552Y157578D01*
X75318Y156865D01*
X73941Y156496D01*
X62279D01*
X60903Y156865D01*
X59668Y157578D01*
X58660Y158586D01*
X57948Y159820D01*
X57579Y161197D01*
Y162622D01*
X57948Y163999D01*
X58660Y165233D01*
X59668Y166241D01*
X60903Y166954D01*
X62279Y167323D01*
X73941D01*
X75318Y166954D01*
D02*
G37*
G36*
X314961Y136306D02*
X314383D01*
Y136223D01*
X313888D01*
Y136141D01*
X313393D01*
Y136058D01*
X312816D01*
Y135976D01*
X312321D01*
Y135893D01*
X311826D01*
Y135811D01*
X311249D01*
Y135728D01*
X310754D01*
Y135646D01*
X310259D01*
Y135563D01*
X309682D01*
Y135151D01*
X309764D01*
Y134739D01*
X309847D01*
Y134326D01*
X309929D01*
Y133749D01*
X310012D01*
Y133006D01*
X310094D01*
Y131522D01*
X310012D01*
Y131027D01*
X309929D01*
Y130779D01*
X309847D01*
Y130532D01*
X309764D01*
Y130285D01*
X309682D01*
Y130120D01*
X309599D01*
Y130037D01*
X309517D01*
Y129872D01*
X309435D01*
Y129790D01*
X309352D01*
Y129625D01*
X309269D01*
Y129542D01*
X309187D01*
Y129460D01*
X309105D01*
Y129377D01*
X309022D01*
Y129295D01*
X308940D01*
Y129212D01*
X308775D01*
Y129130D01*
X308692D01*
Y129047D01*
X308610D01*
Y128965D01*
X308445D01*
Y128882D01*
X308362D01*
Y128800D01*
X308197D01*
Y128718D01*
X308032D01*
Y128635D01*
X307867D01*
Y128552D01*
X307620D01*
Y128470D01*
X307455D01*
Y128387D01*
X307207D01*
Y128305D01*
X306878D01*
Y128223D01*
X306630D01*
Y128140D01*
X306218D01*
Y128058D01*
X305805D01*
Y127975D01*
X305228D01*
Y127893D01*
X303578D01*
Y127975D01*
X303166D01*
Y128058D01*
X302836D01*
Y128140D01*
X302589D01*
Y128223D01*
X302341D01*
Y128305D01*
X302176D01*
Y128387D01*
X302094D01*
Y128470D01*
X301929D01*
Y128552D01*
X301846D01*
Y128635D01*
X301681D01*
Y128718D01*
X301599D01*
Y128800D01*
X301516D01*
Y128882D01*
X301434D01*
Y128965D01*
X301351D01*
Y129047D01*
X301269D01*
Y129130D01*
X301186D01*
Y129295D01*
X301104D01*
Y129377D01*
X301022D01*
Y129542D01*
X300939D01*
Y129625D01*
X300856D01*
Y129790D01*
X300774D01*
Y130037D01*
X300692D01*
Y130285D01*
X300609D01*
Y130532D01*
X300527D01*
Y131027D01*
X300444D01*
Y137873D01*
X300939D01*
Y137955D01*
X301434D01*
Y138038D01*
X302011D01*
Y138120D01*
X302506D01*
Y138203D01*
X303001D01*
Y138285D01*
X303578D01*
Y138368D01*
X304073D01*
Y138450D01*
X304568D01*
Y138533D01*
X305146D01*
Y138615D01*
X305640D01*
Y138698D01*
X306135D01*
Y138780D01*
X306630D01*
Y138863D01*
X307207D01*
Y138945D01*
X307702D01*
Y139028D01*
X308197D01*
Y139110D01*
X308775D01*
Y139192D01*
X309269D01*
Y139275D01*
X309764D01*
Y139357D01*
X310259D01*
Y139440D01*
X310837D01*
Y139522D01*
X311332D01*
Y139605D01*
X311826D01*
Y139687D01*
X312321D01*
Y139770D01*
X312899D01*
Y139852D01*
X313393D01*
Y139935D01*
X313888D01*
Y140017D01*
X314466D01*
Y140100D01*
X314878D01*
Y140182D01*
X314961D01*
Y136306D01*
D02*
G37*
G36*
Y124511D02*
X314796D01*
Y124428D01*
X314218D01*
Y124346D01*
X313723D01*
Y124264D01*
X313229D01*
Y124181D01*
X312734D01*
Y124099D01*
X312156D01*
Y124016D01*
X311661D01*
Y123934D01*
X311167D01*
Y123851D01*
X310589D01*
Y123769D01*
X310094D01*
Y123686D01*
X309599D01*
Y123604D01*
X309105D01*
Y123521D01*
X308527D01*
Y123439D01*
X308032D01*
Y123356D01*
X307785D01*
Y123274D01*
X307620D01*
Y123191D01*
X307537D01*
Y123109D01*
X307455D01*
Y122944D01*
X307372D01*
Y122861D01*
X307290D01*
Y122696D01*
X307207D01*
Y122449D01*
X307125D01*
Y122037D01*
X307043D01*
Y121542D01*
X307125D01*
Y121377D01*
X307207D01*
Y121294D01*
X307290D01*
Y121212D01*
X307455D01*
Y121129D01*
X307950D01*
Y121212D01*
X308527D01*
Y121294D01*
X309022D01*
Y121377D01*
X309599D01*
Y121459D01*
X310094D01*
Y121542D01*
X310589D01*
Y121624D01*
X311084D01*
Y121707D01*
X311661D01*
Y121789D01*
X312156D01*
Y121872D01*
X312734D01*
Y121954D01*
X313229D01*
Y122037D01*
X313723D01*
Y122119D01*
X314301D01*
Y122202D01*
X314796D01*
Y122284D01*
X314961D01*
Y118490D01*
X314796D01*
Y118407D01*
X314301D01*
Y118325D01*
X313723D01*
Y118243D01*
X313229D01*
Y118160D01*
X312734D01*
Y118078D01*
X312239D01*
Y117995D01*
X311661D01*
Y117912D01*
X311167D01*
Y117830D01*
X310672D01*
Y117748D01*
X310094D01*
Y117665D01*
X309599D01*
Y117583D01*
X309105D01*
Y117500D01*
X308610D01*
Y117418D01*
X308032D01*
Y117335D01*
X307455D01*
Y117253D01*
X305970D01*
Y117335D01*
X305640D01*
Y117418D01*
X305393D01*
Y117500D01*
X305228D01*
Y117583D01*
X305063D01*
Y117665D01*
X304980D01*
Y117748D01*
X304898D01*
Y117830D01*
X304816D01*
Y117912D01*
X304733D01*
Y118078D01*
X304651D01*
Y118160D01*
X304568D01*
Y118325D01*
X304486D01*
Y118572D01*
X304403D01*
Y118902D01*
X304321D01*
Y120717D01*
X304403D01*
Y121129D01*
X304486D01*
Y121377D01*
X304568D01*
Y121542D01*
X304651D01*
Y121789D01*
X304733D01*
Y121954D01*
X304816D01*
Y122037D01*
X304898D01*
Y122202D01*
X304980D01*
Y122366D01*
X305063D01*
Y122449D01*
X305146D01*
Y122531D01*
X305228D01*
Y122696D01*
X305310D01*
Y122779D01*
X305393D01*
Y122861D01*
X305475D01*
Y123026D01*
X305310D01*
Y122944D01*
X304816D01*
Y122861D01*
X304238D01*
Y122779D01*
X303743D01*
Y122696D01*
X303249D01*
Y122614D01*
X302753D01*
Y122531D01*
X302176D01*
Y122449D01*
X301681D01*
Y122366D01*
X301186D01*
Y122284D01*
X300609D01*
Y122202D01*
X300114D01*
Y122119D01*
X299619D01*
Y122037D01*
X299454D01*
Y125831D01*
X299702D01*
Y125913D01*
X300279D01*
Y125996D01*
X300774D01*
Y126078D01*
X301269D01*
Y126161D01*
X301846D01*
Y126243D01*
X302341D01*
Y126326D01*
X302836D01*
Y126408D01*
X303331D01*
Y126490D01*
X303908D01*
Y126573D01*
X304403D01*
Y126655D01*
X304898D01*
Y126738D01*
X305475D01*
Y126820D01*
X305970D01*
Y126903D01*
X306465D01*
Y126985D01*
X306960D01*
Y127068D01*
X307537D01*
Y127150D01*
X308032D01*
Y127233D01*
X308527D01*
Y127315D01*
X309022D01*
Y127398D01*
X309599D01*
Y127480D01*
X310094D01*
Y127563D01*
X310589D01*
Y127645D01*
X311167D01*
Y127728D01*
X311661D01*
Y127810D01*
X312156D01*
Y127893D01*
X312651D01*
Y127975D01*
X313229D01*
Y128058D01*
X313723D01*
Y128140D01*
X314218D01*
Y128223D01*
X314796D01*
Y128305D01*
X314961D01*
Y124511D01*
D02*
G37*
G36*
X304568Y116181D02*
X305888D01*
Y116098D01*
X307043D01*
Y116016D01*
X308362D01*
Y115933D01*
X309682D01*
Y115850D01*
X310919D01*
Y115768D01*
X312156D01*
Y115686D01*
X312734D01*
Y115603D01*
X313064D01*
Y115521D01*
X313311D01*
Y115438D01*
X313476D01*
Y115356D01*
X313641D01*
Y115273D01*
X313806D01*
Y115191D01*
X313888D01*
Y115108D01*
X314053D01*
Y115026D01*
X314136D01*
Y114943D01*
X314218D01*
Y114861D01*
X314301D01*
Y114778D01*
X314383D01*
Y114696D01*
X314466D01*
Y114531D01*
X314548D01*
Y114448D01*
X314631D01*
Y114283D01*
X314713D01*
Y114036D01*
X314796D01*
Y113871D01*
X314878D01*
Y113541D01*
X314961D01*
Y112964D01*
X315043D01*
Y112469D01*
X315208D01*
Y112551D01*
X315373D01*
Y112634D01*
X315538D01*
Y112716D01*
X315620D01*
Y112799D01*
X315785D01*
Y112881D01*
X315950D01*
Y112964D01*
X316033D01*
Y113046D01*
X316198D01*
Y113129D01*
X316280D01*
Y113211D01*
X316363D01*
Y113294D01*
X316528D01*
Y113376D01*
X316610D01*
Y113459D01*
X316693D01*
Y113541D01*
X316775D01*
Y113624D01*
X316858D01*
Y113706D01*
X316940D01*
Y113788D01*
X317023D01*
Y113871D01*
X317105D01*
Y113953D01*
X317188D01*
Y114036D01*
X317270D01*
Y114119D01*
X317353D01*
Y114201D01*
X317435D01*
Y114366D01*
X317517D01*
Y114448D01*
X317600D01*
Y114531D01*
X317683D01*
Y114696D01*
X317765D01*
Y114778D01*
X317847D01*
Y114943D01*
X317930D01*
Y115026D01*
X318012D01*
Y115191D01*
X318095D01*
Y115356D01*
X318177D01*
Y115521D01*
X318260D01*
Y115686D01*
X318342D01*
Y115850D01*
X318425D01*
Y116016D01*
X321147D01*
Y115933D01*
X321064D01*
Y115356D01*
X320982D01*
Y114861D01*
X320899D01*
Y114531D01*
X320817D01*
Y114201D01*
X320734D01*
Y113953D01*
X320652D01*
Y113788D01*
X320569D01*
Y113541D01*
X320487D01*
Y113376D01*
X320404D01*
Y113211D01*
X320322D01*
Y113046D01*
X320239D01*
Y112881D01*
X320157D01*
Y112716D01*
X320074D01*
Y112634D01*
X319992D01*
Y112469D01*
X319909D01*
Y112386D01*
X319827D01*
Y112221D01*
X319744D01*
Y112139D01*
X319662D01*
Y111974D01*
X319580D01*
Y111891D01*
X319497D01*
Y111809D01*
X319415D01*
Y111726D01*
X319332D01*
Y111644D01*
X319250D01*
Y111479D01*
X319167D01*
Y111397D01*
X319085D01*
Y111314D01*
X319002D01*
Y111232D01*
X318920D01*
Y111149D01*
X318837D01*
Y111067D01*
X318755D01*
Y110984D01*
X318672D01*
Y110902D01*
X318507D01*
Y110819D01*
X318425D01*
Y110737D01*
X318342D01*
Y110654D01*
X318260D01*
Y110572D01*
X318177D01*
Y110489D01*
X318012D01*
Y110407D01*
X317930D01*
Y110324D01*
X317847D01*
Y110242D01*
X317683D01*
Y110159D01*
X317600D01*
Y110077D01*
X317435D01*
Y109994D01*
X317353D01*
Y109912D01*
X317270D01*
Y109829D01*
X317105D01*
Y109747D01*
X316940D01*
Y109664D01*
X316858D01*
Y109582D01*
X316693D01*
Y109500D01*
X316528D01*
Y109417D01*
X316363D01*
Y109335D01*
X316198D01*
Y109252D01*
X316115D01*
Y109170D01*
X315868D01*
Y109087D01*
X315785D01*
Y109005D01*
X315538D01*
Y108922D01*
X315373D01*
Y108840D01*
X315208D01*
Y108757D01*
X315043D01*
Y108675D01*
X314796D01*
Y108592D01*
X314631D01*
Y108510D01*
X314383D01*
Y108427D01*
X314218D01*
Y108345D01*
X313971D01*
Y108262D01*
X313806D01*
Y108180D01*
X313559D01*
Y108097D01*
X313393D01*
Y108015D01*
X313146D01*
Y107932D01*
X312981D01*
Y107850D01*
X312734D01*
Y107767D01*
X312569D01*
Y107685D01*
X312321D01*
Y107603D01*
X312156D01*
Y107520D01*
X311909D01*
Y107438D01*
X311744D01*
Y107355D01*
X311496D01*
Y107273D01*
X311332D01*
Y107190D01*
X311084D01*
Y107108D01*
X310919D01*
Y107025D01*
X310672D01*
Y106943D01*
X310507D01*
Y106860D01*
X310259D01*
Y106778D01*
X310094D01*
Y106695D01*
X309847D01*
Y106613D01*
X309682D01*
Y106530D01*
X309435D01*
Y106448D01*
X309269D01*
Y106365D01*
X309022D01*
Y106283D01*
X308857D01*
Y106200D01*
X308610D01*
Y106118D01*
X308445D01*
Y106035D01*
X308280D01*
Y105953D01*
X308032D01*
Y105870D01*
X307785D01*
Y105788D01*
X307537D01*
Y105705D01*
X307290D01*
Y105623D01*
X306960D01*
Y105541D01*
X306630D01*
Y105458D01*
X306218D01*
Y105376D01*
X304486D01*
Y109087D01*
X305310D01*
Y109170D01*
X305805D01*
Y109252D01*
X306218D01*
Y109335D01*
X306548D01*
Y109417D01*
X306878D01*
Y109500D01*
X307125D01*
Y109582D01*
X307372D01*
Y109664D01*
X307620D01*
Y109747D01*
X307785D01*
Y109829D01*
X308032D01*
Y109912D01*
X308280D01*
Y109994D01*
X308527D01*
Y110077D01*
X308692D01*
Y110159D01*
X308940D01*
Y110242D01*
X309187D01*
Y110324D01*
X309435D01*
Y110407D01*
X309599D01*
Y110489D01*
X309847D01*
Y110572D01*
X310094D01*
Y110654D01*
X310342D01*
Y110737D01*
X310507D01*
Y110819D01*
X310754D01*
Y110902D01*
X311002D01*
Y110984D01*
X311249D01*
Y111067D01*
X311496D01*
Y111149D01*
X311661D01*
Y111232D01*
X311909D01*
Y111314D01*
X311991D01*
Y111562D01*
X311909D01*
Y111809D01*
X311826D01*
Y111891D01*
X311744D01*
Y111974D01*
X311661D01*
Y112056D01*
X311414D01*
Y112139D01*
X309269D01*
Y112221D01*
X309105D01*
Y112139D01*
X309022D01*
Y112221D01*
X305640D01*
Y112304D01*
X304486D01*
Y116263D01*
X304568D01*
Y116181D01*
D02*
G37*
G36*
X314961Y101252D02*
X314796D01*
Y101169D01*
X314713D01*
Y101087D01*
X314548D01*
Y101004D01*
X314466D01*
Y100922D01*
X314301D01*
Y100839D01*
X314218D01*
Y100757D01*
X314053D01*
Y100674D01*
X313971D01*
Y100592D01*
X313806D01*
Y100509D01*
X313723D01*
Y100427D01*
X313641D01*
Y100344D01*
X313476D01*
Y100262D01*
X313393D01*
Y100179D01*
X313229D01*
Y100097D01*
X313146D01*
Y100014D01*
X312981D01*
Y99932D01*
X312899D01*
Y99849D01*
X312734D01*
Y99684D01*
X312816D01*
Y99602D01*
X313064D01*
Y99519D01*
X313311D01*
Y99437D01*
X313559D01*
Y99354D01*
X313723D01*
Y99272D01*
X313971D01*
Y99190D01*
X314218D01*
Y99107D01*
X314383D01*
Y99025D01*
X314631D01*
Y98942D01*
X314878D01*
Y98860D01*
X314961D01*
Y94488D01*
X314878D01*
Y94571D01*
X314713D01*
Y94653D01*
X314548D01*
Y94736D01*
X314466D01*
Y94818D01*
X314301D01*
Y94901D01*
X314136D01*
Y94983D01*
X313971D01*
Y95065D01*
X313806D01*
Y95148D01*
X313641D01*
Y95231D01*
X313476D01*
Y95313D01*
X313311D01*
Y95395D01*
X313229D01*
Y95478D01*
X313064D01*
Y95560D01*
X312899D01*
Y95643D01*
X312734D01*
Y95725D01*
X312569D01*
Y95808D01*
X312404D01*
Y95890D01*
X312239D01*
Y95973D01*
X312074D01*
Y96055D01*
X311991D01*
Y96138D01*
X311826D01*
Y96220D01*
X311661D01*
Y96303D01*
X311496D01*
Y96385D01*
X311332D01*
Y96468D01*
X311167D01*
Y96550D01*
X311002D01*
Y96633D01*
X310837D01*
Y96715D01*
X310672D01*
Y96798D01*
X310589D01*
Y96880D01*
X310424D01*
Y96963D01*
X310259D01*
Y97045D01*
X310094D01*
Y96963D01*
X310012D01*
Y96880D01*
X309929D01*
Y96798D01*
X309847D01*
Y96715D01*
X309682D01*
Y96633D01*
X309599D01*
Y96550D01*
X309517D01*
Y96468D01*
X309352D01*
Y96385D01*
X309269D01*
Y96303D01*
X309187D01*
Y96220D01*
X309105D01*
Y96138D01*
X308940D01*
Y96055D01*
X308857D01*
Y95973D01*
X308775D01*
Y95890D01*
X308610D01*
Y95808D01*
X308527D01*
Y95725D01*
X308445D01*
Y95643D01*
X308280D01*
Y95560D01*
X308197D01*
Y95478D01*
X308115D01*
Y95395D01*
X308032D01*
Y95313D01*
X307867D01*
Y95231D01*
X307785D01*
Y95148D01*
X307702D01*
Y95065D01*
X307537D01*
Y94983D01*
X307455D01*
Y94901D01*
X307372D01*
Y94818D01*
X307207D01*
Y94736D01*
X307125D01*
Y94653D01*
X307043D01*
Y94571D01*
X306960D01*
Y94488D01*
X306795D01*
Y94406D01*
X306713D01*
Y94323D01*
X306630D01*
Y94241D01*
X306465D01*
Y94158D01*
X306383D01*
Y94076D01*
X306300D01*
Y93993D01*
X306135D01*
Y93911D01*
X306053D01*
Y93828D01*
X305970D01*
Y93746D01*
X305888D01*
Y93663D01*
X305723D01*
Y93581D01*
X305640D01*
Y93498D01*
X305558D01*
Y93416D01*
X305393D01*
Y93334D01*
X305310D01*
Y93251D01*
X305228D01*
Y93168D01*
X305146D01*
Y93086D01*
X304980D01*
Y93003D01*
X304898D01*
Y92921D01*
X304816D01*
Y92839D01*
X304651D01*
Y92756D01*
X304568D01*
Y92674D01*
X304486D01*
Y97210D01*
X304568D01*
Y97293D01*
X304733D01*
Y97375D01*
X304816D01*
Y97457D01*
X304980D01*
Y97540D01*
X305063D01*
Y97622D01*
X305228D01*
Y97705D01*
X305310D01*
Y97787D01*
X305475D01*
Y97870D01*
X305558D01*
Y97952D01*
X305723D01*
Y98035D01*
X305805D01*
Y98117D01*
X305970D01*
Y98200D01*
X306053D01*
Y98282D01*
X306218D01*
Y98365D01*
X306300D01*
Y98447D01*
X306465D01*
Y98530D01*
X306548D01*
Y98612D01*
X306713D01*
Y98695D01*
X306795D01*
Y98777D01*
X306878D01*
Y98942D01*
X306548D01*
Y99025D01*
X306300D01*
Y99107D01*
X306053D01*
Y99190D01*
X305805D01*
Y99272D01*
X305558D01*
Y99354D01*
X305310D01*
Y99437D01*
X305063D01*
Y99519D01*
X304816D01*
Y99602D01*
X304568D01*
Y99684D01*
X304486D01*
Y104221D01*
X304568D01*
Y104138D01*
X304733D01*
Y104056D01*
X304816D01*
Y103973D01*
X304980D01*
Y103891D01*
X305146D01*
Y103808D01*
X305310D01*
Y103726D01*
X305475D01*
Y103643D01*
X305640D01*
Y103561D01*
X305805D01*
Y103479D01*
X305888D01*
Y103396D01*
X306053D01*
Y103314D01*
X306218D01*
Y103231D01*
X306383D01*
Y103149D01*
X306548D01*
Y103066D01*
X306713D01*
Y102984D01*
X306878D01*
Y102901D01*
X307043D01*
Y102819D01*
X307125D01*
Y102736D01*
X307290D01*
Y102654D01*
X307455D01*
Y102571D01*
X307620D01*
Y102489D01*
X307785D01*
Y102406D01*
X307950D01*
Y102324D01*
X308115D01*
Y102241D01*
X308197D01*
Y102159D01*
X308362D01*
Y102076D01*
X308527D01*
Y101994D01*
X308692D01*
Y101911D01*
X308857D01*
Y101829D01*
X309022D01*
Y101746D01*
X309187D01*
Y101664D01*
X309269D01*
Y101581D01*
X309517D01*
Y101664D01*
X309682D01*
Y101746D01*
X309764D01*
Y101829D01*
X309847D01*
Y101911D01*
X309929D01*
Y101994D01*
X310094D01*
Y102076D01*
X310177D01*
Y102159D01*
X310259D01*
Y102241D01*
X310424D01*
Y102324D01*
X310507D01*
Y102406D01*
X310589D01*
Y102489D01*
X310672D01*
Y102571D01*
X310837D01*
Y102654D01*
X310919D01*
Y102736D01*
X311002D01*
Y102819D01*
X311084D01*
Y102901D01*
X311249D01*
Y102984D01*
X311332D01*
Y103066D01*
X311414D01*
Y103149D01*
X311579D01*
Y103231D01*
X311661D01*
Y103314D01*
X311744D01*
Y103396D01*
X311826D01*
Y103479D01*
X311991D01*
Y103561D01*
X312074D01*
Y103643D01*
X312156D01*
Y103726D01*
X312321D01*
Y103808D01*
X312404D01*
Y103891D01*
X312486D01*
Y103973D01*
X312569D01*
Y104056D01*
X312734D01*
Y104138D01*
X312816D01*
Y104221D01*
X312899D01*
Y104303D01*
X313064D01*
Y104386D01*
X313146D01*
Y104468D01*
X313229D01*
Y104551D01*
X313311D01*
Y104633D01*
X313476D01*
Y104716D01*
X313559D01*
Y104798D01*
X313641D01*
Y104881D01*
X313723D01*
Y104963D01*
X313888D01*
Y105046D01*
X313971D01*
Y105128D01*
X314053D01*
Y105211D01*
X314218D01*
Y105293D01*
X314301D01*
Y105376D01*
X314383D01*
Y105458D01*
X314466D01*
Y105541D01*
X314631D01*
Y105623D01*
X314713D01*
Y105705D01*
X314796D01*
Y105788D01*
X314878D01*
Y105870D01*
X314961D01*
Y101252D01*
D02*
G37*
G36*
X332798Y79552D02*
X334033Y78840D01*
X335040Y77832D01*
X335753Y76597D01*
X336122Y75221D01*
Y73795D01*
X335753Y72418D01*
X335040Y71184D01*
X334033Y70176D01*
X332798Y69463D01*
X331421Y69095D01*
X319760D01*
X318383Y69463D01*
X317148Y70176D01*
X316141Y71184D01*
X315428Y72418D01*
X315059Y73795D01*
Y75221D01*
X315428Y76597D01*
X316141Y77832D01*
X317148Y78840D01*
X318383Y79552D01*
X319760Y79921D01*
X331421D01*
X332798Y79552D01*
D02*
G37*
G36*
X293428D02*
X294662Y78840D01*
X295670Y77832D01*
X296383Y76597D01*
X296752Y75221D01*
Y73795D01*
X296383Y72418D01*
X295670Y71184D01*
X294662Y70176D01*
X293428Y69463D01*
X292051Y69095D01*
X280390D01*
X279013Y69463D01*
X277779Y70176D01*
X276771Y71184D01*
X276058Y72418D01*
X275689Y73795D01*
Y75221D01*
X276058Y76597D01*
X276771Y77832D01*
X277779Y78840D01*
X279013Y79552D01*
X280390Y79921D01*
X292051D01*
X293428Y79552D01*
D02*
G37*
G36*
X254058D02*
X255292Y78840D01*
X256300Y77832D01*
X257013Y76597D01*
X257382Y75221D01*
Y73795D01*
X257013Y72418D01*
X256300Y71184D01*
X255292Y70176D01*
X254058Y69463D01*
X252681Y69095D01*
X241020D01*
X239643Y69463D01*
X238408Y70176D01*
X237401Y71184D01*
X236688Y72418D01*
X236319Y73795D01*
Y75221D01*
X236688Y76597D01*
X237401Y77832D01*
X238408Y78840D01*
X239643Y79552D01*
X241020Y79921D01*
X252681D01*
X254058Y79552D01*
D02*
G37*
G36*
X214688D02*
X215922Y78840D01*
X216930Y77832D01*
X217643Y76597D01*
X218012Y75221D01*
Y73795D01*
X217643Y72418D01*
X216930Y71184D01*
X215922Y70176D01*
X214688Y69463D01*
X213311Y69095D01*
X201649D01*
X200273Y69463D01*
X199038Y70176D01*
X198030Y71184D01*
X197318Y72418D01*
X196949Y73795D01*
Y75221D01*
X197318Y76597D01*
X198030Y77832D01*
X199038Y78840D01*
X200273Y79552D01*
X201649Y79921D01*
X213311D01*
X214688Y79552D01*
D02*
G37*
G36*
X175318D02*
X176552Y78840D01*
X177560Y77832D01*
X178273Y76597D01*
X178642Y75221D01*
Y73795D01*
X178273Y72418D01*
X177560Y71184D01*
X176552Y70176D01*
X175318Y69463D01*
X173941Y69095D01*
X162279D01*
X160903Y69463D01*
X159668Y70176D01*
X158660Y71184D01*
X157948Y72418D01*
X157579Y73795D01*
Y75221D01*
X157948Y76597D01*
X158660Y77832D01*
X159668Y78840D01*
X160903Y79552D01*
X162279Y79921D01*
X173941D01*
X175318Y79552D01*
D02*
G37*
G36*
X135948D02*
X137182Y78840D01*
X138190Y77832D01*
X138903Y76597D01*
X139272Y75221D01*
Y73795D01*
X138903Y72418D01*
X138190Y71184D01*
X137182Y70176D01*
X135948Y69463D01*
X134571Y69095D01*
X122909D01*
X121532Y69463D01*
X120298Y70176D01*
X119290Y71184D01*
X118578Y72418D01*
X118209Y73795D01*
Y75221D01*
X118578Y76597D01*
X119290Y77832D01*
X120298Y78840D01*
X121532Y79552D01*
X122909Y79921D01*
X134571D01*
X135948Y79552D01*
D02*
G37*
G36*
X96578D02*
X97812Y78840D01*
X98820Y77832D01*
X99533Y76597D01*
X99902Y75221D01*
Y73795D01*
X99533Y72418D01*
X98820Y71184D01*
X97812Y70176D01*
X96578Y69463D01*
X95201Y69095D01*
X83539D01*
X82162Y69463D01*
X80928Y70176D01*
X79920Y71184D01*
X79207Y72418D01*
X78839Y73795D01*
Y75221D01*
X79207Y76597D01*
X79920Y77832D01*
X80928Y78840D01*
X82162Y79552D01*
X83539Y79921D01*
X95201D01*
X96578Y79552D01*
D02*
G37*
G36*
X57208D02*
X58442Y78840D01*
X59450Y77832D01*
X60163Y76597D01*
X60532Y75221D01*
Y73795D01*
X60163Y72418D01*
X59450Y71184D01*
X58442Y70176D01*
X57208Y69463D01*
X55831Y69095D01*
X44169D01*
X42792Y69463D01*
X41558Y70176D01*
X40550Y71184D01*
X39837Y72418D01*
X39469Y73795D01*
Y75221D01*
X39837Y76597D01*
X40550Y77832D01*
X41558Y78840D01*
X42792Y79552D01*
X44169Y79921D01*
X55831D01*
X57208Y79552D01*
D02*
G37*
G36*
X1137613Y-64032D02*
X1137326D01*
Y-64318D01*
X1137040D01*
Y-64605D01*
Y-64891D01*
X1136754D01*
Y-65177D01*
X1136467D01*
Y-65464D01*
X1136181D01*
Y-65750D01*
Y-66036D01*
X1135895D01*
Y-66322D01*
X1135608D01*
Y-66609D01*
X1135322D01*
Y-66895D01*
X1135036D01*
Y-67181D01*
Y-67468D01*
X1134750D01*
Y-67754D01*
X1134463D01*
Y-68040D01*
X1134177D01*
Y-68327D01*
Y-68613D01*
X1133891D01*
Y-68899D01*
X1133604D01*
Y-69186D01*
X1133318D01*
Y-69472D01*
X1133032D01*
Y-69758D01*
Y-70044D01*
X1132745D01*
Y-70331D01*
X1132459D01*
Y-70617D01*
X1132173D01*
Y-70903D01*
Y-71190D01*
X1131886D01*
Y-71476D01*
X1131600D01*
Y-71762D01*
X1131314D01*
Y-72049D01*
Y-72335D01*
X1131028D01*
Y-72621D01*
X1130741D01*
Y-72908D01*
X1130455D01*
Y-73194D01*
X1130169D01*
Y-73480D01*
Y-73767D01*
X1129882D01*
Y-74053D01*
X1129596D01*
Y-74339D01*
X1129310D01*
Y-74625D01*
Y-74912D01*
X1129023D01*
Y-75198D01*
X1128737D01*
Y-75485D01*
X1128451D01*
Y-75771D01*
Y-76057D01*
X1128164D01*
Y-76343D01*
X1127878D01*
Y-76630D01*
X1127592D01*
Y-76916D01*
X1127306D01*
Y-77202D01*
Y-77489D01*
X1127019D01*
Y-77775D01*
X1126733D01*
Y-78061D01*
X1126447D01*
Y-78348D01*
Y-78634D01*
X1126160D01*
Y-78920D01*
X1125874D01*
Y-79207D01*
X1125588D01*
Y-79493D01*
Y-79779D01*
X1125301D01*
Y-80066D01*
X1125015D01*
Y-80352D01*
X1124729D01*
Y-80638D01*
X1124442D01*
Y-80924D01*
Y-81211D01*
X1124156D01*
Y-81497D01*
X1123870D01*
Y-81783D01*
X1123583D01*
Y-82070D01*
Y-82356D01*
X1123297D01*
Y-82642D01*
X1123011D01*
Y-82929D01*
X1122725D01*
Y-83215D01*
X1122438D01*
Y-83501D01*
Y-83788D01*
X1122725D01*
Y-84074D01*
Y-84360D01*
X1123011D01*
Y-84646D01*
Y-84933D01*
X1123297D01*
Y-85219D01*
X1123583D01*
Y-85505D01*
Y-85792D01*
X1123870D01*
Y-86078D01*
Y-86364D01*
X1124156D01*
Y-86651D01*
Y-86937D01*
X1124442D01*
Y-87223D01*
Y-87510D01*
X1124729D01*
Y-87796D01*
Y-88082D01*
X1125015D01*
Y-88369D01*
Y-88655D01*
X1125301D01*
Y-88941D01*
Y-89227D01*
X1125588D01*
Y-89514D01*
Y-89800D01*
X1125874D01*
Y-90086D01*
X1126160D01*
Y-90373D01*
Y-90659D01*
X1126447D01*
Y-90945D01*
Y-91232D01*
X1126733D01*
Y-91518D01*
Y-91804D01*
X1127019D01*
Y-92091D01*
Y-92377D01*
X1127306D01*
Y-92663D01*
Y-92950D01*
X1127592D01*
Y-93236D01*
Y-93522D01*
X1127878D01*
Y-93809D01*
Y-94095D01*
X1128164D01*
Y-94381D01*
X1128451D01*
Y-94667D01*
Y-94954D01*
X1128737D01*
Y-95240D01*
Y-95526D01*
X1129023D01*
Y-95813D01*
Y-96099D01*
X1129310D01*
Y-96385D01*
Y-96672D01*
X1129596D01*
Y-96958D01*
Y-97244D01*
X1129882D01*
Y-97531D01*
Y-97817D01*
X1130169D01*
Y-98103D01*
Y-98390D01*
X1130455D01*
Y-98676D01*
X1130741D01*
Y-98962D01*
Y-99248D01*
X1131028D01*
Y-99535D01*
Y-99821D01*
X1131314D01*
Y-100107D01*
X1116139D01*
Y-99821D01*
X1115853D01*
Y-99535D01*
Y-99248D01*
Y-98962D01*
X1115567D01*
Y-98676D01*
Y-98390D01*
Y-98103D01*
X1115280D01*
Y-97817D01*
Y-97531D01*
X1114994D01*
Y-97244D01*
Y-96958D01*
Y-96672D01*
X1114708D01*
Y-96385D01*
Y-96099D01*
Y-95813D01*
X1114421D01*
Y-95526D01*
Y-95240D01*
X1114135D01*
Y-94954D01*
Y-94667D01*
Y-94381D01*
X1113849D01*
Y-94095D01*
Y-93809D01*
Y-93522D01*
X1113562D01*
Y-93236D01*
Y-92950D01*
Y-92663D01*
X1113276D01*
Y-92377D01*
X1112704D01*
Y-92663D01*
Y-92950D01*
X1112417D01*
Y-93236D01*
X1112131D01*
Y-93522D01*
Y-93809D01*
X1111845D01*
Y-94095D01*
X1111558D01*
Y-94381D01*
Y-94667D01*
X1111272D01*
Y-94954D01*
X1110986D01*
Y-95240D01*
Y-95526D01*
X1110699D01*
Y-95813D01*
X1110413D01*
Y-96099D01*
X1110127D01*
Y-96385D01*
Y-96672D01*
X1109840D01*
Y-96958D01*
X1109554D01*
Y-97244D01*
Y-97531D01*
X1109268D01*
Y-97817D01*
X1108981D01*
Y-98103D01*
Y-98390D01*
X1108695D01*
Y-98676D01*
X1108409D01*
Y-98962D01*
Y-99248D01*
X1108123D01*
Y-99535D01*
X1107836D01*
Y-99821D01*
Y-100107D01*
X1091803D01*
Y-99821D01*
X1092089D01*
Y-99535D01*
X1092375D01*
Y-99248D01*
X1092662D01*
Y-98962D01*
X1092948D01*
Y-98676D01*
Y-98390D01*
X1093234D01*
Y-98103D01*
X1093521D01*
Y-97817D01*
X1093807D01*
Y-97531D01*
X1094093D01*
Y-97244D01*
Y-96958D01*
X1094380D01*
Y-96672D01*
X1094666D01*
Y-96385D01*
X1094952D01*
Y-96099D01*
Y-95813D01*
X1095238D01*
Y-95526D01*
X1095525D01*
Y-95240D01*
X1095811D01*
Y-94954D01*
X1096097D01*
Y-94667D01*
Y-94381D01*
X1096384D01*
Y-94095D01*
X1096670D01*
Y-93809D01*
X1096956D01*
Y-93522D01*
X1097243D01*
Y-93236D01*
Y-92950D01*
X1097529D01*
Y-92663D01*
X1097815D01*
Y-92377D01*
X1098102D01*
Y-92091D01*
Y-91804D01*
X1098388D01*
Y-91518D01*
X1098674D01*
Y-91232D01*
X1098960D01*
Y-90945D01*
X1099247D01*
Y-90659D01*
Y-90373D01*
X1099533D01*
Y-90086D01*
X1099819D01*
Y-89800D01*
X1100106D01*
Y-89514D01*
Y-89227D01*
X1100392D01*
Y-88941D01*
X1100678D01*
Y-88655D01*
X1100965D01*
Y-88369D01*
X1101251D01*
Y-88082D01*
Y-87796D01*
X1101537D01*
Y-87510D01*
X1101824D01*
Y-87223D01*
X1102110D01*
Y-86937D01*
Y-86651D01*
X1102396D01*
Y-86364D01*
X1102683D01*
Y-86078D01*
X1102969D01*
Y-85792D01*
X1103255D01*
Y-85505D01*
Y-85219D01*
X1103541D01*
Y-84933D01*
X1103828D01*
Y-84646D01*
X1104114D01*
Y-84360D01*
X1104400D01*
Y-84074D01*
Y-83788D01*
X1104687D01*
Y-83501D01*
X1104973D01*
Y-83215D01*
X1105259D01*
Y-82929D01*
Y-82642D01*
X1105546D01*
Y-82356D01*
X1105832D01*
Y-82070D01*
X1106118D01*
Y-81783D01*
X1106405D01*
Y-81497D01*
Y-81211D01*
X1106691D01*
Y-80924D01*
Y-80638D01*
Y-80352D01*
X1106405D01*
Y-80066D01*
X1106118D01*
Y-79779D01*
Y-79493D01*
X1105832D01*
Y-79207D01*
Y-78920D01*
X1105546D01*
Y-78634D01*
Y-78348D01*
X1105259D01*
Y-78061D01*
Y-77775D01*
X1104973D01*
Y-77489D01*
Y-77202D01*
X1104687D01*
Y-76916D01*
Y-76630D01*
X1104400D01*
Y-76343D01*
X1104114D01*
Y-76057D01*
Y-75771D01*
X1103828D01*
Y-75485D01*
Y-75198D01*
X1103541D01*
Y-74912D01*
Y-74625D01*
X1103255D01*
Y-74339D01*
Y-74053D01*
X1102969D01*
Y-73767D01*
Y-73480D01*
X1102683D01*
Y-73194D01*
Y-72908D01*
X1102396D01*
Y-72621D01*
X1102110D01*
Y-72335D01*
Y-72049D01*
X1101824D01*
Y-71762D01*
Y-71476D01*
X1101537D01*
Y-71190D01*
Y-70903D01*
X1101251D01*
Y-70617D01*
Y-70331D01*
X1100965D01*
Y-70044D01*
Y-69758D01*
X1100678D01*
Y-69472D01*
Y-69186D01*
X1100392D01*
Y-68899D01*
Y-68613D01*
X1100106D01*
Y-68327D01*
X1099819D01*
Y-68040D01*
Y-67754D01*
X1099533D01*
Y-67468D01*
Y-67181D01*
X1099247D01*
Y-66895D01*
Y-66609D01*
X1098960D01*
Y-66322D01*
Y-66036D01*
X1098674D01*
Y-65750D01*
Y-65464D01*
X1098388D01*
Y-65177D01*
Y-64891D01*
X1098102D01*
Y-64605D01*
X1097815D01*
Y-64318D01*
Y-64032D01*
X1097529D01*
Y-63746D01*
X1113276D01*
Y-64032D01*
X1113562D01*
Y-64318D01*
Y-64605D01*
Y-64891D01*
X1113849D01*
Y-65177D01*
Y-65464D01*
Y-65750D01*
X1114135D01*
Y-66036D01*
Y-66322D01*
Y-66609D01*
X1114421D01*
Y-66895D01*
Y-67181D01*
Y-67468D01*
X1114708D01*
Y-67754D01*
Y-68040D01*
Y-68327D01*
X1114994D01*
Y-68613D01*
Y-68899D01*
Y-69186D01*
X1115280D01*
Y-69472D01*
Y-69758D01*
Y-70044D01*
X1115567D01*
Y-70331D01*
Y-70617D01*
Y-70903D01*
X1115853D01*
Y-71190D01*
Y-71476D01*
Y-71762D01*
Y-72049D01*
X1116426D01*
Y-71762D01*
X1116712D01*
Y-71476D01*
X1116998D01*
Y-71190D01*
Y-70903D01*
X1117284D01*
Y-70617D01*
X1117571D01*
Y-70331D01*
Y-70044D01*
X1117857D01*
Y-69758D01*
X1118143D01*
Y-69472D01*
Y-69186D01*
X1118430D01*
Y-68899D01*
X1118716D01*
Y-68613D01*
Y-68327D01*
X1119002D01*
Y-68040D01*
X1119289D01*
Y-67754D01*
Y-67468D01*
X1119575D01*
Y-67181D01*
X1119861D01*
Y-66895D01*
Y-66609D01*
X1120148D01*
Y-66322D01*
X1120434D01*
Y-66036D01*
Y-65750D01*
X1120720D01*
Y-65464D01*
X1121007D01*
Y-65177D01*
Y-64891D01*
X1121293D01*
Y-64605D01*
X1121579D01*
Y-64318D01*
Y-64032D01*
X1121865D01*
Y-63746D01*
X1137613D01*
Y-64032D01*
D02*
G37*
G36*
X1004477Y-50003D02*
X1006195D01*
Y-50289D01*
X1007054D01*
Y-50575D01*
X1007913D01*
Y-50862D01*
X1008772D01*
Y-51148D01*
X1009345D01*
Y-51434D01*
X1009631D01*
Y-51720D01*
X1010203D01*
Y-52007D01*
X1010490D01*
Y-52293D01*
X1011062D01*
Y-52579D01*
X1011349D01*
Y-52866D01*
X1011635D01*
Y-53152D01*
X1011921D01*
Y-53438D01*
X1012208D01*
Y-53725D01*
X1012494D01*
Y-54011D01*
X1012780D01*
Y-54297D01*
Y-54584D01*
X1013067D01*
Y-54870D01*
X1013353D01*
Y-55156D01*
Y-55443D01*
X1013639D01*
Y-55729D01*
X1013926D01*
Y-56015D01*
Y-56301D01*
X1014212D01*
Y-56588D01*
Y-56874D01*
Y-57161D01*
X1014498D01*
Y-57447D01*
Y-57733D01*
Y-58019D01*
X1014785D01*
Y-58306D01*
Y-58592D01*
Y-58878D01*
Y-59165D01*
X1015071D01*
Y-59451D01*
Y-59737D01*
Y-60024D01*
Y-60310D01*
Y-60596D01*
X1015357D01*
Y-60883D01*
Y-61169D01*
Y-61455D01*
Y-61742D01*
Y-62028D01*
Y-62314D01*
Y-62600D01*
Y-62887D01*
Y-63173D01*
Y-63459D01*
Y-63746D01*
Y-64032D01*
Y-64318D01*
Y-64605D01*
Y-64891D01*
Y-65177D01*
Y-65464D01*
Y-65750D01*
Y-66036D01*
Y-66322D01*
X1015071D01*
Y-66609D01*
Y-66895D01*
Y-67181D01*
Y-67468D01*
Y-67754D01*
Y-68040D01*
Y-68327D01*
X1014785D01*
Y-68613D01*
Y-68899D01*
Y-69186D01*
Y-69472D01*
Y-69758D01*
X1014498D01*
Y-70044D01*
Y-70331D01*
Y-70617D01*
Y-70903D01*
Y-71190D01*
X1014212D01*
Y-71476D01*
Y-71762D01*
Y-72049D01*
X1013926D01*
Y-72335D01*
Y-72621D01*
Y-72908D01*
Y-73194D01*
X1013639D01*
Y-73480D01*
Y-73767D01*
Y-74053D01*
X1013353D01*
Y-74339D01*
Y-74625D01*
X1013067D01*
Y-74912D01*
Y-75198D01*
Y-75485D01*
X1012780D01*
Y-75771D01*
Y-76057D01*
X1012494D01*
Y-76343D01*
Y-76630D01*
X1012208D01*
Y-76916D01*
Y-77202D01*
X1011921D01*
Y-77489D01*
X1011635D01*
Y-77775D01*
Y-78061D01*
X1011349D01*
Y-78348D01*
X1011062D01*
Y-78634D01*
X1010776D01*
Y-78920D01*
Y-79207D01*
X1010490D01*
Y-79493D01*
X1010203D01*
Y-79779D01*
X1009917D01*
Y-80066D01*
X1009631D01*
Y-80352D01*
X1009345D01*
Y-80638D01*
X1008772D01*
Y-80924D01*
X1008486D01*
Y-81211D01*
X1007913D01*
Y-81497D01*
X1007627D01*
Y-81783D01*
X1007054D01*
Y-82070D01*
X1006195D01*
Y-82356D01*
X1005336D01*
Y-82642D01*
X1004477D01*
Y-82929D01*
X1002759D01*
Y-83215D01*
X997606D01*
Y-82929D01*
X995029D01*
Y-82642D01*
X993025D01*
Y-82356D01*
X991593D01*
Y-82070D01*
X990162D01*
Y-81783D01*
X988730D01*
Y-82070D01*
Y-82356D01*
Y-82642D01*
Y-82929D01*
Y-83215D01*
Y-83501D01*
Y-83788D01*
X988444D01*
Y-84074D01*
Y-84360D01*
Y-84646D01*
Y-84933D01*
Y-85219D01*
Y-85505D01*
X988157D01*
Y-85792D01*
Y-86078D01*
Y-86364D01*
Y-86651D01*
Y-86937D01*
Y-87223D01*
X987871D01*
Y-87510D01*
Y-87796D01*
Y-88082D01*
Y-88369D01*
Y-88655D01*
Y-88941D01*
Y-89227D01*
X987585D01*
Y-89514D01*
Y-89800D01*
Y-90086D01*
Y-90373D01*
Y-90659D01*
Y-90945D01*
X987298D01*
Y-91232D01*
Y-91518D01*
Y-91804D01*
Y-92091D01*
Y-92377D01*
Y-92663D01*
X987012D01*
Y-92950D01*
Y-93236D01*
Y-93522D01*
Y-93809D01*
Y-94095D01*
Y-94381D01*
Y-94667D01*
X986726D01*
Y-94954D01*
Y-95240D01*
Y-95526D01*
Y-95813D01*
Y-96099D01*
Y-96385D01*
X986440D01*
Y-96672D01*
Y-96958D01*
Y-97244D01*
Y-97531D01*
Y-97817D01*
Y-98103D01*
X986153D01*
Y-98390D01*
Y-98676D01*
Y-98962D01*
Y-99248D01*
Y-99535D01*
Y-99821D01*
Y-100107D01*
X972696D01*
Y-99821D01*
X972983D01*
Y-99535D01*
Y-99248D01*
Y-98962D01*
Y-98676D01*
Y-98390D01*
X973269D01*
Y-98103D01*
Y-97817D01*
Y-97531D01*
Y-97244D01*
Y-96958D01*
Y-96672D01*
Y-96385D01*
X973555D01*
Y-96099D01*
Y-95813D01*
Y-95526D01*
Y-95240D01*
Y-94954D01*
Y-94667D01*
X973842D01*
Y-94381D01*
Y-94095D01*
Y-93809D01*
Y-93522D01*
Y-93236D01*
Y-92950D01*
X974128D01*
Y-92663D01*
Y-92377D01*
Y-92091D01*
Y-91804D01*
Y-91518D01*
Y-91232D01*
Y-90945D01*
X974414D01*
Y-90659D01*
Y-90373D01*
Y-90086D01*
Y-89800D01*
Y-89514D01*
Y-89227D01*
X974701D01*
Y-88941D01*
Y-88655D01*
Y-88369D01*
Y-88082D01*
Y-87796D01*
Y-87510D01*
X974987D01*
Y-87223D01*
Y-86937D01*
Y-86651D01*
Y-86364D01*
Y-86078D01*
Y-85792D01*
X975273D01*
Y-85505D01*
Y-85219D01*
Y-84933D01*
Y-84646D01*
Y-84360D01*
Y-84074D01*
Y-83788D01*
X975560D01*
Y-83501D01*
Y-83215D01*
Y-82929D01*
Y-82642D01*
Y-82356D01*
Y-82070D01*
X975846D01*
Y-81783D01*
Y-81497D01*
Y-81211D01*
Y-80924D01*
Y-80638D01*
Y-80352D01*
X976132D01*
Y-80066D01*
Y-79779D01*
Y-79493D01*
Y-79207D01*
Y-78920D01*
Y-78634D01*
X976419D01*
Y-78348D01*
Y-78061D01*
Y-77775D01*
Y-77489D01*
Y-77202D01*
Y-76916D01*
Y-76630D01*
X976705D01*
Y-76343D01*
Y-76057D01*
Y-75771D01*
Y-75485D01*
Y-75198D01*
Y-74912D01*
X976991D01*
Y-74625D01*
Y-74339D01*
Y-74053D01*
Y-73767D01*
Y-73480D01*
Y-73194D01*
X977277D01*
Y-72908D01*
Y-72621D01*
Y-72335D01*
Y-72049D01*
Y-71762D01*
Y-71476D01*
Y-71190D01*
X977564D01*
Y-70903D01*
Y-70617D01*
Y-70331D01*
Y-70044D01*
Y-69758D01*
Y-69472D01*
X977850D01*
Y-69186D01*
Y-68899D01*
Y-68613D01*
Y-68327D01*
Y-68040D01*
Y-67754D01*
X978137D01*
Y-67468D01*
Y-67181D01*
Y-66895D01*
Y-66609D01*
Y-66322D01*
Y-66036D01*
X978423D01*
Y-65750D01*
Y-65464D01*
Y-65177D01*
Y-64891D01*
Y-64605D01*
Y-64318D01*
Y-64032D01*
X978709D01*
Y-63746D01*
Y-63459D01*
Y-63173D01*
Y-62887D01*
Y-62600D01*
Y-62314D01*
X978995D01*
Y-62028D01*
Y-61742D01*
Y-61455D01*
Y-61169D01*
Y-60883D01*
Y-60596D01*
X979282D01*
Y-60310D01*
Y-60024D01*
Y-59737D01*
Y-59451D01*
Y-59165D01*
Y-58878D01*
Y-58592D01*
X979568D01*
Y-58306D01*
Y-58019D01*
Y-57733D01*
Y-57447D01*
Y-57161D01*
Y-56874D01*
X979854D01*
Y-56588D01*
Y-56301D01*
Y-56015D01*
Y-55729D01*
Y-55443D01*
Y-55156D01*
X980141D01*
Y-54870D01*
Y-54584D01*
Y-54297D01*
Y-54011D01*
Y-53725D01*
Y-53438D01*
Y-53152D01*
X980427D01*
Y-52866D01*
Y-52579D01*
Y-52293D01*
Y-52007D01*
Y-51720D01*
Y-51434D01*
X980713D01*
Y-51148D01*
Y-50862D01*
Y-50575D01*
Y-50289D01*
Y-50003D01*
Y-49716D01*
X1004477D01*
Y-50003D01*
D02*
G37*
G36*
X1093521Y-64032D02*
Y-64318D01*
Y-64605D01*
Y-64891D01*
Y-65177D01*
Y-65464D01*
Y-65750D01*
Y-66036D01*
Y-66322D01*
Y-66609D01*
Y-66895D01*
Y-67181D01*
Y-67468D01*
Y-67754D01*
Y-68040D01*
Y-68327D01*
Y-68613D01*
Y-68899D01*
Y-69186D01*
Y-69472D01*
Y-69758D01*
X1093234D01*
Y-70044D01*
Y-70331D01*
Y-70617D01*
Y-70903D01*
Y-71190D01*
X1092948D01*
Y-71476D01*
Y-71762D01*
Y-72049D01*
Y-72335D01*
X1092662D01*
Y-72621D01*
Y-72908D01*
Y-73194D01*
Y-73480D01*
X1092375D01*
Y-73767D01*
Y-74053D01*
Y-74339D01*
X1092089D01*
Y-74625D01*
Y-74912D01*
Y-75198D01*
X1091803D01*
Y-75485D01*
Y-75771D01*
Y-76057D01*
X1091516D01*
Y-76343D01*
Y-76630D01*
Y-76916D01*
X1091230D01*
Y-77202D01*
Y-77489D01*
X1090944D01*
Y-77775D01*
Y-78061D01*
X1090657D01*
Y-78348D01*
Y-78634D01*
Y-78920D01*
X1090371D01*
Y-79207D01*
Y-79493D01*
X1090085D01*
Y-79779D01*
Y-80066D01*
Y-80352D01*
X1089799D01*
Y-80638D01*
Y-80924D01*
X1089512D01*
Y-81211D01*
Y-81497D01*
Y-81783D01*
X1089226D01*
Y-82070D01*
Y-82356D01*
X1088939D01*
Y-82642D01*
Y-82929D01*
Y-83215D01*
X1088653D01*
Y-83501D01*
Y-83788D01*
X1088367D01*
Y-84074D01*
Y-84360D01*
Y-84646D01*
X1088081D01*
Y-84933D01*
Y-85219D01*
X1087794D01*
Y-85505D01*
Y-85792D01*
Y-86078D01*
X1087508D01*
Y-86364D01*
Y-86651D01*
X1087222D01*
Y-86937D01*
Y-87223D01*
Y-87510D01*
X1086935D01*
Y-87796D01*
Y-88082D01*
X1086649D01*
Y-88369D01*
Y-88655D01*
Y-88941D01*
X1086363D01*
Y-89227D01*
Y-89514D01*
X1086076D01*
Y-89800D01*
Y-90086D01*
Y-90373D01*
X1085790D01*
Y-90659D01*
Y-90945D01*
X1085504D01*
Y-91232D01*
Y-91518D01*
Y-91804D01*
X1085217D01*
Y-92091D01*
Y-92377D01*
X1084931D01*
Y-92663D01*
Y-92950D01*
Y-93236D01*
X1084645D01*
Y-93522D01*
Y-93809D01*
X1084359D01*
Y-94095D01*
Y-94381D01*
Y-94667D01*
X1084072D01*
Y-94954D01*
Y-95240D01*
X1083786D01*
Y-95526D01*
Y-95813D01*
Y-96099D01*
X1083500D01*
Y-96385D01*
Y-96672D01*
X1083213D01*
Y-96958D01*
Y-97244D01*
Y-97531D01*
X1082927D01*
Y-97817D01*
Y-98103D01*
X1082641D01*
Y-98390D01*
Y-98676D01*
Y-98962D01*
X1082354D01*
Y-99248D01*
Y-99535D01*
X1082068D01*
Y-99821D01*
Y-100107D01*
Y-100394D01*
X1081782D01*
Y-100680D01*
Y-100966D01*
X1081495D01*
Y-101253D01*
Y-101539D01*
X1081209D01*
Y-101825D01*
Y-102112D01*
X1080923D01*
Y-102398D01*
Y-102684D01*
Y-102971D01*
X1080637D01*
Y-103257D01*
X1080350D01*
Y-103543D01*
Y-103829D01*
Y-104116D01*
X1080064D01*
Y-104402D01*
X1079778D01*
Y-104688D01*
Y-104975D01*
X1079491D01*
Y-105261D01*
Y-105547D01*
X1079205D01*
Y-105834D01*
Y-106120D01*
X1078919D01*
Y-106406D01*
Y-106693D01*
X1078632D01*
Y-106979D01*
X1078346D01*
Y-107265D01*
Y-107552D01*
X1078060D01*
Y-107838D01*
Y-108124D01*
X1077773D01*
Y-108410D01*
X1077487D01*
Y-108697D01*
X1077201D01*
Y-108983D01*
Y-109269D01*
X1076914D01*
Y-109556D01*
X1076628D01*
Y-109842D01*
Y-110128D01*
X1076342D01*
Y-110415D01*
X1076056D01*
Y-110701D01*
X1075769D01*
Y-110987D01*
Y-111274D01*
X1075483D01*
Y-111560D01*
X1075196D01*
Y-111846D01*
X1074910D01*
Y-112133D01*
X1074624D01*
Y-112419D01*
X1074338D01*
Y-112705D01*
Y-112991D01*
X1074051D01*
Y-113278D01*
X1073765D01*
Y-113564D01*
X1073479D01*
Y-113850D01*
X1073192D01*
Y-114137D01*
X1072906D01*
Y-114423D01*
X1072620D01*
Y-114709D01*
X1072333D01*
Y-114996D01*
X1071761D01*
Y-115282D01*
X1071474D01*
Y-115568D01*
X1071188D01*
Y-115855D01*
X1070902D01*
Y-116141D01*
X1070615D01*
Y-116427D01*
X1070043D01*
Y-116714D01*
X1069757D01*
Y-117000D01*
X1069184D01*
Y-117286D01*
X1068898D01*
Y-117572D01*
X1068325D01*
Y-117859D01*
X1068039D01*
Y-118145D01*
X1067466D01*
Y-118431D01*
X1066893D01*
Y-118718D01*
X1066321D01*
Y-119004D01*
X1065748D01*
Y-119290D01*
X1065176D01*
Y-119577D01*
X1064317D01*
Y-119863D01*
X1063744D01*
Y-120149D01*
X1062885D01*
Y-120436D01*
X1061740D01*
Y-120722D01*
X1060595D01*
Y-121008D01*
X1058877D01*
Y-121294D01*
X1056872D01*
Y-121581D01*
X1056586D01*
Y-121294D01*
Y-121008D01*
Y-120722D01*
Y-120436D01*
Y-120149D01*
Y-119863D01*
Y-119577D01*
Y-119290D01*
Y-119004D01*
Y-118718D01*
Y-118431D01*
Y-118145D01*
Y-117859D01*
Y-117572D01*
Y-117286D01*
Y-117000D01*
Y-116714D01*
Y-116427D01*
Y-116141D01*
Y-115855D01*
Y-115568D01*
Y-115282D01*
Y-114996D01*
Y-114709D01*
Y-114423D01*
Y-114137D01*
Y-113850D01*
Y-113564D01*
Y-113278D01*
Y-112991D01*
Y-112705D01*
Y-112419D01*
Y-112133D01*
X1057159D01*
Y-111846D01*
X1057731D01*
Y-111560D01*
X1058304D01*
Y-111274D01*
X1058877D01*
Y-110987D01*
X1059449D01*
Y-110701D01*
X1060022D01*
Y-110415D01*
X1060308D01*
Y-110128D01*
X1060881D01*
Y-109842D01*
X1061167D01*
Y-109556D01*
X1061740D01*
Y-109269D01*
X1062026D01*
Y-108983D01*
X1062312D01*
Y-108697D01*
X1062885D01*
Y-108410D01*
X1063171D01*
Y-108124D01*
X1063458D01*
Y-107838D01*
X1063744D01*
Y-107552D01*
X1064030D01*
Y-107265D01*
X1064317D01*
Y-106979D01*
X1064603D01*
Y-106693D01*
X1064889D01*
Y-106406D01*
X1065176D01*
Y-106120D01*
X1065462D01*
Y-105834D01*
X1065748D01*
Y-105547D01*
X1066035D01*
Y-105261D01*
Y-104975D01*
X1066321D01*
Y-104688D01*
X1066607D01*
Y-104402D01*
X1066893D01*
Y-104116D01*
Y-103829D01*
X1067180D01*
Y-103543D01*
X1067466D01*
Y-103257D01*
Y-102971D01*
X1067752D01*
Y-102684D01*
Y-102398D01*
X1068039D01*
Y-102112D01*
X1068325D01*
Y-101825D01*
Y-101539D01*
X1068611D01*
Y-101253D01*
Y-100966D01*
X1068898D01*
Y-100680D01*
Y-100394D01*
X1067180D01*
Y-100107D01*
X1065176D01*
Y-99821D01*
X1064030D01*
Y-99535D01*
X1063458D01*
Y-99248D01*
X1062599D01*
Y-98962D01*
X1062026D01*
Y-98676D01*
X1061740D01*
Y-98390D01*
X1061167D01*
Y-98103D01*
X1060881D01*
Y-97817D01*
X1060595D01*
Y-97531D01*
X1060308D01*
Y-97244D01*
X1060022D01*
Y-96958D01*
X1059736D01*
Y-96672D01*
Y-96385D01*
X1059449D01*
Y-96099D01*
X1059163D01*
Y-95813D01*
Y-95526D01*
X1058877D01*
Y-95240D01*
Y-94954D01*
X1058590D01*
Y-94667D01*
Y-94381D01*
X1058304D01*
Y-94095D01*
Y-93809D01*
Y-93522D01*
X1058018D01*
Y-93236D01*
Y-92950D01*
Y-92663D01*
Y-92377D01*
X1057731D01*
Y-92091D01*
Y-91804D01*
Y-91518D01*
Y-91232D01*
Y-90945D01*
Y-90659D01*
Y-90373D01*
X1057445D01*
Y-90086D01*
Y-89800D01*
Y-89514D01*
Y-89227D01*
Y-88941D01*
Y-88655D01*
Y-88369D01*
Y-88082D01*
Y-87796D01*
Y-87510D01*
Y-87223D01*
Y-86937D01*
Y-86651D01*
Y-86364D01*
Y-86078D01*
X1057159D01*
Y-85792D01*
Y-85505D01*
Y-85219D01*
Y-84933D01*
Y-84646D01*
Y-84360D01*
Y-84074D01*
Y-83788D01*
Y-83501D01*
Y-83215D01*
Y-82929D01*
Y-82642D01*
Y-82356D01*
Y-82070D01*
Y-81783D01*
X1056872D01*
Y-81497D01*
Y-81211D01*
Y-80924D01*
Y-80638D01*
Y-80352D01*
Y-80066D01*
Y-79779D01*
Y-79493D01*
Y-79207D01*
Y-78920D01*
Y-78634D01*
Y-78348D01*
Y-78061D01*
Y-77775D01*
Y-77489D01*
Y-77202D01*
X1056586D01*
Y-76916D01*
Y-76630D01*
Y-76343D01*
Y-76057D01*
Y-75771D01*
Y-75485D01*
Y-75198D01*
Y-74912D01*
Y-74625D01*
Y-74339D01*
Y-74053D01*
Y-73767D01*
Y-73480D01*
Y-73194D01*
Y-72908D01*
Y-72621D01*
X1056300D01*
Y-72335D01*
Y-72049D01*
Y-71762D01*
Y-71476D01*
Y-71190D01*
Y-70903D01*
Y-70617D01*
Y-70331D01*
Y-70044D01*
Y-69758D01*
Y-69472D01*
Y-69186D01*
Y-68899D01*
Y-68613D01*
X1056014D01*
Y-68327D01*
Y-68040D01*
Y-67754D01*
Y-67468D01*
Y-67181D01*
Y-66895D01*
Y-66609D01*
Y-66322D01*
Y-66036D01*
Y-65750D01*
Y-65464D01*
Y-65177D01*
Y-64891D01*
Y-64605D01*
Y-64318D01*
Y-64032D01*
X1055727D01*
Y-63746D01*
X1069470D01*
Y-64032D01*
Y-64318D01*
Y-64605D01*
Y-64891D01*
Y-65177D01*
Y-65464D01*
Y-65750D01*
Y-66036D01*
Y-66322D01*
Y-66609D01*
Y-66895D01*
Y-67181D01*
Y-67468D01*
Y-67754D01*
X1069757D01*
Y-68040D01*
Y-68327D01*
Y-68613D01*
Y-68899D01*
Y-69186D01*
Y-69472D01*
Y-69758D01*
Y-70044D01*
Y-70331D01*
Y-70617D01*
Y-70903D01*
Y-71190D01*
Y-71476D01*
Y-71762D01*
Y-72049D01*
Y-72335D01*
Y-72621D01*
Y-72908D01*
Y-73194D01*
Y-73480D01*
Y-73767D01*
Y-74053D01*
Y-74339D01*
Y-74625D01*
Y-74912D01*
Y-75198D01*
Y-75485D01*
Y-75771D01*
Y-76057D01*
Y-76343D01*
Y-76630D01*
Y-76916D01*
Y-77202D01*
Y-77489D01*
Y-77775D01*
Y-78061D01*
Y-78348D01*
Y-78634D01*
Y-78920D01*
Y-79207D01*
Y-79493D01*
X1070043D01*
Y-79779D01*
X1069757D01*
Y-80066D01*
Y-80352D01*
X1070043D01*
Y-80638D01*
Y-80924D01*
Y-81211D01*
Y-81497D01*
Y-81783D01*
Y-82070D01*
Y-82356D01*
Y-82642D01*
Y-82929D01*
Y-83215D01*
Y-83501D01*
Y-83788D01*
Y-84074D01*
Y-84360D01*
Y-84646D01*
Y-84933D01*
Y-85219D01*
Y-85505D01*
Y-85792D01*
Y-86078D01*
Y-86364D01*
Y-86651D01*
Y-86937D01*
Y-87223D01*
Y-87510D01*
Y-87796D01*
X1070329D01*
Y-88082D01*
Y-88369D01*
Y-88655D01*
X1070615D01*
Y-88941D01*
X1070902D01*
Y-89227D01*
X1071188D01*
Y-89514D01*
X1072047D01*
Y-89800D01*
X1072906D01*
Y-89514D01*
X1073192D01*
Y-89227D01*
Y-88941D01*
Y-88655D01*
X1073479D01*
Y-88369D01*
Y-88082D01*
X1073765D01*
Y-87796D01*
Y-87510D01*
Y-87223D01*
X1074051D01*
Y-86937D01*
Y-86651D01*
Y-86364D01*
X1074338D01*
Y-86078D01*
Y-85792D01*
Y-85505D01*
X1074624D01*
Y-85219D01*
Y-84933D01*
Y-84646D01*
X1074910D01*
Y-84360D01*
Y-84074D01*
X1075196D01*
Y-83788D01*
Y-83501D01*
Y-83215D01*
X1075483D01*
Y-82929D01*
Y-82642D01*
Y-82356D01*
X1075769D01*
Y-82070D01*
Y-81783D01*
Y-81497D01*
X1076056D01*
Y-81211D01*
Y-80924D01*
X1076342D01*
Y-80638D01*
Y-80352D01*
Y-80066D01*
X1076628D01*
Y-79779D01*
Y-79493D01*
Y-79207D01*
X1076914D01*
Y-78920D01*
Y-78634D01*
Y-78348D01*
X1077201D01*
Y-78061D01*
Y-77775D01*
X1077487D01*
Y-77489D01*
Y-77202D01*
Y-76916D01*
X1077773D01*
Y-76630D01*
Y-76343D01*
Y-76057D01*
X1078060D01*
Y-75771D01*
Y-75485D01*
Y-75198D01*
X1078346D01*
Y-74912D01*
Y-74625D01*
X1078632D01*
Y-74339D01*
Y-74053D01*
Y-73767D01*
X1078919D01*
Y-73480D01*
Y-73194D01*
Y-72908D01*
X1079205D01*
Y-72621D01*
Y-72335D01*
Y-72049D01*
X1079491D01*
Y-71762D01*
Y-71476D01*
Y-71190D01*
Y-70903D01*
X1079778D01*
Y-70617D01*
Y-70331D01*
Y-70044D01*
Y-69758D01*
X1080064D01*
Y-69472D01*
Y-69186D01*
Y-68899D01*
Y-68613D01*
Y-68327D01*
X1080350D01*
Y-68040D01*
Y-67754D01*
Y-67468D01*
Y-67181D01*
Y-66895D01*
Y-66609D01*
X1080637D01*
Y-66322D01*
Y-66036D01*
Y-65750D01*
Y-65464D01*
Y-65177D01*
Y-64891D01*
Y-64605D01*
Y-64318D01*
Y-64032D01*
Y-63746D01*
X1093521D01*
Y-64032D01*
D02*
G37*
G36*
X1035685Y-46567D02*
Y-46853D01*
X1035399D01*
Y-47139D01*
Y-47426D01*
Y-47712D01*
Y-47998D01*
Y-48285D01*
Y-48571D01*
X1035113D01*
Y-48857D01*
Y-49144D01*
Y-49430D01*
Y-49716D01*
Y-50003D01*
Y-50289D01*
X1034826D01*
Y-50575D01*
Y-50862D01*
Y-51148D01*
Y-51434D01*
Y-51720D01*
Y-52007D01*
Y-52293D01*
X1034540D01*
Y-52579D01*
Y-52866D01*
Y-53152D01*
Y-53438D01*
Y-53725D01*
Y-54011D01*
X1034254D01*
Y-54297D01*
Y-54584D01*
Y-54870D01*
Y-55156D01*
Y-55443D01*
Y-55729D01*
X1033967D01*
Y-56015D01*
Y-56301D01*
Y-56588D01*
Y-56874D01*
Y-57161D01*
Y-57447D01*
Y-57733D01*
X1033681D01*
Y-58019D01*
Y-58306D01*
Y-58592D01*
Y-58878D01*
Y-59165D01*
Y-59451D01*
X1033395D01*
Y-59737D01*
Y-60024D01*
Y-60310D01*
Y-60596D01*
Y-60883D01*
Y-61169D01*
X1033109D01*
Y-61455D01*
Y-61742D01*
Y-62028D01*
Y-62314D01*
Y-62600D01*
Y-62887D01*
X1032822D01*
Y-63173D01*
Y-63459D01*
Y-63746D01*
Y-64032D01*
Y-64318D01*
Y-64605D01*
Y-64891D01*
X1032536D01*
Y-65177D01*
Y-65464D01*
Y-65750D01*
Y-66036D01*
Y-66322D01*
Y-66609D01*
X1032250D01*
Y-66895D01*
Y-67181D01*
X1032822D01*
Y-66895D01*
X1033109D01*
Y-66609D01*
X1033395D01*
Y-66322D01*
X1033967D01*
Y-66036D01*
X1034254D01*
Y-65750D01*
X1034540D01*
Y-65464D01*
X1035113D01*
Y-65177D01*
X1035685D01*
Y-64891D01*
X1035972D01*
Y-64605D01*
X1036544D01*
Y-64318D01*
X1037403D01*
Y-64032D01*
X1037976D01*
Y-63746D01*
X1038835D01*
Y-63459D01*
X1040266D01*
Y-63173D01*
X1046565D01*
Y-63459D01*
X1047711D01*
Y-63746D01*
X1048569D01*
Y-64032D01*
X1049142D01*
Y-64318D01*
X1049428D01*
Y-64605D01*
X1050001D01*
Y-64891D01*
X1050287D01*
Y-65177D01*
X1050574D01*
Y-65464D01*
X1050860D01*
Y-65750D01*
X1051146D01*
Y-66036D01*
Y-66322D01*
X1051433D01*
Y-66609D01*
Y-66895D01*
X1051719D01*
Y-67181D01*
Y-67468D01*
Y-67754D01*
X1052005D01*
Y-68040D01*
Y-68327D01*
Y-68613D01*
Y-68899D01*
X1052291D01*
Y-69186D01*
Y-69472D01*
Y-69758D01*
Y-70044D01*
Y-70331D01*
Y-70617D01*
Y-70903D01*
Y-71190D01*
Y-71476D01*
Y-71762D01*
Y-72049D01*
Y-72335D01*
Y-72621D01*
Y-72908D01*
Y-73194D01*
Y-73480D01*
Y-73767D01*
Y-74053D01*
X1052005D01*
Y-74339D01*
Y-74625D01*
Y-74912D01*
Y-75198D01*
Y-75485D01*
Y-75771D01*
Y-76057D01*
X1051719D01*
Y-76343D01*
Y-76630D01*
Y-76916D01*
Y-77202D01*
Y-77489D01*
Y-77775D01*
Y-78061D01*
X1051433D01*
Y-78348D01*
Y-78634D01*
Y-78920D01*
Y-79207D01*
Y-79493D01*
Y-79779D01*
X1051146D01*
Y-80066D01*
Y-80352D01*
Y-80638D01*
Y-80924D01*
Y-81211D01*
Y-81497D01*
X1050860D01*
Y-81783D01*
Y-82070D01*
Y-82356D01*
Y-82642D01*
Y-82929D01*
Y-83215D01*
X1050574D01*
Y-83501D01*
Y-83788D01*
Y-84074D01*
Y-84360D01*
Y-84646D01*
Y-84933D01*
Y-85219D01*
X1050287D01*
Y-85505D01*
Y-85792D01*
Y-86078D01*
Y-86364D01*
Y-86651D01*
Y-86937D01*
X1050001D01*
Y-87223D01*
Y-87510D01*
Y-87796D01*
Y-88082D01*
Y-88369D01*
Y-88655D01*
X1049715D01*
Y-88941D01*
Y-89227D01*
Y-89514D01*
Y-89800D01*
Y-90086D01*
Y-90373D01*
Y-90659D01*
X1049428D01*
Y-90945D01*
Y-91232D01*
Y-91518D01*
Y-91804D01*
Y-92091D01*
Y-92377D01*
X1049142D01*
Y-92663D01*
Y-92950D01*
Y-93236D01*
Y-93522D01*
Y-93809D01*
Y-94095D01*
X1048856D01*
Y-94381D01*
Y-94667D01*
Y-94954D01*
Y-95240D01*
Y-95526D01*
Y-95813D01*
X1048569D01*
Y-96099D01*
Y-96385D01*
Y-96672D01*
Y-96958D01*
Y-97244D01*
Y-97531D01*
Y-97817D01*
X1048283D01*
Y-98103D01*
Y-98390D01*
Y-98676D01*
Y-98962D01*
Y-99248D01*
Y-99535D01*
X1047997D01*
Y-99821D01*
Y-100107D01*
X1034826D01*
Y-99821D01*
Y-99535D01*
X1035113D01*
Y-99248D01*
Y-98962D01*
Y-98676D01*
Y-98390D01*
Y-98103D01*
Y-97817D01*
X1035399D01*
Y-97531D01*
Y-97244D01*
Y-96958D01*
Y-96672D01*
Y-96385D01*
Y-96099D01*
Y-95813D01*
X1035685D01*
Y-95526D01*
Y-95240D01*
Y-94954D01*
Y-94667D01*
Y-94381D01*
Y-94095D01*
X1035972D01*
Y-93809D01*
Y-93522D01*
Y-93236D01*
Y-92950D01*
Y-92663D01*
Y-92377D01*
X1036258D01*
Y-92091D01*
Y-91804D01*
Y-91518D01*
Y-91232D01*
Y-90945D01*
Y-90659D01*
Y-90373D01*
X1036544D01*
Y-90086D01*
Y-89800D01*
Y-89514D01*
Y-89227D01*
Y-88941D01*
Y-88655D01*
X1036831D01*
Y-88369D01*
Y-88082D01*
Y-87796D01*
Y-87510D01*
Y-87223D01*
Y-86937D01*
Y-86651D01*
X1037117D01*
Y-86364D01*
Y-86078D01*
Y-85792D01*
Y-85505D01*
Y-85219D01*
Y-84933D01*
X1037403D01*
Y-84646D01*
Y-84360D01*
Y-84074D01*
Y-83788D01*
Y-83501D01*
Y-83215D01*
X1037689D01*
Y-82929D01*
Y-82642D01*
Y-82356D01*
Y-82070D01*
Y-81783D01*
Y-81497D01*
X1037976D01*
Y-81211D01*
Y-80924D01*
Y-80638D01*
Y-80352D01*
Y-80066D01*
Y-79779D01*
Y-79493D01*
X1038262D01*
Y-79207D01*
Y-78920D01*
Y-78634D01*
Y-78348D01*
Y-78061D01*
Y-77775D01*
X1038548D01*
Y-77489D01*
Y-77202D01*
Y-76916D01*
Y-76630D01*
Y-76343D01*
Y-76057D01*
Y-75771D01*
X1038835D01*
Y-75485D01*
Y-75198D01*
Y-74912D01*
Y-74625D01*
Y-74339D01*
Y-74053D01*
X1038548D01*
Y-73767D01*
Y-73480D01*
X1038262D01*
Y-73194D01*
X1037976D01*
Y-72908D01*
X1037403D01*
Y-72621D01*
X1035685D01*
Y-72908D01*
X1034254D01*
Y-73194D01*
X1033395D01*
Y-73480D01*
X1032822D01*
Y-73767D01*
X1032536D01*
Y-74053D01*
X1031963D01*
Y-74339D01*
X1031677D01*
Y-74625D01*
X1031391D01*
Y-74912D01*
Y-75198D01*
X1031104D01*
Y-75485D01*
Y-75771D01*
Y-76057D01*
X1030818D01*
Y-76343D01*
Y-76630D01*
Y-76916D01*
Y-77202D01*
Y-77489D01*
Y-77775D01*
X1030532D01*
Y-78061D01*
Y-78348D01*
Y-78634D01*
Y-78920D01*
Y-79207D01*
Y-79493D01*
Y-79779D01*
X1030245D01*
Y-80066D01*
Y-80352D01*
Y-80638D01*
Y-80924D01*
Y-81211D01*
Y-81497D01*
X1029959D01*
Y-81783D01*
Y-82070D01*
Y-82356D01*
Y-82642D01*
Y-82929D01*
Y-83215D01*
X1029673D01*
Y-83501D01*
Y-83788D01*
Y-84074D01*
Y-84360D01*
Y-84646D01*
Y-84933D01*
X1029387D01*
Y-85219D01*
Y-85505D01*
Y-85792D01*
Y-86078D01*
Y-86364D01*
Y-86651D01*
Y-86937D01*
X1029100D01*
Y-87223D01*
Y-87510D01*
Y-87796D01*
Y-88082D01*
Y-88369D01*
Y-88655D01*
X1028814D01*
Y-88941D01*
Y-89227D01*
Y-89514D01*
Y-89800D01*
Y-90086D01*
Y-90373D01*
X1028528D01*
Y-90659D01*
Y-90945D01*
Y-91232D01*
Y-91518D01*
Y-91804D01*
Y-92091D01*
Y-92377D01*
X1028241D01*
Y-92663D01*
Y-92950D01*
Y-93236D01*
Y-93522D01*
Y-93809D01*
Y-94095D01*
X1027955D01*
Y-94381D01*
Y-94667D01*
Y-94954D01*
Y-95240D01*
Y-95526D01*
Y-95813D01*
X1027669D01*
Y-96099D01*
Y-96385D01*
Y-96672D01*
Y-96958D01*
Y-97244D01*
Y-97531D01*
X1027382D01*
Y-97817D01*
Y-98103D01*
Y-98390D01*
Y-98676D01*
Y-98962D01*
Y-99248D01*
Y-99535D01*
X1027096D01*
Y-99821D01*
Y-100107D01*
X1013926D01*
Y-99821D01*
Y-99535D01*
X1014212D01*
Y-99248D01*
Y-98962D01*
Y-98676D01*
Y-98390D01*
Y-98103D01*
Y-97817D01*
Y-97531D01*
X1014498D01*
Y-97244D01*
Y-96958D01*
Y-96672D01*
Y-96385D01*
Y-96099D01*
Y-95813D01*
X1014785D01*
Y-95526D01*
Y-95240D01*
Y-94954D01*
Y-94667D01*
Y-94381D01*
Y-94095D01*
X1015071D01*
Y-93809D01*
Y-93522D01*
Y-93236D01*
Y-92950D01*
Y-92663D01*
Y-92377D01*
Y-92091D01*
X1015357D01*
Y-91804D01*
Y-91518D01*
Y-91232D01*
Y-90945D01*
Y-90659D01*
Y-90373D01*
X1015643D01*
Y-90086D01*
Y-89800D01*
Y-89514D01*
Y-89227D01*
Y-88941D01*
Y-88655D01*
X1015930D01*
Y-88369D01*
Y-88082D01*
Y-87796D01*
Y-87510D01*
Y-87223D01*
Y-86937D01*
X1016216D01*
Y-86651D01*
Y-86364D01*
Y-86078D01*
Y-85792D01*
Y-85505D01*
Y-85219D01*
Y-84933D01*
X1016502D01*
Y-84646D01*
Y-84360D01*
Y-84074D01*
Y-83788D01*
Y-83501D01*
Y-83215D01*
X1016789D01*
Y-82929D01*
Y-82642D01*
Y-82356D01*
Y-82070D01*
Y-81783D01*
Y-81497D01*
X1017075D01*
Y-81211D01*
Y-80924D01*
Y-80638D01*
Y-80352D01*
Y-80066D01*
Y-79779D01*
Y-79493D01*
X1017361D01*
Y-79207D01*
Y-78920D01*
Y-78634D01*
Y-78348D01*
Y-78061D01*
Y-77775D01*
X1017648D01*
Y-77489D01*
Y-77202D01*
Y-76916D01*
Y-76630D01*
Y-76343D01*
Y-76057D01*
X1017934D01*
Y-75771D01*
Y-75485D01*
Y-75198D01*
Y-74912D01*
Y-74625D01*
Y-74339D01*
X1018220D01*
Y-74053D01*
Y-73767D01*
Y-73480D01*
Y-73194D01*
Y-72908D01*
Y-72621D01*
Y-72335D01*
X1018507D01*
Y-72049D01*
Y-71762D01*
Y-71476D01*
Y-71190D01*
Y-70903D01*
Y-70617D01*
X1018793D01*
Y-70331D01*
Y-70044D01*
Y-69758D01*
Y-69472D01*
Y-69186D01*
Y-68899D01*
X1019079D01*
Y-68613D01*
Y-68327D01*
Y-68040D01*
Y-67754D01*
Y-67468D01*
Y-67181D01*
X1019366D01*
Y-66895D01*
Y-66609D01*
Y-66322D01*
Y-66036D01*
Y-65750D01*
Y-65464D01*
Y-65177D01*
X1019652D01*
Y-64891D01*
Y-64605D01*
Y-64318D01*
Y-64032D01*
Y-63746D01*
Y-63459D01*
X1019938D01*
Y-63173D01*
Y-62887D01*
Y-62600D01*
Y-62314D01*
Y-62028D01*
Y-61742D01*
X1020224D01*
Y-61455D01*
Y-61169D01*
Y-60883D01*
Y-60596D01*
Y-60310D01*
Y-60024D01*
Y-59737D01*
X1020511D01*
Y-59451D01*
Y-59165D01*
Y-58878D01*
Y-58592D01*
Y-58306D01*
Y-58019D01*
X1020797D01*
Y-57733D01*
Y-57447D01*
Y-57161D01*
Y-56874D01*
Y-56588D01*
Y-56301D01*
X1021083D01*
Y-56015D01*
Y-55729D01*
Y-55443D01*
Y-55156D01*
Y-54870D01*
Y-54584D01*
X1021370D01*
Y-54297D01*
Y-54011D01*
Y-53725D01*
Y-53438D01*
Y-53152D01*
Y-52866D01*
Y-52579D01*
X1021656D01*
Y-52293D01*
Y-52007D01*
Y-51720D01*
Y-51434D01*
Y-51148D01*
Y-50862D01*
X1021942D01*
Y-50575D01*
Y-50289D01*
Y-50003D01*
Y-49716D01*
Y-49430D01*
Y-49144D01*
X1022229D01*
Y-48857D01*
Y-48571D01*
Y-48285D01*
Y-47998D01*
Y-47712D01*
Y-47426D01*
Y-47139D01*
X1022515D01*
Y-46853D01*
Y-46567D01*
Y-46281D01*
X1035685D01*
Y-46567D01*
D02*
G37*
%LPC*%
G36*
X306878Y135068D02*
X306630D01*
Y134986D01*
X306135D01*
Y134903D01*
X305558D01*
Y134821D01*
X305063D01*
Y134739D01*
X304568D01*
Y134656D01*
X304073D01*
Y134573D01*
X303661D01*
Y132264D01*
X303743D01*
Y132099D01*
X303826D01*
Y132017D01*
X303908D01*
Y131934D01*
X304073D01*
Y131852D01*
X304238D01*
Y131769D01*
X305146D01*
Y131852D01*
X305558D01*
Y131934D01*
X305888D01*
Y132017D01*
X306053D01*
Y132099D01*
X306218D01*
Y132182D01*
X306383D01*
Y132264D01*
X306465D01*
Y132347D01*
X306548D01*
Y132429D01*
X306630D01*
Y132512D01*
X306713D01*
Y132676D01*
X306795D01*
Y133006D01*
X306878D01*
Y135068D01*
D02*
G37*
G36*
X1000183Y-60883D02*
X992166D01*
Y-61169D01*
Y-61455D01*
Y-61742D01*
Y-62028D01*
Y-62314D01*
X991879D01*
Y-62600D01*
Y-62887D01*
Y-63173D01*
Y-63459D01*
Y-63746D01*
Y-64032D01*
X991593D01*
Y-64318D01*
Y-64605D01*
Y-64891D01*
Y-65177D01*
Y-65464D01*
Y-65750D01*
X991307D01*
Y-66036D01*
Y-66322D01*
Y-66609D01*
Y-66895D01*
Y-67181D01*
Y-67468D01*
X991020D01*
Y-67754D01*
Y-68040D01*
Y-68327D01*
Y-68613D01*
Y-68899D01*
Y-69186D01*
Y-69472D01*
X990734D01*
Y-69758D01*
Y-70044D01*
Y-70331D01*
Y-70617D01*
Y-70903D01*
Y-71190D01*
X990448D01*
Y-71476D01*
Y-71762D01*
Y-72049D01*
X997606D01*
Y-71762D01*
X998751D01*
Y-71476D01*
X999324D01*
Y-71190D01*
X999610D01*
Y-70903D01*
X999896D01*
Y-70617D01*
X1000183D01*
Y-70331D01*
X1000469D01*
Y-70044D01*
Y-69758D01*
X1000755D01*
Y-69472D01*
Y-69186D01*
X1001042D01*
Y-68899D01*
Y-68613D01*
X1001328D01*
Y-68327D01*
Y-68040D01*
Y-67754D01*
Y-67468D01*
X1001614D01*
Y-67181D01*
Y-66895D01*
Y-66609D01*
Y-66322D01*
Y-66036D01*
X1001900D01*
Y-65750D01*
Y-65464D01*
Y-65177D01*
Y-64891D01*
Y-64605D01*
Y-64318D01*
Y-64032D01*
Y-63746D01*
Y-63459D01*
Y-63173D01*
Y-62887D01*
X1001614D01*
Y-62600D01*
Y-62314D01*
X1001328D01*
Y-62028D01*
Y-61742D01*
X1001042D01*
Y-61455D01*
X1000755D01*
Y-61169D01*
X1000183D01*
Y-60883D01*
D02*
G37*
%LPD*%
D10*
X62008Y230315D02*
G03*
X52165Y220472I0J-9843D01*
G01*
Y15748D02*
G03*
X62008Y5906I9843J0D01*
G01*
X359252Y221457D02*
G03*
X350394Y230315I-8858J0D01*
G01*
X359252Y212106D02*
G03*
X368602Y202756I9350J0D01*
G01*
X377953Y193405D02*
G03*
X368602Y202756I-9350J0D01*
G01*
X347236Y142717D02*
G03*
X354307Y145645I0J10000D01*
G01*
Y90575D02*
G03*
X347236Y93504I-7071J-7071D01*
G01*
X361244Y83638D02*
G03*
X368315Y80709I7071J7071D01*
G01*
X377953Y72835D02*
G03*
X370079Y80709I-7874J0D01*
G01*
X368315Y155512D02*
G03*
X361244Y152583I0J-10000D01*
G01*
X370079Y155512D02*
G03*
X377953Y163386I0J7874D01*
G01*
X368602Y33465D02*
G03*
X377953Y42815I0J9350D01*
G01*
X368602Y33465D02*
G03*
X359252Y24114I0J-9350D01*
G01*
X350394Y5906D02*
G03*
X359252Y14764I0J8858D01*
G01*
X62008Y230315D02*
X91535D01*
X62008Y5906D02*
X91535D01*
X359252Y212106D02*
Y221457D01*
X377953Y184055D02*
Y193405D01*
Y170276D02*
Y184055D01*
X327756Y230315D02*
X350394D01*
X249016D02*
X288386D01*
X327756D01*
X288386Y220472D02*
Y230315D01*
X209646D02*
X249016D01*
Y220472D02*
Y230315D01*
X170276D02*
X209646D01*
Y220472D02*
Y230315D01*
X130905D02*
X170276D01*
Y220472D02*
Y230315D01*
X91535D02*
X130905D01*
Y220472D02*
Y230315D01*
X91535Y220472D02*
Y230315D01*
X327756Y220472D02*
Y230315D01*
X377953Y52165D02*
Y65945D01*
Y163386D02*
Y170276D01*
X338583Y142717D02*
X347236D01*
X354307Y145645D02*
X361244Y152583D01*
X354307Y90575D02*
X361244Y83638D01*
X338583Y93504D02*
X347236D01*
X377953Y65945D02*
Y72835D01*
X368315Y155512D02*
X370079D01*
X327756Y5906D02*
Y15748D01*
X91535Y5906D02*
Y15748D01*
X130905Y5906D02*
Y15748D01*
X91535Y5906D02*
X130905D01*
X170276D02*
Y15748D01*
X130905Y5906D02*
X170276D01*
X209646D02*
Y15748D01*
X170276Y5906D02*
X209646D01*
X249016D02*
Y15748D01*
X209646Y5906D02*
X249016D01*
X288386D02*
Y15748D01*
Y5906D02*
X327756D01*
X249016D02*
X288386D01*
X327756D02*
X350394D01*
X377953Y42815D02*
Y52165D01*
X359252Y14764D02*
Y24114D01*
D11*
X0Y11811D02*
G03*
X11811Y0I11811J0D01*
G01*
X381890D02*
G03*
X393701Y11811I0J11811D01*
G01*
Y224410D02*
G03*
X381890Y236221I-11811J0D01*
G01*
X11811D02*
G03*
X0Y224410I0J-11811D01*
G01*
X11811Y0D02*
X381890D01*
X393701Y11811D02*
Y224409D01*
X11811Y236221D02*
X381890D01*
X0Y11811D02*
Y224410D01*
X-224410Y-177165D02*
X1429134D01*
X-224410D02*
Y992126D01*
X1429134Y-177165D02*
Y992126D01*
X-224410D02*
X1429134D01*
X1153543Y-177165D02*
Y-19685D01*
X956693Y-177165D02*
Y-19685D01*
X1429134D01*
X956693Y-137795D02*
X1429134D01*
X1153543Y-98425D02*
X1429134D01*
X1153543Y-59055D02*
X1429134D01*
X1311024Y-137795D02*
Y-98425D01*
X1163386Y-169291D02*
X1165354D01*
X1164370D01*
Y-163388D01*
X1163386Y-164372D01*
X1172241Y-163388D02*
X1170273Y-164372D01*
X1168305Y-166340D01*
Y-168307D01*
X1169289Y-169291D01*
X1171257D01*
X1172241Y-168307D01*
Y-167324D01*
X1171257Y-166340D01*
X1168305D01*
X1178145Y-164372D02*
X1177161Y-163388D01*
X1175193D01*
X1174209Y-164372D01*
Y-168307D01*
X1175193Y-169291D01*
X1177161D01*
X1178145Y-168307D01*
X1180113Y-163388D02*
Y-169291D01*
Y-166340D01*
X1184048D01*
Y-163388D01*
Y-169291D01*
X1186016Y-170275D02*
X1189952D01*
X1191920Y-169291D02*
Y-163388D01*
X1194872D01*
X1195856Y-164372D01*
Y-166340D01*
X1194872Y-167324D01*
X1191920D01*
X1197824Y-163388D02*
Y-169291D01*
X1199791Y-167324D01*
X1201759Y-169291D01*
Y-163388D01*
X1203727Y-169291D02*
Y-163388D01*
X1205695Y-165356D01*
X1207663Y-163388D01*
Y-169291D01*
X1209631Y-170275D02*
X1213566D01*
X1215534Y-169291D02*
Y-163388D01*
X1218486D01*
X1219470Y-164372D01*
Y-166340D01*
X1218486Y-167324D01*
X1215534D01*
X1224390Y-163388D02*
X1222422D01*
X1221438Y-164372D01*
Y-168307D01*
X1222422Y-169291D01*
X1224390D01*
X1225374Y-168307D01*
Y-164372D01*
X1224390Y-163388D01*
X1227341D02*
Y-169291D01*
X1229309Y-167324D01*
X1231277Y-169291D01*
Y-163388D01*
X1237181D02*
X1233245D01*
Y-169291D01*
X1237181D01*
X1233245Y-166340D02*
X1235213D01*
X1239149Y-169291D02*
Y-163388D01*
X1242101D01*
X1243084Y-164372D01*
Y-166340D01*
X1242101Y-167324D01*
X1239149D01*
X1241117D02*
X1243084Y-169291D01*
X1245052Y-170275D02*
X1248988D01*
X1250956Y-164372D02*
X1251940Y-163388D01*
X1253908D01*
X1254892Y-164372D01*
Y-168307D01*
X1253908Y-169291D01*
X1251940D01*
X1250956Y-168307D01*
Y-164372D01*
X1256859D02*
X1257843Y-163388D01*
X1259811D01*
X1260795Y-164372D01*
Y-168307D01*
X1259811Y-169291D01*
X1257843D01*
X1256859Y-168307D01*
Y-164372D01*
X1262763Y-169291D02*
Y-168307D01*
X1263747D01*
Y-169291D01*
X1262763D01*
X1267683D02*
Y-163388D01*
X1270635D01*
X1271618Y-164372D01*
Y-166340D01*
X1270635Y-167324D01*
X1267683D01*
X1277522Y-165356D02*
X1274570D01*
X1273586Y-166340D01*
Y-168307D01*
X1274570Y-169291D01*
X1277522D01*
X1279490Y-163388D02*
Y-169291D01*
X1282442D01*
X1283426Y-168307D01*
Y-167324D01*
Y-166340D01*
X1282442Y-165356D01*
X1279490D01*
X1285394Y-163388D02*
Y-169291D01*
X1288345D01*
X1289329Y-168307D01*
Y-164372D01*
X1288345Y-163388D01*
X1285394D01*
X1292281Y-169291D02*
X1294249D01*
X1295233Y-168307D01*
Y-166340D01*
X1294249Y-165356D01*
X1292281D01*
X1291297Y-166340D01*
Y-168307D01*
X1292281Y-169291D01*
X1301136Y-165356D02*
X1298185D01*
X1297201Y-166340D01*
Y-168307D01*
X1298185Y-169291D01*
X1301136D01*
D13*
X1175197Y-76776D02*
Y-90551D01*
X1182084D01*
X1184380Y-88255D01*
Y-85960D01*
X1182084Y-83664D01*
X1175197D01*
X1182084D01*
X1184380Y-81368D01*
Y-79072D01*
X1182084Y-76776D01*
X1175197D01*
X1191268Y-90551D02*
X1195860D01*
X1198155Y-88255D01*
Y-83664D01*
X1195860Y-81368D01*
X1191268D01*
X1188972Y-83664D01*
Y-88255D01*
X1191268Y-90551D01*
X1205043Y-79072D02*
Y-81368D01*
X1202747D01*
X1207339D01*
X1205043D01*
Y-88255D01*
X1207339Y-90551D01*
X1216522Y-79072D02*
Y-81368D01*
X1214226D01*
X1218818D01*
X1216522D01*
Y-88255D01*
X1218818Y-90551D01*
X1228001D02*
X1232593D01*
X1234889Y-88255D01*
Y-83664D01*
X1232593Y-81368D01*
X1228001D01*
X1225706Y-83664D01*
Y-88255D01*
X1228001Y-90551D01*
X1239481D02*
Y-81368D01*
X1241776D01*
X1244072Y-83664D01*
Y-90551D01*
Y-83664D01*
X1246368Y-81368D01*
X1248664Y-83664D01*
Y-90551D01*
X1276214Y-79072D02*
X1273918Y-76776D01*
X1269327D01*
X1267031Y-79072D01*
Y-81368D01*
X1269327Y-83664D01*
X1273918D01*
X1276214Y-85960D01*
Y-88255D01*
X1273918Y-90551D01*
X1269327D01*
X1267031Y-88255D01*
X1283102Y-90551D02*
X1287693D01*
X1289989Y-88255D01*
Y-83664D01*
X1287693Y-81368D01*
X1283102D01*
X1280806Y-83664D01*
Y-88255D01*
X1283102Y-90551D01*
X1294581D02*
X1299173D01*
X1296877D01*
Y-76776D01*
X1294581D01*
X1315244D02*
Y-90551D01*
X1308356D01*
X1306060Y-88255D01*
Y-83664D01*
X1308356Y-81368D01*
X1315244D01*
X1326723Y-90551D02*
X1322131D01*
X1319835Y-88255D01*
Y-83664D01*
X1322131Y-81368D01*
X1326723D01*
X1329019Y-83664D01*
Y-85960D01*
X1319835D01*
X1333610Y-81368D02*
Y-90551D01*
Y-85960D01*
X1335906Y-83664D01*
X1338202Y-81368D01*
X1340498D01*
X1163386Y-53150D02*
X1168633D01*
X1166010D01*
Y-37407D01*
X1163386Y-40031D01*
X1187000Y-37407D02*
X1181753Y-40031D01*
X1176505Y-45278D01*
Y-50526D01*
X1179129Y-53150D01*
X1184376D01*
X1187000Y-50526D01*
Y-47902D01*
X1184376Y-45278D01*
X1176505D01*
X1202743Y-40031D02*
X1200119Y-37407D01*
X1194872D01*
X1192248Y-40031D01*
Y-50526D01*
X1194872Y-53150D01*
X1200119D01*
X1202743Y-50526D01*
X1207991Y-37407D02*
Y-53150D01*
Y-45278D01*
X1210615Y-42654D01*
X1215862D01*
X1218486Y-45278D01*
Y-53150D01*
X1239477D02*
Y-37407D01*
X1247348D01*
X1249972Y-40031D01*
Y-45278D01*
X1247348Y-47902D01*
X1239477D01*
X1255220Y-37407D02*
Y-53150D01*
X1260467Y-47902D01*
X1265715Y-53150D01*
Y-37407D01*
X1270963Y-53150D02*
Y-37407D01*
X1276210Y-42654D01*
X1281458Y-37407D01*
Y-53150D01*
X1302448D02*
Y-37407D01*
X1310320D01*
X1312944Y-40031D01*
Y-45278D01*
X1310320Y-47902D01*
X1302448D01*
X1320815Y-53150D02*
X1326063D01*
X1328687Y-50526D01*
Y-45278D01*
X1326063Y-42654D01*
X1320815D01*
X1318191Y-45278D01*
Y-50526D01*
X1320815Y-53150D01*
X1333934Y-42654D02*
Y-50526D01*
X1336558Y-53150D01*
X1339182Y-50526D01*
X1341806Y-53150D01*
X1344430Y-50526D01*
Y-42654D01*
X1357549Y-53150D02*
X1352301D01*
X1349677Y-50526D01*
Y-45278D01*
X1352301Y-42654D01*
X1357549D01*
X1360173Y-45278D01*
Y-47902D01*
X1349677D01*
X1365420Y-42654D02*
Y-53150D01*
Y-47902D01*
X1368044Y-45278D01*
X1370668Y-42654D01*
X1373292D01*
X1178475Y-131890D02*
X1169291D01*
X1178475Y-122706D01*
Y-120411D01*
X1176179Y-118115D01*
X1171587D01*
X1169291Y-120411D01*
X1192250Y-118115D02*
X1187658Y-120411D01*
X1183066Y-125002D01*
Y-129594D01*
X1185362Y-131890D01*
X1189954D01*
X1192250Y-129594D01*
Y-127298D01*
X1189954Y-125002D01*
X1183066D01*
X1196842Y-131890D02*
X1206025Y-122706D01*
X1210617Y-131890D02*
X1215208D01*
X1212912D01*
Y-118115D01*
X1210617Y-120411D01*
X1222096D02*
X1224392Y-118115D01*
X1228983D01*
X1231279Y-120411D01*
Y-129594D01*
X1228983Y-131890D01*
X1224392D01*
X1222096Y-129594D01*
Y-120411D01*
X1235871Y-131890D02*
X1245054Y-122706D01*
X1258829Y-131890D02*
X1249646D01*
X1258829Y-122706D01*
Y-120411D01*
X1256534Y-118115D01*
X1251942D01*
X1249646Y-120411D01*
X1263421D02*
X1265717Y-118115D01*
X1270309D01*
X1272604Y-120411D01*
Y-129594D01*
X1270309Y-131890D01*
X1265717D01*
X1263421Y-129594D01*
Y-120411D01*
X1277196Y-131890D02*
X1281788D01*
X1279492D01*
Y-118115D01*
X1277196Y-120411D01*
X1288675Y-118115D02*
X1297859D01*
Y-120411D01*
X1288675Y-129594D01*
Y-131890D01*
X1332677Y-118771D02*
X1335301Y-116147D01*
X1340549D01*
X1343172Y-118771D01*
Y-129266D01*
X1340549Y-131890D01*
X1335301D01*
X1332677Y-129266D01*
Y-118771D01*
X1348420D02*
X1351044Y-116147D01*
X1356292D01*
X1358915Y-118771D01*
Y-129266D01*
X1356292Y-131890D01*
X1351044D01*
X1348420Y-129266D01*
Y-118771D01*
X978347Y-155517D02*
Y-171260D01*
X983594Y-166012D01*
X988842Y-171260D01*
Y-155517D01*
X994089Y-171260D02*
X999337D01*
X996713D01*
Y-160765D01*
X994089D01*
X1007209Y-171260D02*
Y-160765D01*
X1009832D01*
X1012456Y-163388D01*
Y-171260D01*
Y-163388D01*
X1015080Y-160765D01*
X1017704Y-163388D01*
Y-171260D01*
X1022952Y-155517D02*
Y-166012D01*
X1028199Y-171260D01*
X1033447Y-166012D01*
Y-155517D01*
X1049190Y-158141D02*
X1046566Y-155517D01*
X1041318D01*
X1038694Y-158141D01*
Y-168636D01*
X1041318Y-171260D01*
X1046566D01*
X1049190Y-168636D01*
Y-163388D01*
X1043942D01*
D23*
X1157480Y-141735D02*
Y-149606D01*
X1161416D01*
X1162728Y-148294D01*
Y-143047D01*
X1161416Y-141735D01*
X1157480D01*
X1166664Y-149606D02*
X1169287D01*
X1170599Y-148294D01*
Y-145671D01*
X1169287Y-144359D01*
X1166664D01*
X1165352Y-145671D01*
Y-148294D01*
X1166664Y-149606D01*
X1178471Y-144359D02*
X1174535D01*
X1173223Y-145671D01*
Y-148294D01*
X1174535Y-149606D01*
X1178471D01*
X1181095Y-144359D02*
Y-148294D01*
X1182407Y-149606D01*
X1186342D01*
Y-144359D01*
X1188966Y-149606D02*
Y-144359D01*
X1190278D01*
X1191590Y-145671D01*
Y-149606D01*
Y-145671D01*
X1192902Y-144359D01*
X1194214Y-145671D01*
Y-149606D01*
X1200774D02*
X1198150D01*
X1196838Y-148294D01*
Y-145671D01*
X1198150Y-144359D01*
X1200774D01*
X1202085Y-145671D01*
Y-146983D01*
X1196838D01*
X1204709Y-149606D02*
Y-144359D01*
X1208645D01*
X1209957Y-145671D01*
Y-149606D01*
X1213893Y-143047D02*
Y-144359D01*
X1212581D01*
X1215205D01*
X1213893D01*
Y-148294D01*
X1215205Y-149606D01*
X1157480Y-102365D02*
Y-110236D01*
X1161416D01*
X1162728Y-108924D01*
Y-103677D01*
X1161416Y-102365D01*
X1157480D01*
X1166664Y-104989D02*
X1169287D01*
X1170599Y-106300D01*
Y-110236D01*
X1166664D01*
X1165352Y-108924D01*
X1166664Y-107612D01*
X1170599D01*
X1174535Y-103677D02*
Y-104989D01*
X1173223D01*
X1175847D01*
X1174535D01*
Y-108924D01*
X1175847Y-110236D01*
X1183719D02*
X1181095D01*
X1179783Y-108924D01*
Y-106300D01*
X1181095Y-104989D01*
X1183719D01*
X1185030Y-106300D01*
Y-107612D01*
X1179783D01*
X1157480Y-62995D02*
Y-70866D01*
X1162728D01*
X1166664Y-65618D02*
X1169287D01*
X1170599Y-66930D01*
Y-70866D01*
X1166664D01*
X1165352Y-69554D01*
X1166664Y-68242D01*
X1170599D01*
X1173223Y-65618D02*
Y-69554D01*
X1174535Y-70866D01*
X1178471D01*
Y-72178D01*
X1177159Y-73490D01*
X1175847D01*
X1178471Y-70866D02*
Y-65618D01*
X1185030Y-70866D02*
X1182407D01*
X1181095Y-69554D01*
Y-66930D01*
X1182407Y-65618D01*
X1185030D01*
X1186342Y-66930D01*
Y-68242D01*
X1181095D01*
X1188966Y-65618D02*
Y-70866D01*
Y-68242D01*
X1190278Y-66930D01*
X1191590Y-65618D01*
X1192902D01*
X1204709Y-70866D02*
Y-62995D01*
X1209957Y-70866D01*
Y-62995D01*
X1213893Y-65618D02*
X1216516D01*
X1217828Y-66930D01*
Y-70866D01*
X1213893D01*
X1212581Y-69554D01*
X1213893Y-68242D01*
X1217828D01*
X1220452Y-70866D02*
Y-65618D01*
X1221764D01*
X1223076Y-66930D01*
Y-70866D01*
Y-66930D01*
X1224388Y-65618D01*
X1225700Y-66930D01*
Y-70866D01*
X1232259D02*
X1229636D01*
X1228324Y-69554D01*
Y-66930D01*
X1229636Y-65618D01*
X1232259D01*
X1233571Y-66930D01*
Y-68242D01*
X1228324D01*
X1157480Y-23625D02*
Y-31496D01*
X1161416D01*
X1162728Y-30184D01*
Y-24937D01*
X1161416Y-23625D01*
X1157480D01*
X1166664Y-31496D02*
X1169287D01*
X1170599Y-30184D01*
Y-27560D01*
X1169287Y-26248D01*
X1166664D01*
X1165352Y-27560D01*
Y-30184D01*
X1166664Y-31496D01*
X1178471Y-26248D02*
X1174535D01*
X1173223Y-27560D01*
Y-30184D01*
X1174535Y-31496D01*
X1178471D01*
X1181095Y-26248D02*
Y-30184D01*
X1182407Y-31496D01*
X1186342D01*
Y-26248D01*
X1188966Y-31496D02*
Y-26248D01*
X1190278D01*
X1191590Y-27560D01*
Y-31496D01*
Y-27560D01*
X1192902Y-26248D01*
X1194214Y-27560D01*
Y-31496D01*
X1200774D02*
X1198150D01*
X1196838Y-30184D01*
Y-27560D01*
X1198150Y-26248D01*
X1200774D01*
X1202085Y-27560D01*
Y-28872D01*
X1196838D01*
X1204709Y-31496D02*
Y-26248D01*
X1208645D01*
X1209957Y-27560D01*
Y-31496D01*
X1213893Y-24937D02*
Y-26248D01*
X1212581D01*
X1215205D01*
X1213893D01*
Y-30184D01*
X1215205Y-31496D01*
X960630Y-141735D02*
Y-149606D01*
X964566D01*
X965878Y-148294D01*
Y-143047D01*
X964566Y-141735D01*
X960630D01*
X972437Y-149606D02*
X969813D01*
X968501Y-148294D01*
Y-145671D01*
X969813Y-144359D01*
X972437D01*
X973749Y-145671D01*
Y-146983D01*
X968501D01*
X976373Y-149606D02*
X980309D01*
X981621Y-148294D01*
X980309Y-146983D01*
X977685D01*
X976373Y-145671D01*
X977685Y-144359D01*
X981621D01*
X986868Y-152230D02*
X988180D01*
X989492Y-150918D01*
Y-144359D01*
X985556D01*
X984244Y-145671D01*
Y-148294D01*
X985556Y-149606D01*
X989492D01*
X992116D02*
X994740D01*
X993428D01*
Y-144359D01*
X992116D01*
X998675Y-149606D02*
Y-144359D01*
X1002611D01*
X1003923Y-145671D01*
Y-149606D01*
X1010483D02*
X1007859D01*
X1006547Y-148294D01*
Y-145671D01*
X1007859Y-144359D01*
X1010483D01*
X1011794Y-145671D01*
Y-146983D01*
X1006547D01*
X1014418Y-144359D02*
Y-149606D01*
Y-146983D01*
X1015730Y-145671D01*
X1017042Y-144359D01*
X1018354D01*
X1314961Y-110236D02*
Y-102365D01*
X1318896D01*
X1320208Y-103677D01*
Y-106300D01*
X1318896Y-107612D01*
X1314961D01*
X1317584D02*
X1320208Y-110236D01*
X1326768D02*
X1324144D01*
X1322832Y-108924D01*
Y-106300D01*
X1324144Y-104989D01*
X1326768D01*
X1328080Y-106300D01*
Y-107612D01*
X1322832D01*
X1330704Y-104989D02*
X1333327Y-110236D01*
X1335951Y-104989D01*
D45*
X11811Y11811D02*
D03*
X381890D02*
D03*
Y224410D02*
D03*
X11811D02*
D03*
D46*
X377953Y52165D02*
D03*
Y91535D02*
D03*
Y130905D02*
D03*
Y170276D02*
D03*
D47*
Y65945D02*
D03*
Y105315D02*
D03*
Y144685D02*
D03*
Y184055D02*
D03*
X52165Y220472D02*
D03*
X91535D02*
D03*
X170276D02*
D03*
X209646D02*
D03*
X249016D02*
D03*
X327756D02*
D03*
X130905D02*
D03*
X288386D02*
D03*
X65945Y15748D02*
D03*
X105315D02*
D03*
X144685D02*
D03*
X184055D02*
D03*
X223425D02*
D03*
X262795D02*
D03*
X341535D02*
D03*
X302165D02*
D03*
D48*
X338583Y142717D02*
D03*
Y93504D02*
D03*
D49*
Y128937D02*
D03*
Y107283D02*
D03*
D50*
X65945Y220472D02*
D03*
X105315D02*
D03*
X184055D02*
D03*
X223425D02*
D03*
X262795D02*
D03*
X341535D02*
D03*
X144685D02*
D03*
X302165D02*
D03*
X52165Y15748D02*
D03*
X91535D02*
D03*
X130905D02*
D03*
X170276D02*
D03*
X209646D02*
D03*
X249016D02*
D03*
X327756D02*
D03*
X288386D02*
D03*
D51*
X19685Y89055D02*
D03*
X7874Y99055D02*
D03*
X19685Y177165D02*
D03*
X7874Y187165D02*
D03*
D52*
X19685Y79055D02*
D03*
Y69055D02*
D03*
Y59055D02*
D03*
X7874Y89055D02*
D03*
Y79055D02*
D03*
Y69055D02*
D03*
X19685Y167165D02*
D03*
Y157165D02*
D03*
Y147165D02*
D03*
X7874Y177165D02*
D03*
Y167165D02*
D03*
Y157165D02*
D03*
M02*
