G04 Layer_Color=2752767*
%FSLAX25Y25*%
%MOIN*%
G70*
G01*
G75*
%ADD11C,0.00787*%
%ADD13C,0.01575*%
%ADD23C,0.00984*%
%ADD35C,0.01000*%
%ADD54C,0.00394*%
%ADD55C,0.00200*%
%ADD56C,0.00267*%
G36*
X1093521Y-64032D02*
Y-64318D01*
Y-64605D01*
Y-64891D01*
Y-65177D01*
Y-65464D01*
Y-65750D01*
Y-66036D01*
Y-66322D01*
Y-66609D01*
Y-66895D01*
Y-67181D01*
Y-67468D01*
Y-67754D01*
Y-68040D01*
Y-68327D01*
Y-68613D01*
Y-68899D01*
Y-69186D01*
Y-69472D01*
Y-69758D01*
X1093234D01*
Y-70044D01*
Y-70331D01*
Y-70617D01*
Y-70903D01*
Y-71190D01*
X1092948D01*
Y-71476D01*
Y-71762D01*
Y-72049D01*
Y-72335D01*
X1092662D01*
Y-72621D01*
Y-72908D01*
Y-73194D01*
Y-73480D01*
X1092375D01*
Y-73767D01*
Y-74053D01*
Y-74339D01*
X1092089D01*
Y-74625D01*
Y-74912D01*
Y-75198D01*
X1091803D01*
Y-75485D01*
Y-75771D01*
Y-76057D01*
X1091516D01*
Y-76343D01*
Y-76630D01*
Y-76916D01*
X1091230D01*
Y-77202D01*
Y-77489D01*
X1090944D01*
Y-77775D01*
Y-78061D01*
X1090657D01*
Y-78348D01*
Y-78634D01*
Y-78920D01*
X1090371D01*
Y-79207D01*
Y-79493D01*
X1090085D01*
Y-79779D01*
Y-80066D01*
Y-80352D01*
X1089799D01*
Y-80638D01*
Y-80924D01*
X1089512D01*
Y-81211D01*
Y-81497D01*
Y-81783D01*
X1089226D01*
Y-82070D01*
Y-82356D01*
X1088939D01*
Y-82642D01*
Y-82929D01*
Y-83215D01*
X1088653D01*
Y-83501D01*
Y-83788D01*
X1088367D01*
Y-84074D01*
Y-84360D01*
Y-84646D01*
X1088081D01*
Y-84933D01*
Y-85219D01*
X1087794D01*
Y-85505D01*
Y-85792D01*
Y-86078D01*
X1087508D01*
Y-86364D01*
Y-86651D01*
X1087222D01*
Y-86937D01*
Y-87223D01*
Y-87510D01*
X1086935D01*
Y-87796D01*
Y-88082D01*
X1086649D01*
Y-88369D01*
Y-88655D01*
Y-88941D01*
X1086363D01*
Y-89227D01*
Y-89514D01*
X1086076D01*
Y-89800D01*
Y-90086D01*
Y-90373D01*
X1085790D01*
Y-90659D01*
Y-90945D01*
X1085504D01*
Y-91232D01*
Y-91518D01*
Y-91804D01*
X1085217D01*
Y-92091D01*
Y-92377D01*
X1084931D01*
Y-92663D01*
Y-92950D01*
Y-93236D01*
X1084645D01*
Y-93522D01*
Y-93809D01*
X1084359D01*
Y-94095D01*
Y-94381D01*
Y-94667D01*
X1084072D01*
Y-94954D01*
Y-95240D01*
X1083786D01*
Y-95526D01*
Y-95813D01*
Y-96099D01*
X1083500D01*
Y-96385D01*
Y-96672D01*
X1083213D01*
Y-96958D01*
Y-97244D01*
Y-97531D01*
X1082927D01*
Y-97817D01*
Y-98103D01*
X1082641D01*
Y-98390D01*
Y-98676D01*
Y-98962D01*
X1082354D01*
Y-99248D01*
Y-99535D01*
X1082068D01*
Y-99821D01*
Y-100107D01*
Y-100394D01*
X1081782D01*
Y-100680D01*
Y-100966D01*
X1081495D01*
Y-101253D01*
Y-101539D01*
X1081209D01*
Y-101825D01*
Y-102112D01*
X1080923D01*
Y-102398D01*
Y-102684D01*
Y-102971D01*
X1080637D01*
Y-103257D01*
X1080350D01*
Y-103543D01*
Y-103829D01*
Y-104116D01*
X1080064D01*
Y-104402D01*
X1079778D01*
Y-104688D01*
Y-104975D01*
X1079491D01*
Y-105261D01*
Y-105547D01*
X1079205D01*
Y-105834D01*
Y-106120D01*
X1078919D01*
Y-106406D01*
Y-106693D01*
X1078632D01*
Y-106979D01*
X1078346D01*
Y-107265D01*
Y-107552D01*
X1078060D01*
Y-107838D01*
Y-108124D01*
X1077773D01*
Y-108410D01*
X1077487D01*
Y-108697D01*
X1077201D01*
Y-108983D01*
Y-109269D01*
X1076914D01*
Y-109556D01*
X1076628D01*
Y-109842D01*
Y-110128D01*
X1076342D01*
Y-110415D01*
X1076056D01*
Y-110701D01*
X1075769D01*
Y-110987D01*
Y-111274D01*
X1075483D01*
Y-111560D01*
X1075196D01*
Y-111846D01*
X1074910D01*
Y-112133D01*
X1074624D01*
Y-112419D01*
X1074338D01*
Y-112705D01*
Y-112991D01*
X1074051D01*
Y-113278D01*
X1073765D01*
Y-113564D01*
X1073479D01*
Y-113850D01*
X1073192D01*
Y-114137D01*
X1072906D01*
Y-114423D01*
X1072620D01*
Y-114709D01*
X1072333D01*
Y-114996D01*
X1071761D01*
Y-115282D01*
X1071474D01*
Y-115568D01*
X1071188D01*
Y-115855D01*
X1070902D01*
Y-116141D01*
X1070615D01*
Y-116427D01*
X1070043D01*
Y-116714D01*
X1069757D01*
Y-117000D01*
X1069184D01*
Y-117286D01*
X1068898D01*
Y-117572D01*
X1068325D01*
Y-117859D01*
X1068039D01*
Y-118145D01*
X1067466D01*
Y-118431D01*
X1066893D01*
Y-118718D01*
X1066321D01*
Y-119004D01*
X1065748D01*
Y-119290D01*
X1065176D01*
Y-119577D01*
X1064317D01*
Y-119863D01*
X1063744D01*
Y-120149D01*
X1062885D01*
Y-120436D01*
X1061740D01*
Y-120722D01*
X1060595D01*
Y-121008D01*
X1058877D01*
Y-121294D01*
X1056872D01*
Y-121581D01*
X1056586D01*
Y-121294D01*
Y-121008D01*
Y-120722D01*
Y-120436D01*
Y-120149D01*
Y-119863D01*
Y-119577D01*
Y-119290D01*
Y-119004D01*
Y-118718D01*
Y-118431D01*
Y-118145D01*
Y-117859D01*
Y-117572D01*
Y-117286D01*
Y-117000D01*
Y-116714D01*
Y-116427D01*
Y-116141D01*
Y-115855D01*
Y-115568D01*
Y-115282D01*
Y-114996D01*
Y-114709D01*
Y-114423D01*
Y-114137D01*
Y-113850D01*
Y-113564D01*
Y-113278D01*
Y-112991D01*
Y-112705D01*
Y-112419D01*
Y-112133D01*
X1057159D01*
Y-111846D01*
X1057731D01*
Y-111560D01*
X1058304D01*
Y-111274D01*
X1058877D01*
Y-110987D01*
X1059449D01*
Y-110701D01*
X1060022D01*
Y-110415D01*
X1060308D01*
Y-110128D01*
X1060881D01*
Y-109842D01*
X1061167D01*
Y-109556D01*
X1061740D01*
Y-109269D01*
X1062026D01*
Y-108983D01*
X1062312D01*
Y-108697D01*
X1062885D01*
Y-108410D01*
X1063171D01*
Y-108124D01*
X1063458D01*
Y-107838D01*
X1063744D01*
Y-107552D01*
X1064030D01*
Y-107265D01*
X1064317D01*
Y-106979D01*
X1064603D01*
Y-106693D01*
X1064889D01*
Y-106406D01*
X1065176D01*
Y-106120D01*
X1065462D01*
Y-105834D01*
X1065748D01*
Y-105547D01*
X1066035D01*
Y-105261D01*
Y-104975D01*
X1066321D01*
Y-104688D01*
X1066607D01*
Y-104402D01*
X1066893D01*
Y-104116D01*
Y-103829D01*
X1067180D01*
Y-103543D01*
X1067466D01*
Y-103257D01*
Y-102971D01*
X1067752D01*
Y-102684D01*
Y-102398D01*
X1068039D01*
Y-102112D01*
X1068325D01*
Y-101825D01*
Y-101539D01*
X1068611D01*
Y-101253D01*
Y-100966D01*
X1068898D01*
Y-100680D01*
Y-100394D01*
X1067180D01*
Y-100107D01*
X1065176D01*
Y-99821D01*
X1064030D01*
Y-99535D01*
X1063458D01*
Y-99248D01*
X1062599D01*
Y-98962D01*
X1062026D01*
Y-98676D01*
X1061740D01*
Y-98390D01*
X1061167D01*
Y-98103D01*
X1060881D01*
Y-97817D01*
X1060595D01*
Y-97531D01*
X1060308D01*
Y-97244D01*
X1060022D01*
Y-96958D01*
X1059736D01*
Y-96672D01*
Y-96385D01*
X1059449D01*
Y-96099D01*
X1059163D01*
Y-95813D01*
Y-95526D01*
X1058877D01*
Y-95240D01*
Y-94954D01*
X1058590D01*
Y-94667D01*
Y-94381D01*
X1058304D01*
Y-94095D01*
Y-93809D01*
Y-93522D01*
X1058018D01*
Y-93236D01*
Y-92950D01*
Y-92663D01*
Y-92377D01*
X1057731D01*
Y-92091D01*
Y-91804D01*
Y-91518D01*
Y-91232D01*
Y-90945D01*
Y-90659D01*
Y-90373D01*
X1057445D01*
Y-90086D01*
Y-89800D01*
Y-89514D01*
Y-89227D01*
Y-88941D01*
Y-88655D01*
Y-88369D01*
Y-88082D01*
Y-87796D01*
Y-87510D01*
Y-87223D01*
Y-86937D01*
Y-86651D01*
Y-86364D01*
Y-86078D01*
X1057159D01*
Y-85792D01*
Y-85505D01*
Y-85219D01*
Y-84933D01*
Y-84646D01*
Y-84360D01*
Y-84074D01*
Y-83788D01*
Y-83501D01*
Y-83215D01*
Y-82929D01*
Y-82642D01*
Y-82356D01*
Y-82070D01*
Y-81783D01*
X1056872D01*
Y-81497D01*
Y-81211D01*
Y-80924D01*
Y-80638D01*
Y-80352D01*
Y-80066D01*
Y-79779D01*
Y-79493D01*
Y-79207D01*
Y-78920D01*
Y-78634D01*
Y-78348D01*
Y-78061D01*
Y-77775D01*
Y-77489D01*
Y-77202D01*
X1056586D01*
Y-76916D01*
Y-76630D01*
Y-76343D01*
Y-76057D01*
Y-75771D01*
Y-75485D01*
Y-75198D01*
Y-74912D01*
Y-74625D01*
Y-74339D01*
Y-74053D01*
Y-73767D01*
Y-73480D01*
Y-73194D01*
Y-72908D01*
Y-72621D01*
X1056300D01*
Y-72335D01*
Y-72049D01*
Y-71762D01*
Y-71476D01*
Y-71190D01*
Y-70903D01*
Y-70617D01*
Y-70331D01*
Y-70044D01*
Y-69758D01*
Y-69472D01*
Y-69186D01*
Y-68899D01*
Y-68613D01*
X1056014D01*
Y-68327D01*
Y-68040D01*
Y-67754D01*
Y-67468D01*
Y-67181D01*
Y-66895D01*
Y-66609D01*
Y-66322D01*
Y-66036D01*
Y-65750D01*
Y-65464D01*
Y-65177D01*
Y-64891D01*
Y-64605D01*
Y-64318D01*
Y-64032D01*
X1055727D01*
Y-63746D01*
X1069470D01*
Y-64032D01*
Y-64318D01*
Y-64605D01*
Y-64891D01*
Y-65177D01*
Y-65464D01*
Y-65750D01*
Y-66036D01*
Y-66322D01*
Y-66609D01*
Y-66895D01*
Y-67181D01*
Y-67468D01*
Y-67754D01*
X1069757D01*
Y-68040D01*
Y-68327D01*
Y-68613D01*
Y-68899D01*
Y-69186D01*
Y-69472D01*
Y-69758D01*
Y-70044D01*
Y-70331D01*
Y-70617D01*
Y-70903D01*
Y-71190D01*
Y-71476D01*
Y-71762D01*
Y-72049D01*
Y-72335D01*
Y-72621D01*
Y-72908D01*
Y-73194D01*
Y-73480D01*
Y-73767D01*
Y-74053D01*
Y-74339D01*
Y-74625D01*
Y-74912D01*
Y-75198D01*
Y-75485D01*
Y-75771D01*
Y-76057D01*
Y-76343D01*
Y-76630D01*
Y-76916D01*
Y-77202D01*
Y-77489D01*
Y-77775D01*
Y-78061D01*
Y-78348D01*
Y-78634D01*
Y-78920D01*
Y-79207D01*
Y-79493D01*
X1070043D01*
Y-79779D01*
X1069757D01*
Y-80066D01*
Y-80352D01*
X1070043D01*
Y-80638D01*
Y-80924D01*
Y-81211D01*
Y-81497D01*
Y-81783D01*
Y-82070D01*
Y-82356D01*
Y-82642D01*
Y-82929D01*
Y-83215D01*
Y-83501D01*
Y-83788D01*
Y-84074D01*
Y-84360D01*
Y-84646D01*
Y-84933D01*
Y-85219D01*
Y-85505D01*
Y-85792D01*
Y-86078D01*
Y-86364D01*
Y-86651D01*
Y-86937D01*
Y-87223D01*
Y-87510D01*
Y-87796D01*
X1070329D01*
Y-88082D01*
Y-88369D01*
Y-88655D01*
X1070615D01*
Y-88941D01*
X1070902D01*
Y-89227D01*
X1071188D01*
Y-89514D01*
X1072047D01*
Y-89800D01*
X1072906D01*
Y-89514D01*
X1073192D01*
Y-89227D01*
Y-88941D01*
Y-88655D01*
X1073479D01*
Y-88369D01*
Y-88082D01*
X1073765D01*
Y-87796D01*
Y-87510D01*
Y-87223D01*
X1074051D01*
Y-86937D01*
Y-86651D01*
Y-86364D01*
X1074338D01*
Y-86078D01*
Y-85792D01*
Y-85505D01*
X1074624D01*
Y-85219D01*
Y-84933D01*
Y-84646D01*
X1074910D01*
Y-84360D01*
Y-84074D01*
X1075196D01*
Y-83788D01*
Y-83501D01*
Y-83215D01*
X1075483D01*
Y-82929D01*
Y-82642D01*
Y-82356D01*
X1075769D01*
Y-82070D01*
Y-81783D01*
Y-81497D01*
X1076056D01*
Y-81211D01*
Y-80924D01*
X1076342D01*
Y-80638D01*
Y-80352D01*
Y-80066D01*
X1076628D01*
Y-79779D01*
Y-79493D01*
Y-79207D01*
X1076914D01*
Y-78920D01*
Y-78634D01*
Y-78348D01*
X1077201D01*
Y-78061D01*
Y-77775D01*
X1077487D01*
Y-77489D01*
Y-77202D01*
Y-76916D01*
X1077773D01*
Y-76630D01*
Y-76343D01*
Y-76057D01*
X1078060D01*
Y-75771D01*
Y-75485D01*
Y-75198D01*
X1078346D01*
Y-74912D01*
Y-74625D01*
X1078632D01*
Y-74339D01*
Y-74053D01*
Y-73767D01*
X1078919D01*
Y-73480D01*
Y-73194D01*
Y-72908D01*
X1079205D01*
Y-72621D01*
Y-72335D01*
Y-72049D01*
X1079491D01*
Y-71762D01*
Y-71476D01*
Y-71190D01*
Y-70903D01*
X1079778D01*
Y-70617D01*
Y-70331D01*
Y-70044D01*
Y-69758D01*
X1080064D01*
Y-69472D01*
Y-69186D01*
Y-68899D01*
Y-68613D01*
Y-68327D01*
X1080350D01*
Y-68040D01*
Y-67754D01*
Y-67468D01*
Y-67181D01*
Y-66895D01*
Y-66609D01*
X1080637D01*
Y-66322D01*
Y-66036D01*
Y-65750D01*
Y-65464D01*
Y-65177D01*
Y-64891D01*
Y-64605D01*
Y-64318D01*
Y-64032D01*
Y-63746D01*
X1093521D01*
Y-64032D01*
D02*
G37*
G36*
X1035685Y-46567D02*
Y-46853D01*
X1035399D01*
Y-47139D01*
Y-47426D01*
Y-47712D01*
Y-47998D01*
Y-48285D01*
Y-48571D01*
X1035113D01*
Y-48857D01*
Y-49144D01*
Y-49430D01*
Y-49716D01*
Y-50003D01*
Y-50289D01*
X1034826D01*
Y-50575D01*
Y-50862D01*
Y-51148D01*
Y-51434D01*
Y-51720D01*
Y-52007D01*
Y-52293D01*
X1034540D01*
Y-52579D01*
Y-52866D01*
Y-53152D01*
Y-53438D01*
Y-53725D01*
Y-54011D01*
X1034254D01*
Y-54297D01*
Y-54584D01*
Y-54870D01*
Y-55156D01*
Y-55443D01*
Y-55729D01*
X1033967D01*
Y-56015D01*
Y-56301D01*
Y-56588D01*
Y-56874D01*
Y-57161D01*
Y-57447D01*
Y-57733D01*
X1033681D01*
Y-58019D01*
Y-58306D01*
Y-58592D01*
Y-58878D01*
Y-59165D01*
Y-59451D01*
X1033395D01*
Y-59737D01*
Y-60024D01*
Y-60310D01*
Y-60596D01*
Y-60883D01*
Y-61169D01*
X1033109D01*
Y-61455D01*
Y-61742D01*
Y-62028D01*
Y-62314D01*
Y-62600D01*
Y-62887D01*
X1032822D01*
Y-63173D01*
Y-63459D01*
Y-63746D01*
Y-64032D01*
Y-64318D01*
Y-64605D01*
Y-64891D01*
X1032536D01*
Y-65177D01*
Y-65464D01*
Y-65750D01*
Y-66036D01*
Y-66322D01*
Y-66609D01*
X1032250D01*
Y-66895D01*
Y-67181D01*
X1032822D01*
Y-66895D01*
X1033109D01*
Y-66609D01*
X1033395D01*
Y-66322D01*
X1033967D01*
Y-66036D01*
X1034254D01*
Y-65750D01*
X1034540D01*
Y-65464D01*
X1035113D01*
Y-65177D01*
X1035685D01*
Y-64891D01*
X1035972D01*
Y-64605D01*
X1036544D01*
Y-64318D01*
X1037403D01*
Y-64032D01*
X1037976D01*
Y-63746D01*
X1038835D01*
Y-63459D01*
X1040266D01*
Y-63173D01*
X1046565D01*
Y-63459D01*
X1047711D01*
Y-63746D01*
X1048569D01*
Y-64032D01*
X1049142D01*
Y-64318D01*
X1049428D01*
Y-64605D01*
X1050001D01*
Y-64891D01*
X1050287D01*
Y-65177D01*
X1050574D01*
Y-65464D01*
X1050860D01*
Y-65750D01*
X1051146D01*
Y-66036D01*
Y-66322D01*
X1051433D01*
Y-66609D01*
Y-66895D01*
X1051719D01*
Y-67181D01*
Y-67468D01*
Y-67754D01*
X1052005D01*
Y-68040D01*
Y-68327D01*
Y-68613D01*
Y-68899D01*
X1052291D01*
Y-69186D01*
Y-69472D01*
Y-69758D01*
Y-70044D01*
Y-70331D01*
Y-70617D01*
Y-70903D01*
Y-71190D01*
Y-71476D01*
Y-71762D01*
Y-72049D01*
Y-72335D01*
Y-72621D01*
Y-72908D01*
Y-73194D01*
Y-73480D01*
Y-73767D01*
Y-74053D01*
X1052005D01*
Y-74339D01*
Y-74625D01*
Y-74912D01*
Y-75198D01*
Y-75485D01*
Y-75771D01*
Y-76057D01*
X1051719D01*
Y-76343D01*
Y-76630D01*
Y-76916D01*
Y-77202D01*
Y-77489D01*
Y-77775D01*
Y-78061D01*
X1051433D01*
Y-78348D01*
Y-78634D01*
Y-78920D01*
Y-79207D01*
Y-79493D01*
Y-79779D01*
X1051146D01*
Y-80066D01*
Y-80352D01*
Y-80638D01*
Y-80924D01*
Y-81211D01*
Y-81497D01*
X1050860D01*
Y-81783D01*
Y-82070D01*
Y-82356D01*
Y-82642D01*
Y-82929D01*
Y-83215D01*
X1050574D01*
Y-83501D01*
Y-83788D01*
Y-84074D01*
Y-84360D01*
Y-84646D01*
Y-84933D01*
Y-85219D01*
X1050287D01*
Y-85505D01*
Y-85792D01*
Y-86078D01*
Y-86364D01*
Y-86651D01*
Y-86937D01*
X1050001D01*
Y-87223D01*
Y-87510D01*
Y-87796D01*
Y-88082D01*
Y-88369D01*
Y-88655D01*
X1049715D01*
Y-88941D01*
Y-89227D01*
Y-89514D01*
Y-89800D01*
Y-90086D01*
Y-90373D01*
Y-90659D01*
X1049428D01*
Y-90945D01*
Y-91232D01*
Y-91518D01*
Y-91804D01*
Y-92091D01*
Y-92377D01*
X1049142D01*
Y-92663D01*
Y-92950D01*
Y-93236D01*
Y-93522D01*
Y-93809D01*
Y-94095D01*
X1048856D01*
Y-94381D01*
Y-94667D01*
Y-94954D01*
Y-95240D01*
Y-95526D01*
Y-95813D01*
X1048569D01*
Y-96099D01*
Y-96385D01*
Y-96672D01*
Y-96958D01*
Y-97244D01*
Y-97531D01*
Y-97817D01*
X1048283D01*
Y-98103D01*
Y-98390D01*
Y-98676D01*
Y-98962D01*
Y-99248D01*
Y-99535D01*
X1047997D01*
Y-99821D01*
Y-100107D01*
X1034826D01*
Y-99821D01*
Y-99535D01*
X1035113D01*
Y-99248D01*
Y-98962D01*
Y-98676D01*
Y-98390D01*
Y-98103D01*
Y-97817D01*
X1035399D01*
Y-97531D01*
Y-97244D01*
Y-96958D01*
Y-96672D01*
Y-96385D01*
Y-96099D01*
Y-95813D01*
X1035685D01*
Y-95526D01*
Y-95240D01*
Y-94954D01*
Y-94667D01*
Y-94381D01*
Y-94095D01*
X1035972D01*
Y-93809D01*
Y-93522D01*
Y-93236D01*
Y-92950D01*
Y-92663D01*
Y-92377D01*
X1036258D01*
Y-92091D01*
Y-91804D01*
Y-91518D01*
Y-91232D01*
Y-90945D01*
Y-90659D01*
Y-90373D01*
X1036544D01*
Y-90086D01*
Y-89800D01*
Y-89514D01*
Y-89227D01*
Y-88941D01*
Y-88655D01*
X1036831D01*
Y-88369D01*
Y-88082D01*
Y-87796D01*
Y-87510D01*
Y-87223D01*
Y-86937D01*
Y-86651D01*
X1037117D01*
Y-86364D01*
Y-86078D01*
Y-85792D01*
Y-85505D01*
Y-85219D01*
Y-84933D01*
X1037403D01*
Y-84646D01*
Y-84360D01*
Y-84074D01*
Y-83788D01*
Y-83501D01*
Y-83215D01*
X1037689D01*
Y-82929D01*
Y-82642D01*
Y-82356D01*
Y-82070D01*
Y-81783D01*
Y-81497D01*
X1037976D01*
Y-81211D01*
Y-80924D01*
Y-80638D01*
Y-80352D01*
Y-80066D01*
Y-79779D01*
Y-79493D01*
X1038262D01*
Y-79207D01*
Y-78920D01*
Y-78634D01*
Y-78348D01*
Y-78061D01*
Y-77775D01*
X1038548D01*
Y-77489D01*
Y-77202D01*
Y-76916D01*
Y-76630D01*
Y-76343D01*
Y-76057D01*
Y-75771D01*
X1038835D01*
Y-75485D01*
Y-75198D01*
Y-74912D01*
Y-74625D01*
Y-74339D01*
Y-74053D01*
X1038548D01*
Y-73767D01*
Y-73480D01*
X1038262D01*
Y-73194D01*
X1037976D01*
Y-72908D01*
X1037403D01*
Y-72621D01*
X1035685D01*
Y-72908D01*
X1034254D01*
Y-73194D01*
X1033395D01*
Y-73480D01*
X1032822D01*
Y-73767D01*
X1032536D01*
Y-74053D01*
X1031963D01*
Y-74339D01*
X1031677D01*
Y-74625D01*
X1031391D01*
Y-74912D01*
Y-75198D01*
X1031104D01*
Y-75485D01*
Y-75771D01*
Y-76057D01*
X1030818D01*
Y-76343D01*
Y-76630D01*
Y-76916D01*
Y-77202D01*
Y-77489D01*
Y-77775D01*
X1030532D01*
Y-78061D01*
Y-78348D01*
Y-78634D01*
Y-78920D01*
Y-79207D01*
Y-79493D01*
Y-79779D01*
X1030245D01*
Y-80066D01*
Y-80352D01*
Y-80638D01*
Y-80924D01*
Y-81211D01*
Y-81497D01*
X1029959D01*
Y-81783D01*
Y-82070D01*
Y-82356D01*
Y-82642D01*
Y-82929D01*
Y-83215D01*
X1029673D01*
Y-83501D01*
Y-83788D01*
Y-84074D01*
Y-84360D01*
Y-84646D01*
Y-84933D01*
X1029387D01*
Y-85219D01*
Y-85505D01*
Y-85792D01*
Y-86078D01*
Y-86364D01*
Y-86651D01*
Y-86937D01*
X1029100D01*
Y-87223D01*
Y-87510D01*
Y-87796D01*
Y-88082D01*
Y-88369D01*
Y-88655D01*
X1028814D01*
Y-88941D01*
Y-89227D01*
Y-89514D01*
Y-89800D01*
Y-90086D01*
Y-90373D01*
X1028528D01*
Y-90659D01*
Y-90945D01*
Y-91232D01*
Y-91518D01*
Y-91804D01*
Y-92091D01*
Y-92377D01*
X1028241D01*
Y-92663D01*
Y-92950D01*
Y-93236D01*
Y-93522D01*
Y-93809D01*
Y-94095D01*
X1027955D01*
Y-94381D01*
Y-94667D01*
Y-94954D01*
Y-95240D01*
Y-95526D01*
Y-95813D01*
X1027669D01*
Y-96099D01*
Y-96385D01*
Y-96672D01*
Y-96958D01*
Y-97244D01*
Y-97531D01*
X1027382D01*
Y-97817D01*
Y-98103D01*
Y-98390D01*
Y-98676D01*
Y-98962D01*
Y-99248D01*
Y-99535D01*
X1027096D01*
Y-99821D01*
Y-100107D01*
X1013926D01*
Y-99821D01*
Y-99535D01*
X1014212D01*
Y-99248D01*
Y-98962D01*
Y-98676D01*
Y-98390D01*
Y-98103D01*
Y-97817D01*
Y-97531D01*
X1014498D01*
Y-97244D01*
Y-96958D01*
Y-96672D01*
Y-96385D01*
Y-96099D01*
Y-95813D01*
X1014785D01*
Y-95526D01*
Y-95240D01*
Y-94954D01*
Y-94667D01*
Y-94381D01*
Y-94095D01*
X1015071D01*
Y-93809D01*
Y-93522D01*
Y-93236D01*
Y-92950D01*
Y-92663D01*
Y-92377D01*
Y-92091D01*
X1015357D01*
Y-91804D01*
Y-91518D01*
Y-91232D01*
Y-90945D01*
Y-90659D01*
Y-90373D01*
X1015643D01*
Y-90086D01*
Y-89800D01*
Y-89514D01*
Y-89227D01*
Y-88941D01*
Y-88655D01*
X1015930D01*
Y-88369D01*
Y-88082D01*
Y-87796D01*
Y-87510D01*
Y-87223D01*
Y-86937D01*
X1016216D01*
Y-86651D01*
Y-86364D01*
Y-86078D01*
Y-85792D01*
Y-85505D01*
Y-85219D01*
Y-84933D01*
X1016502D01*
Y-84646D01*
Y-84360D01*
Y-84074D01*
Y-83788D01*
Y-83501D01*
Y-83215D01*
X1016789D01*
Y-82929D01*
Y-82642D01*
Y-82356D01*
Y-82070D01*
Y-81783D01*
Y-81497D01*
X1017075D01*
Y-81211D01*
Y-80924D01*
Y-80638D01*
Y-80352D01*
Y-80066D01*
Y-79779D01*
Y-79493D01*
X1017361D01*
Y-79207D01*
Y-78920D01*
Y-78634D01*
Y-78348D01*
Y-78061D01*
Y-77775D01*
X1017648D01*
Y-77489D01*
Y-77202D01*
Y-76916D01*
Y-76630D01*
Y-76343D01*
Y-76057D01*
X1017934D01*
Y-75771D01*
Y-75485D01*
Y-75198D01*
Y-74912D01*
Y-74625D01*
Y-74339D01*
X1018220D01*
Y-74053D01*
Y-73767D01*
Y-73480D01*
Y-73194D01*
Y-72908D01*
Y-72621D01*
Y-72335D01*
X1018507D01*
Y-72049D01*
Y-71762D01*
Y-71476D01*
Y-71190D01*
Y-70903D01*
Y-70617D01*
X1018793D01*
Y-70331D01*
Y-70044D01*
Y-69758D01*
Y-69472D01*
Y-69186D01*
Y-68899D01*
X1019079D01*
Y-68613D01*
Y-68327D01*
Y-68040D01*
Y-67754D01*
Y-67468D01*
Y-67181D01*
X1019366D01*
Y-66895D01*
Y-66609D01*
Y-66322D01*
Y-66036D01*
Y-65750D01*
Y-65464D01*
Y-65177D01*
X1019652D01*
Y-64891D01*
Y-64605D01*
Y-64318D01*
Y-64032D01*
Y-63746D01*
Y-63459D01*
X1019938D01*
Y-63173D01*
Y-62887D01*
Y-62600D01*
Y-62314D01*
Y-62028D01*
Y-61742D01*
X1020224D01*
Y-61455D01*
Y-61169D01*
Y-60883D01*
Y-60596D01*
Y-60310D01*
Y-60024D01*
Y-59737D01*
X1020511D01*
Y-59451D01*
Y-59165D01*
Y-58878D01*
Y-58592D01*
Y-58306D01*
Y-58019D01*
X1020797D01*
Y-57733D01*
Y-57447D01*
Y-57161D01*
Y-56874D01*
Y-56588D01*
Y-56301D01*
X1021083D01*
Y-56015D01*
Y-55729D01*
Y-55443D01*
Y-55156D01*
Y-54870D01*
Y-54584D01*
X1021370D01*
Y-54297D01*
Y-54011D01*
Y-53725D01*
Y-53438D01*
Y-53152D01*
Y-52866D01*
Y-52579D01*
X1021656D01*
Y-52293D01*
Y-52007D01*
Y-51720D01*
Y-51434D01*
Y-51148D01*
Y-50862D01*
X1021942D01*
Y-50575D01*
Y-50289D01*
Y-50003D01*
Y-49716D01*
Y-49430D01*
Y-49144D01*
X1022229D01*
Y-48857D01*
Y-48571D01*
Y-48285D01*
Y-47998D01*
Y-47712D01*
Y-47426D01*
Y-47139D01*
X1022515D01*
Y-46853D01*
Y-46567D01*
Y-46281D01*
X1035685D01*
Y-46567D01*
D02*
G37*
G36*
X1004477Y-50003D02*
X1006195D01*
Y-50289D01*
X1007054D01*
Y-50575D01*
X1007913D01*
Y-50862D01*
X1008772D01*
Y-51148D01*
X1009345D01*
Y-51434D01*
X1009631D01*
Y-51720D01*
X1010203D01*
Y-52007D01*
X1010490D01*
Y-52293D01*
X1011062D01*
Y-52579D01*
X1011349D01*
Y-52866D01*
X1011635D01*
Y-53152D01*
X1011921D01*
Y-53438D01*
X1012208D01*
Y-53725D01*
X1012494D01*
Y-54011D01*
X1012780D01*
Y-54297D01*
Y-54584D01*
X1013067D01*
Y-54870D01*
X1013353D01*
Y-55156D01*
Y-55443D01*
X1013639D01*
Y-55729D01*
X1013926D01*
Y-56015D01*
Y-56301D01*
X1014212D01*
Y-56588D01*
Y-56874D01*
Y-57161D01*
X1014498D01*
Y-57447D01*
Y-57733D01*
Y-58019D01*
X1014785D01*
Y-58306D01*
Y-58592D01*
Y-58878D01*
Y-59165D01*
X1015071D01*
Y-59451D01*
Y-59737D01*
Y-60024D01*
Y-60310D01*
Y-60596D01*
X1015357D01*
Y-60883D01*
Y-61169D01*
Y-61455D01*
Y-61742D01*
Y-62028D01*
Y-62314D01*
Y-62600D01*
Y-62887D01*
Y-63173D01*
Y-63459D01*
Y-63746D01*
Y-64032D01*
Y-64318D01*
Y-64605D01*
Y-64891D01*
Y-65177D01*
Y-65464D01*
Y-65750D01*
Y-66036D01*
Y-66322D01*
X1015071D01*
Y-66609D01*
Y-66895D01*
Y-67181D01*
Y-67468D01*
Y-67754D01*
Y-68040D01*
Y-68327D01*
X1014785D01*
Y-68613D01*
Y-68899D01*
Y-69186D01*
Y-69472D01*
Y-69758D01*
X1014498D01*
Y-70044D01*
Y-70331D01*
Y-70617D01*
Y-70903D01*
Y-71190D01*
X1014212D01*
Y-71476D01*
Y-71762D01*
Y-72049D01*
X1013926D01*
Y-72335D01*
Y-72621D01*
Y-72908D01*
Y-73194D01*
X1013639D01*
Y-73480D01*
Y-73767D01*
Y-74053D01*
X1013353D01*
Y-74339D01*
Y-74625D01*
X1013067D01*
Y-74912D01*
Y-75198D01*
Y-75485D01*
X1012780D01*
Y-75771D01*
Y-76057D01*
X1012494D01*
Y-76343D01*
Y-76630D01*
X1012208D01*
Y-76916D01*
Y-77202D01*
X1011921D01*
Y-77489D01*
X1011635D01*
Y-77775D01*
Y-78061D01*
X1011349D01*
Y-78348D01*
X1011062D01*
Y-78634D01*
X1010776D01*
Y-78920D01*
Y-79207D01*
X1010490D01*
Y-79493D01*
X1010203D01*
Y-79779D01*
X1009917D01*
Y-80066D01*
X1009631D01*
Y-80352D01*
X1009345D01*
Y-80638D01*
X1008772D01*
Y-80924D01*
X1008486D01*
Y-81211D01*
X1007913D01*
Y-81497D01*
X1007627D01*
Y-81783D01*
X1007054D01*
Y-82070D01*
X1006195D01*
Y-82356D01*
X1005336D01*
Y-82642D01*
X1004477D01*
Y-82929D01*
X1002759D01*
Y-83215D01*
X997606D01*
Y-82929D01*
X995029D01*
Y-82642D01*
X993025D01*
Y-82356D01*
X991593D01*
Y-82070D01*
X990162D01*
Y-81783D01*
X988730D01*
Y-82070D01*
Y-82356D01*
Y-82642D01*
Y-82929D01*
Y-83215D01*
Y-83501D01*
Y-83788D01*
X988444D01*
Y-84074D01*
Y-84360D01*
Y-84646D01*
Y-84933D01*
Y-85219D01*
Y-85505D01*
X988157D01*
Y-85792D01*
Y-86078D01*
Y-86364D01*
Y-86651D01*
Y-86937D01*
Y-87223D01*
X987871D01*
Y-87510D01*
Y-87796D01*
Y-88082D01*
Y-88369D01*
Y-88655D01*
Y-88941D01*
Y-89227D01*
X987585D01*
Y-89514D01*
Y-89800D01*
Y-90086D01*
Y-90373D01*
Y-90659D01*
Y-90945D01*
X987298D01*
Y-91232D01*
Y-91518D01*
Y-91804D01*
Y-92091D01*
Y-92377D01*
Y-92663D01*
X987012D01*
Y-92950D01*
Y-93236D01*
Y-93522D01*
Y-93809D01*
Y-94095D01*
Y-94381D01*
Y-94667D01*
X986726D01*
Y-94954D01*
Y-95240D01*
Y-95526D01*
Y-95813D01*
Y-96099D01*
Y-96385D01*
X986440D01*
Y-96672D01*
Y-96958D01*
Y-97244D01*
Y-97531D01*
Y-97817D01*
Y-98103D01*
X986153D01*
Y-98390D01*
Y-98676D01*
Y-98962D01*
Y-99248D01*
Y-99535D01*
Y-99821D01*
Y-100107D01*
X972696D01*
Y-99821D01*
X972983D01*
Y-99535D01*
Y-99248D01*
Y-98962D01*
Y-98676D01*
Y-98390D01*
X973269D01*
Y-98103D01*
Y-97817D01*
Y-97531D01*
Y-97244D01*
Y-96958D01*
Y-96672D01*
Y-96385D01*
X973555D01*
Y-96099D01*
Y-95813D01*
Y-95526D01*
Y-95240D01*
Y-94954D01*
Y-94667D01*
X973842D01*
Y-94381D01*
Y-94095D01*
Y-93809D01*
Y-93522D01*
Y-93236D01*
Y-92950D01*
X974128D01*
Y-92663D01*
Y-92377D01*
Y-92091D01*
Y-91804D01*
Y-91518D01*
Y-91232D01*
Y-90945D01*
X974414D01*
Y-90659D01*
Y-90373D01*
Y-90086D01*
Y-89800D01*
Y-89514D01*
Y-89227D01*
X974701D01*
Y-88941D01*
Y-88655D01*
Y-88369D01*
Y-88082D01*
Y-87796D01*
Y-87510D01*
X974987D01*
Y-87223D01*
Y-86937D01*
Y-86651D01*
Y-86364D01*
Y-86078D01*
Y-85792D01*
X975273D01*
Y-85505D01*
Y-85219D01*
Y-84933D01*
Y-84646D01*
Y-84360D01*
Y-84074D01*
Y-83788D01*
X975560D01*
Y-83501D01*
Y-83215D01*
Y-82929D01*
Y-82642D01*
Y-82356D01*
Y-82070D01*
X975846D01*
Y-81783D01*
Y-81497D01*
Y-81211D01*
Y-80924D01*
Y-80638D01*
Y-80352D01*
X976132D01*
Y-80066D01*
Y-79779D01*
Y-79493D01*
Y-79207D01*
Y-78920D01*
Y-78634D01*
X976419D01*
Y-78348D01*
Y-78061D01*
Y-77775D01*
Y-77489D01*
Y-77202D01*
Y-76916D01*
Y-76630D01*
X976705D01*
Y-76343D01*
Y-76057D01*
Y-75771D01*
Y-75485D01*
Y-75198D01*
Y-74912D01*
X976991D01*
Y-74625D01*
Y-74339D01*
Y-74053D01*
Y-73767D01*
Y-73480D01*
Y-73194D01*
X977277D01*
Y-72908D01*
Y-72621D01*
Y-72335D01*
Y-72049D01*
Y-71762D01*
Y-71476D01*
Y-71190D01*
X977564D01*
Y-70903D01*
Y-70617D01*
Y-70331D01*
Y-70044D01*
Y-69758D01*
Y-69472D01*
X977850D01*
Y-69186D01*
Y-68899D01*
Y-68613D01*
Y-68327D01*
Y-68040D01*
Y-67754D01*
X978137D01*
Y-67468D01*
Y-67181D01*
Y-66895D01*
Y-66609D01*
Y-66322D01*
Y-66036D01*
X978423D01*
Y-65750D01*
Y-65464D01*
Y-65177D01*
Y-64891D01*
Y-64605D01*
Y-64318D01*
Y-64032D01*
X978709D01*
Y-63746D01*
Y-63459D01*
Y-63173D01*
Y-62887D01*
Y-62600D01*
Y-62314D01*
X978995D01*
Y-62028D01*
Y-61742D01*
Y-61455D01*
Y-61169D01*
Y-60883D01*
Y-60596D01*
X979282D01*
Y-60310D01*
Y-60024D01*
Y-59737D01*
Y-59451D01*
Y-59165D01*
Y-58878D01*
Y-58592D01*
X979568D01*
Y-58306D01*
Y-58019D01*
Y-57733D01*
Y-57447D01*
Y-57161D01*
Y-56874D01*
X979854D01*
Y-56588D01*
Y-56301D01*
Y-56015D01*
Y-55729D01*
Y-55443D01*
Y-55156D01*
X980141D01*
Y-54870D01*
Y-54584D01*
Y-54297D01*
Y-54011D01*
Y-53725D01*
Y-53438D01*
Y-53152D01*
X980427D01*
Y-52866D01*
Y-52579D01*
Y-52293D01*
Y-52007D01*
Y-51720D01*
Y-51434D01*
X980713D01*
Y-51148D01*
Y-50862D01*
Y-50575D01*
Y-50289D01*
Y-50003D01*
Y-49716D01*
X1004477D01*
Y-50003D01*
D02*
G37*
G36*
X1137613Y-64032D02*
X1137326D01*
Y-64318D01*
X1137040D01*
Y-64605D01*
Y-64891D01*
X1136754D01*
Y-65177D01*
X1136467D01*
Y-65464D01*
X1136181D01*
Y-65750D01*
Y-66036D01*
X1135895D01*
Y-66322D01*
X1135608D01*
Y-66609D01*
X1135322D01*
Y-66895D01*
X1135036D01*
Y-67181D01*
Y-67468D01*
X1134750D01*
Y-67754D01*
X1134463D01*
Y-68040D01*
X1134177D01*
Y-68327D01*
Y-68613D01*
X1133891D01*
Y-68899D01*
X1133604D01*
Y-69186D01*
X1133318D01*
Y-69472D01*
X1133032D01*
Y-69758D01*
Y-70044D01*
X1132745D01*
Y-70331D01*
X1132459D01*
Y-70617D01*
X1132173D01*
Y-70903D01*
Y-71190D01*
X1131886D01*
Y-71476D01*
X1131600D01*
Y-71762D01*
X1131314D01*
Y-72049D01*
Y-72335D01*
X1131028D01*
Y-72621D01*
X1130741D01*
Y-72908D01*
X1130455D01*
Y-73194D01*
X1130169D01*
Y-73480D01*
Y-73767D01*
X1129882D01*
Y-74053D01*
X1129596D01*
Y-74339D01*
X1129310D01*
Y-74625D01*
Y-74912D01*
X1129023D01*
Y-75198D01*
X1128737D01*
Y-75485D01*
X1128451D01*
Y-75771D01*
Y-76057D01*
X1128164D01*
Y-76343D01*
X1127878D01*
Y-76630D01*
X1127592D01*
Y-76916D01*
X1127306D01*
Y-77202D01*
Y-77489D01*
X1127019D01*
Y-77775D01*
X1126733D01*
Y-78061D01*
X1126447D01*
Y-78348D01*
Y-78634D01*
X1126160D01*
Y-78920D01*
X1125874D01*
Y-79207D01*
X1125588D01*
Y-79493D01*
Y-79779D01*
X1125301D01*
Y-80066D01*
X1125015D01*
Y-80352D01*
X1124729D01*
Y-80638D01*
X1124442D01*
Y-80924D01*
Y-81211D01*
X1124156D01*
Y-81497D01*
X1123870D01*
Y-81783D01*
X1123583D01*
Y-82070D01*
Y-82356D01*
X1123297D01*
Y-82642D01*
X1123011D01*
Y-82929D01*
X1122725D01*
Y-83215D01*
X1122438D01*
Y-83501D01*
Y-83788D01*
X1122725D01*
Y-84074D01*
Y-84360D01*
X1123011D01*
Y-84646D01*
Y-84933D01*
X1123297D01*
Y-85219D01*
X1123583D01*
Y-85505D01*
Y-85792D01*
X1123870D01*
Y-86078D01*
Y-86364D01*
X1124156D01*
Y-86651D01*
Y-86937D01*
X1124442D01*
Y-87223D01*
Y-87510D01*
X1124729D01*
Y-87796D01*
Y-88082D01*
X1125015D01*
Y-88369D01*
Y-88655D01*
X1125301D01*
Y-88941D01*
Y-89227D01*
X1125588D01*
Y-89514D01*
Y-89800D01*
X1125874D01*
Y-90086D01*
X1126160D01*
Y-90373D01*
Y-90659D01*
X1126447D01*
Y-90945D01*
Y-91232D01*
X1126733D01*
Y-91518D01*
Y-91804D01*
X1127019D01*
Y-92091D01*
Y-92377D01*
X1127306D01*
Y-92663D01*
Y-92950D01*
X1127592D01*
Y-93236D01*
Y-93522D01*
X1127878D01*
Y-93809D01*
Y-94095D01*
X1128164D01*
Y-94381D01*
X1128451D01*
Y-94667D01*
Y-94954D01*
X1128737D01*
Y-95240D01*
Y-95526D01*
X1129023D01*
Y-95813D01*
Y-96099D01*
X1129310D01*
Y-96385D01*
Y-96672D01*
X1129596D01*
Y-96958D01*
Y-97244D01*
X1129882D01*
Y-97531D01*
Y-97817D01*
X1130169D01*
Y-98103D01*
Y-98390D01*
X1130455D01*
Y-98676D01*
X1130741D01*
Y-98962D01*
Y-99248D01*
X1131028D01*
Y-99535D01*
Y-99821D01*
X1131314D01*
Y-100107D01*
X1116139D01*
Y-99821D01*
X1115853D01*
Y-99535D01*
Y-99248D01*
Y-98962D01*
X1115567D01*
Y-98676D01*
Y-98390D01*
Y-98103D01*
X1115280D01*
Y-97817D01*
Y-97531D01*
X1114994D01*
Y-97244D01*
Y-96958D01*
Y-96672D01*
X1114708D01*
Y-96385D01*
Y-96099D01*
Y-95813D01*
X1114421D01*
Y-95526D01*
Y-95240D01*
X1114135D01*
Y-94954D01*
Y-94667D01*
Y-94381D01*
X1113849D01*
Y-94095D01*
Y-93809D01*
Y-93522D01*
X1113562D01*
Y-93236D01*
Y-92950D01*
Y-92663D01*
X1113276D01*
Y-92377D01*
X1112704D01*
Y-92663D01*
Y-92950D01*
X1112417D01*
Y-93236D01*
X1112131D01*
Y-93522D01*
Y-93809D01*
X1111845D01*
Y-94095D01*
X1111558D01*
Y-94381D01*
Y-94667D01*
X1111272D01*
Y-94954D01*
X1110986D01*
Y-95240D01*
Y-95526D01*
X1110699D01*
Y-95813D01*
X1110413D01*
Y-96099D01*
X1110127D01*
Y-96385D01*
Y-96672D01*
X1109840D01*
Y-96958D01*
X1109554D01*
Y-97244D01*
Y-97531D01*
X1109268D01*
Y-97817D01*
X1108981D01*
Y-98103D01*
Y-98390D01*
X1108695D01*
Y-98676D01*
X1108409D01*
Y-98962D01*
Y-99248D01*
X1108123D01*
Y-99535D01*
X1107836D01*
Y-99821D01*
Y-100107D01*
X1091803D01*
Y-99821D01*
X1092089D01*
Y-99535D01*
X1092375D01*
Y-99248D01*
X1092662D01*
Y-98962D01*
X1092948D01*
Y-98676D01*
Y-98390D01*
X1093234D01*
Y-98103D01*
X1093521D01*
Y-97817D01*
X1093807D01*
Y-97531D01*
X1094093D01*
Y-97244D01*
Y-96958D01*
X1094380D01*
Y-96672D01*
X1094666D01*
Y-96385D01*
X1094952D01*
Y-96099D01*
Y-95813D01*
X1095238D01*
Y-95526D01*
X1095525D01*
Y-95240D01*
X1095811D01*
Y-94954D01*
X1096097D01*
Y-94667D01*
Y-94381D01*
X1096384D01*
Y-94095D01*
X1096670D01*
Y-93809D01*
X1096956D01*
Y-93522D01*
X1097243D01*
Y-93236D01*
Y-92950D01*
X1097529D01*
Y-92663D01*
X1097815D01*
Y-92377D01*
X1098102D01*
Y-92091D01*
Y-91804D01*
X1098388D01*
Y-91518D01*
X1098674D01*
Y-91232D01*
X1098960D01*
Y-90945D01*
X1099247D01*
Y-90659D01*
Y-90373D01*
X1099533D01*
Y-90086D01*
X1099819D01*
Y-89800D01*
X1100106D01*
Y-89514D01*
Y-89227D01*
X1100392D01*
Y-88941D01*
X1100678D01*
Y-88655D01*
X1100965D01*
Y-88369D01*
X1101251D01*
Y-88082D01*
Y-87796D01*
X1101537D01*
Y-87510D01*
X1101824D01*
Y-87223D01*
X1102110D01*
Y-86937D01*
Y-86651D01*
X1102396D01*
Y-86364D01*
X1102683D01*
Y-86078D01*
X1102969D01*
Y-85792D01*
X1103255D01*
Y-85505D01*
Y-85219D01*
X1103541D01*
Y-84933D01*
X1103828D01*
Y-84646D01*
X1104114D01*
Y-84360D01*
X1104400D01*
Y-84074D01*
Y-83788D01*
X1104687D01*
Y-83501D01*
X1104973D01*
Y-83215D01*
X1105259D01*
Y-82929D01*
Y-82642D01*
X1105546D01*
Y-82356D01*
X1105832D01*
Y-82070D01*
X1106118D01*
Y-81783D01*
X1106405D01*
Y-81497D01*
Y-81211D01*
X1106691D01*
Y-80924D01*
Y-80638D01*
Y-80352D01*
X1106405D01*
Y-80066D01*
X1106118D01*
Y-79779D01*
Y-79493D01*
X1105832D01*
Y-79207D01*
Y-78920D01*
X1105546D01*
Y-78634D01*
Y-78348D01*
X1105259D01*
Y-78061D01*
Y-77775D01*
X1104973D01*
Y-77489D01*
Y-77202D01*
X1104687D01*
Y-76916D01*
Y-76630D01*
X1104400D01*
Y-76343D01*
X1104114D01*
Y-76057D01*
Y-75771D01*
X1103828D01*
Y-75485D01*
Y-75198D01*
X1103541D01*
Y-74912D01*
Y-74625D01*
X1103255D01*
Y-74339D01*
Y-74053D01*
X1102969D01*
Y-73767D01*
Y-73480D01*
X1102683D01*
Y-73194D01*
Y-72908D01*
X1102396D01*
Y-72621D01*
X1102110D01*
Y-72335D01*
Y-72049D01*
X1101824D01*
Y-71762D01*
Y-71476D01*
X1101537D01*
Y-71190D01*
Y-70903D01*
X1101251D01*
Y-70617D01*
Y-70331D01*
X1100965D01*
Y-70044D01*
Y-69758D01*
X1100678D01*
Y-69472D01*
Y-69186D01*
X1100392D01*
Y-68899D01*
Y-68613D01*
X1100106D01*
Y-68327D01*
X1099819D01*
Y-68040D01*
Y-67754D01*
X1099533D01*
Y-67468D01*
Y-67181D01*
X1099247D01*
Y-66895D01*
Y-66609D01*
X1098960D01*
Y-66322D01*
Y-66036D01*
X1098674D01*
Y-65750D01*
Y-65464D01*
X1098388D01*
Y-65177D01*
Y-64891D01*
X1098102D01*
Y-64605D01*
X1097815D01*
Y-64318D01*
Y-64032D01*
X1097529D01*
Y-63746D01*
X1113276D01*
Y-64032D01*
X1113562D01*
Y-64318D01*
Y-64605D01*
Y-64891D01*
X1113849D01*
Y-65177D01*
Y-65464D01*
Y-65750D01*
X1114135D01*
Y-66036D01*
Y-66322D01*
Y-66609D01*
X1114421D01*
Y-66895D01*
Y-67181D01*
Y-67468D01*
X1114708D01*
Y-67754D01*
Y-68040D01*
Y-68327D01*
X1114994D01*
Y-68613D01*
Y-68899D01*
Y-69186D01*
X1115280D01*
Y-69472D01*
Y-69758D01*
Y-70044D01*
X1115567D01*
Y-70331D01*
Y-70617D01*
Y-70903D01*
X1115853D01*
Y-71190D01*
Y-71476D01*
Y-71762D01*
Y-72049D01*
X1116426D01*
Y-71762D01*
X1116712D01*
Y-71476D01*
X1116998D01*
Y-71190D01*
Y-70903D01*
X1117284D01*
Y-70617D01*
X1117571D01*
Y-70331D01*
Y-70044D01*
X1117857D01*
Y-69758D01*
X1118143D01*
Y-69472D01*
Y-69186D01*
X1118430D01*
Y-68899D01*
X1118716D01*
Y-68613D01*
Y-68327D01*
X1119002D01*
Y-68040D01*
X1119289D01*
Y-67754D01*
Y-67468D01*
X1119575D01*
Y-67181D01*
X1119861D01*
Y-66895D01*
Y-66609D01*
X1120148D01*
Y-66322D01*
X1120434D01*
Y-66036D01*
Y-65750D01*
X1120720D01*
Y-65464D01*
X1121007D01*
Y-65177D01*
Y-64891D01*
X1121293D01*
Y-64605D01*
X1121579D01*
Y-64318D01*
Y-64032D01*
X1121865D01*
Y-63746D01*
X1137613D01*
Y-64032D01*
D02*
G37*
%LPC*%
G36*
X1000183Y-60883D02*
X992166D01*
Y-61169D01*
Y-61455D01*
Y-61742D01*
Y-62028D01*
Y-62314D01*
X991879D01*
Y-62600D01*
Y-62887D01*
Y-63173D01*
Y-63459D01*
Y-63746D01*
Y-64032D01*
X991593D01*
Y-64318D01*
Y-64605D01*
Y-64891D01*
Y-65177D01*
Y-65464D01*
Y-65750D01*
X991307D01*
Y-66036D01*
Y-66322D01*
Y-66609D01*
Y-66895D01*
Y-67181D01*
Y-67468D01*
X991020D01*
Y-67754D01*
Y-68040D01*
Y-68327D01*
Y-68613D01*
Y-68899D01*
Y-69186D01*
Y-69472D01*
X990734D01*
Y-69758D01*
Y-70044D01*
Y-70331D01*
Y-70617D01*
Y-70903D01*
Y-71190D01*
X990448D01*
Y-71476D01*
Y-71762D01*
Y-72049D01*
X997606D01*
Y-71762D01*
X998751D01*
Y-71476D01*
X999324D01*
Y-71190D01*
X999610D01*
Y-70903D01*
X999896D01*
Y-70617D01*
X1000183D01*
Y-70331D01*
X1000469D01*
Y-70044D01*
Y-69758D01*
X1000755D01*
Y-69472D01*
Y-69186D01*
X1001042D01*
Y-68899D01*
Y-68613D01*
X1001328D01*
Y-68327D01*
Y-68040D01*
Y-67754D01*
Y-67468D01*
X1001614D01*
Y-67181D01*
Y-66895D01*
Y-66609D01*
Y-66322D01*
Y-66036D01*
X1001900D01*
Y-65750D01*
Y-65464D01*
Y-65177D01*
Y-64891D01*
Y-64605D01*
Y-64318D01*
Y-64032D01*
Y-63746D01*
Y-63459D01*
Y-63173D01*
Y-62887D01*
X1001614D01*
Y-62600D01*
Y-62314D01*
X1001328D01*
Y-62028D01*
Y-61742D01*
X1001042D01*
Y-61455D01*
X1000755D01*
Y-61169D01*
X1000183D01*
Y-60883D01*
D02*
G37*
%LPD*%
D11*
X0Y11811D02*
G03*
X11811Y0I11811J0D01*
G01*
X381890D02*
G03*
X393701Y11811I0J11811D01*
G01*
Y224410D02*
G03*
X381890Y236221I-11811J0D01*
G01*
X11811D02*
G03*
X0Y224410I0J-11811D01*
G01*
X11811Y0D02*
X381890D01*
X393701Y11811D02*
Y224409D01*
X11811Y236221D02*
X381890D01*
X0Y11811D02*
Y224410D01*
X-224410Y-177165D02*
X1429134D01*
X-224410D02*
Y992126D01*
X1429134Y-177165D02*
Y992126D01*
X-224410D02*
X1429134D01*
X1153543Y-177165D02*
Y-19685D01*
X956693Y-177165D02*
Y-19685D01*
X1429134D01*
X956693Y-137795D02*
X1429134D01*
X1153543Y-98425D02*
X1429134D01*
X1153543Y-59055D02*
X1429134D01*
X1311024Y-137795D02*
Y-98425D01*
X1163386Y-169291D02*
X1165354D01*
X1164370D01*
Y-163388D01*
X1163386Y-164372D01*
X1172241Y-163388D02*
X1170273Y-164372D01*
X1168305Y-166340D01*
Y-168307D01*
X1169289Y-169291D01*
X1171257D01*
X1172241Y-168307D01*
Y-167324D01*
X1171257Y-166340D01*
X1168305D01*
X1178145Y-164372D02*
X1177161Y-163388D01*
X1175193D01*
X1174209Y-164372D01*
Y-168307D01*
X1175193Y-169291D01*
X1177161D01*
X1178145Y-168307D01*
X1180113Y-163388D02*
Y-169291D01*
Y-166340D01*
X1184048D01*
Y-163388D01*
Y-169291D01*
X1186016Y-170275D02*
X1189952D01*
X1191920Y-169291D02*
Y-163388D01*
X1194872D01*
X1195856Y-164372D01*
Y-166340D01*
X1194872Y-167324D01*
X1191920D01*
X1197824Y-163388D02*
Y-169291D01*
X1199791Y-167324D01*
X1201759Y-169291D01*
Y-163388D01*
X1203727Y-169291D02*
Y-163388D01*
X1205695Y-165356D01*
X1207663Y-163388D01*
Y-169291D01*
X1209631Y-170275D02*
X1213566D01*
X1215534Y-169291D02*
Y-163388D01*
X1218486D01*
X1219470Y-164372D01*
Y-166340D01*
X1218486Y-167324D01*
X1215534D01*
X1224390Y-163388D02*
X1222422D01*
X1221438Y-164372D01*
Y-168307D01*
X1222422Y-169291D01*
X1224390D01*
X1225374Y-168307D01*
Y-164372D01*
X1224390Y-163388D01*
X1227341D02*
Y-169291D01*
X1229309Y-167324D01*
X1231277Y-169291D01*
Y-163388D01*
X1237181D02*
X1233245D01*
Y-169291D01*
X1237181D01*
X1233245Y-166340D02*
X1235213D01*
X1239149Y-169291D02*
Y-163388D01*
X1242101D01*
X1243084Y-164372D01*
Y-166340D01*
X1242101Y-167324D01*
X1239149D01*
X1241117D02*
X1243084Y-169291D01*
X1245052Y-170275D02*
X1248988D01*
X1250956Y-164372D02*
X1251940Y-163388D01*
X1253908D01*
X1254892Y-164372D01*
Y-168307D01*
X1253908Y-169291D01*
X1251940D01*
X1250956Y-168307D01*
Y-164372D01*
X1256859D02*
X1257843Y-163388D01*
X1259811D01*
X1260795Y-164372D01*
Y-168307D01*
X1259811Y-169291D01*
X1257843D01*
X1256859Y-168307D01*
Y-164372D01*
X1262763Y-169291D02*
Y-168307D01*
X1263747D01*
Y-169291D01*
X1262763D01*
X1267683D02*
Y-163388D01*
X1270635D01*
X1271618Y-164372D01*
Y-166340D01*
X1270635Y-167324D01*
X1267683D01*
X1277522Y-165356D02*
X1274570D01*
X1273586Y-166340D01*
Y-168307D01*
X1274570Y-169291D01*
X1277522D01*
X1279490Y-163388D02*
Y-169291D01*
X1282442D01*
X1283426Y-168307D01*
Y-167324D01*
Y-166340D01*
X1282442Y-165356D01*
X1279490D01*
X1285394Y-163388D02*
Y-169291D01*
X1288345D01*
X1289329Y-168307D01*
Y-164372D01*
X1288345Y-163388D01*
X1285394D01*
X1292281Y-169291D02*
X1294249D01*
X1295233Y-168307D01*
Y-166340D01*
X1294249Y-165356D01*
X1292281D01*
X1291297Y-166340D01*
Y-168307D01*
X1292281Y-169291D01*
X1301136Y-165356D02*
X1298185D01*
X1297201Y-166340D01*
Y-168307D01*
X1298185Y-169291D01*
X1301136D01*
D13*
X1163386Y-53150D02*
X1168633D01*
X1166010D01*
Y-37407D01*
X1163386Y-40031D01*
X1187000Y-37407D02*
X1181753Y-40031D01*
X1176505Y-45278D01*
Y-50526D01*
X1179129Y-53150D01*
X1184376D01*
X1187000Y-50526D01*
Y-47902D01*
X1184376Y-45278D01*
X1176505D01*
X1202743Y-40031D02*
X1200119Y-37407D01*
X1194872D01*
X1192248Y-40031D01*
Y-50526D01*
X1194872Y-53150D01*
X1200119D01*
X1202743Y-50526D01*
X1207991Y-37407D02*
Y-53150D01*
Y-45278D01*
X1210615Y-42654D01*
X1215862D01*
X1218486Y-45278D01*
Y-53150D01*
X1239477D02*
Y-37407D01*
X1247348D01*
X1249972Y-40031D01*
Y-45278D01*
X1247348Y-47902D01*
X1239477D01*
X1255220Y-37407D02*
Y-53150D01*
X1260467Y-47902D01*
X1265715Y-53150D01*
Y-37407D01*
X1270963Y-53150D02*
Y-37407D01*
X1276210Y-42654D01*
X1281458Y-37407D01*
Y-53150D01*
X1302448D02*
Y-37407D01*
X1310320D01*
X1312944Y-40031D01*
Y-45278D01*
X1310320Y-47902D01*
X1302448D01*
X1320815Y-53150D02*
X1326063D01*
X1328687Y-50526D01*
Y-45278D01*
X1326063Y-42654D01*
X1320815D01*
X1318191Y-45278D01*
Y-50526D01*
X1320815Y-53150D01*
X1333934Y-42654D02*
Y-50526D01*
X1336558Y-53150D01*
X1339182Y-50526D01*
X1341806Y-53150D01*
X1344430Y-50526D01*
Y-42654D01*
X1357549Y-53150D02*
X1352301D01*
X1349677Y-50526D01*
Y-45278D01*
X1352301Y-42654D01*
X1357549D01*
X1360173Y-45278D01*
Y-47902D01*
X1349677D01*
X1365420Y-42654D02*
Y-53150D01*
Y-47902D01*
X1368044Y-45278D01*
X1370668Y-42654D01*
X1373292D01*
X1178475Y-131890D02*
X1169291D01*
X1178475Y-122706D01*
Y-120411D01*
X1176179Y-118115D01*
X1171587D01*
X1169291Y-120411D01*
X1192250Y-118115D02*
X1187658Y-120411D01*
X1183066Y-125002D01*
Y-129594D01*
X1185362Y-131890D01*
X1189954D01*
X1192250Y-129594D01*
Y-127298D01*
X1189954Y-125002D01*
X1183066D01*
X1196842Y-131890D02*
X1206025Y-122706D01*
X1210617Y-131890D02*
X1215208D01*
X1212912D01*
Y-118115D01*
X1210617Y-120411D01*
X1222096D02*
X1224392Y-118115D01*
X1228983D01*
X1231279Y-120411D01*
Y-129594D01*
X1228983Y-131890D01*
X1224392D01*
X1222096Y-129594D01*
Y-120411D01*
X1235871Y-131890D02*
X1245054Y-122706D01*
X1258829Y-131890D02*
X1249646D01*
X1258829Y-122706D01*
Y-120411D01*
X1256534Y-118115D01*
X1251942D01*
X1249646Y-120411D01*
X1263421D02*
X1265717Y-118115D01*
X1270309D01*
X1272604Y-120411D01*
Y-129594D01*
X1270309Y-131890D01*
X1265717D01*
X1263421Y-129594D01*
Y-120411D01*
X1277196Y-131890D02*
X1281788D01*
X1279492D01*
Y-118115D01*
X1277196Y-120411D01*
X1288675Y-118115D02*
X1297859D01*
Y-120411D01*
X1288675Y-129594D01*
Y-131890D01*
X1332677Y-118771D02*
X1335301Y-116147D01*
X1340549D01*
X1343172Y-118771D01*
Y-129266D01*
X1340549Y-131890D01*
X1335301D01*
X1332677Y-129266D01*
Y-118771D01*
X1348420D02*
X1351044Y-116147D01*
X1356292D01*
X1358915Y-118771D01*
Y-129266D01*
X1356292Y-131890D01*
X1351044D01*
X1348420Y-129266D01*
Y-118771D01*
X978347Y-155517D02*
Y-171260D01*
X983594Y-166012D01*
X988842Y-171260D01*
Y-155517D01*
X994089Y-171260D02*
X999337D01*
X996713D01*
Y-160765D01*
X994089D01*
X1007209Y-171260D02*
Y-160765D01*
X1009832D01*
X1012456Y-163388D01*
Y-171260D01*
Y-163388D01*
X1015080Y-160765D01*
X1017704Y-163388D01*
Y-171260D01*
X1022952Y-155517D02*
Y-166012D01*
X1028199Y-171260D01*
X1033447Y-166012D01*
Y-155517D01*
X1049190Y-158141D02*
X1046566Y-155517D01*
X1041318D01*
X1038694Y-158141D01*
Y-168636D01*
X1041318Y-171260D01*
X1046566D01*
X1049190Y-168636D01*
Y-163388D01*
X1043942D01*
D23*
X1157480Y-141735D02*
Y-149606D01*
X1161416D01*
X1162728Y-148294D01*
Y-143047D01*
X1161416Y-141735D01*
X1157480D01*
X1166664Y-149606D02*
X1169287D01*
X1170599Y-148294D01*
Y-145671D01*
X1169287Y-144359D01*
X1166664D01*
X1165352Y-145671D01*
Y-148294D01*
X1166664Y-149606D01*
X1178471Y-144359D02*
X1174535D01*
X1173223Y-145671D01*
Y-148294D01*
X1174535Y-149606D01*
X1178471D01*
X1181095Y-144359D02*
Y-148294D01*
X1182407Y-149606D01*
X1186342D01*
Y-144359D01*
X1188966Y-149606D02*
Y-144359D01*
X1190278D01*
X1191590Y-145671D01*
Y-149606D01*
Y-145671D01*
X1192902Y-144359D01*
X1194214Y-145671D01*
Y-149606D01*
X1200774D02*
X1198150D01*
X1196838Y-148294D01*
Y-145671D01*
X1198150Y-144359D01*
X1200774D01*
X1202085Y-145671D01*
Y-146983D01*
X1196838D01*
X1204709Y-149606D02*
Y-144359D01*
X1208645D01*
X1209957Y-145671D01*
Y-149606D01*
X1213893Y-143047D02*
Y-144359D01*
X1212581D01*
X1215205D01*
X1213893D01*
Y-148294D01*
X1215205Y-149606D01*
X1157480Y-102365D02*
Y-110236D01*
X1161416D01*
X1162728Y-108924D01*
Y-103677D01*
X1161416Y-102365D01*
X1157480D01*
X1166664Y-104989D02*
X1169287D01*
X1170599Y-106300D01*
Y-110236D01*
X1166664D01*
X1165352Y-108924D01*
X1166664Y-107612D01*
X1170599D01*
X1174535Y-103677D02*
Y-104989D01*
X1173223D01*
X1175847D01*
X1174535D01*
Y-108924D01*
X1175847Y-110236D01*
X1183719D02*
X1181095D01*
X1179783Y-108924D01*
Y-106300D01*
X1181095Y-104989D01*
X1183719D01*
X1185030Y-106300D01*
Y-107612D01*
X1179783D01*
X1157480Y-62995D02*
Y-70866D01*
X1162728D01*
X1166664Y-65618D02*
X1169287D01*
X1170599Y-66930D01*
Y-70866D01*
X1166664D01*
X1165352Y-69554D01*
X1166664Y-68242D01*
X1170599D01*
X1173223Y-65618D02*
Y-69554D01*
X1174535Y-70866D01*
X1178471D01*
Y-72178D01*
X1177159Y-73490D01*
X1175847D01*
X1178471Y-70866D02*
Y-65618D01*
X1185030Y-70866D02*
X1182407D01*
X1181095Y-69554D01*
Y-66930D01*
X1182407Y-65618D01*
X1185030D01*
X1186342Y-66930D01*
Y-68242D01*
X1181095D01*
X1188966Y-65618D02*
Y-70866D01*
Y-68242D01*
X1190278Y-66930D01*
X1191590Y-65618D01*
X1192902D01*
X1204709Y-70866D02*
Y-62995D01*
X1209957Y-70866D01*
Y-62995D01*
X1213893Y-65618D02*
X1216516D01*
X1217828Y-66930D01*
Y-70866D01*
X1213893D01*
X1212581Y-69554D01*
X1213893Y-68242D01*
X1217828D01*
X1220452Y-70866D02*
Y-65618D01*
X1221764D01*
X1223076Y-66930D01*
Y-70866D01*
Y-66930D01*
X1224388Y-65618D01*
X1225700Y-66930D01*
Y-70866D01*
X1232259D02*
X1229636D01*
X1228324Y-69554D01*
Y-66930D01*
X1229636Y-65618D01*
X1232259D01*
X1233571Y-66930D01*
Y-68242D01*
X1228324D01*
X1157480Y-23625D02*
Y-31496D01*
X1161416D01*
X1162728Y-30184D01*
Y-24937D01*
X1161416Y-23625D01*
X1157480D01*
X1166664Y-31496D02*
X1169287D01*
X1170599Y-30184D01*
Y-27560D01*
X1169287Y-26248D01*
X1166664D01*
X1165352Y-27560D01*
Y-30184D01*
X1166664Y-31496D01*
X1178471Y-26248D02*
X1174535D01*
X1173223Y-27560D01*
Y-30184D01*
X1174535Y-31496D01*
X1178471D01*
X1181095Y-26248D02*
Y-30184D01*
X1182407Y-31496D01*
X1186342D01*
Y-26248D01*
X1188966Y-31496D02*
Y-26248D01*
X1190278D01*
X1191590Y-27560D01*
Y-31496D01*
Y-27560D01*
X1192902Y-26248D01*
X1194214Y-27560D01*
Y-31496D01*
X1200774D02*
X1198150D01*
X1196838Y-30184D01*
Y-27560D01*
X1198150Y-26248D01*
X1200774D01*
X1202085Y-27560D01*
Y-28872D01*
X1196838D01*
X1204709Y-31496D02*
Y-26248D01*
X1208645D01*
X1209957Y-27560D01*
Y-31496D01*
X1213893Y-24937D02*
Y-26248D01*
X1212581D01*
X1215205D01*
X1213893D01*
Y-30184D01*
X1215205Y-31496D01*
X960630Y-141735D02*
Y-149606D01*
X964566D01*
X965878Y-148294D01*
Y-143047D01*
X964566Y-141735D01*
X960630D01*
X972437Y-149606D02*
X969813D01*
X968501Y-148294D01*
Y-145671D01*
X969813Y-144359D01*
X972437D01*
X973749Y-145671D01*
Y-146983D01*
X968501D01*
X976373Y-149606D02*
X980309D01*
X981621Y-148294D01*
X980309Y-146983D01*
X977685D01*
X976373Y-145671D01*
X977685Y-144359D01*
X981621D01*
X986868Y-152230D02*
X988180D01*
X989492Y-150918D01*
Y-144359D01*
X985556D01*
X984244Y-145671D01*
Y-148294D01*
X985556Y-149606D01*
X989492D01*
X992116D02*
X994740D01*
X993428D01*
Y-144359D01*
X992116D01*
X998675Y-149606D02*
Y-144359D01*
X1002611D01*
X1003923Y-145671D01*
Y-149606D01*
X1010483D02*
X1007859D01*
X1006547Y-148294D01*
Y-145671D01*
X1007859Y-144359D01*
X1010483D01*
X1011794Y-145671D01*
Y-146983D01*
X1006547D01*
X1014418Y-144359D02*
Y-149606D01*
Y-146983D01*
X1015730Y-145671D01*
X1017042Y-144359D01*
X1018354D01*
X1314961Y-110236D02*
Y-102365D01*
X1318896D01*
X1320208Y-103677D01*
Y-106300D01*
X1318896Y-107612D01*
X1314961D01*
X1317584D02*
X1320208Y-110236D01*
X1326768D02*
X1324144D01*
X1322832Y-108924D01*
Y-106300D01*
X1324144Y-104989D01*
X1326768D01*
X1328080Y-106300D01*
Y-107612D01*
X1322832D01*
X1330704Y-104989D02*
X1333327Y-110236D01*
X1335951Y-104989D01*
D35*
X11811Y-31496D02*
Y-7480D01*
X0Y-31496D02*
Y3937D01*
X-10000Y-27559D02*
X0D01*
X11811D02*
X21811D01*
X-6000Y-25559D02*
X0Y-27559D01*
X-6000Y-29559D02*
X0Y-27559D01*
X11811D02*
X17811Y-29559D01*
X11811Y-27559D02*
X17811Y-25559D01*
X-23622Y11811D02*
X-7480D01*
X-23622Y0D02*
X3937D01*
X-19685Y-10000D02*
Y0D01*
Y11811D02*
Y21811D01*
X-21685Y-6000D02*
X-19685Y0D01*
X-17685Y-6000D01*
X-19685Y11811D02*
X-17685Y17811D01*
X-21685D02*
X-19685Y11811D01*
D54*
X-2704Y-36349D02*
X-2048Y-35693D01*
X-736D01*
X-80Y-36349D01*
Y-37005D01*
X-736Y-37661D01*
X-1392D01*
X-736D01*
X-80Y-38317D01*
Y-38973D01*
X-736Y-39629D01*
X-2048D01*
X-2704Y-38973D01*
X1888Y-40285D02*
X2544Y-39629D01*
Y-38973D01*
X1888D01*
Y-39629D01*
X2544D01*
X1888Y-40285D01*
X1232Y-40941D01*
X5168Y-36349D02*
X5824Y-35693D01*
X7136D01*
X7792Y-36349D01*
Y-38973D01*
X7136Y-39629D01*
X5824D01*
X5168Y-38973D01*
Y-36349D01*
X9104D02*
X9759Y-35693D01*
X11071D01*
X11727Y-36349D01*
Y-38973D01*
X11071Y-39629D01*
X9759D01*
X9104Y-38973D01*
Y-36349D01*
X-29000Y-2704D02*
X-29656Y-2048D01*
Y-736D01*
X-29000Y-80D01*
X-28344D01*
X-27688Y-736D01*
Y-1392D01*
Y-736D01*
X-27032Y-80D01*
X-26376D01*
X-25720Y-736D01*
Y-2048D01*
X-26376Y-2704D01*
X-25064Y1888D02*
X-25720Y2544D01*
X-26376D01*
Y1888D01*
X-25720D01*
Y2544D01*
X-25064Y1888D01*
X-24408Y1232D01*
X-29000Y5168D02*
X-29656Y5824D01*
Y7136D01*
X-29000Y7792D01*
X-26376D01*
X-25720Y7136D01*
Y5824D01*
X-26376Y5168D01*
X-29000D01*
Y9104D02*
X-29656Y9759D01*
Y11071D01*
X-29000Y11727D01*
X-26376D01*
X-25720Y11071D01*
Y9759D01*
X-26376Y9104D01*
X-29000D01*
D55*
X11011Y11011D02*
Y12611D01*
X12611D01*
Y11011D01*
X11011D01*
X381090D02*
Y12611D01*
X382690D01*
Y11011D01*
X381090D01*
Y223609D02*
Y225209D01*
X382690D01*
Y223609D01*
X381090D01*
X11011D02*
Y225209D01*
X12611D01*
Y223609D01*
X11011D01*
X338583Y141917D02*
X337783Y143517D01*
X339383D01*
X338583Y141917D01*
Y128137D02*
X337783Y129737D01*
X339383D01*
X338583Y128137D01*
Y92704D02*
X337783Y94304D01*
X339383D01*
X338583Y92704D01*
Y106483D02*
X337783Y108083D01*
X339383D01*
X338583Y106483D01*
X19685Y88255D02*
X20085Y88655D01*
X20485D01*
X20085Y89055D01*
X20485Y89455D01*
X20085D01*
X19685Y89855D01*
X19285Y89455D01*
X18885D01*
X19285Y89055D01*
X18885Y88655D01*
X19285D01*
X19685Y88255D01*
Y78255D02*
X20085Y78655D01*
X20485D01*
X20085Y79055D01*
X20485Y79455D01*
X20085D01*
X19685Y79855D01*
X19285Y79455D01*
X18885D01*
X19285Y79055D01*
X18885Y78655D01*
X19285D01*
X19685Y78255D01*
Y68255D02*
X20085Y68655D01*
X20485D01*
X20085Y69055D01*
X20485Y69455D01*
X20085D01*
X19685Y69855D01*
X19285Y69455D01*
X18885D01*
X19285Y69055D01*
X18885Y68655D01*
X19285D01*
X19685Y68255D01*
Y58255D02*
X20085Y58655D01*
X20485D01*
X20085Y59055D01*
X20485Y59455D01*
X20085D01*
X19685Y59855D01*
X19285Y59455D01*
X18885D01*
X19285Y59055D01*
X18885Y58655D01*
X19285D01*
X19685Y58255D01*
X7874Y98255D02*
X8274Y98655D01*
X8674D01*
X8274Y99055D01*
X8674Y99455D01*
X8274D01*
X7874Y99855D01*
X7474Y99455D01*
X7074D01*
X7474Y99055D01*
X7074Y98655D01*
X7474D01*
X7874Y98255D01*
Y88255D02*
X8274Y88655D01*
X8674D01*
X8274Y89055D01*
X8674Y89455D01*
X8274D01*
X7874Y89855D01*
X7474Y89455D01*
X7074D01*
X7474Y89055D01*
X7074Y88655D01*
X7474D01*
X7874Y88255D01*
Y78255D02*
X8274Y78655D01*
X8674D01*
X8274Y79055D01*
X8674Y79455D01*
X8274D01*
X7874Y79855D01*
X7474Y79455D01*
X7074D01*
X7474Y79055D01*
X7074Y78655D01*
X7474D01*
X7874Y78255D01*
Y68255D02*
X8274Y68655D01*
X8674D01*
X8274Y69055D01*
X8674Y69455D01*
X8274D01*
X7874Y69855D01*
X7474Y69455D01*
X7074D01*
X7474Y69055D01*
X7074Y68655D01*
X7474D01*
X7874Y68255D01*
X19685Y176365D02*
X20085Y176765D01*
X20485D01*
X20085Y177165D01*
X20485Y177565D01*
X20085D01*
X19685Y177965D01*
X19285Y177565D01*
X18885D01*
X19285Y177165D01*
X18885Y176765D01*
X19285D01*
X19685Y176365D01*
Y166365D02*
X20085Y166765D01*
X20485D01*
X20085Y167165D01*
X20485Y167565D01*
X20085D01*
X19685Y167965D01*
X19285Y167565D01*
X18885D01*
X19285Y167165D01*
X18885Y166765D01*
X19285D01*
X19685Y166365D01*
Y156365D02*
X20085Y156765D01*
X20485D01*
X20085Y157165D01*
X20485Y157565D01*
X20085D01*
X19685Y157965D01*
X19285Y157565D01*
X18885D01*
X19285Y157165D01*
X18885Y156765D01*
X19285D01*
X19685Y156365D01*
Y146365D02*
X20085Y146765D01*
X20485D01*
X20085Y147165D01*
X20485Y147565D01*
X20085D01*
X19685Y147965D01*
X19285Y147565D01*
X18885D01*
X19285Y147165D01*
X18885Y146765D01*
X19285D01*
X19685Y146365D01*
X7874Y186365D02*
X8274Y186765D01*
X8674D01*
X8274Y187165D01*
X8674Y187565D01*
X8274D01*
X7874Y187965D01*
X7474Y187565D01*
X7074D01*
X7474Y187165D01*
X7074Y186765D01*
X7474D01*
X7874Y186365D01*
Y176365D02*
X8274Y176765D01*
X8674D01*
X8274Y177165D01*
X8674Y177565D01*
X8274D01*
X7874Y177965D01*
X7474Y177565D01*
X7074D01*
X7474Y177165D01*
X7074Y176765D01*
X7474D01*
X7874Y176365D01*
Y166365D02*
X8274Y166765D01*
X8674D01*
X8274Y167165D01*
X8674Y167565D01*
X8274D01*
X7874Y167965D01*
X7474Y167565D01*
X7074D01*
X7474Y167165D01*
X7074Y166765D01*
X7474D01*
X7874Y166365D01*
Y156365D02*
X8274Y156765D01*
X8674D01*
X8274Y157165D01*
X8674Y157565D01*
X8274D01*
X7874Y157965D01*
X7474Y157565D01*
X7074D01*
X7474Y157165D01*
X7074Y156765D01*
X7474D01*
X7874Y156365D01*
X74003Y28728D02*
X74403Y29528D01*
X74003Y30328D01*
X74803Y29928D01*
X75603Y30328D01*
X75203Y29528D01*
X75603Y28728D01*
X74803Y29128D01*
X74003Y28728D01*
X62192Y164554D02*
X62592Y165354D01*
X62192Y166154D01*
X62992Y165754D01*
X63792Y166154D01*
X63392Y165354D01*
X63792Y164554D01*
X62992Y164954D01*
X62192Y164554D01*
Y157665D02*
X62592Y158465D01*
X62192Y159265D01*
X62992Y158865D01*
X63792Y159265D01*
X63392Y158465D01*
X63792Y157665D01*
X62992Y158065D01*
X62192Y157665D01*
X60224Y161109D02*
X60624Y161909D01*
X60224Y162709D01*
X61024Y162309D01*
X61824Y162709D01*
X61424Y161909D01*
X61824Y161109D01*
X61024Y161509D01*
X60224Y161109D01*
X74397D02*
X74797Y161909D01*
X74397Y162709D01*
X75197Y162309D01*
X75997Y162709D01*
X75597Y161909D01*
X75997Y161109D01*
X75197Y161509D01*
X74397Y161109D01*
X72428Y157665D02*
X72828Y158465D01*
X72428Y159265D01*
X73228Y158865D01*
X74028Y159265D01*
X73628Y158465D01*
X74028Y157665D01*
X73228Y158065D01*
X72428Y157665D01*
Y164554D02*
X72828Y165354D01*
X72428Y166154D01*
X73228Y165754D01*
X74028Y166154D01*
X73628Y165354D01*
X74028Y164554D01*
X73228Y164954D01*
X72428Y164554D01*
X111798D02*
X112198Y165354D01*
X111798Y166154D01*
X112598Y165754D01*
X113398Y166154D01*
X112998Y165354D01*
X113398Y164554D01*
X112598Y164954D01*
X111798Y164554D01*
Y157665D02*
X112198Y158465D01*
X111798Y159265D01*
X112598Y158865D01*
X113398Y159265D01*
X112998Y158465D01*
X113398Y157665D01*
X112598Y158065D01*
X111798Y157665D01*
X113767Y161109D02*
X114167Y161909D01*
X113767Y162709D01*
X114567Y162309D01*
X115367Y162709D01*
X114967Y161909D01*
X115367Y161109D01*
X114567Y161509D01*
X113767Y161109D01*
X99594D02*
X99994Y161909D01*
X99594Y162709D01*
X100394Y162309D01*
X101194Y162709D01*
X100794Y161909D01*
X101194Y161109D01*
X100394Y161509D01*
X99594Y161109D01*
X101562Y157665D02*
X101962Y158465D01*
X101562Y159265D01*
X102362Y158865D01*
X103162Y159265D01*
X102762Y158465D01*
X103162Y157665D01*
X102362Y158065D01*
X101562Y157665D01*
Y164554D02*
X101962Y165354D01*
X101562Y166154D01*
X102362Y165754D01*
X103162Y166154D01*
X102762Y165354D01*
X103162Y164554D01*
X102362Y164954D01*
X101562Y164554D01*
X151169D02*
X151568Y165354D01*
X151169Y166154D01*
X151969Y165754D01*
X152769Y166154D01*
X152368Y165354D01*
X152769Y164554D01*
X151969Y164954D01*
X151169Y164554D01*
Y157665D02*
X151568Y158465D01*
X151169Y159265D01*
X151969Y158865D01*
X152769Y159265D01*
X152368Y158465D01*
X152769Y157665D01*
X151969Y158065D01*
X151169Y157665D01*
X153137Y161109D02*
X153537Y161909D01*
X153137Y162709D01*
X153937Y162309D01*
X154737Y162709D01*
X154337Y161909D01*
X154737Y161109D01*
X153937Y161509D01*
X153137Y161109D01*
X138964D02*
X139364Y161909D01*
X138964Y162709D01*
X139764Y162309D01*
X140564Y162709D01*
X140164Y161909D01*
X140564Y161109D01*
X139764Y161509D01*
X138964Y161109D01*
X140932Y157665D02*
X141332Y158465D01*
X140932Y159265D01*
X141732Y158865D01*
X142532Y159265D01*
X142132Y158465D01*
X142532Y157665D01*
X141732Y158065D01*
X140932Y157665D01*
Y164554D02*
X141332Y165354D01*
X140932Y166154D01*
X141732Y165754D01*
X142532Y166154D01*
X142132Y165354D01*
X142532Y164554D01*
X141732Y164954D01*
X140932Y164554D01*
X190539D02*
X190939Y165354D01*
X190539Y166154D01*
X191339Y165754D01*
X192139Y166154D01*
X191739Y165354D01*
X192139Y164554D01*
X191339Y164954D01*
X190539Y164554D01*
Y157665D02*
X190939Y158465D01*
X190539Y159265D01*
X191339Y158865D01*
X192139Y159265D01*
X191739Y158465D01*
X192139Y157665D01*
X191339Y158065D01*
X190539Y157665D01*
X192507Y161109D02*
X192907Y161909D01*
X192507Y162709D01*
X193307Y162309D01*
X194107Y162709D01*
X193707Y161909D01*
X194107Y161109D01*
X193307Y161509D01*
X192507Y161109D01*
X178334D02*
X178734Y161909D01*
X178334Y162709D01*
X179134Y162309D01*
X179934Y162709D01*
X179534Y161909D01*
X179934Y161109D01*
X179134Y161509D01*
X178334Y161109D01*
X180302Y157665D02*
X180702Y158465D01*
X180302Y159265D01*
X181102Y158865D01*
X181902Y159265D01*
X181502Y158465D01*
X181902Y157665D01*
X181102Y158065D01*
X180302Y157665D01*
Y164554D02*
X180702Y165354D01*
X180302Y166154D01*
X181102Y165754D01*
X181902Y166154D01*
X181502Y165354D01*
X181902Y164554D01*
X181102Y164954D01*
X180302Y164554D01*
X229909D02*
X230309Y165354D01*
X229909Y166154D01*
X230709Y165754D01*
X231509Y166154D01*
X231109Y165354D01*
X231509Y164554D01*
X230709Y164954D01*
X229909Y164554D01*
Y157665D02*
X230309Y158465D01*
X229909Y159265D01*
X230709Y158865D01*
X231509Y159265D01*
X231109Y158465D01*
X231509Y157665D01*
X230709Y158065D01*
X229909Y157665D01*
X231877Y161109D02*
X232277Y161909D01*
X231877Y162709D01*
X232677Y162309D01*
X233477Y162709D01*
X233077Y161909D01*
X233477Y161109D01*
X232677Y161509D01*
X231877Y161109D01*
X217704D02*
X218104Y161909D01*
X217704Y162709D01*
X218504Y162309D01*
X219304Y162709D01*
X218904Y161909D01*
X219304Y161109D01*
X218504Y161509D01*
X217704Y161109D01*
X219672Y157665D02*
X220072Y158465D01*
X219672Y159265D01*
X220472Y158865D01*
X221272Y159265D01*
X220872Y158465D01*
X221272Y157665D01*
X220472Y158065D01*
X219672Y157665D01*
Y164554D02*
X220072Y165354D01*
X219672Y166154D01*
X220472Y165754D01*
X221272Y166154D01*
X220872Y165354D01*
X221272Y164554D01*
X220472Y164954D01*
X219672Y164554D01*
X269279D02*
X269679Y165354D01*
X269279Y166154D01*
X270079Y165754D01*
X270879Y166154D01*
X270479Y165354D01*
X270879Y164554D01*
X270079Y164954D01*
X269279Y164554D01*
Y157665D02*
X269679Y158465D01*
X269279Y159265D01*
X270079Y158865D01*
X270879Y159265D01*
X270479Y158465D01*
X270879Y157665D01*
X270079Y158065D01*
X269279Y157665D01*
X271247Y161109D02*
X271647Y161909D01*
X271247Y162709D01*
X272047Y162309D01*
X272847Y162709D01*
X272447Y161909D01*
X272847Y161109D01*
X272047Y161509D01*
X271247Y161109D01*
X257074D02*
X257474Y161909D01*
X257074Y162709D01*
X257874Y162309D01*
X258674Y162709D01*
X258274Y161909D01*
X258674Y161109D01*
X257874Y161509D01*
X257074Y161109D01*
X259043Y157665D02*
X259442Y158465D01*
X259043Y159265D01*
X259842Y158865D01*
X260643Y159265D01*
X260243Y158465D01*
X260643Y157665D01*
X259842Y158065D01*
X259043Y157665D01*
Y164554D02*
X259442Y165354D01*
X259043Y166154D01*
X259842Y165754D01*
X260643Y166154D01*
X260243Y165354D01*
X260643Y164554D01*
X259842Y164954D01*
X259043Y164554D01*
X308649D02*
X309049Y165354D01*
X308649Y166154D01*
X309449Y165754D01*
X310249Y166154D01*
X309849Y165354D01*
X310249Y164554D01*
X309449Y164954D01*
X308649Y164554D01*
Y157665D02*
X309049Y158465D01*
X308649Y159265D01*
X309449Y158865D01*
X310249Y159265D01*
X309849Y158465D01*
X310249Y157665D01*
X309449Y158065D01*
X308649Y157665D01*
X310617Y161109D02*
X311017Y161909D01*
X310617Y162709D01*
X311417Y162309D01*
X312217Y162709D01*
X311817Y161909D01*
X312217Y161109D01*
X311417Y161509D01*
X310617Y161109D01*
X296444D02*
X296844Y161909D01*
X296444Y162709D01*
X297244Y162309D01*
X298044Y162709D01*
X297644Y161909D01*
X298044Y161109D01*
X297244Y161509D01*
X296444Y161109D01*
X298413Y157665D02*
X298813Y158465D01*
X298413Y159265D01*
X299213Y158865D01*
X300013Y159265D01*
X299613Y158465D01*
X300013Y157665D01*
X299213Y158065D01*
X298413Y157665D01*
Y164554D02*
X298813Y165354D01*
X298413Y166154D01*
X299213Y165754D01*
X300013Y166154D01*
X299613Y165354D01*
X300013Y164554D01*
X299213Y164954D01*
X298413Y164554D01*
X348019D02*
X348419Y165354D01*
X348019Y166154D01*
X348819Y165754D01*
X349619Y166154D01*
X349219Y165354D01*
X349619Y164554D01*
X348819Y164954D01*
X348019Y164554D01*
Y157665D02*
X348419Y158465D01*
X348019Y159265D01*
X348819Y158865D01*
X349619Y159265D01*
X349219Y158465D01*
X349619Y157665D01*
X348819Y158065D01*
X348019Y157665D01*
X348019Y161109D02*
X348419Y161909D01*
X348019Y162709D01*
X348819Y162309D01*
X349619Y162709D01*
X349219Y161909D01*
X349619Y161109D01*
X348819Y161509D01*
X348019Y161109D01*
X335814D02*
X336214Y161909D01*
X335814Y162709D01*
X336614Y162309D01*
X337414Y162709D01*
X337014Y161909D01*
X337414Y161109D01*
X336614Y161509D01*
X335814Y161109D01*
X337783Y157665D02*
X338183Y158465D01*
X337783Y159265D01*
X338583Y158865D01*
X339383Y159265D01*
X338983Y158465D01*
X339383Y157665D01*
X338583Y158065D01*
X337783Y157665D01*
Y164554D02*
X338183Y165354D01*
X337783Y166154D01*
X338583Y165754D01*
X339383Y166154D01*
X338983Y165354D01*
X339383Y164554D01*
X338583Y164954D01*
X337783Y164554D01*
X329909Y77153D02*
X330309Y77953D01*
X329909Y78753D01*
X330709Y78353D01*
X331509Y78753D01*
X331109Y77953D01*
X331509Y77153D01*
X330709Y77553D01*
X329909Y77153D01*
Y70263D02*
X330309Y71063D01*
X329909Y71863D01*
X330709Y71463D01*
X331509Y71863D01*
X331109Y71063D01*
X331509Y70263D01*
X330709Y70663D01*
X329909Y70263D01*
X331877Y73708D02*
X332277Y74508D01*
X331877Y75308D01*
X332677Y74908D01*
X333477Y75308D01*
X333077Y74508D01*
X333477Y73708D01*
X332677Y74108D01*
X331877Y73708D01*
X317704D02*
X318104Y74508D01*
X317704Y75308D01*
X318504Y74908D01*
X319304Y75308D01*
X318904Y74508D01*
X319304Y73708D01*
X318504Y74108D01*
X317704Y73708D01*
X319672Y70263D02*
X320072Y71063D01*
X319672Y71863D01*
X320472Y71463D01*
X321272Y71863D01*
X320872Y71063D01*
X321272Y70263D01*
X320472Y70663D01*
X319672Y70263D01*
Y77153D02*
X320072Y77953D01*
X319672Y78753D01*
X320472Y78353D01*
X321272Y78753D01*
X320872Y77953D01*
X321272Y77153D01*
X320472Y77553D01*
X319672Y77153D01*
X290539D02*
X290939Y77953D01*
X290539Y78753D01*
X291339Y78353D01*
X292139Y78753D01*
X291739Y77953D01*
X292139Y77153D01*
X291339Y77553D01*
X290539Y77153D01*
Y70263D02*
X290939Y71063D01*
X290539Y71863D01*
X291339Y71463D01*
X292139Y71863D01*
X291739Y71063D01*
X292139Y70263D01*
X291339Y70663D01*
X290539Y70263D01*
X292507Y73708D02*
X292907Y74508D01*
X292507Y75308D01*
X293307Y74908D01*
X294107Y75308D01*
X293707Y74508D01*
X294107Y73708D01*
X293307Y74108D01*
X292507Y73708D01*
X278334D02*
X278734Y74508D01*
X278334Y75308D01*
X279134Y74908D01*
X279934Y75308D01*
X279534Y74508D01*
X279934Y73708D01*
X279134Y74108D01*
X278334Y73708D01*
X280302Y70263D02*
X280702Y71063D01*
X280302Y71863D01*
X281102Y71463D01*
X281902Y71863D01*
X281502Y71063D01*
X281902Y70263D01*
X281102Y70663D01*
X280302Y70263D01*
Y77153D02*
X280702Y77953D01*
X280302Y78753D01*
X281102Y78353D01*
X281902Y78753D01*
X281502Y77953D01*
X281902Y77153D01*
X281102Y77553D01*
X280302Y77153D01*
X251168D02*
X251569Y77953D01*
X251168Y78753D01*
X251969Y78353D01*
X252768Y78753D01*
X252368Y77953D01*
X252768Y77153D01*
X251969Y77553D01*
X251168Y77153D01*
Y70263D02*
X251569Y71063D01*
X251168Y71863D01*
X251969Y71463D01*
X252768Y71863D01*
X252368Y71063D01*
X252768Y70263D01*
X251969Y70663D01*
X251168Y70263D01*
X253137Y73708D02*
X253537Y74508D01*
X253137Y75308D01*
X253937Y74908D01*
X254737Y75308D01*
X254337Y74508D01*
X254737Y73708D01*
X253937Y74108D01*
X253137Y73708D01*
X238964D02*
X239364Y74508D01*
X238964Y75308D01*
X239764Y74908D01*
X240564Y75308D01*
X240164Y74508D01*
X240564Y73708D01*
X239764Y74108D01*
X238964Y73708D01*
X240932Y70263D02*
X241332Y71063D01*
X240932Y71863D01*
X241732Y71463D01*
X242532Y71863D01*
X242132Y71063D01*
X242532Y70263D01*
X241732Y70663D01*
X240932Y70263D01*
Y77153D02*
X241332Y77953D01*
X240932Y78753D01*
X241732Y78353D01*
X242532Y78753D01*
X242132Y77953D01*
X242532Y77153D01*
X241732Y77553D01*
X240932Y77153D01*
X211798D02*
X212198Y77953D01*
X211798Y78753D01*
X212598Y78353D01*
X213398Y78753D01*
X212998Y77953D01*
X213398Y77153D01*
X212598Y77553D01*
X211798Y77153D01*
Y70263D02*
X212198Y71063D01*
X211798Y71863D01*
X212598Y71463D01*
X213398Y71863D01*
X212998Y71063D01*
X213398Y70263D01*
X212598Y70663D01*
X211798Y70263D01*
X213767Y73708D02*
X214167Y74508D01*
X213767Y75308D01*
X214567Y74908D01*
X215367Y75308D01*
X214967Y74508D01*
X215367Y73708D01*
X214567Y74108D01*
X213767Y73708D01*
X199594D02*
X199994Y74508D01*
X199594Y75308D01*
X200394Y74908D01*
X201194Y75308D01*
X200794Y74508D01*
X201194Y73708D01*
X200394Y74108D01*
X199594Y73708D01*
X201562Y70263D02*
X201962Y71063D01*
X201562Y71863D01*
X202362Y71463D01*
X203162Y71863D01*
X202762Y71063D01*
X203162Y70263D01*
X202362Y70663D01*
X201562Y70263D01*
Y77153D02*
X201962Y77953D01*
X201562Y78753D01*
X202362Y78353D01*
X203162Y78753D01*
X202762Y77953D01*
X203162Y77153D01*
X202362Y77553D01*
X201562Y77153D01*
X172428D02*
X172828Y77953D01*
X172428Y78753D01*
X173228Y78353D01*
X174028Y78753D01*
X173628Y77953D01*
X174028Y77153D01*
X173228Y77553D01*
X172428Y77153D01*
Y70263D02*
X172828Y71063D01*
X172428Y71863D01*
X173228Y71463D01*
X174028Y71863D01*
X173628Y71063D01*
X174028Y70263D01*
X173228Y70663D01*
X172428Y70263D01*
X174397Y73708D02*
X174797Y74508D01*
X174397Y75308D01*
X175197Y74908D01*
X175997Y75308D01*
X175597Y74508D01*
X175997Y73708D01*
X175197Y74108D01*
X174397Y73708D01*
X160224D02*
X160624Y74508D01*
X160224Y75308D01*
X161024Y74908D01*
X161824Y75308D01*
X161424Y74508D01*
X161824Y73708D01*
X161024Y74108D01*
X160224Y73708D01*
X162192Y70263D02*
X162592Y71063D01*
X162192Y71863D01*
X162992Y71463D01*
X163792Y71863D01*
X163392Y71063D01*
X163792Y70263D01*
X162992Y70663D01*
X162192Y70263D01*
Y77153D02*
X162592Y77953D01*
X162192Y78753D01*
X162992Y78353D01*
X163792Y78753D01*
X163392Y77953D01*
X163792Y77153D01*
X162992Y77553D01*
X162192Y77153D01*
X133058D02*
X133458Y77953D01*
X133058Y78753D01*
X133858Y78353D01*
X134658Y78753D01*
X134258Y77953D01*
X134658Y77153D01*
X133858Y77553D01*
X133058Y77153D01*
Y70263D02*
X133458Y71063D01*
X133058Y71863D01*
X133858Y71463D01*
X134658Y71863D01*
X134258Y71063D01*
X134658Y70263D01*
X133858Y70663D01*
X133058Y70263D01*
X135027Y73708D02*
X135427Y74508D01*
X135027Y75308D01*
X135827Y74908D01*
X136627Y75308D01*
X136227Y74508D01*
X136627Y73708D01*
X135827Y74108D01*
X135027Y73708D01*
X120853D02*
X121254Y74508D01*
X120853Y75308D01*
X121653Y74908D01*
X122453Y75308D01*
X122054Y74508D01*
X122453Y73708D01*
X121653Y74108D01*
X120853Y73708D01*
X122822Y70263D02*
X123222Y71063D01*
X122822Y71863D01*
X123622Y71463D01*
X124422Y71863D01*
X124022Y71063D01*
X124422Y70263D01*
X123622Y70663D01*
X122822Y70263D01*
Y77153D02*
X123222Y77953D01*
X122822Y78753D01*
X123622Y78353D01*
X124422Y78753D01*
X124022Y77953D01*
X124422Y77153D01*
X123622Y77553D01*
X122822Y77153D01*
X93688D02*
X94088Y77953D01*
X93688Y78753D01*
X94488Y78353D01*
X95288Y78753D01*
X94888Y77953D01*
X95288Y77153D01*
X94488Y77553D01*
X93688Y77153D01*
Y70263D02*
X94088Y71063D01*
X93688Y71863D01*
X94488Y71463D01*
X95288Y71863D01*
X94888Y71063D01*
X95288Y70263D01*
X94488Y70663D01*
X93688Y70263D01*
X95657Y73708D02*
X96057Y74508D01*
X95657Y75308D01*
X96457Y74908D01*
X97257Y75308D01*
X96857Y74508D01*
X97257Y73708D01*
X96457Y74108D01*
X95657Y73708D01*
X81484D02*
X81884Y74508D01*
X81484Y75308D01*
X82284Y74908D01*
X83083Y75308D01*
X82683Y74508D01*
X83083Y73708D01*
X82284Y74108D01*
X81484Y73708D01*
X83452Y70263D02*
X83852Y71063D01*
X83452Y71863D01*
X84252Y71463D01*
X85052Y71863D01*
X84652Y71063D01*
X85052Y70263D01*
X84252Y70663D01*
X83452Y70263D01*
Y77153D02*
X83852Y77953D01*
X83452Y78753D01*
X84252Y78353D01*
X85052Y78753D01*
X84652Y77953D01*
X85052Y77153D01*
X84252Y77553D01*
X83452Y77153D01*
X74003Y58255D02*
X74403Y59055D01*
X74003Y59855D01*
X74803Y59455D01*
X75603Y59855D01*
X75203Y59055D01*
X75603Y58255D01*
X74803Y58655D01*
X74003Y58255D01*
Y64161D02*
X74403Y64961D01*
X74003Y65761D01*
X74803Y65361D01*
X75603Y65761D01*
X75203Y64961D01*
X75603Y64161D01*
X74803Y64561D01*
X74003Y64161D01*
Y52350D02*
X74403Y53150D01*
X74003Y53950D01*
X74803Y53550D01*
X75603Y53950D01*
X75203Y53150D01*
X75603Y52350D01*
X74803Y52750D01*
X74003Y52350D01*
Y46444D02*
X74403Y47244D01*
X74003Y48044D01*
X74803Y47644D01*
X75603Y48044D01*
X75203Y47244D01*
X75603Y46444D01*
X74803Y46844D01*
X74003Y46444D01*
Y40539D02*
X74403Y41339D01*
X74003Y42139D01*
X74803Y41739D01*
X75603Y42139D01*
X75203Y41339D01*
X75603Y40539D01*
X74803Y40939D01*
X74003Y40539D01*
Y34633D02*
X74403Y35433D01*
X74003Y36233D01*
X74803Y35833D01*
X75603Y36233D01*
X75203Y35433D01*
X75603Y34633D01*
X74803Y35033D01*
X74003Y34633D01*
Y22822D02*
X74403Y23622D01*
X74003Y24422D01*
X74803Y24022D01*
X75603Y24422D01*
X75203Y23622D01*
X75603Y22822D01*
X74803Y23222D01*
X74003Y22822D01*
X42507D02*
X42907Y23622D01*
X42507Y24422D01*
X43307Y24022D01*
X44107Y24422D01*
X43707Y23622D01*
X44107Y22822D01*
X43307Y23222D01*
X42507Y22822D01*
Y28728D02*
X42907Y29528D01*
X42507Y30328D01*
X43307Y29928D01*
X44107Y30328D01*
X43707Y29528D01*
X44107Y28728D01*
X43307Y29128D01*
X42507Y28728D01*
Y34633D02*
X42907Y35433D01*
X42507Y36233D01*
X43307Y35833D01*
X44107Y36233D01*
X43707Y35433D01*
X44107Y34633D01*
X43307Y35033D01*
X42507Y34633D01*
Y40539D02*
X42907Y41339D01*
X42507Y42139D01*
X43307Y41739D01*
X44107Y42139D01*
X43707Y41339D01*
X44107Y40539D01*
X43307Y40939D01*
X42507Y40539D01*
Y46444D02*
X42907Y47244D01*
X42507Y48044D01*
X43307Y47644D01*
X44107Y48044D01*
X43707Y47244D01*
X44107Y46444D01*
X43307Y46844D01*
X42507Y46444D01*
Y52350D02*
X42907Y53150D01*
X42507Y53950D01*
X43307Y53550D01*
X44107Y53950D01*
X43707Y53150D01*
X44107Y52350D01*
X43307Y52750D01*
X42507Y52350D01*
Y64161D02*
X42907Y64961D01*
X42507Y65761D01*
X43307Y65361D01*
X44107Y65761D01*
X43707Y64961D01*
X44107Y64161D01*
X43307Y64561D01*
X42507Y64161D01*
Y58255D02*
X42907Y59055D01*
X42507Y59855D01*
X43307Y59455D01*
X44107Y59855D01*
X43707Y59055D01*
X44107Y58255D01*
X43307Y58655D01*
X42507Y58255D01*
X81877D02*
X82277Y59055D01*
X81877Y59855D01*
X82677Y59455D01*
X83477Y59855D01*
X83077Y59055D01*
X83477Y58255D01*
X82677Y58655D01*
X81877Y58255D01*
Y64161D02*
X82277Y64961D01*
X81877Y65761D01*
X82677Y65361D01*
X83477Y65761D01*
X83077Y64961D01*
X83477Y64161D01*
X82677Y64561D01*
X81877Y64161D01*
Y52350D02*
X82277Y53150D01*
X81877Y53950D01*
X82677Y53550D01*
X83477Y53950D01*
X83077Y53150D01*
X83477Y52350D01*
X82677Y52750D01*
X81877Y52350D01*
Y46444D02*
X82277Y47244D01*
X81877Y48044D01*
X82677Y47644D01*
X83477Y48044D01*
X83077Y47244D01*
X83477Y46444D01*
X82677Y46844D01*
X81877Y46444D01*
Y40539D02*
X82277Y41339D01*
X81877Y42139D01*
X82677Y41739D01*
X83477Y42139D01*
X83077Y41339D01*
X83477Y40539D01*
X82677Y40939D01*
X81877Y40539D01*
Y34633D02*
X82277Y35433D01*
X81877Y36233D01*
X82677Y35833D01*
X83477Y36233D01*
X83077Y35433D01*
X83477Y34633D01*
X82677Y35033D01*
X81877Y34633D01*
Y28728D02*
X82277Y29528D01*
X81877Y30328D01*
X82677Y29928D01*
X83477Y30328D01*
X83077Y29528D01*
X83477Y28728D01*
X82677Y29128D01*
X81877Y28728D01*
Y22822D02*
X82277Y23622D01*
X81877Y24422D01*
X82677Y24022D01*
X83477Y24422D01*
X83077Y23622D01*
X83477Y22822D01*
X82677Y23222D01*
X81877Y22822D01*
X113373D02*
X113773Y23622D01*
X113373Y24422D01*
X114173Y24022D01*
X114973Y24422D01*
X114573Y23622D01*
X114973Y22822D01*
X114173Y23222D01*
X113373Y22822D01*
Y28728D02*
X113773Y29528D01*
X113373Y30328D01*
X114173Y29928D01*
X114973Y30328D01*
X114573Y29528D01*
X114973Y28728D01*
X114173Y29128D01*
X113373Y28728D01*
Y34633D02*
X113773Y35433D01*
X113373Y36233D01*
X114173Y35833D01*
X114973Y36233D01*
X114573Y35433D01*
X114973Y34633D01*
X114173Y35033D01*
X113373Y34633D01*
Y40539D02*
X113773Y41339D01*
X113373Y42139D01*
X114173Y41739D01*
X114973Y42139D01*
X114573Y41339D01*
X114973Y40539D01*
X114173Y40939D01*
X113373Y40539D01*
Y46444D02*
X113773Y47244D01*
X113373Y48044D01*
X114173Y47644D01*
X114973Y48044D01*
X114573Y47244D01*
X114973Y46444D01*
X114173Y46844D01*
X113373Y46444D01*
Y52350D02*
X113773Y53150D01*
X113373Y53950D01*
X114173Y53550D01*
X114973Y53950D01*
X114573Y53150D01*
X114973Y52350D01*
X114173Y52750D01*
X113373Y52350D01*
Y64161D02*
X113773Y64961D01*
X113373Y65761D01*
X114173Y65361D01*
X114973Y65761D01*
X114573Y64961D01*
X114973Y64161D01*
X114173Y64561D01*
X113373Y64161D01*
Y58255D02*
X113773Y59055D01*
X113373Y59855D01*
X114173Y59455D01*
X114973Y59855D01*
X114573Y59055D01*
X114973Y58255D01*
X114173Y58655D01*
X113373Y58255D01*
X121247D02*
X121647Y59055D01*
X121247Y59855D01*
X122047Y59455D01*
X122847Y59855D01*
X122447Y59055D01*
X122847Y58255D01*
X122047Y58655D01*
X121247Y58255D01*
Y64161D02*
X121647Y64961D01*
X121247Y65761D01*
X122047Y65361D01*
X122847Y65761D01*
X122447Y64961D01*
X122847Y64161D01*
X122047Y64561D01*
X121247Y64161D01*
Y52350D02*
X121647Y53150D01*
X121247Y53950D01*
X122047Y53550D01*
X122847Y53950D01*
X122447Y53150D01*
X122847Y52350D01*
X122047Y52750D01*
X121247Y52350D01*
Y46444D02*
X121647Y47244D01*
X121247Y48044D01*
X122047Y47644D01*
X122847Y48044D01*
X122447Y47244D01*
X122847Y46444D01*
X122047Y46844D01*
X121247Y46444D01*
Y40539D02*
X121647Y41339D01*
X121247Y42139D01*
X122047Y41739D01*
X122847Y42139D01*
X122447Y41339D01*
X122847Y40539D01*
X122047Y40939D01*
X121247Y40539D01*
Y34633D02*
X121647Y35433D01*
X121247Y36233D01*
X122047Y35833D01*
X122847Y36233D01*
X122447Y35433D01*
X122847Y34633D01*
X122047Y35033D01*
X121247Y34633D01*
Y28728D02*
X121647Y29528D01*
X121247Y30328D01*
X122047Y29928D01*
X122847Y30328D01*
X122447Y29528D01*
X122847Y28728D01*
X122047Y29128D01*
X121247Y28728D01*
Y22822D02*
X121647Y23622D01*
X121247Y24422D01*
X122047Y24022D01*
X122847Y24422D01*
X122447Y23622D01*
X122847Y22822D01*
X122047Y23222D01*
X121247Y22822D01*
X152743D02*
X153143Y23622D01*
X152743Y24422D01*
X153543Y24022D01*
X154343Y24422D01*
X153943Y23622D01*
X154343Y22822D01*
X153543Y23222D01*
X152743Y22822D01*
Y28728D02*
X153143Y29528D01*
X152743Y30328D01*
X153543Y29928D01*
X154343Y30328D01*
X153943Y29528D01*
X154343Y28728D01*
X153543Y29128D01*
X152743Y28728D01*
Y34633D02*
X153143Y35433D01*
X152743Y36233D01*
X153543Y35833D01*
X154343Y36233D01*
X153943Y35433D01*
X154343Y34633D01*
X153543Y35033D01*
X152743Y34633D01*
Y40539D02*
X153143Y41339D01*
X152743Y42139D01*
X153543Y41739D01*
X154343Y42139D01*
X153943Y41339D01*
X154343Y40539D01*
X153543Y40939D01*
X152743Y40539D01*
Y46444D02*
X153143Y47244D01*
X152743Y48044D01*
X153543Y47644D01*
X154343Y48044D01*
X153943Y47244D01*
X154343Y46444D01*
X153543Y46844D01*
X152743Y46444D01*
Y52350D02*
X153143Y53150D01*
X152743Y53950D01*
X153543Y53550D01*
X154343Y53950D01*
X153943Y53150D01*
X154343Y52350D01*
X153543Y52750D01*
X152743Y52350D01*
Y64161D02*
X153143Y64961D01*
X152743Y65761D01*
X153543Y65361D01*
X154343Y65761D01*
X153943Y64961D01*
X154343Y64161D01*
X153543Y64561D01*
X152743Y64161D01*
Y58255D02*
X153143Y59055D01*
X152743Y59855D01*
X153543Y59455D01*
X154343Y59855D01*
X153943Y59055D01*
X154343Y58255D01*
X153543Y58655D01*
X152743Y58255D01*
X160617D02*
X161017Y59055D01*
X160617Y59855D01*
X161417Y59455D01*
X162217Y59855D01*
X161817Y59055D01*
X162217Y58255D01*
X161417Y58655D01*
X160617Y58255D01*
Y64161D02*
X161017Y64961D01*
X160617Y65761D01*
X161417Y65361D01*
X162217Y65761D01*
X161817Y64961D01*
X162217Y64161D01*
X161417Y64561D01*
X160617Y64161D01*
Y52350D02*
X161017Y53150D01*
X160617Y53950D01*
X161417Y53550D01*
X162217Y53950D01*
X161817Y53150D01*
X162217Y52350D01*
X161417Y52750D01*
X160617Y52350D01*
Y46444D02*
X161017Y47244D01*
X160617Y48044D01*
X161417Y47644D01*
X162217Y48044D01*
X161817Y47244D01*
X162217Y46444D01*
X161417Y46844D01*
X160617Y46444D01*
Y40539D02*
X161017Y41339D01*
X160617Y42139D01*
X161417Y41739D01*
X162217Y42139D01*
X161817Y41339D01*
X162217Y40539D01*
X161417Y40939D01*
X160617Y40539D01*
Y34633D02*
X161017Y35433D01*
X160617Y36233D01*
X161417Y35833D01*
X162217Y36233D01*
X161817Y35433D01*
X162217Y34633D01*
X161417Y35033D01*
X160617Y34633D01*
Y28728D02*
X161017Y29528D01*
X160617Y30328D01*
X161417Y29928D01*
X162217Y30328D01*
X161817Y29528D01*
X162217Y28728D01*
X161417Y29128D01*
X160617Y28728D01*
Y22822D02*
X161017Y23622D01*
X160617Y24422D01*
X161417Y24022D01*
X162217Y24422D01*
X161817Y23622D01*
X162217Y22822D01*
X161417Y23222D01*
X160617Y22822D01*
X192113D02*
X192513Y23622D01*
X192113Y24422D01*
X192913Y24022D01*
X193713Y24422D01*
X193313Y23622D01*
X193713Y22822D01*
X192913Y23222D01*
X192113Y22822D01*
Y28728D02*
X192513Y29528D01*
X192113Y30328D01*
X192913Y29928D01*
X193713Y30328D01*
X193313Y29528D01*
X193713Y28728D01*
X192913Y29128D01*
X192113Y28728D01*
Y34633D02*
X192513Y35433D01*
X192113Y36233D01*
X192913Y35833D01*
X193713Y36233D01*
X193313Y35433D01*
X193713Y34633D01*
X192913Y35033D01*
X192113Y34633D01*
Y40539D02*
X192513Y41339D01*
X192113Y42139D01*
X192913Y41739D01*
X193713Y42139D01*
X193313Y41339D01*
X193713Y40539D01*
X192913Y40939D01*
X192113Y40539D01*
Y46444D02*
X192513Y47244D01*
X192113Y48044D01*
X192913Y47644D01*
X193713Y48044D01*
X193313Y47244D01*
X193713Y46444D01*
X192913Y46844D01*
X192113Y46444D01*
Y52350D02*
X192513Y53150D01*
X192113Y53950D01*
X192913Y53550D01*
X193713Y53950D01*
X193313Y53150D01*
X193713Y52350D01*
X192913Y52750D01*
X192113Y52350D01*
Y64161D02*
X192513Y64961D01*
X192113Y65761D01*
X192913Y65361D01*
X193713Y65761D01*
X193313Y64961D01*
X193713Y64161D01*
X192913Y64561D01*
X192113Y64161D01*
Y58255D02*
X192513Y59055D01*
X192113Y59855D01*
X192913Y59455D01*
X193713Y59855D01*
X193313Y59055D01*
X193713Y58255D01*
X192913Y58655D01*
X192113Y58255D01*
X199987D02*
X200387Y59055D01*
X199987Y59855D01*
X200787Y59455D01*
X201587Y59855D01*
X201187Y59055D01*
X201587Y58255D01*
X200787Y58655D01*
X199987Y58255D01*
Y64161D02*
X200387Y64961D01*
X199987Y65761D01*
X200787Y65361D01*
X201587Y65761D01*
X201187Y64961D01*
X201587Y64161D01*
X200787Y64561D01*
X199987Y64161D01*
Y52350D02*
X200387Y53150D01*
X199987Y53950D01*
X200787Y53550D01*
X201587Y53950D01*
X201187Y53150D01*
X201587Y52350D01*
X200787Y52750D01*
X199987Y52350D01*
Y46444D02*
X200387Y47244D01*
X199987Y48044D01*
X200787Y47644D01*
X201587Y48044D01*
X201187Y47244D01*
X201587Y46444D01*
X200787Y46844D01*
X199987Y46444D01*
Y40539D02*
X200387Y41339D01*
X199987Y42139D01*
X200787Y41739D01*
X201587Y42139D01*
X201187Y41339D01*
X201587Y40539D01*
X200787Y40939D01*
X199987Y40539D01*
Y34633D02*
X200387Y35433D01*
X199987Y36233D01*
X200787Y35833D01*
X201587Y36233D01*
X201187Y35433D01*
X201587Y34633D01*
X200787Y35033D01*
X199987Y34633D01*
Y28728D02*
X200387Y29528D01*
X199987Y30328D01*
X200787Y29928D01*
X201587Y30328D01*
X201187Y29528D01*
X201587Y28728D01*
X200787Y29128D01*
X199987Y28728D01*
Y22822D02*
X200387Y23622D01*
X199987Y24422D01*
X200787Y24022D01*
X201587Y24422D01*
X201187Y23622D01*
X201587Y22822D01*
X200787Y23222D01*
X199987Y22822D01*
X231484D02*
X231884Y23622D01*
X231484Y24422D01*
X232283Y24022D01*
X233084Y24422D01*
X232683Y23622D01*
X233084Y22822D01*
X232283Y23222D01*
X231484Y22822D01*
Y28728D02*
X231884Y29528D01*
X231484Y30328D01*
X232283Y29928D01*
X233084Y30328D01*
X232683Y29528D01*
X233084Y28728D01*
X232283Y29128D01*
X231484Y28728D01*
Y34633D02*
X231884Y35433D01*
X231484Y36233D01*
X232283Y35833D01*
X233084Y36233D01*
X232683Y35433D01*
X233084Y34633D01*
X232283Y35033D01*
X231484Y34633D01*
Y40539D02*
X231884Y41339D01*
X231484Y42139D01*
X232283Y41739D01*
X233084Y42139D01*
X232683Y41339D01*
X233084Y40539D01*
X232283Y40939D01*
X231484Y40539D01*
Y46444D02*
X231884Y47244D01*
X231484Y48044D01*
X232283Y47644D01*
X233084Y48044D01*
X232683Y47244D01*
X233084Y46444D01*
X232283Y46844D01*
X231484Y46444D01*
Y52350D02*
X231884Y53150D01*
X231484Y53950D01*
X232283Y53550D01*
X233084Y53950D01*
X232683Y53150D01*
X233084Y52350D01*
X232283Y52750D01*
X231484Y52350D01*
Y64161D02*
X231884Y64961D01*
X231484Y65761D01*
X232283Y65361D01*
X233084Y65761D01*
X232683Y64961D01*
X233084Y64161D01*
X232283Y64561D01*
X231484Y64161D01*
Y58255D02*
X231884Y59055D01*
X231484Y59855D01*
X232283Y59455D01*
X233084Y59855D01*
X232683Y59055D01*
X233084Y58255D01*
X232283Y58655D01*
X231484Y58255D01*
X239357D02*
X239757Y59055D01*
X239357Y59855D01*
X240158Y59455D01*
X240957Y59855D01*
X240558Y59055D01*
X240957Y58255D01*
X240158Y58655D01*
X239357Y58255D01*
Y64161D02*
X239757Y64961D01*
X239357Y65761D01*
X240158Y65361D01*
X240957Y65761D01*
X240558Y64961D01*
X240957Y64161D01*
X240158Y64561D01*
X239357Y64161D01*
Y52350D02*
X239757Y53150D01*
X239357Y53950D01*
X240158Y53550D01*
X240957Y53950D01*
X240558Y53150D01*
X240957Y52350D01*
X240158Y52750D01*
X239357Y52350D01*
Y46444D02*
X239757Y47244D01*
X239357Y48044D01*
X240158Y47644D01*
X240957Y48044D01*
X240558Y47244D01*
X240957Y46444D01*
X240158Y46844D01*
X239357Y46444D01*
Y40539D02*
X239757Y41339D01*
X239357Y42139D01*
X240158Y41739D01*
X240957Y42139D01*
X240558Y41339D01*
X240957Y40539D01*
X240158Y40939D01*
X239357Y40539D01*
Y34633D02*
X239757Y35433D01*
X239357Y36233D01*
X240158Y35833D01*
X240957Y36233D01*
X240558Y35433D01*
X240957Y34633D01*
X240158Y35033D01*
X239357Y34633D01*
Y28728D02*
X239757Y29528D01*
X239357Y30328D01*
X240158Y29928D01*
X240957Y30328D01*
X240558Y29528D01*
X240957Y28728D01*
X240158Y29128D01*
X239357Y28728D01*
Y22822D02*
X239757Y23622D01*
X239357Y24422D01*
X240158Y24022D01*
X240957Y24422D01*
X240558Y23622D01*
X240957Y22822D01*
X240158Y23222D01*
X239357Y22822D01*
X270853D02*
X271253Y23622D01*
X270853Y24422D01*
X271654Y24022D01*
X272453Y24422D01*
X272054Y23622D01*
X272453Y22822D01*
X271654Y23222D01*
X270853Y22822D01*
Y28728D02*
X271253Y29528D01*
X270853Y30328D01*
X271654Y29928D01*
X272453Y30328D01*
X272054Y29528D01*
X272453Y28728D01*
X271654Y29128D01*
X270853Y28728D01*
Y34633D02*
X271253Y35433D01*
X270853Y36233D01*
X271654Y35833D01*
X272453Y36233D01*
X272054Y35433D01*
X272453Y34633D01*
X271654Y35033D01*
X270853Y34633D01*
Y40539D02*
X271253Y41339D01*
X270853Y42139D01*
X271654Y41739D01*
X272453Y42139D01*
X272054Y41339D01*
X272453Y40539D01*
X271654Y40939D01*
X270853Y40539D01*
Y46444D02*
X271253Y47244D01*
X270853Y48044D01*
X271654Y47644D01*
X272453Y48044D01*
X272054Y47244D01*
X272453Y46444D01*
X271654Y46844D01*
X270853Y46444D01*
Y52350D02*
X271253Y53150D01*
X270853Y53950D01*
X271654Y53550D01*
X272453Y53950D01*
X272054Y53150D01*
X272453Y52350D01*
X271654Y52750D01*
X270853Y52350D01*
Y64161D02*
X271253Y64961D01*
X270853Y65761D01*
X271654Y65361D01*
X272453Y65761D01*
X272054Y64961D01*
X272453Y64161D01*
X271654Y64561D01*
X270853Y64161D01*
Y58255D02*
X271253Y59055D01*
X270853Y59855D01*
X271654Y59455D01*
X272453Y59855D01*
X272054Y59055D01*
X272453Y58255D01*
X271654Y58655D01*
X270853Y58255D01*
X278728D02*
X279128Y59055D01*
X278728Y59855D01*
X279528Y59455D01*
X280328Y59855D01*
X279928Y59055D01*
X280328Y58255D01*
X279528Y58655D01*
X278728Y58255D01*
Y64161D02*
X279128Y64961D01*
X278728Y65761D01*
X279528Y65361D01*
X280328Y65761D01*
X279928Y64961D01*
X280328Y64161D01*
X279528Y64561D01*
X278728Y64161D01*
Y52350D02*
X279128Y53150D01*
X278728Y53950D01*
X279528Y53550D01*
X280328Y53950D01*
X279928Y53150D01*
X280328Y52350D01*
X279528Y52750D01*
X278728Y52350D01*
Y46444D02*
X279128Y47244D01*
X278728Y48044D01*
X279528Y47644D01*
X280328Y48044D01*
X279928Y47244D01*
X280328Y46444D01*
X279528Y46844D01*
X278728Y46444D01*
Y40539D02*
X279128Y41339D01*
X278728Y42139D01*
X279528Y41739D01*
X280328Y42139D01*
X279928Y41339D01*
X280328Y40539D01*
X279528Y40939D01*
X278728Y40539D01*
Y34633D02*
X279128Y35433D01*
X278728Y36233D01*
X279528Y35833D01*
X280328Y36233D01*
X279928Y35433D01*
X280328Y34633D01*
X279528Y35033D01*
X278728Y34633D01*
Y28728D02*
X279128Y29528D01*
X278728Y30328D01*
X279528Y29928D01*
X280328Y30328D01*
X279928Y29528D01*
X280328Y28728D01*
X279528Y29128D01*
X278728Y28728D01*
Y22822D02*
X279128Y23622D01*
X278728Y24422D01*
X279528Y24022D01*
X280328Y24422D01*
X279928Y23622D01*
X280328Y22822D01*
X279528Y23222D01*
X278728Y22822D01*
X310224D02*
X310624Y23622D01*
X310224Y24422D01*
X311024Y24022D01*
X311824Y24422D01*
X311424Y23622D01*
X311824Y22822D01*
X311024Y23222D01*
X310224Y22822D01*
Y28728D02*
X310624Y29528D01*
X310224Y30328D01*
X311024Y29928D01*
X311824Y30328D01*
X311424Y29528D01*
X311824Y28728D01*
X311024Y29128D01*
X310224Y28728D01*
Y34633D02*
X310624Y35433D01*
X310224Y36233D01*
X311024Y35833D01*
X311824Y36233D01*
X311424Y35433D01*
X311824Y34633D01*
X311024Y35033D01*
X310224Y34633D01*
Y40539D02*
X310624Y41339D01*
X310224Y42139D01*
X311024Y41739D01*
X311824Y42139D01*
X311424Y41339D01*
X311824Y40539D01*
X311024Y40939D01*
X310224Y40539D01*
Y46444D02*
X310624Y47244D01*
X310224Y48044D01*
X311024Y47644D01*
X311824Y48044D01*
X311424Y47244D01*
X311824Y46444D01*
X311024Y46844D01*
X310224Y46444D01*
Y52350D02*
X310624Y53150D01*
X310224Y53950D01*
X311024Y53550D01*
X311824Y53950D01*
X311424Y53150D01*
X311824Y52350D01*
X311024Y52750D01*
X310224Y52350D01*
Y64161D02*
X310624Y64961D01*
X310224Y65761D01*
X311024Y65361D01*
X311824Y65761D01*
X311424Y64961D01*
X311824Y64161D01*
X311024Y64561D01*
X310224Y64161D01*
Y58255D02*
X310624Y59055D01*
X310224Y59855D01*
X311024Y59455D01*
X311824Y59855D01*
X311424Y59055D01*
X311824Y58255D01*
X311024Y58655D01*
X310224Y58255D01*
X318098D02*
X318498Y59055D01*
X318098Y59855D01*
X318898Y59455D01*
X319698Y59855D01*
X319298Y59055D01*
X319698Y58255D01*
X318898Y58655D01*
X318098Y58255D01*
Y64161D02*
X318498Y64961D01*
X318098Y65761D01*
X318898Y65361D01*
X319698Y65761D01*
X319298Y64961D01*
X319698Y64161D01*
X318898Y64561D01*
X318098Y64161D01*
Y52350D02*
X318498Y53150D01*
X318098Y53950D01*
X318898Y53550D01*
X319698Y53950D01*
X319298Y53150D01*
X319698Y52350D01*
X318898Y52750D01*
X318098Y52350D01*
Y46444D02*
X318498Y47244D01*
X318098Y48044D01*
X318898Y47644D01*
X319698Y48044D01*
X319298Y47244D01*
X319698Y46444D01*
X318898Y46844D01*
X318098Y46444D01*
Y40539D02*
X318498Y41339D01*
X318098Y42139D01*
X318898Y41739D01*
X319698Y42139D01*
X319298Y41339D01*
X319698Y40539D01*
X318898Y40939D01*
X318098Y40539D01*
Y34633D02*
X318498Y35433D01*
X318098Y36233D01*
X318898Y35833D01*
X319698Y36233D01*
X319298Y35433D01*
X319698Y34633D01*
X318898Y35033D01*
X318098Y34633D01*
Y28728D02*
X318498Y29528D01*
X318098Y30328D01*
X318898Y29928D01*
X319698Y30328D01*
X319298Y29528D01*
X319698Y28728D01*
X318898Y29128D01*
X318098Y28728D01*
Y22822D02*
X318498Y23622D01*
X318098Y24422D01*
X318898Y24022D01*
X319698Y24422D01*
X319298Y23622D01*
X319698Y22822D01*
X318898Y23222D01*
X318098Y22822D01*
X349594D02*
X349994Y23622D01*
X349594Y24422D01*
X350394Y24022D01*
X351194Y24422D01*
X350794Y23622D01*
X351194Y22822D01*
X350394Y23222D01*
X349594Y22822D01*
Y28728D02*
X349994Y29528D01*
X349594Y30328D01*
X350394Y29928D01*
X351194Y30328D01*
X350794Y29528D01*
X351194Y28728D01*
X350394Y29128D01*
X349594Y28728D01*
Y34633D02*
X349994Y35433D01*
X349594Y36233D01*
X350394Y35833D01*
X351194Y36233D01*
X350794Y35433D01*
X351194Y34633D01*
X350394Y35033D01*
X349594Y34633D01*
Y40539D02*
X349994Y41339D01*
X349594Y42139D01*
X350394Y41739D01*
X351194Y42139D01*
X350794Y41339D01*
X351194Y40539D01*
X350394Y40939D01*
X349594Y40539D01*
Y46444D02*
X349994Y47244D01*
X349594Y48044D01*
X350394Y47644D01*
X351194Y48044D01*
X350794Y47244D01*
X351194Y46444D01*
X350394Y46844D01*
X349594Y46444D01*
Y52350D02*
X349994Y53150D01*
X349594Y53950D01*
X350394Y53550D01*
X351194Y53950D01*
X350794Y53150D01*
X351194Y52350D01*
X350394Y52750D01*
X349594Y52350D01*
Y64161D02*
X349994Y64961D01*
X349594Y65761D01*
X350394Y65361D01*
X351194Y65761D01*
X350794Y64961D01*
X351194Y64161D01*
X350394Y64561D01*
X349594Y64161D01*
Y58255D02*
X349994Y59055D01*
X349594Y59855D01*
X350394Y59455D01*
X351194Y59855D01*
X350794Y59055D01*
X351194Y58255D01*
X350394Y58655D01*
X349594Y58255D01*
Y176365D02*
X349994Y177165D01*
X349594Y177965D01*
X350394Y177565D01*
X351194Y177965D01*
X350794Y177165D01*
X351194Y176365D01*
X350394Y176765D01*
X349594Y176365D01*
Y170460D02*
X349994Y171260D01*
X349594Y172060D01*
X350394Y171660D01*
X351194Y172060D01*
X350794Y171260D01*
X351194Y170460D01*
X350394Y170860D01*
X349594Y170460D01*
Y182271D02*
X349994Y183071D01*
X349594Y183871D01*
X350394Y183471D01*
X351194Y183871D01*
X350794Y183071D01*
X351194Y182271D01*
X350394Y182671D01*
X349594Y182271D01*
Y188176D02*
X349994Y188976D01*
X349594Y189776D01*
X350394Y189376D01*
X351194Y189776D01*
X350794Y188976D01*
X351194Y188176D01*
X350394Y188576D01*
X349594Y188176D01*
Y194082D02*
X349994Y194882D01*
X349594Y195682D01*
X350394Y195282D01*
X351194Y195682D01*
X350794Y194882D01*
X351194Y194082D01*
X350394Y194482D01*
X349594Y194082D01*
Y199987D02*
X349994Y200787D01*
X349594Y201587D01*
X350394Y201187D01*
X351194Y201587D01*
X350794Y200787D01*
X351194Y199987D01*
X350394Y200387D01*
X349594Y199987D01*
Y205893D02*
X349994Y206693D01*
X349594Y207493D01*
X350394Y207093D01*
X351194Y207493D01*
X350794Y206693D01*
X351194Y205893D01*
X350394Y206293D01*
X349594Y205893D01*
Y211798D02*
X349994Y212598D01*
X349594Y213398D01*
X350394Y212998D01*
X351194Y213398D01*
X350794Y212598D01*
X351194Y211798D01*
X350394Y212198D01*
X349594Y211798D01*
X318098D02*
X318498Y212598D01*
X318098Y213398D01*
X318898Y212998D01*
X319698Y213398D01*
X319298Y212598D01*
X319698Y211798D01*
X318898Y212198D01*
X318098Y211798D01*
Y205893D02*
X318498Y206693D01*
X318098Y207493D01*
X318898Y207093D01*
X319698Y207493D01*
X319298Y206693D01*
X319698Y205893D01*
X318898Y206293D01*
X318098Y205893D01*
Y199987D02*
X318498Y200787D01*
X318098Y201587D01*
X318898Y201187D01*
X319698Y201587D01*
X319298Y200787D01*
X319698Y199987D01*
X318898Y200387D01*
X318098Y199987D01*
Y194082D02*
X318498Y194882D01*
X318098Y195682D01*
X318898Y195282D01*
X319698Y195682D01*
X319298Y194882D01*
X319698Y194082D01*
X318898Y194482D01*
X318098Y194082D01*
Y188176D02*
X318498Y188976D01*
X318098Y189776D01*
X318898Y189376D01*
X319698Y189776D01*
X319298Y188976D01*
X319698Y188176D01*
X318898Y188576D01*
X318098Y188176D01*
Y182271D02*
X318498Y183071D01*
X318098Y183871D01*
X318898Y183471D01*
X319698Y183871D01*
X319298Y183071D01*
X319698Y182271D01*
X318898Y182671D01*
X318098Y182271D01*
Y170460D02*
X318498Y171260D01*
X318098Y172060D01*
X318898Y171660D01*
X319698Y172060D01*
X319298Y171260D01*
X319698Y170460D01*
X318898Y170860D01*
X318098Y170460D01*
Y176365D02*
X318498Y177165D01*
X318098Y177965D01*
X318898Y177565D01*
X319698Y177965D01*
X319298Y177165D01*
X319698Y176365D01*
X318898Y176765D01*
X318098Y176365D01*
X310224D02*
X310624Y177165D01*
X310224Y177965D01*
X311024Y177565D01*
X311824Y177965D01*
X311424Y177165D01*
X311824Y176365D01*
X311024Y176765D01*
X310224Y176365D01*
Y170460D02*
X310624Y171260D01*
X310224Y172060D01*
X311024Y171660D01*
X311824Y172060D01*
X311424Y171260D01*
X311824Y170460D01*
X311024Y170860D01*
X310224Y170460D01*
Y182271D02*
X310624Y183071D01*
X310224Y183871D01*
X311024Y183471D01*
X311824Y183871D01*
X311424Y183071D01*
X311824Y182271D01*
X311024Y182671D01*
X310224Y182271D01*
Y188176D02*
X310624Y188976D01*
X310224Y189776D01*
X311024Y189376D01*
X311824Y189776D01*
X311424Y188976D01*
X311824Y188176D01*
X311024Y188576D01*
X310224Y188176D01*
Y194082D02*
X310624Y194882D01*
X310224Y195682D01*
X311024Y195282D01*
X311824Y195682D01*
X311424Y194882D01*
X311824Y194082D01*
X311024Y194482D01*
X310224Y194082D01*
Y199987D02*
X310624Y200787D01*
X310224Y201587D01*
X311024Y201187D01*
X311824Y201587D01*
X311424Y200787D01*
X311824Y199987D01*
X311024Y200387D01*
X310224Y199987D01*
Y205893D02*
X310624Y206693D01*
X310224Y207493D01*
X311024Y207093D01*
X311824Y207493D01*
X311424Y206693D01*
X311824Y205893D01*
X311024Y206293D01*
X310224Y205893D01*
Y211798D02*
X310624Y212598D01*
X310224Y213398D01*
X311024Y212998D01*
X311824Y213398D01*
X311424Y212598D01*
X311824Y211798D01*
X311024Y212198D01*
X310224Y211798D01*
X278728D02*
X279128Y212598D01*
X278728Y213398D01*
X279528Y212998D01*
X280328Y213398D01*
X279928Y212598D01*
X280328Y211798D01*
X279528Y212198D01*
X278728Y211798D01*
Y205893D02*
X279128Y206693D01*
X278728Y207493D01*
X279528Y207093D01*
X280328Y207493D01*
X279928Y206693D01*
X280328Y205893D01*
X279528Y206293D01*
X278728Y205893D01*
Y199987D02*
X279128Y200787D01*
X278728Y201587D01*
X279528Y201187D01*
X280328Y201587D01*
X279928Y200787D01*
X280328Y199987D01*
X279528Y200387D01*
X278728Y199987D01*
Y194082D02*
X279128Y194882D01*
X278728Y195682D01*
X279528Y195282D01*
X280328Y195682D01*
X279928Y194882D01*
X280328Y194082D01*
X279528Y194482D01*
X278728Y194082D01*
Y188176D02*
X279128Y188976D01*
X278728Y189776D01*
X279528Y189376D01*
X280328Y189776D01*
X279928Y188976D01*
X280328Y188176D01*
X279528Y188576D01*
X278728Y188176D01*
Y182271D02*
X279128Y183071D01*
X278728Y183871D01*
X279528Y183471D01*
X280328Y183871D01*
X279928Y183071D01*
X280328Y182271D01*
X279528Y182671D01*
X278728Y182271D01*
Y170460D02*
X279128Y171260D01*
X278728Y172060D01*
X279528Y171660D01*
X280328Y172060D01*
X279928Y171260D01*
X280328Y170460D01*
X279528Y170860D01*
X278728Y170460D01*
Y176365D02*
X279128Y177165D01*
X278728Y177965D01*
X279528Y177565D01*
X280328Y177965D01*
X279928Y177165D01*
X280328Y176365D01*
X279528Y176765D01*
X278728Y176365D01*
X270853D02*
X271253Y177165D01*
X270853Y177965D01*
X271654Y177565D01*
X272453Y177965D01*
X272054Y177165D01*
X272453Y176365D01*
X271654Y176765D01*
X270853Y176365D01*
Y170460D02*
X271253Y171260D01*
X270853Y172060D01*
X271654Y171660D01*
X272453Y172060D01*
X272054Y171260D01*
X272453Y170460D01*
X271654Y170860D01*
X270853Y170460D01*
Y182271D02*
X271253Y183071D01*
X270853Y183871D01*
X271654Y183471D01*
X272453Y183871D01*
X272054Y183071D01*
X272453Y182271D01*
X271654Y182671D01*
X270853Y182271D01*
Y188176D02*
X271253Y188976D01*
X270853Y189776D01*
X271654Y189376D01*
X272453Y189776D01*
X272054Y188976D01*
X272453Y188176D01*
X271654Y188576D01*
X270853Y188176D01*
Y194082D02*
X271253Y194882D01*
X270853Y195682D01*
X271654Y195282D01*
X272453Y195682D01*
X272054Y194882D01*
X272453Y194082D01*
X271654Y194482D01*
X270853Y194082D01*
Y199987D02*
X271253Y200787D01*
X270853Y201587D01*
X271654Y201187D01*
X272453Y201587D01*
X272054Y200787D01*
X272453Y199987D01*
X271654Y200387D01*
X270853Y199987D01*
Y205893D02*
X271253Y206693D01*
X270853Y207493D01*
X271654Y207093D01*
X272453Y207493D01*
X272054Y206693D01*
X272453Y205893D01*
X271654Y206293D01*
X270853Y205893D01*
Y211798D02*
X271253Y212598D01*
X270853Y213398D01*
X271654Y212998D01*
X272453Y213398D01*
X272054Y212598D01*
X272453Y211798D01*
X271654Y212198D01*
X270853Y211798D01*
X239357D02*
X239757Y212598D01*
X239357Y213398D01*
X240158Y212998D01*
X240957Y213398D01*
X240558Y212598D01*
X240957Y211798D01*
X240158Y212198D01*
X239357Y211798D01*
Y205893D02*
X239757Y206693D01*
X239357Y207493D01*
X240158Y207093D01*
X240957Y207493D01*
X240558Y206693D01*
X240957Y205893D01*
X240158Y206293D01*
X239357Y205893D01*
Y199987D02*
X239757Y200787D01*
X239357Y201587D01*
X240158Y201187D01*
X240957Y201587D01*
X240558Y200787D01*
X240957Y199987D01*
X240158Y200387D01*
X239357Y199987D01*
Y194082D02*
X239757Y194882D01*
X239357Y195682D01*
X240158Y195282D01*
X240957Y195682D01*
X240558Y194882D01*
X240957Y194082D01*
X240158Y194482D01*
X239357Y194082D01*
Y188176D02*
X239757Y188976D01*
X239357Y189776D01*
X240158Y189376D01*
X240957Y189776D01*
X240558Y188976D01*
X240957Y188176D01*
X240158Y188576D01*
X239357Y188176D01*
Y182271D02*
X239757Y183071D01*
X239357Y183871D01*
X240158Y183471D01*
X240957Y183871D01*
X240558Y183071D01*
X240957Y182271D01*
X240158Y182671D01*
X239357Y182271D01*
Y170460D02*
X239757Y171260D01*
X239357Y172060D01*
X240158Y171660D01*
X240957Y172060D01*
X240558Y171260D01*
X240957Y170460D01*
X240158Y170860D01*
X239357Y170460D01*
Y176365D02*
X239757Y177165D01*
X239357Y177965D01*
X240158Y177565D01*
X240957Y177965D01*
X240558Y177165D01*
X240957Y176365D01*
X240158Y176765D01*
X239357Y176365D01*
X231484D02*
X231884Y177165D01*
X231484Y177965D01*
X232283Y177565D01*
X233084Y177965D01*
X232683Y177165D01*
X233084Y176365D01*
X232283Y176765D01*
X231484Y176365D01*
Y170460D02*
X231884Y171260D01*
X231484Y172060D01*
X232283Y171660D01*
X233084Y172060D01*
X232683Y171260D01*
X233084Y170460D01*
X232283Y170860D01*
X231484Y170460D01*
Y182271D02*
X231884Y183071D01*
X231484Y183871D01*
X232283Y183471D01*
X233084Y183871D01*
X232683Y183071D01*
X233084Y182271D01*
X232283Y182671D01*
X231484Y182271D01*
Y188176D02*
X231884Y188976D01*
X231484Y189776D01*
X232283Y189376D01*
X233084Y189776D01*
X232683Y188976D01*
X233084Y188176D01*
X232283Y188576D01*
X231484Y188176D01*
Y194082D02*
X231884Y194882D01*
X231484Y195682D01*
X232283Y195282D01*
X233084Y195682D01*
X232683Y194882D01*
X233084Y194082D01*
X232283Y194482D01*
X231484Y194082D01*
Y199987D02*
X231884Y200787D01*
X231484Y201587D01*
X232283Y201187D01*
X233084Y201587D01*
X232683Y200787D01*
X233084Y199987D01*
X232283Y200387D01*
X231484Y199987D01*
Y205893D02*
X231884Y206693D01*
X231484Y207493D01*
X232283Y207093D01*
X233084Y207493D01*
X232683Y206693D01*
X233084Y205893D01*
X232283Y206293D01*
X231484Y205893D01*
Y211798D02*
X231884Y212598D01*
X231484Y213398D01*
X232283Y212998D01*
X233084Y213398D01*
X232683Y212598D01*
X233084Y211798D01*
X232283Y212198D01*
X231484Y211798D01*
X199987D02*
X200387Y212598D01*
X199987Y213398D01*
X200787Y212998D01*
X201587Y213398D01*
X201187Y212598D01*
X201587Y211798D01*
X200787Y212198D01*
X199987Y211798D01*
Y205893D02*
X200387Y206693D01*
X199987Y207493D01*
X200787Y207093D01*
X201587Y207493D01*
X201187Y206693D01*
X201587Y205893D01*
X200787Y206293D01*
X199987Y205893D01*
Y199987D02*
X200387Y200787D01*
X199987Y201587D01*
X200787Y201187D01*
X201587Y201587D01*
X201187Y200787D01*
X201587Y199987D01*
X200787Y200387D01*
X199987Y199987D01*
Y194082D02*
X200387Y194882D01*
X199987Y195682D01*
X200787Y195282D01*
X201587Y195682D01*
X201187Y194882D01*
X201587Y194082D01*
X200787Y194482D01*
X199987Y194082D01*
Y188176D02*
X200387Y188976D01*
X199987Y189776D01*
X200787Y189376D01*
X201587Y189776D01*
X201187Y188976D01*
X201587Y188176D01*
X200787Y188576D01*
X199987Y188176D01*
Y182271D02*
X200387Y183071D01*
X199987Y183871D01*
X200787Y183471D01*
X201587Y183871D01*
X201187Y183071D01*
X201587Y182271D01*
X200787Y182671D01*
X199987Y182271D01*
Y170460D02*
X200387Y171260D01*
X199987Y172060D01*
X200787Y171660D01*
X201587Y172060D01*
X201187Y171260D01*
X201587Y170460D01*
X200787Y170860D01*
X199987Y170460D01*
Y176365D02*
X200387Y177165D01*
X199987Y177965D01*
X200787Y177565D01*
X201587Y177965D01*
X201187Y177165D01*
X201587Y176365D01*
X200787Y176765D01*
X199987Y176365D01*
X192113D02*
X192513Y177165D01*
X192113Y177965D01*
X192913Y177565D01*
X193713Y177965D01*
X193313Y177165D01*
X193713Y176365D01*
X192913Y176765D01*
X192113Y176365D01*
Y170460D02*
X192513Y171260D01*
X192113Y172060D01*
X192913Y171660D01*
X193713Y172060D01*
X193313Y171260D01*
X193713Y170460D01*
X192913Y170860D01*
X192113Y170460D01*
Y182271D02*
X192513Y183071D01*
X192113Y183871D01*
X192913Y183471D01*
X193713Y183871D01*
X193313Y183071D01*
X193713Y182271D01*
X192913Y182671D01*
X192113Y182271D01*
Y188176D02*
X192513Y188976D01*
X192113Y189776D01*
X192913Y189376D01*
X193713Y189776D01*
X193313Y188976D01*
X193713Y188176D01*
X192913Y188576D01*
X192113Y188176D01*
Y194082D02*
X192513Y194882D01*
X192113Y195682D01*
X192913Y195282D01*
X193713Y195682D01*
X193313Y194882D01*
X193713Y194082D01*
X192913Y194482D01*
X192113Y194082D01*
Y199987D02*
X192513Y200787D01*
X192113Y201587D01*
X192913Y201187D01*
X193713Y201587D01*
X193313Y200787D01*
X193713Y199987D01*
X192913Y200387D01*
X192113Y199987D01*
Y205893D02*
X192513Y206693D01*
X192113Y207493D01*
X192913Y207093D01*
X193713Y207493D01*
X193313Y206693D01*
X193713Y205893D01*
X192913Y206293D01*
X192113Y205893D01*
Y211798D02*
X192513Y212598D01*
X192113Y213398D01*
X192913Y212998D01*
X193713Y213398D01*
X193313Y212598D01*
X193713Y211798D01*
X192913Y212198D01*
X192113Y211798D01*
X160617D02*
X161017Y212598D01*
X160617Y213398D01*
X161417Y212998D01*
X162217Y213398D01*
X161817Y212598D01*
X162217Y211798D01*
X161417Y212198D01*
X160617Y211798D01*
Y205893D02*
X161017Y206693D01*
X160617Y207493D01*
X161417Y207093D01*
X162217Y207493D01*
X161817Y206693D01*
X162217Y205893D01*
X161417Y206293D01*
X160617Y205893D01*
Y199987D02*
X161017Y200787D01*
X160617Y201587D01*
X161417Y201187D01*
X162217Y201587D01*
X161817Y200787D01*
X162217Y199987D01*
X161417Y200387D01*
X160617Y199987D01*
Y194082D02*
X161017Y194882D01*
X160617Y195682D01*
X161417Y195282D01*
X162217Y195682D01*
X161817Y194882D01*
X162217Y194082D01*
X161417Y194482D01*
X160617Y194082D01*
Y188176D02*
X161017Y188976D01*
X160617Y189776D01*
X161417Y189376D01*
X162217Y189776D01*
X161817Y188976D01*
X162217Y188176D01*
X161417Y188576D01*
X160617Y188176D01*
Y182271D02*
X161017Y183071D01*
X160617Y183871D01*
X161417Y183471D01*
X162217Y183871D01*
X161817Y183071D01*
X162217Y182271D01*
X161417Y182671D01*
X160617Y182271D01*
Y170460D02*
X161017Y171260D01*
X160617Y172060D01*
X161417Y171660D01*
X162217Y172060D01*
X161817Y171260D01*
X162217Y170460D01*
X161417Y170860D01*
X160617Y170460D01*
Y176365D02*
X161017Y177165D01*
X160617Y177965D01*
X161417Y177565D01*
X162217Y177965D01*
X161817Y177165D01*
X162217Y176365D01*
X161417Y176765D01*
X160617Y176365D01*
X152743D02*
X153143Y177165D01*
X152743Y177965D01*
X153543Y177565D01*
X154343Y177965D01*
X153943Y177165D01*
X154343Y176365D01*
X153543Y176765D01*
X152743Y176365D01*
Y170460D02*
X153143Y171260D01*
X152743Y172060D01*
X153543Y171660D01*
X154343Y172060D01*
X153943Y171260D01*
X154343Y170460D01*
X153543Y170860D01*
X152743Y170460D01*
Y182271D02*
X153143Y183071D01*
X152743Y183871D01*
X153543Y183471D01*
X154343Y183871D01*
X153943Y183071D01*
X154343Y182271D01*
X153543Y182671D01*
X152743Y182271D01*
Y188176D02*
X153143Y188976D01*
X152743Y189776D01*
X153543Y189376D01*
X154343Y189776D01*
X153943Y188976D01*
X154343Y188176D01*
X153543Y188576D01*
X152743Y188176D01*
Y194082D02*
X153143Y194882D01*
X152743Y195682D01*
X153543Y195282D01*
X154343Y195682D01*
X153943Y194882D01*
X154343Y194082D01*
X153543Y194482D01*
X152743Y194082D01*
Y199987D02*
X153143Y200787D01*
X152743Y201587D01*
X153543Y201187D01*
X154343Y201587D01*
X153943Y200787D01*
X154343Y199987D01*
X153543Y200387D01*
X152743Y199987D01*
Y205893D02*
X153143Y206693D01*
X152743Y207493D01*
X153543Y207093D01*
X154343Y207493D01*
X153943Y206693D01*
X154343Y205893D01*
X153543Y206293D01*
X152743Y205893D01*
Y211798D02*
X153143Y212598D01*
X152743Y213398D01*
X153543Y212998D01*
X154343Y213398D01*
X153943Y212598D01*
X154343Y211798D01*
X153543Y212198D01*
X152743Y211798D01*
X121247D02*
X121647Y212598D01*
X121247Y213398D01*
X122047Y212998D01*
X122847Y213398D01*
X122447Y212598D01*
X122847Y211798D01*
X122047Y212198D01*
X121247Y211798D01*
Y205893D02*
X121647Y206693D01*
X121247Y207493D01*
X122047Y207093D01*
X122847Y207493D01*
X122447Y206693D01*
X122847Y205893D01*
X122047Y206293D01*
X121247Y205893D01*
Y199987D02*
X121647Y200787D01*
X121247Y201587D01*
X122047Y201187D01*
X122847Y201587D01*
X122447Y200787D01*
X122847Y199987D01*
X122047Y200387D01*
X121247Y199987D01*
Y194082D02*
X121647Y194882D01*
X121247Y195682D01*
X122047Y195282D01*
X122847Y195682D01*
X122447Y194882D01*
X122847Y194082D01*
X122047Y194482D01*
X121247Y194082D01*
Y188176D02*
X121647Y188976D01*
X121247Y189776D01*
X122047Y189376D01*
X122847Y189776D01*
X122447Y188976D01*
X122847Y188176D01*
X122047Y188576D01*
X121247Y188176D01*
Y182271D02*
X121647Y183071D01*
X121247Y183871D01*
X122047Y183471D01*
X122847Y183871D01*
X122447Y183071D01*
X122847Y182271D01*
X122047Y182671D01*
X121247Y182271D01*
Y170460D02*
X121647Y171260D01*
X121247Y172060D01*
X122047Y171660D01*
X122847Y172060D01*
X122447Y171260D01*
X122847Y170460D01*
X122047Y170860D01*
X121247Y170460D01*
Y176365D02*
X121647Y177165D01*
X121247Y177965D01*
X122047Y177565D01*
X122847Y177965D01*
X122447Y177165D01*
X122847Y176365D01*
X122047Y176765D01*
X121247Y176365D01*
X113373D02*
X113773Y177165D01*
X113373Y177965D01*
X114173Y177565D01*
X114973Y177965D01*
X114573Y177165D01*
X114973Y176365D01*
X114173Y176765D01*
X113373Y176365D01*
Y170460D02*
X113773Y171260D01*
X113373Y172060D01*
X114173Y171660D01*
X114973Y172060D01*
X114573Y171260D01*
X114973Y170460D01*
X114173Y170860D01*
X113373Y170460D01*
Y182271D02*
X113773Y183071D01*
X113373Y183871D01*
X114173Y183471D01*
X114973Y183871D01*
X114573Y183071D01*
X114973Y182271D01*
X114173Y182671D01*
X113373Y182271D01*
Y188176D02*
X113773Y188976D01*
X113373Y189776D01*
X114173Y189376D01*
X114973Y189776D01*
X114573Y188976D01*
X114973Y188176D01*
X114173Y188576D01*
X113373Y188176D01*
Y194082D02*
X113773Y194882D01*
X113373Y195682D01*
X114173Y195282D01*
X114973Y195682D01*
X114573Y194882D01*
X114973Y194082D01*
X114173Y194482D01*
X113373Y194082D01*
Y199987D02*
X113773Y200787D01*
X113373Y201587D01*
X114173Y201187D01*
X114973Y201587D01*
X114573Y200787D01*
X114973Y199987D01*
X114173Y200387D01*
X113373Y199987D01*
Y205893D02*
X113773Y206693D01*
X113373Y207493D01*
X114173Y207093D01*
X114973Y207493D01*
X114573Y206693D01*
X114973Y205893D01*
X114173Y206293D01*
X113373Y205893D01*
Y211798D02*
X113773Y212598D01*
X113373Y213398D01*
X114173Y212998D01*
X114973Y213398D01*
X114573Y212598D01*
X114973Y211798D01*
X114173Y212198D01*
X113373Y211798D01*
X81877D02*
X82277Y212598D01*
X81877Y213398D01*
X82677Y212998D01*
X83477Y213398D01*
X83077Y212598D01*
X83477Y211798D01*
X82677Y212198D01*
X81877Y211798D01*
Y205893D02*
X82277Y206693D01*
X81877Y207493D01*
X82677Y207093D01*
X83477Y207493D01*
X83077Y206693D01*
X83477Y205893D01*
X82677Y206293D01*
X81877Y205893D01*
Y199987D02*
X82277Y200787D01*
X81877Y201587D01*
X82677Y201187D01*
X83477Y201587D01*
X83077Y200787D01*
X83477Y199987D01*
X82677Y200387D01*
X81877Y199987D01*
Y194082D02*
X82277Y194882D01*
X81877Y195682D01*
X82677Y195282D01*
X83477Y195682D01*
X83077Y194882D01*
X83477Y194082D01*
X82677Y194482D01*
X81877Y194082D01*
Y188176D02*
X82277Y188976D01*
X81877Y189776D01*
X82677Y189376D01*
X83477Y189776D01*
X83077Y188976D01*
X83477Y188176D01*
X82677Y188576D01*
X81877Y188176D01*
Y182271D02*
X82277Y183071D01*
X81877Y183871D01*
X82677Y183471D01*
X83477Y183871D01*
X83077Y183071D01*
X83477Y182271D01*
X82677Y182671D01*
X81877Y182271D01*
Y170460D02*
X82277Y171260D01*
X81877Y172060D01*
X82677Y171660D01*
X83477Y172060D01*
X83077Y171260D01*
X83477Y170460D01*
X82677Y170860D01*
X81877Y170460D01*
Y176365D02*
X82277Y177165D01*
X81877Y177965D01*
X82677Y177565D01*
X83477Y177965D01*
X83077Y177165D01*
X83477Y176365D01*
X82677Y176765D01*
X81877Y176365D01*
X74003D02*
X74403Y177165D01*
X74003Y177965D01*
X74803Y177565D01*
X75603Y177965D01*
X75203Y177165D01*
X75603Y176365D01*
X74803Y176765D01*
X74003Y176365D01*
Y170460D02*
X74403Y171260D01*
X74003Y172060D01*
X74803Y171660D01*
X75603Y172060D01*
X75203Y171260D01*
X75603Y170460D01*
X74803Y170860D01*
X74003Y170460D01*
Y182271D02*
X74403Y183071D01*
X74003Y183871D01*
X74803Y183471D01*
X75603Y183871D01*
X75203Y183071D01*
X75603Y182271D01*
X74803Y182671D01*
X74003Y182271D01*
Y188176D02*
X74403Y188976D01*
X74003Y189776D01*
X74803Y189376D01*
X75603Y189776D01*
X75203Y188976D01*
X75603Y188176D01*
X74803Y188576D01*
X74003Y188176D01*
Y194082D02*
X74403Y194882D01*
X74003Y195682D01*
X74803Y195282D01*
X75603Y195682D01*
X75203Y194882D01*
X75603Y194082D01*
X74803Y194482D01*
X74003Y194082D01*
Y199987D02*
X74403Y200787D01*
X74003Y201587D01*
X74803Y201187D01*
X75603Y201587D01*
X75203Y200787D01*
X75603Y199987D01*
X74803Y200387D01*
X74003Y199987D01*
Y205893D02*
X74403Y206693D01*
X74003Y207493D01*
X74803Y207093D01*
X75603Y207493D01*
X75203Y206693D01*
X75603Y205893D01*
X74803Y206293D01*
X74003Y205893D01*
Y211798D02*
X74403Y212598D01*
X74003Y213398D01*
X74803Y212998D01*
X75603Y213398D01*
X75203Y212598D01*
X75603Y211798D01*
X74803Y212198D01*
X74003Y211798D01*
X42507D02*
X42907Y212598D01*
X42507Y213398D01*
X43307Y212998D01*
X44107Y213398D01*
X43707Y212598D01*
X44107Y211798D01*
X43307Y212198D01*
X42507Y211798D01*
Y205893D02*
X42907Y206693D01*
X42507Y207493D01*
X43307Y207093D01*
X44107Y207493D01*
X43707Y206693D01*
X44107Y205893D01*
X43307Y206293D01*
X42507Y205893D01*
Y199987D02*
X42907Y200787D01*
X42507Y201587D01*
X43307Y201187D01*
X44107Y201587D01*
X43707Y200787D01*
X44107Y199987D01*
X43307Y200387D01*
X42507Y199987D01*
Y194082D02*
X42907Y194882D01*
X42507Y195682D01*
X43307Y195282D01*
X44107Y195682D01*
X43707Y194882D01*
X44107Y194082D01*
X43307Y194482D01*
X42507Y194082D01*
Y188176D02*
X42907Y188976D01*
X42507Y189776D01*
X43307Y189376D01*
X44107Y189776D01*
X43707Y188976D01*
X44107Y188176D01*
X43307Y188576D01*
X42507Y188176D01*
Y182271D02*
X42907Y183071D01*
X42507Y183871D01*
X43307Y183471D01*
X44107Y183871D01*
X43707Y183071D01*
X44107Y182271D01*
X43307Y182671D01*
X42507Y182271D01*
Y170460D02*
X42907Y171260D01*
X42507Y172060D01*
X43307Y171660D01*
X44107Y172060D01*
X43707Y171260D01*
X44107Y170460D01*
X43307Y170860D01*
X42507Y170460D01*
Y176365D02*
X42907Y177165D01*
X42507Y177965D01*
X43307Y177565D01*
X44107Y177965D01*
X43707Y177165D01*
X44107Y176365D01*
X43307Y176765D01*
X42507Y176365D01*
X126562Y136995D02*
X126962Y137795D01*
X126562Y138595D01*
X127362Y138195D01*
X128162Y138595D01*
X127762Y137795D01*
X128162Y136995D01*
X127362Y137395D01*
X126562Y136995D01*
Y129121D02*
X126962Y129921D01*
X126562Y130721D01*
X127362Y130321D01*
X128162Y130721D01*
X127762Y129921D01*
X128162Y129121D01*
X127362Y129521D01*
X126562Y129121D01*
Y121247D02*
X126962Y122047D01*
X126562Y122847D01*
X127362Y122447D01*
X128162Y122847D01*
X127762Y122047D01*
X128162Y121247D01*
X127362Y121647D01*
X126562Y121247D01*
Y113373D02*
X126962Y114173D01*
X126562Y114973D01*
X127362Y114573D01*
X128162Y114973D01*
X127762Y114173D01*
X128162Y113373D01*
X127362Y113773D01*
X126562Y113373D01*
Y105499D02*
X126962Y106299D01*
X126562Y107099D01*
X127362Y106699D01*
X128162Y107099D01*
X127762Y106299D01*
X128162Y105499D01*
X127362Y105899D01*
X126562Y105499D01*
Y97625D02*
X126962Y98425D01*
X126562Y99225D01*
X127362Y98825D01*
X128162Y99225D01*
X127762Y98425D01*
X128162Y97625D01*
X127362Y98025D01*
X126562Y97625D01*
X170066Y132271D02*
X170466Y133071D01*
X170066Y133871D01*
X170866Y133471D01*
X171666Y133871D01*
X171266Y133071D01*
X171666Y132271D01*
X170866Y132671D01*
X170066Y132271D01*
X91523Y117310D02*
X91922Y118110D01*
X91523Y118910D01*
X92322Y118510D01*
X93123Y118910D01*
X92722Y118110D01*
X93123Y117310D01*
X92322Y117710D01*
X91523Y117310D01*
X42113Y133058D02*
X42513Y133858D01*
X42113Y134658D01*
X42913Y134258D01*
X43713Y134658D01*
X43313Y133858D01*
X43713Y133058D01*
X42913Y133458D01*
X42113Y133058D01*
Y140932D02*
X42513Y141732D01*
X42113Y142532D01*
X42913Y142132D01*
X43713Y142532D01*
X43313Y141732D01*
X43713Y140932D01*
X42913Y141332D01*
X42113Y140932D01*
X42114Y125185D02*
X42514Y125985D01*
X42114Y126785D01*
X42914Y126385D01*
X43714Y126785D01*
X43314Y125985D01*
X43714Y125185D01*
X42914Y125585D01*
X42114Y125185D01*
X41720Y116326D02*
X42120Y117126D01*
X41720Y117926D01*
X42520Y117526D01*
X43320Y117926D01*
X42920Y117126D01*
X43320Y116326D01*
X42520Y116726D01*
X41720Y116326D01*
X170066Y135814D02*
X170466Y136614D01*
X170066Y137414D01*
X170866Y137014D01*
X171666Y137414D01*
X171266Y136614D01*
X171666Y135814D01*
X170866Y136214D01*
X170066Y135814D01*
X205105Y115735D02*
X205505Y116535D01*
X205105Y117335D01*
X205906Y116935D01*
X206705Y117335D01*
X206306Y116535D01*
X206705Y115735D01*
X205906Y116135D01*
X205105Y115735D01*
X149200Y135814D02*
X149600Y136614D01*
X149200Y137414D01*
X150000Y137014D01*
X150800Y137414D01*
X150400Y136614D01*
X150800Y135814D01*
X150000Y136214D01*
X149200Y135814D01*
Y132271D02*
X149600Y133071D01*
X149200Y133871D01*
X150000Y133471D01*
X150800Y133871D01*
X150400Y133071D01*
X150800Y132271D01*
X150000Y132671D01*
X149200Y132271D01*
X155303Y126169D02*
X155703Y126969D01*
X155303Y127769D01*
X156103Y127369D01*
X156903Y127769D01*
X156503Y126969D01*
X156903Y126169D01*
X156103Y126569D01*
X155303Y126169D01*
X44082Y77153D02*
X44482Y77953D01*
X44082Y78753D01*
X44882Y78353D01*
X45682Y78753D01*
X45282Y77953D01*
X45682Y77153D01*
X44882Y77553D01*
X44082Y77153D01*
Y70263D02*
X44482Y71063D01*
X44082Y71863D01*
X44882Y71463D01*
X45682Y71863D01*
X45282Y71063D01*
X45682Y70263D01*
X44882Y70663D01*
X44082Y70263D01*
X42113Y73708D02*
X42513Y74508D01*
X42113Y75308D01*
X42913Y74908D01*
X43713Y75308D01*
X43313Y74508D01*
X43713Y73708D01*
X42913Y74108D01*
X42113Y73708D01*
X56287D02*
X56687Y74508D01*
X56287Y75308D01*
X57087Y74908D01*
X57887Y75308D01*
X57487Y74508D01*
X57887Y73708D01*
X57087Y74108D01*
X56287Y73708D01*
X54318Y70263D02*
X54718Y71063D01*
X54318Y71863D01*
X55118Y71463D01*
X55918Y71863D01*
X55518Y71063D01*
X55918Y70263D01*
X55118Y70663D01*
X54318Y70263D01*
Y77153D02*
X54718Y77953D01*
X54318Y78753D01*
X55118Y78353D01*
X55918Y78753D01*
X55518Y77953D01*
X55918Y77153D01*
X55118Y77553D01*
X54318Y77153D01*
X18885Y108452D02*
X19285Y109252D01*
X18885Y110052D01*
X19685Y109652D01*
X20485Y110052D01*
X20085Y109252D01*
X20485Y108452D01*
X19685Y108852D01*
X18885Y108452D01*
D56*
X378753Y52165D02*
G03*
X378753Y52165I-800J0D01*
G01*
Y65945D02*
G03*
X378753Y65945I-800J0D01*
G01*
Y91535D02*
G03*
X378753Y91535I-800J0D01*
G01*
Y105315D02*
G03*
X378753Y105315I-800J0D01*
G01*
Y130905D02*
G03*
X378753Y130905I-800J0D01*
G01*
Y144685D02*
G03*
X378753Y144685I-800J0D01*
G01*
Y170276D02*
G03*
X378753Y170276I-800J0D01*
G01*
Y184055D02*
G03*
X378753Y184055I-800J0D01*
G01*
X66745Y220472D02*
G03*
X66745Y220472I-800J0D01*
G01*
X52965D02*
G03*
X52965Y220472I-800J0D01*
G01*
X106115D02*
G03*
X106115Y220472I-800J0D01*
G01*
X92335D02*
G03*
X92335Y220472I-800J0D01*
G01*
X184855D02*
G03*
X184855Y220472I-800J0D01*
G01*
X171076D02*
G03*
X171076Y220472I-800J0D01*
G01*
X224225D02*
G03*
X224225Y220472I-800J0D01*
G01*
X210446D02*
G03*
X210446Y220472I-800J0D01*
G01*
X263595D02*
G03*
X263595Y220472I-800J0D01*
G01*
X249816D02*
G03*
X249816Y220472I-800J0D01*
G01*
X342335D02*
G03*
X342335Y220472I-800J0D01*
G01*
X328556D02*
G03*
X328556Y220472I-800J0D01*
G01*
X145485D02*
G03*
X145485Y220472I-800J0D01*
G01*
X131705D02*
G03*
X131705Y220472I-800J0D01*
G01*
X302965D02*
G03*
X302965Y220472I-800J0D01*
G01*
X289186D02*
G03*
X289186Y220472I-800J0D01*
G01*
X52965Y15748D02*
G03*
X52965Y15748I-800J0D01*
G01*
X66745D02*
G03*
X66745Y15748I-800J0D01*
G01*
X92335D02*
G03*
X92335Y15748I-800J0D01*
G01*
X106115D02*
G03*
X106115Y15748I-800J0D01*
G01*
X131705D02*
G03*
X131705Y15748I-800J0D01*
G01*
X145485D02*
G03*
X145485Y15748I-800J0D01*
G01*
X171076D02*
G03*
X171076Y15748I-800J0D01*
G01*
X184855D02*
G03*
X184855Y15748I-800J0D01*
G01*
X210446D02*
G03*
X210446Y15748I-800J0D01*
G01*
X224225D02*
G03*
X224225Y15748I-800J0D01*
G01*
X249816D02*
G03*
X249816Y15748I-800J0D01*
G01*
X263595D02*
G03*
X263595Y15748I-800J0D01*
G01*
X328556D02*
G03*
X328556Y15748I-800J0D01*
G01*
X342335D02*
G03*
X342335Y15748I-800J0D01*
G01*
X289186D02*
G03*
X289186Y15748I-800J0D01*
G01*
X302965D02*
G03*
X302965Y15748I-800J0D01*
G01*
M02*
