G04 Layer_Color=128*
%FSLAX25Y25*%
%MOIN*%
G70*
G01*
G75*
%ADD11C,0.00787*%
%ADD13C,0.01575*%
%ADD23C,0.00984*%
%ADD55C,0.00200*%
G36*
X1093521Y-64032D02*
Y-64318D01*
Y-64605D01*
Y-64891D01*
Y-65177D01*
Y-65464D01*
Y-65750D01*
Y-66036D01*
Y-66322D01*
Y-66609D01*
Y-66895D01*
Y-67181D01*
Y-67468D01*
Y-67754D01*
Y-68040D01*
Y-68327D01*
Y-68613D01*
Y-68899D01*
Y-69186D01*
Y-69472D01*
Y-69758D01*
X1093234D01*
Y-70044D01*
Y-70331D01*
Y-70617D01*
Y-70903D01*
Y-71190D01*
X1092948D01*
Y-71476D01*
Y-71762D01*
Y-72049D01*
Y-72335D01*
X1092662D01*
Y-72621D01*
Y-72908D01*
Y-73194D01*
Y-73480D01*
X1092375D01*
Y-73767D01*
Y-74053D01*
Y-74339D01*
X1092089D01*
Y-74625D01*
Y-74912D01*
Y-75198D01*
X1091803D01*
Y-75485D01*
Y-75771D01*
Y-76057D01*
X1091516D01*
Y-76343D01*
Y-76630D01*
Y-76916D01*
X1091230D01*
Y-77202D01*
Y-77489D01*
X1090944D01*
Y-77775D01*
Y-78061D01*
X1090657D01*
Y-78348D01*
Y-78634D01*
Y-78920D01*
X1090371D01*
Y-79207D01*
Y-79493D01*
X1090085D01*
Y-79779D01*
Y-80066D01*
Y-80352D01*
X1089799D01*
Y-80638D01*
Y-80924D01*
X1089512D01*
Y-81211D01*
Y-81497D01*
Y-81783D01*
X1089226D01*
Y-82070D01*
Y-82356D01*
X1088939D01*
Y-82642D01*
Y-82929D01*
Y-83215D01*
X1088653D01*
Y-83501D01*
Y-83788D01*
X1088367D01*
Y-84074D01*
Y-84360D01*
Y-84646D01*
X1088081D01*
Y-84933D01*
Y-85219D01*
X1087794D01*
Y-85505D01*
Y-85792D01*
Y-86078D01*
X1087508D01*
Y-86364D01*
Y-86651D01*
X1087222D01*
Y-86937D01*
Y-87223D01*
Y-87510D01*
X1086935D01*
Y-87796D01*
Y-88082D01*
X1086649D01*
Y-88369D01*
Y-88655D01*
Y-88941D01*
X1086363D01*
Y-89227D01*
Y-89514D01*
X1086076D01*
Y-89800D01*
Y-90086D01*
Y-90373D01*
X1085790D01*
Y-90659D01*
Y-90945D01*
X1085504D01*
Y-91232D01*
Y-91518D01*
Y-91804D01*
X1085217D01*
Y-92091D01*
Y-92377D01*
X1084931D01*
Y-92663D01*
Y-92950D01*
Y-93236D01*
X1084645D01*
Y-93522D01*
Y-93809D01*
X1084359D01*
Y-94095D01*
Y-94381D01*
Y-94667D01*
X1084072D01*
Y-94954D01*
Y-95240D01*
X1083786D01*
Y-95526D01*
Y-95813D01*
Y-96099D01*
X1083500D01*
Y-96385D01*
Y-96672D01*
X1083213D01*
Y-96958D01*
Y-97244D01*
Y-97531D01*
X1082927D01*
Y-97817D01*
Y-98103D01*
X1082641D01*
Y-98390D01*
Y-98676D01*
Y-98962D01*
X1082354D01*
Y-99248D01*
Y-99535D01*
X1082068D01*
Y-99821D01*
Y-100107D01*
Y-100394D01*
X1081782D01*
Y-100680D01*
Y-100966D01*
X1081495D01*
Y-101253D01*
Y-101539D01*
X1081209D01*
Y-101825D01*
Y-102112D01*
X1080923D01*
Y-102398D01*
Y-102684D01*
Y-102971D01*
X1080637D01*
Y-103257D01*
X1080350D01*
Y-103543D01*
Y-103829D01*
Y-104116D01*
X1080064D01*
Y-104402D01*
X1079778D01*
Y-104688D01*
Y-104975D01*
X1079491D01*
Y-105261D01*
Y-105547D01*
X1079205D01*
Y-105834D01*
Y-106120D01*
X1078919D01*
Y-106406D01*
Y-106693D01*
X1078632D01*
Y-106979D01*
X1078346D01*
Y-107265D01*
Y-107552D01*
X1078060D01*
Y-107838D01*
Y-108124D01*
X1077773D01*
Y-108410D01*
X1077487D01*
Y-108697D01*
X1077201D01*
Y-108983D01*
Y-109269D01*
X1076914D01*
Y-109556D01*
X1076628D01*
Y-109842D01*
Y-110128D01*
X1076342D01*
Y-110415D01*
X1076056D01*
Y-110701D01*
X1075769D01*
Y-110987D01*
Y-111274D01*
X1075483D01*
Y-111560D01*
X1075196D01*
Y-111846D01*
X1074910D01*
Y-112133D01*
X1074624D01*
Y-112419D01*
X1074338D01*
Y-112705D01*
Y-112991D01*
X1074051D01*
Y-113278D01*
X1073765D01*
Y-113564D01*
X1073479D01*
Y-113850D01*
X1073192D01*
Y-114137D01*
X1072906D01*
Y-114423D01*
X1072620D01*
Y-114709D01*
X1072333D01*
Y-114996D01*
X1071761D01*
Y-115282D01*
X1071474D01*
Y-115568D01*
X1071188D01*
Y-115855D01*
X1070902D01*
Y-116141D01*
X1070615D01*
Y-116427D01*
X1070043D01*
Y-116714D01*
X1069757D01*
Y-117000D01*
X1069184D01*
Y-117286D01*
X1068898D01*
Y-117572D01*
X1068325D01*
Y-117859D01*
X1068039D01*
Y-118145D01*
X1067466D01*
Y-118431D01*
X1066893D01*
Y-118718D01*
X1066321D01*
Y-119004D01*
X1065748D01*
Y-119290D01*
X1065176D01*
Y-119577D01*
X1064317D01*
Y-119863D01*
X1063744D01*
Y-120149D01*
X1062885D01*
Y-120436D01*
X1061740D01*
Y-120722D01*
X1060595D01*
Y-121008D01*
X1058877D01*
Y-121294D01*
X1056872D01*
Y-121581D01*
X1056586D01*
Y-121294D01*
Y-121008D01*
Y-120722D01*
Y-120436D01*
Y-120149D01*
Y-119863D01*
Y-119577D01*
Y-119290D01*
Y-119004D01*
Y-118718D01*
Y-118431D01*
Y-118145D01*
Y-117859D01*
Y-117572D01*
Y-117286D01*
Y-117000D01*
Y-116714D01*
Y-116427D01*
Y-116141D01*
Y-115855D01*
Y-115568D01*
Y-115282D01*
Y-114996D01*
Y-114709D01*
Y-114423D01*
Y-114137D01*
Y-113850D01*
Y-113564D01*
Y-113278D01*
Y-112991D01*
Y-112705D01*
Y-112419D01*
Y-112133D01*
X1057159D01*
Y-111846D01*
X1057731D01*
Y-111560D01*
X1058304D01*
Y-111274D01*
X1058877D01*
Y-110987D01*
X1059449D01*
Y-110701D01*
X1060022D01*
Y-110415D01*
X1060308D01*
Y-110128D01*
X1060881D01*
Y-109842D01*
X1061167D01*
Y-109556D01*
X1061740D01*
Y-109269D01*
X1062026D01*
Y-108983D01*
X1062312D01*
Y-108697D01*
X1062885D01*
Y-108410D01*
X1063171D01*
Y-108124D01*
X1063458D01*
Y-107838D01*
X1063744D01*
Y-107552D01*
X1064030D01*
Y-107265D01*
X1064317D01*
Y-106979D01*
X1064603D01*
Y-106693D01*
X1064889D01*
Y-106406D01*
X1065176D01*
Y-106120D01*
X1065462D01*
Y-105834D01*
X1065748D01*
Y-105547D01*
X1066035D01*
Y-105261D01*
Y-104975D01*
X1066321D01*
Y-104688D01*
X1066607D01*
Y-104402D01*
X1066893D01*
Y-104116D01*
Y-103829D01*
X1067180D01*
Y-103543D01*
X1067466D01*
Y-103257D01*
Y-102971D01*
X1067752D01*
Y-102684D01*
Y-102398D01*
X1068039D01*
Y-102112D01*
X1068325D01*
Y-101825D01*
Y-101539D01*
X1068611D01*
Y-101253D01*
Y-100966D01*
X1068898D01*
Y-100680D01*
Y-100394D01*
X1067180D01*
Y-100107D01*
X1065176D01*
Y-99821D01*
X1064030D01*
Y-99535D01*
X1063458D01*
Y-99248D01*
X1062599D01*
Y-98962D01*
X1062026D01*
Y-98676D01*
X1061740D01*
Y-98390D01*
X1061167D01*
Y-98103D01*
X1060881D01*
Y-97817D01*
X1060595D01*
Y-97531D01*
X1060308D01*
Y-97244D01*
X1060022D01*
Y-96958D01*
X1059736D01*
Y-96672D01*
Y-96385D01*
X1059449D01*
Y-96099D01*
X1059163D01*
Y-95813D01*
Y-95526D01*
X1058877D01*
Y-95240D01*
Y-94954D01*
X1058590D01*
Y-94667D01*
Y-94381D01*
X1058304D01*
Y-94095D01*
Y-93809D01*
Y-93522D01*
X1058018D01*
Y-93236D01*
Y-92950D01*
Y-92663D01*
Y-92377D01*
X1057731D01*
Y-92091D01*
Y-91804D01*
Y-91518D01*
Y-91232D01*
Y-90945D01*
Y-90659D01*
Y-90373D01*
X1057445D01*
Y-90086D01*
Y-89800D01*
Y-89514D01*
Y-89227D01*
Y-88941D01*
Y-88655D01*
Y-88369D01*
Y-88082D01*
Y-87796D01*
Y-87510D01*
Y-87223D01*
Y-86937D01*
Y-86651D01*
Y-86364D01*
Y-86078D01*
X1057159D01*
Y-85792D01*
Y-85505D01*
Y-85219D01*
Y-84933D01*
Y-84646D01*
Y-84360D01*
Y-84074D01*
Y-83788D01*
Y-83501D01*
Y-83215D01*
Y-82929D01*
Y-82642D01*
Y-82356D01*
Y-82070D01*
Y-81783D01*
X1056872D01*
Y-81497D01*
Y-81211D01*
Y-80924D01*
Y-80638D01*
Y-80352D01*
Y-80066D01*
Y-79779D01*
Y-79493D01*
Y-79207D01*
Y-78920D01*
Y-78634D01*
Y-78348D01*
Y-78061D01*
Y-77775D01*
Y-77489D01*
Y-77202D01*
X1056586D01*
Y-76916D01*
Y-76630D01*
Y-76343D01*
Y-76057D01*
Y-75771D01*
Y-75485D01*
Y-75198D01*
Y-74912D01*
Y-74625D01*
Y-74339D01*
Y-74053D01*
Y-73767D01*
Y-73480D01*
Y-73194D01*
Y-72908D01*
Y-72621D01*
X1056300D01*
Y-72335D01*
Y-72049D01*
Y-71762D01*
Y-71476D01*
Y-71190D01*
Y-70903D01*
Y-70617D01*
Y-70331D01*
Y-70044D01*
Y-69758D01*
Y-69472D01*
Y-69186D01*
Y-68899D01*
Y-68613D01*
X1056014D01*
Y-68327D01*
Y-68040D01*
Y-67754D01*
Y-67468D01*
Y-67181D01*
Y-66895D01*
Y-66609D01*
Y-66322D01*
Y-66036D01*
Y-65750D01*
Y-65464D01*
Y-65177D01*
Y-64891D01*
Y-64605D01*
Y-64318D01*
Y-64032D01*
X1055727D01*
Y-63746D01*
X1069470D01*
Y-64032D01*
Y-64318D01*
Y-64605D01*
Y-64891D01*
Y-65177D01*
Y-65464D01*
Y-65750D01*
Y-66036D01*
Y-66322D01*
Y-66609D01*
Y-66895D01*
Y-67181D01*
Y-67468D01*
Y-67754D01*
X1069757D01*
Y-68040D01*
Y-68327D01*
Y-68613D01*
Y-68899D01*
Y-69186D01*
Y-69472D01*
Y-69758D01*
Y-70044D01*
Y-70331D01*
Y-70617D01*
Y-70903D01*
Y-71190D01*
Y-71476D01*
Y-71762D01*
Y-72049D01*
Y-72335D01*
Y-72621D01*
Y-72908D01*
Y-73194D01*
Y-73480D01*
Y-73767D01*
Y-74053D01*
Y-74339D01*
Y-74625D01*
Y-74912D01*
Y-75198D01*
Y-75485D01*
Y-75771D01*
Y-76057D01*
Y-76343D01*
Y-76630D01*
Y-76916D01*
Y-77202D01*
Y-77489D01*
Y-77775D01*
Y-78061D01*
Y-78348D01*
Y-78634D01*
Y-78920D01*
Y-79207D01*
Y-79493D01*
X1070043D01*
Y-79779D01*
X1069757D01*
Y-80066D01*
Y-80352D01*
X1070043D01*
Y-80638D01*
Y-80924D01*
Y-81211D01*
Y-81497D01*
Y-81783D01*
Y-82070D01*
Y-82356D01*
Y-82642D01*
Y-82929D01*
Y-83215D01*
Y-83501D01*
Y-83788D01*
Y-84074D01*
Y-84360D01*
Y-84646D01*
Y-84933D01*
Y-85219D01*
Y-85505D01*
Y-85792D01*
Y-86078D01*
Y-86364D01*
Y-86651D01*
Y-86937D01*
Y-87223D01*
Y-87510D01*
Y-87796D01*
X1070329D01*
Y-88082D01*
Y-88369D01*
Y-88655D01*
X1070615D01*
Y-88941D01*
X1070902D01*
Y-89227D01*
X1071188D01*
Y-89514D01*
X1072047D01*
Y-89800D01*
X1072906D01*
Y-89514D01*
X1073192D01*
Y-89227D01*
Y-88941D01*
Y-88655D01*
X1073479D01*
Y-88369D01*
Y-88082D01*
X1073765D01*
Y-87796D01*
Y-87510D01*
Y-87223D01*
X1074051D01*
Y-86937D01*
Y-86651D01*
Y-86364D01*
X1074338D01*
Y-86078D01*
Y-85792D01*
Y-85505D01*
X1074624D01*
Y-85219D01*
Y-84933D01*
Y-84646D01*
X1074910D01*
Y-84360D01*
Y-84074D01*
X1075196D01*
Y-83788D01*
Y-83501D01*
Y-83215D01*
X1075483D01*
Y-82929D01*
Y-82642D01*
Y-82356D01*
X1075769D01*
Y-82070D01*
Y-81783D01*
Y-81497D01*
X1076056D01*
Y-81211D01*
Y-80924D01*
X1076342D01*
Y-80638D01*
Y-80352D01*
Y-80066D01*
X1076628D01*
Y-79779D01*
Y-79493D01*
Y-79207D01*
X1076914D01*
Y-78920D01*
Y-78634D01*
Y-78348D01*
X1077201D01*
Y-78061D01*
Y-77775D01*
X1077487D01*
Y-77489D01*
Y-77202D01*
Y-76916D01*
X1077773D01*
Y-76630D01*
Y-76343D01*
Y-76057D01*
X1078060D01*
Y-75771D01*
Y-75485D01*
Y-75198D01*
X1078346D01*
Y-74912D01*
Y-74625D01*
X1078632D01*
Y-74339D01*
Y-74053D01*
Y-73767D01*
X1078919D01*
Y-73480D01*
Y-73194D01*
Y-72908D01*
X1079205D01*
Y-72621D01*
Y-72335D01*
Y-72049D01*
X1079491D01*
Y-71762D01*
Y-71476D01*
Y-71190D01*
Y-70903D01*
X1079778D01*
Y-70617D01*
Y-70331D01*
Y-70044D01*
Y-69758D01*
X1080064D01*
Y-69472D01*
Y-69186D01*
Y-68899D01*
Y-68613D01*
Y-68327D01*
X1080350D01*
Y-68040D01*
Y-67754D01*
Y-67468D01*
Y-67181D01*
Y-66895D01*
Y-66609D01*
X1080637D01*
Y-66322D01*
Y-66036D01*
Y-65750D01*
Y-65464D01*
Y-65177D01*
Y-64891D01*
Y-64605D01*
Y-64318D01*
Y-64032D01*
Y-63746D01*
X1093521D01*
Y-64032D01*
D02*
G37*
G36*
X1035685Y-46567D02*
Y-46853D01*
X1035399D01*
Y-47139D01*
Y-47426D01*
Y-47712D01*
Y-47998D01*
Y-48285D01*
Y-48571D01*
X1035113D01*
Y-48857D01*
Y-49144D01*
Y-49430D01*
Y-49716D01*
Y-50003D01*
Y-50289D01*
X1034826D01*
Y-50575D01*
Y-50862D01*
Y-51148D01*
Y-51434D01*
Y-51720D01*
Y-52007D01*
Y-52293D01*
X1034540D01*
Y-52579D01*
Y-52866D01*
Y-53152D01*
Y-53438D01*
Y-53725D01*
Y-54011D01*
X1034254D01*
Y-54297D01*
Y-54584D01*
Y-54870D01*
Y-55156D01*
Y-55443D01*
Y-55729D01*
X1033967D01*
Y-56015D01*
Y-56301D01*
Y-56588D01*
Y-56874D01*
Y-57161D01*
Y-57447D01*
Y-57733D01*
X1033681D01*
Y-58019D01*
Y-58306D01*
Y-58592D01*
Y-58878D01*
Y-59165D01*
Y-59451D01*
X1033395D01*
Y-59737D01*
Y-60024D01*
Y-60310D01*
Y-60596D01*
Y-60883D01*
Y-61169D01*
X1033109D01*
Y-61455D01*
Y-61742D01*
Y-62028D01*
Y-62314D01*
Y-62600D01*
Y-62887D01*
X1032822D01*
Y-63173D01*
Y-63459D01*
Y-63746D01*
Y-64032D01*
Y-64318D01*
Y-64605D01*
Y-64891D01*
X1032536D01*
Y-65177D01*
Y-65464D01*
Y-65750D01*
Y-66036D01*
Y-66322D01*
Y-66609D01*
X1032250D01*
Y-66895D01*
Y-67181D01*
X1032822D01*
Y-66895D01*
X1033109D01*
Y-66609D01*
X1033395D01*
Y-66322D01*
X1033967D01*
Y-66036D01*
X1034254D01*
Y-65750D01*
X1034540D01*
Y-65464D01*
X1035113D01*
Y-65177D01*
X1035685D01*
Y-64891D01*
X1035972D01*
Y-64605D01*
X1036544D01*
Y-64318D01*
X1037403D01*
Y-64032D01*
X1037976D01*
Y-63746D01*
X1038835D01*
Y-63459D01*
X1040266D01*
Y-63173D01*
X1046565D01*
Y-63459D01*
X1047711D01*
Y-63746D01*
X1048569D01*
Y-64032D01*
X1049142D01*
Y-64318D01*
X1049428D01*
Y-64605D01*
X1050001D01*
Y-64891D01*
X1050287D01*
Y-65177D01*
X1050574D01*
Y-65464D01*
X1050860D01*
Y-65750D01*
X1051146D01*
Y-66036D01*
Y-66322D01*
X1051433D01*
Y-66609D01*
Y-66895D01*
X1051719D01*
Y-67181D01*
Y-67468D01*
Y-67754D01*
X1052005D01*
Y-68040D01*
Y-68327D01*
Y-68613D01*
Y-68899D01*
X1052291D01*
Y-69186D01*
Y-69472D01*
Y-69758D01*
Y-70044D01*
Y-70331D01*
Y-70617D01*
Y-70903D01*
Y-71190D01*
Y-71476D01*
Y-71762D01*
Y-72049D01*
Y-72335D01*
Y-72621D01*
Y-72908D01*
Y-73194D01*
Y-73480D01*
Y-73767D01*
Y-74053D01*
X1052005D01*
Y-74339D01*
Y-74625D01*
Y-74912D01*
Y-75198D01*
Y-75485D01*
Y-75771D01*
Y-76057D01*
X1051719D01*
Y-76343D01*
Y-76630D01*
Y-76916D01*
Y-77202D01*
Y-77489D01*
Y-77775D01*
Y-78061D01*
X1051433D01*
Y-78348D01*
Y-78634D01*
Y-78920D01*
Y-79207D01*
Y-79493D01*
Y-79779D01*
X1051146D01*
Y-80066D01*
Y-80352D01*
Y-80638D01*
Y-80924D01*
Y-81211D01*
Y-81497D01*
X1050860D01*
Y-81783D01*
Y-82070D01*
Y-82356D01*
Y-82642D01*
Y-82929D01*
Y-83215D01*
X1050574D01*
Y-83501D01*
Y-83788D01*
Y-84074D01*
Y-84360D01*
Y-84646D01*
Y-84933D01*
Y-85219D01*
X1050287D01*
Y-85505D01*
Y-85792D01*
Y-86078D01*
Y-86364D01*
Y-86651D01*
Y-86937D01*
X1050001D01*
Y-87223D01*
Y-87510D01*
Y-87796D01*
Y-88082D01*
Y-88369D01*
Y-88655D01*
X1049715D01*
Y-88941D01*
Y-89227D01*
Y-89514D01*
Y-89800D01*
Y-90086D01*
Y-90373D01*
Y-90659D01*
X1049428D01*
Y-90945D01*
Y-91232D01*
Y-91518D01*
Y-91804D01*
Y-92091D01*
Y-92377D01*
X1049142D01*
Y-92663D01*
Y-92950D01*
Y-93236D01*
Y-93522D01*
Y-93809D01*
Y-94095D01*
X1048856D01*
Y-94381D01*
Y-94667D01*
Y-94954D01*
Y-95240D01*
Y-95526D01*
Y-95813D01*
X1048569D01*
Y-96099D01*
Y-96385D01*
Y-96672D01*
Y-96958D01*
Y-97244D01*
Y-97531D01*
Y-97817D01*
X1048283D01*
Y-98103D01*
Y-98390D01*
Y-98676D01*
Y-98962D01*
Y-99248D01*
Y-99535D01*
X1047997D01*
Y-99821D01*
Y-100107D01*
X1034826D01*
Y-99821D01*
Y-99535D01*
X1035113D01*
Y-99248D01*
Y-98962D01*
Y-98676D01*
Y-98390D01*
Y-98103D01*
Y-97817D01*
X1035399D01*
Y-97531D01*
Y-97244D01*
Y-96958D01*
Y-96672D01*
Y-96385D01*
Y-96099D01*
Y-95813D01*
X1035685D01*
Y-95526D01*
Y-95240D01*
Y-94954D01*
Y-94667D01*
Y-94381D01*
Y-94095D01*
X1035972D01*
Y-93809D01*
Y-93522D01*
Y-93236D01*
Y-92950D01*
Y-92663D01*
Y-92377D01*
X1036258D01*
Y-92091D01*
Y-91804D01*
Y-91518D01*
Y-91232D01*
Y-90945D01*
Y-90659D01*
Y-90373D01*
X1036544D01*
Y-90086D01*
Y-89800D01*
Y-89514D01*
Y-89227D01*
Y-88941D01*
Y-88655D01*
X1036831D01*
Y-88369D01*
Y-88082D01*
Y-87796D01*
Y-87510D01*
Y-87223D01*
Y-86937D01*
Y-86651D01*
X1037117D01*
Y-86364D01*
Y-86078D01*
Y-85792D01*
Y-85505D01*
Y-85219D01*
Y-84933D01*
X1037403D01*
Y-84646D01*
Y-84360D01*
Y-84074D01*
Y-83788D01*
Y-83501D01*
Y-83215D01*
X1037689D01*
Y-82929D01*
Y-82642D01*
Y-82356D01*
Y-82070D01*
Y-81783D01*
Y-81497D01*
X1037976D01*
Y-81211D01*
Y-80924D01*
Y-80638D01*
Y-80352D01*
Y-80066D01*
Y-79779D01*
Y-79493D01*
X1038262D01*
Y-79207D01*
Y-78920D01*
Y-78634D01*
Y-78348D01*
Y-78061D01*
Y-77775D01*
X1038548D01*
Y-77489D01*
Y-77202D01*
Y-76916D01*
Y-76630D01*
Y-76343D01*
Y-76057D01*
Y-75771D01*
X1038835D01*
Y-75485D01*
Y-75198D01*
Y-74912D01*
Y-74625D01*
Y-74339D01*
Y-74053D01*
X1038548D01*
Y-73767D01*
Y-73480D01*
X1038262D01*
Y-73194D01*
X1037976D01*
Y-72908D01*
X1037403D01*
Y-72621D01*
X1035685D01*
Y-72908D01*
X1034254D01*
Y-73194D01*
X1033395D01*
Y-73480D01*
X1032822D01*
Y-73767D01*
X1032536D01*
Y-74053D01*
X1031963D01*
Y-74339D01*
X1031677D01*
Y-74625D01*
X1031391D01*
Y-74912D01*
Y-75198D01*
X1031104D01*
Y-75485D01*
Y-75771D01*
Y-76057D01*
X1030818D01*
Y-76343D01*
Y-76630D01*
Y-76916D01*
Y-77202D01*
Y-77489D01*
Y-77775D01*
X1030532D01*
Y-78061D01*
Y-78348D01*
Y-78634D01*
Y-78920D01*
Y-79207D01*
Y-79493D01*
Y-79779D01*
X1030245D01*
Y-80066D01*
Y-80352D01*
Y-80638D01*
Y-80924D01*
Y-81211D01*
Y-81497D01*
X1029959D01*
Y-81783D01*
Y-82070D01*
Y-82356D01*
Y-82642D01*
Y-82929D01*
Y-83215D01*
X1029673D01*
Y-83501D01*
Y-83788D01*
Y-84074D01*
Y-84360D01*
Y-84646D01*
Y-84933D01*
X1029387D01*
Y-85219D01*
Y-85505D01*
Y-85792D01*
Y-86078D01*
Y-86364D01*
Y-86651D01*
Y-86937D01*
X1029100D01*
Y-87223D01*
Y-87510D01*
Y-87796D01*
Y-88082D01*
Y-88369D01*
Y-88655D01*
X1028814D01*
Y-88941D01*
Y-89227D01*
Y-89514D01*
Y-89800D01*
Y-90086D01*
Y-90373D01*
X1028528D01*
Y-90659D01*
Y-90945D01*
Y-91232D01*
Y-91518D01*
Y-91804D01*
Y-92091D01*
Y-92377D01*
X1028241D01*
Y-92663D01*
Y-92950D01*
Y-93236D01*
Y-93522D01*
Y-93809D01*
Y-94095D01*
X1027955D01*
Y-94381D01*
Y-94667D01*
Y-94954D01*
Y-95240D01*
Y-95526D01*
Y-95813D01*
X1027669D01*
Y-96099D01*
Y-96385D01*
Y-96672D01*
Y-96958D01*
Y-97244D01*
Y-97531D01*
X1027382D01*
Y-97817D01*
Y-98103D01*
Y-98390D01*
Y-98676D01*
Y-98962D01*
Y-99248D01*
Y-99535D01*
X1027096D01*
Y-99821D01*
Y-100107D01*
X1013926D01*
Y-99821D01*
Y-99535D01*
X1014212D01*
Y-99248D01*
Y-98962D01*
Y-98676D01*
Y-98390D01*
Y-98103D01*
Y-97817D01*
Y-97531D01*
X1014498D01*
Y-97244D01*
Y-96958D01*
Y-96672D01*
Y-96385D01*
Y-96099D01*
Y-95813D01*
X1014785D01*
Y-95526D01*
Y-95240D01*
Y-94954D01*
Y-94667D01*
Y-94381D01*
Y-94095D01*
X1015071D01*
Y-93809D01*
Y-93522D01*
Y-93236D01*
Y-92950D01*
Y-92663D01*
Y-92377D01*
Y-92091D01*
X1015357D01*
Y-91804D01*
Y-91518D01*
Y-91232D01*
Y-90945D01*
Y-90659D01*
Y-90373D01*
X1015643D01*
Y-90086D01*
Y-89800D01*
Y-89514D01*
Y-89227D01*
Y-88941D01*
Y-88655D01*
X1015930D01*
Y-88369D01*
Y-88082D01*
Y-87796D01*
Y-87510D01*
Y-87223D01*
Y-86937D01*
X1016216D01*
Y-86651D01*
Y-86364D01*
Y-86078D01*
Y-85792D01*
Y-85505D01*
Y-85219D01*
Y-84933D01*
X1016502D01*
Y-84646D01*
Y-84360D01*
Y-84074D01*
Y-83788D01*
Y-83501D01*
Y-83215D01*
X1016789D01*
Y-82929D01*
Y-82642D01*
Y-82356D01*
Y-82070D01*
Y-81783D01*
Y-81497D01*
X1017075D01*
Y-81211D01*
Y-80924D01*
Y-80638D01*
Y-80352D01*
Y-80066D01*
Y-79779D01*
Y-79493D01*
X1017361D01*
Y-79207D01*
Y-78920D01*
Y-78634D01*
Y-78348D01*
Y-78061D01*
Y-77775D01*
X1017648D01*
Y-77489D01*
Y-77202D01*
Y-76916D01*
Y-76630D01*
Y-76343D01*
Y-76057D01*
X1017934D01*
Y-75771D01*
Y-75485D01*
Y-75198D01*
Y-74912D01*
Y-74625D01*
Y-74339D01*
X1018220D01*
Y-74053D01*
Y-73767D01*
Y-73480D01*
Y-73194D01*
Y-72908D01*
Y-72621D01*
Y-72335D01*
X1018507D01*
Y-72049D01*
Y-71762D01*
Y-71476D01*
Y-71190D01*
Y-70903D01*
Y-70617D01*
X1018793D01*
Y-70331D01*
Y-70044D01*
Y-69758D01*
Y-69472D01*
Y-69186D01*
Y-68899D01*
X1019079D01*
Y-68613D01*
Y-68327D01*
Y-68040D01*
Y-67754D01*
Y-67468D01*
Y-67181D01*
X1019366D01*
Y-66895D01*
Y-66609D01*
Y-66322D01*
Y-66036D01*
Y-65750D01*
Y-65464D01*
Y-65177D01*
X1019652D01*
Y-64891D01*
Y-64605D01*
Y-64318D01*
Y-64032D01*
Y-63746D01*
Y-63459D01*
X1019938D01*
Y-63173D01*
Y-62887D01*
Y-62600D01*
Y-62314D01*
Y-62028D01*
Y-61742D01*
X1020224D01*
Y-61455D01*
Y-61169D01*
Y-60883D01*
Y-60596D01*
Y-60310D01*
Y-60024D01*
Y-59737D01*
X1020511D01*
Y-59451D01*
Y-59165D01*
Y-58878D01*
Y-58592D01*
Y-58306D01*
Y-58019D01*
X1020797D01*
Y-57733D01*
Y-57447D01*
Y-57161D01*
Y-56874D01*
Y-56588D01*
Y-56301D01*
X1021083D01*
Y-56015D01*
Y-55729D01*
Y-55443D01*
Y-55156D01*
Y-54870D01*
Y-54584D01*
X1021370D01*
Y-54297D01*
Y-54011D01*
Y-53725D01*
Y-53438D01*
Y-53152D01*
Y-52866D01*
Y-52579D01*
X1021656D01*
Y-52293D01*
Y-52007D01*
Y-51720D01*
Y-51434D01*
Y-51148D01*
Y-50862D01*
X1021942D01*
Y-50575D01*
Y-50289D01*
Y-50003D01*
Y-49716D01*
Y-49430D01*
Y-49144D01*
X1022229D01*
Y-48857D01*
Y-48571D01*
Y-48285D01*
Y-47998D01*
Y-47712D01*
Y-47426D01*
Y-47139D01*
X1022515D01*
Y-46853D01*
Y-46567D01*
Y-46281D01*
X1035685D01*
Y-46567D01*
D02*
G37*
G36*
X1004477Y-50003D02*
X1006195D01*
Y-50289D01*
X1007054D01*
Y-50575D01*
X1007913D01*
Y-50862D01*
X1008772D01*
Y-51148D01*
X1009345D01*
Y-51434D01*
X1009631D01*
Y-51720D01*
X1010203D01*
Y-52007D01*
X1010490D01*
Y-52293D01*
X1011062D01*
Y-52579D01*
X1011349D01*
Y-52866D01*
X1011635D01*
Y-53152D01*
X1011921D01*
Y-53438D01*
X1012208D01*
Y-53725D01*
X1012494D01*
Y-54011D01*
X1012780D01*
Y-54297D01*
Y-54584D01*
X1013067D01*
Y-54870D01*
X1013353D01*
Y-55156D01*
Y-55443D01*
X1013639D01*
Y-55729D01*
X1013926D01*
Y-56015D01*
Y-56301D01*
X1014212D01*
Y-56588D01*
Y-56874D01*
Y-57161D01*
X1014498D01*
Y-57447D01*
Y-57733D01*
Y-58019D01*
X1014785D01*
Y-58306D01*
Y-58592D01*
Y-58878D01*
Y-59165D01*
X1015071D01*
Y-59451D01*
Y-59737D01*
Y-60024D01*
Y-60310D01*
Y-60596D01*
X1015357D01*
Y-60883D01*
Y-61169D01*
Y-61455D01*
Y-61742D01*
Y-62028D01*
Y-62314D01*
Y-62600D01*
Y-62887D01*
Y-63173D01*
Y-63459D01*
Y-63746D01*
Y-64032D01*
Y-64318D01*
Y-64605D01*
Y-64891D01*
Y-65177D01*
Y-65464D01*
Y-65750D01*
Y-66036D01*
Y-66322D01*
X1015071D01*
Y-66609D01*
Y-66895D01*
Y-67181D01*
Y-67468D01*
Y-67754D01*
Y-68040D01*
Y-68327D01*
X1014785D01*
Y-68613D01*
Y-68899D01*
Y-69186D01*
Y-69472D01*
Y-69758D01*
X1014498D01*
Y-70044D01*
Y-70331D01*
Y-70617D01*
Y-70903D01*
Y-71190D01*
X1014212D01*
Y-71476D01*
Y-71762D01*
Y-72049D01*
X1013926D01*
Y-72335D01*
Y-72621D01*
Y-72908D01*
Y-73194D01*
X1013639D01*
Y-73480D01*
Y-73767D01*
Y-74053D01*
X1013353D01*
Y-74339D01*
Y-74625D01*
X1013067D01*
Y-74912D01*
Y-75198D01*
Y-75485D01*
X1012780D01*
Y-75771D01*
Y-76057D01*
X1012494D01*
Y-76343D01*
Y-76630D01*
X1012208D01*
Y-76916D01*
Y-77202D01*
X1011921D01*
Y-77489D01*
X1011635D01*
Y-77775D01*
Y-78061D01*
X1011349D01*
Y-78348D01*
X1011062D01*
Y-78634D01*
X1010776D01*
Y-78920D01*
Y-79207D01*
X1010490D01*
Y-79493D01*
X1010203D01*
Y-79779D01*
X1009917D01*
Y-80066D01*
X1009631D01*
Y-80352D01*
X1009345D01*
Y-80638D01*
X1008772D01*
Y-80924D01*
X1008486D01*
Y-81211D01*
X1007913D01*
Y-81497D01*
X1007627D01*
Y-81783D01*
X1007054D01*
Y-82070D01*
X1006195D01*
Y-82356D01*
X1005336D01*
Y-82642D01*
X1004477D01*
Y-82929D01*
X1002759D01*
Y-83215D01*
X997606D01*
Y-82929D01*
X995029D01*
Y-82642D01*
X993025D01*
Y-82356D01*
X991593D01*
Y-82070D01*
X990162D01*
Y-81783D01*
X988730D01*
Y-82070D01*
Y-82356D01*
Y-82642D01*
Y-82929D01*
Y-83215D01*
Y-83501D01*
Y-83788D01*
X988444D01*
Y-84074D01*
Y-84360D01*
Y-84646D01*
Y-84933D01*
Y-85219D01*
Y-85505D01*
X988157D01*
Y-85792D01*
Y-86078D01*
Y-86364D01*
Y-86651D01*
Y-86937D01*
Y-87223D01*
X987871D01*
Y-87510D01*
Y-87796D01*
Y-88082D01*
Y-88369D01*
Y-88655D01*
Y-88941D01*
Y-89227D01*
X987585D01*
Y-89514D01*
Y-89800D01*
Y-90086D01*
Y-90373D01*
Y-90659D01*
Y-90945D01*
X987298D01*
Y-91232D01*
Y-91518D01*
Y-91804D01*
Y-92091D01*
Y-92377D01*
Y-92663D01*
X987012D01*
Y-92950D01*
Y-93236D01*
Y-93522D01*
Y-93809D01*
Y-94095D01*
Y-94381D01*
Y-94667D01*
X986726D01*
Y-94954D01*
Y-95240D01*
Y-95526D01*
Y-95813D01*
Y-96099D01*
Y-96385D01*
X986440D01*
Y-96672D01*
Y-96958D01*
Y-97244D01*
Y-97531D01*
Y-97817D01*
Y-98103D01*
X986153D01*
Y-98390D01*
Y-98676D01*
Y-98962D01*
Y-99248D01*
Y-99535D01*
Y-99821D01*
Y-100107D01*
X972696D01*
Y-99821D01*
X972983D01*
Y-99535D01*
Y-99248D01*
Y-98962D01*
Y-98676D01*
Y-98390D01*
X973269D01*
Y-98103D01*
Y-97817D01*
Y-97531D01*
Y-97244D01*
Y-96958D01*
Y-96672D01*
Y-96385D01*
X973555D01*
Y-96099D01*
Y-95813D01*
Y-95526D01*
Y-95240D01*
Y-94954D01*
Y-94667D01*
X973842D01*
Y-94381D01*
Y-94095D01*
Y-93809D01*
Y-93522D01*
Y-93236D01*
Y-92950D01*
X974128D01*
Y-92663D01*
Y-92377D01*
Y-92091D01*
Y-91804D01*
Y-91518D01*
Y-91232D01*
Y-90945D01*
X974414D01*
Y-90659D01*
Y-90373D01*
Y-90086D01*
Y-89800D01*
Y-89514D01*
Y-89227D01*
X974701D01*
Y-88941D01*
Y-88655D01*
Y-88369D01*
Y-88082D01*
Y-87796D01*
Y-87510D01*
X974987D01*
Y-87223D01*
Y-86937D01*
Y-86651D01*
Y-86364D01*
Y-86078D01*
Y-85792D01*
X975273D01*
Y-85505D01*
Y-85219D01*
Y-84933D01*
Y-84646D01*
Y-84360D01*
Y-84074D01*
Y-83788D01*
X975560D01*
Y-83501D01*
Y-83215D01*
Y-82929D01*
Y-82642D01*
Y-82356D01*
Y-82070D01*
X975846D01*
Y-81783D01*
Y-81497D01*
Y-81211D01*
Y-80924D01*
Y-80638D01*
Y-80352D01*
X976132D01*
Y-80066D01*
Y-79779D01*
Y-79493D01*
Y-79207D01*
Y-78920D01*
Y-78634D01*
X976419D01*
Y-78348D01*
Y-78061D01*
Y-77775D01*
Y-77489D01*
Y-77202D01*
Y-76916D01*
Y-76630D01*
X976705D01*
Y-76343D01*
Y-76057D01*
Y-75771D01*
Y-75485D01*
Y-75198D01*
Y-74912D01*
X976991D01*
Y-74625D01*
Y-74339D01*
Y-74053D01*
Y-73767D01*
Y-73480D01*
Y-73194D01*
X977277D01*
Y-72908D01*
Y-72621D01*
Y-72335D01*
Y-72049D01*
Y-71762D01*
Y-71476D01*
Y-71190D01*
X977564D01*
Y-70903D01*
Y-70617D01*
Y-70331D01*
Y-70044D01*
Y-69758D01*
Y-69472D01*
X977850D01*
Y-69186D01*
Y-68899D01*
Y-68613D01*
Y-68327D01*
Y-68040D01*
Y-67754D01*
X978137D01*
Y-67468D01*
Y-67181D01*
Y-66895D01*
Y-66609D01*
Y-66322D01*
Y-66036D01*
X978423D01*
Y-65750D01*
Y-65464D01*
Y-65177D01*
Y-64891D01*
Y-64605D01*
Y-64318D01*
Y-64032D01*
X978709D01*
Y-63746D01*
Y-63459D01*
Y-63173D01*
Y-62887D01*
Y-62600D01*
Y-62314D01*
X978995D01*
Y-62028D01*
Y-61742D01*
Y-61455D01*
Y-61169D01*
Y-60883D01*
Y-60596D01*
X979282D01*
Y-60310D01*
Y-60024D01*
Y-59737D01*
Y-59451D01*
Y-59165D01*
Y-58878D01*
Y-58592D01*
X979568D01*
Y-58306D01*
Y-58019D01*
Y-57733D01*
Y-57447D01*
Y-57161D01*
Y-56874D01*
X979854D01*
Y-56588D01*
Y-56301D01*
Y-56015D01*
Y-55729D01*
Y-55443D01*
Y-55156D01*
X980141D01*
Y-54870D01*
Y-54584D01*
Y-54297D01*
Y-54011D01*
Y-53725D01*
Y-53438D01*
Y-53152D01*
X980427D01*
Y-52866D01*
Y-52579D01*
Y-52293D01*
Y-52007D01*
Y-51720D01*
Y-51434D01*
X980713D01*
Y-51148D01*
Y-50862D01*
Y-50575D01*
Y-50289D01*
Y-50003D01*
Y-49716D01*
X1004477D01*
Y-50003D01*
D02*
G37*
G36*
X1137613Y-64032D02*
X1137326D01*
Y-64318D01*
X1137040D01*
Y-64605D01*
Y-64891D01*
X1136754D01*
Y-65177D01*
X1136467D01*
Y-65464D01*
X1136181D01*
Y-65750D01*
Y-66036D01*
X1135895D01*
Y-66322D01*
X1135608D01*
Y-66609D01*
X1135322D01*
Y-66895D01*
X1135036D01*
Y-67181D01*
Y-67468D01*
X1134750D01*
Y-67754D01*
X1134463D01*
Y-68040D01*
X1134177D01*
Y-68327D01*
Y-68613D01*
X1133891D01*
Y-68899D01*
X1133604D01*
Y-69186D01*
X1133318D01*
Y-69472D01*
X1133032D01*
Y-69758D01*
Y-70044D01*
X1132745D01*
Y-70331D01*
X1132459D01*
Y-70617D01*
X1132173D01*
Y-70903D01*
Y-71190D01*
X1131886D01*
Y-71476D01*
X1131600D01*
Y-71762D01*
X1131314D01*
Y-72049D01*
Y-72335D01*
X1131028D01*
Y-72621D01*
X1130741D01*
Y-72908D01*
X1130455D01*
Y-73194D01*
X1130169D01*
Y-73480D01*
Y-73767D01*
X1129882D01*
Y-74053D01*
X1129596D01*
Y-74339D01*
X1129310D01*
Y-74625D01*
Y-74912D01*
X1129023D01*
Y-75198D01*
X1128737D01*
Y-75485D01*
X1128451D01*
Y-75771D01*
Y-76057D01*
X1128164D01*
Y-76343D01*
X1127878D01*
Y-76630D01*
X1127592D01*
Y-76916D01*
X1127306D01*
Y-77202D01*
Y-77489D01*
X1127019D01*
Y-77775D01*
X1126733D01*
Y-78061D01*
X1126447D01*
Y-78348D01*
Y-78634D01*
X1126160D01*
Y-78920D01*
X1125874D01*
Y-79207D01*
X1125588D01*
Y-79493D01*
Y-79779D01*
X1125301D01*
Y-80066D01*
X1125015D01*
Y-80352D01*
X1124729D01*
Y-80638D01*
X1124442D01*
Y-80924D01*
Y-81211D01*
X1124156D01*
Y-81497D01*
X1123870D01*
Y-81783D01*
X1123583D01*
Y-82070D01*
Y-82356D01*
X1123297D01*
Y-82642D01*
X1123011D01*
Y-82929D01*
X1122725D01*
Y-83215D01*
X1122438D01*
Y-83501D01*
Y-83788D01*
X1122725D01*
Y-84074D01*
Y-84360D01*
X1123011D01*
Y-84646D01*
Y-84933D01*
X1123297D01*
Y-85219D01*
X1123583D01*
Y-85505D01*
Y-85792D01*
X1123870D01*
Y-86078D01*
Y-86364D01*
X1124156D01*
Y-86651D01*
Y-86937D01*
X1124442D01*
Y-87223D01*
Y-87510D01*
X1124729D01*
Y-87796D01*
Y-88082D01*
X1125015D01*
Y-88369D01*
Y-88655D01*
X1125301D01*
Y-88941D01*
Y-89227D01*
X1125588D01*
Y-89514D01*
Y-89800D01*
X1125874D01*
Y-90086D01*
X1126160D01*
Y-90373D01*
Y-90659D01*
X1126447D01*
Y-90945D01*
Y-91232D01*
X1126733D01*
Y-91518D01*
Y-91804D01*
X1127019D01*
Y-92091D01*
Y-92377D01*
X1127306D01*
Y-92663D01*
Y-92950D01*
X1127592D01*
Y-93236D01*
Y-93522D01*
X1127878D01*
Y-93809D01*
Y-94095D01*
X1128164D01*
Y-94381D01*
X1128451D01*
Y-94667D01*
Y-94954D01*
X1128737D01*
Y-95240D01*
Y-95526D01*
X1129023D01*
Y-95813D01*
Y-96099D01*
X1129310D01*
Y-96385D01*
Y-96672D01*
X1129596D01*
Y-96958D01*
Y-97244D01*
X1129882D01*
Y-97531D01*
Y-97817D01*
X1130169D01*
Y-98103D01*
Y-98390D01*
X1130455D01*
Y-98676D01*
X1130741D01*
Y-98962D01*
Y-99248D01*
X1131028D01*
Y-99535D01*
Y-99821D01*
X1131314D01*
Y-100107D01*
X1116139D01*
Y-99821D01*
X1115853D01*
Y-99535D01*
Y-99248D01*
Y-98962D01*
X1115567D01*
Y-98676D01*
Y-98390D01*
Y-98103D01*
X1115280D01*
Y-97817D01*
Y-97531D01*
X1114994D01*
Y-97244D01*
Y-96958D01*
Y-96672D01*
X1114708D01*
Y-96385D01*
Y-96099D01*
Y-95813D01*
X1114421D01*
Y-95526D01*
Y-95240D01*
X1114135D01*
Y-94954D01*
Y-94667D01*
Y-94381D01*
X1113849D01*
Y-94095D01*
Y-93809D01*
Y-93522D01*
X1113562D01*
Y-93236D01*
Y-92950D01*
Y-92663D01*
X1113276D01*
Y-92377D01*
X1112704D01*
Y-92663D01*
Y-92950D01*
X1112417D01*
Y-93236D01*
X1112131D01*
Y-93522D01*
Y-93809D01*
X1111845D01*
Y-94095D01*
X1111558D01*
Y-94381D01*
Y-94667D01*
X1111272D01*
Y-94954D01*
X1110986D01*
Y-95240D01*
Y-95526D01*
X1110699D01*
Y-95813D01*
X1110413D01*
Y-96099D01*
X1110127D01*
Y-96385D01*
Y-96672D01*
X1109840D01*
Y-96958D01*
X1109554D01*
Y-97244D01*
Y-97531D01*
X1109268D01*
Y-97817D01*
X1108981D01*
Y-98103D01*
Y-98390D01*
X1108695D01*
Y-98676D01*
X1108409D01*
Y-98962D01*
Y-99248D01*
X1108123D01*
Y-99535D01*
X1107836D01*
Y-99821D01*
Y-100107D01*
X1091803D01*
Y-99821D01*
X1092089D01*
Y-99535D01*
X1092375D01*
Y-99248D01*
X1092662D01*
Y-98962D01*
X1092948D01*
Y-98676D01*
Y-98390D01*
X1093234D01*
Y-98103D01*
X1093521D01*
Y-97817D01*
X1093807D01*
Y-97531D01*
X1094093D01*
Y-97244D01*
Y-96958D01*
X1094380D01*
Y-96672D01*
X1094666D01*
Y-96385D01*
X1094952D01*
Y-96099D01*
Y-95813D01*
X1095238D01*
Y-95526D01*
X1095525D01*
Y-95240D01*
X1095811D01*
Y-94954D01*
X1096097D01*
Y-94667D01*
Y-94381D01*
X1096384D01*
Y-94095D01*
X1096670D01*
Y-93809D01*
X1096956D01*
Y-93522D01*
X1097243D01*
Y-93236D01*
Y-92950D01*
X1097529D01*
Y-92663D01*
X1097815D01*
Y-92377D01*
X1098102D01*
Y-92091D01*
Y-91804D01*
X1098388D01*
Y-91518D01*
X1098674D01*
Y-91232D01*
X1098960D01*
Y-90945D01*
X1099247D01*
Y-90659D01*
Y-90373D01*
X1099533D01*
Y-90086D01*
X1099819D01*
Y-89800D01*
X1100106D01*
Y-89514D01*
Y-89227D01*
X1100392D01*
Y-88941D01*
X1100678D01*
Y-88655D01*
X1100965D01*
Y-88369D01*
X1101251D01*
Y-88082D01*
Y-87796D01*
X1101537D01*
Y-87510D01*
X1101824D01*
Y-87223D01*
X1102110D01*
Y-86937D01*
Y-86651D01*
X1102396D01*
Y-86364D01*
X1102683D01*
Y-86078D01*
X1102969D01*
Y-85792D01*
X1103255D01*
Y-85505D01*
Y-85219D01*
X1103541D01*
Y-84933D01*
X1103828D01*
Y-84646D01*
X1104114D01*
Y-84360D01*
X1104400D01*
Y-84074D01*
Y-83788D01*
X1104687D01*
Y-83501D01*
X1104973D01*
Y-83215D01*
X1105259D01*
Y-82929D01*
Y-82642D01*
X1105546D01*
Y-82356D01*
X1105832D01*
Y-82070D01*
X1106118D01*
Y-81783D01*
X1106405D01*
Y-81497D01*
Y-81211D01*
X1106691D01*
Y-80924D01*
Y-80638D01*
Y-80352D01*
X1106405D01*
Y-80066D01*
X1106118D01*
Y-79779D01*
Y-79493D01*
X1105832D01*
Y-79207D01*
Y-78920D01*
X1105546D01*
Y-78634D01*
Y-78348D01*
X1105259D01*
Y-78061D01*
Y-77775D01*
X1104973D01*
Y-77489D01*
Y-77202D01*
X1104687D01*
Y-76916D01*
Y-76630D01*
X1104400D01*
Y-76343D01*
X1104114D01*
Y-76057D01*
Y-75771D01*
X1103828D01*
Y-75485D01*
Y-75198D01*
X1103541D01*
Y-74912D01*
Y-74625D01*
X1103255D01*
Y-74339D01*
Y-74053D01*
X1102969D01*
Y-73767D01*
Y-73480D01*
X1102683D01*
Y-73194D01*
Y-72908D01*
X1102396D01*
Y-72621D01*
X1102110D01*
Y-72335D01*
Y-72049D01*
X1101824D01*
Y-71762D01*
Y-71476D01*
X1101537D01*
Y-71190D01*
Y-70903D01*
X1101251D01*
Y-70617D01*
Y-70331D01*
X1100965D01*
Y-70044D01*
Y-69758D01*
X1100678D01*
Y-69472D01*
Y-69186D01*
X1100392D01*
Y-68899D01*
Y-68613D01*
X1100106D01*
Y-68327D01*
X1099819D01*
Y-68040D01*
Y-67754D01*
X1099533D01*
Y-67468D01*
Y-67181D01*
X1099247D01*
Y-66895D01*
Y-66609D01*
X1098960D01*
Y-66322D01*
Y-66036D01*
X1098674D01*
Y-65750D01*
Y-65464D01*
X1098388D01*
Y-65177D01*
Y-64891D01*
X1098102D01*
Y-64605D01*
X1097815D01*
Y-64318D01*
Y-64032D01*
X1097529D01*
Y-63746D01*
X1113276D01*
Y-64032D01*
X1113562D01*
Y-64318D01*
Y-64605D01*
Y-64891D01*
X1113849D01*
Y-65177D01*
Y-65464D01*
Y-65750D01*
X1114135D01*
Y-66036D01*
Y-66322D01*
Y-66609D01*
X1114421D01*
Y-66895D01*
Y-67181D01*
Y-67468D01*
X1114708D01*
Y-67754D01*
Y-68040D01*
Y-68327D01*
X1114994D01*
Y-68613D01*
Y-68899D01*
Y-69186D01*
X1115280D01*
Y-69472D01*
Y-69758D01*
Y-70044D01*
X1115567D01*
Y-70331D01*
Y-70617D01*
Y-70903D01*
X1115853D01*
Y-71190D01*
Y-71476D01*
Y-71762D01*
Y-72049D01*
X1116426D01*
Y-71762D01*
X1116712D01*
Y-71476D01*
X1116998D01*
Y-71190D01*
Y-70903D01*
X1117284D01*
Y-70617D01*
X1117571D01*
Y-70331D01*
Y-70044D01*
X1117857D01*
Y-69758D01*
X1118143D01*
Y-69472D01*
Y-69186D01*
X1118430D01*
Y-68899D01*
X1118716D01*
Y-68613D01*
Y-68327D01*
X1119002D01*
Y-68040D01*
X1119289D01*
Y-67754D01*
Y-67468D01*
X1119575D01*
Y-67181D01*
X1119861D01*
Y-66895D01*
Y-66609D01*
X1120148D01*
Y-66322D01*
X1120434D01*
Y-66036D01*
Y-65750D01*
X1120720D01*
Y-65464D01*
X1121007D01*
Y-65177D01*
Y-64891D01*
X1121293D01*
Y-64605D01*
X1121579D01*
Y-64318D01*
Y-64032D01*
X1121865D01*
Y-63746D01*
X1137613D01*
Y-64032D01*
D02*
G37*
%LPC*%
G36*
X1000183Y-60883D02*
X992166D01*
Y-61169D01*
Y-61455D01*
Y-61742D01*
Y-62028D01*
Y-62314D01*
X991879D01*
Y-62600D01*
Y-62887D01*
Y-63173D01*
Y-63459D01*
Y-63746D01*
Y-64032D01*
X991593D01*
Y-64318D01*
Y-64605D01*
Y-64891D01*
Y-65177D01*
Y-65464D01*
Y-65750D01*
X991307D01*
Y-66036D01*
Y-66322D01*
Y-66609D01*
Y-66895D01*
Y-67181D01*
Y-67468D01*
X991020D01*
Y-67754D01*
Y-68040D01*
Y-68327D01*
Y-68613D01*
Y-68899D01*
Y-69186D01*
Y-69472D01*
X990734D01*
Y-69758D01*
Y-70044D01*
Y-70331D01*
Y-70617D01*
Y-70903D01*
Y-71190D01*
X990448D01*
Y-71476D01*
Y-71762D01*
Y-72049D01*
X997606D01*
Y-71762D01*
X998751D01*
Y-71476D01*
X999324D01*
Y-71190D01*
X999610D01*
Y-70903D01*
X999896D01*
Y-70617D01*
X1000183D01*
Y-70331D01*
X1000469D01*
Y-70044D01*
Y-69758D01*
X1000755D01*
Y-69472D01*
Y-69186D01*
X1001042D01*
Y-68899D01*
Y-68613D01*
X1001328D01*
Y-68327D01*
Y-68040D01*
Y-67754D01*
Y-67468D01*
X1001614D01*
Y-67181D01*
Y-66895D01*
Y-66609D01*
Y-66322D01*
Y-66036D01*
X1001900D01*
Y-65750D01*
Y-65464D01*
Y-65177D01*
Y-64891D01*
Y-64605D01*
Y-64318D01*
Y-64032D01*
Y-63746D01*
Y-63459D01*
Y-63173D01*
Y-62887D01*
X1001614D01*
Y-62600D01*
Y-62314D01*
X1001328D01*
Y-62028D01*
Y-61742D01*
X1001042D01*
Y-61455D01*
X1000755D01*
Y-61169D01*
X1000183D01*
Y-60883D01*
D02*
G37*
%LPD*%
D11*
X0Y11811D02*
G03*
X11811Y0I11811J0D01*
G01*
X381890D02*
G03*
X393701Y11811I0J11811D01*
G01*
Y224410D02*
G03*
X381890Y236221I-11811J0D01*
G01*
X11811D02*
G03*
X0Y224410I0J-11811D01*
G01*
X11811Y0D02*
X381890D01*
X393701Y11811D02*
Y224409D01*
X11811Y236221D02*
X381890D01*
X0Y11811D02*
Y224410D01*
X-224410Y-177165D02*
X1429134D01*
X-224410D02*
Y992126D01*
X1429134Y-177165D02*
Y992126D01*
X-224410D02*
X1429134D01*
X1153543Y-177165D02*
Y-19685D01*
X956693Y-177165D02*
Y-19685D01*
X1429134D01*
X956693Y-137795D02*
X1429134D01*
X1153543Y-98425D02*
X1429134D01*
X1153543Y-59055D02*
X1429134D01*
X1311024Y-137795D02*
Y-98425D01*
X1163386Y-169291D02*
X1165354D01*
X1164370D01*
Y-163388D01*
X1163386Y-164372D01*
X1172241Y-163388D02*
X1170273Y-164372D01*
X1168305Y-166340D01*
Y-168307D01*
X1169289Y-169291D01*
X1171257D01*
X1172241Y-168307D01*
Y-167324D01*
X1171257Y-166340D01*
X1168305D01*
X1178145Y-164372D02*
X1177161Y-163388D01*
X1175193D01*
X1174209Y-164372D01*
Y-168307D01*
X1175193Y-169291D01*
X1177161D01*
X1178145Y-168307D01*
X1180113Y-163388D02*
Y-169291D01*
Y-166340D01*
X1184048D01*
Y-163388D01*
Y-169291D01*
X1186016Y-170275D02*
X1189952D01*
X1191920Y-169291D02*
Y-163388D01*
X1194872D01*
X1195856Y-164372D01*
Y-166340D01*
X1194872Y-167324D01*
X1191920D01*
X1197824Y-163388D02*
Y-169291D01*
X1199791Y-167324D01*
X1201759Y-169291D01*
Y-163388D01*
X1203727Y-169291D02*
Y-163388D01*
X1205695Y-165356D01*
X1207663Y-163388D01*
Y-169291D01*
X1209631Y-170275D02*
X1213566D01*
X1215534Y-169291D02*
Y-163388D01*
X1218486D01*
X1219470Y-164372D01*
Y-166340D01*
X1218486Y-167324D01*
X1215534D01*
X1224390Y-163388D02*
X1222422D01*
X1221438Y-164372D01*
Y-168307D01*
X1222422Y-169291D01*
X1224390D01*
X1225374Y-168307D01*
Y-164372D01*
X1224390Y-163388D01*
X1227341D02*
Y-169291D01*
X1229309Y-167324D01*
X1231277Y-169291D01*
Y-163388D01*
X1237181D02*
X1233245D01*
Y-169291D01*
X1237181D01*
X1233245Y-166340D02*
X1235213D01*
X1239149Y-169291D02*
Y-163388D01*
X1242101D01*
X1243084Y-164372D01*
Y-166340D01*
X1242101Y-167324D01*
X1239149D01*
X1241117D02*
X1243084Y-169291D01*
X1245052Y-170275D02*
X1248988D01*
X1250956Y-164372D02*
X1251940Y-163388D01*
X1253908D01*
X1254892Y-164372D01*
Y-168307D01*
X1253908Y-169291D01*
X1251940D01*
X1250956Y-168307D01*
Y-164372D01*
X1256859D02*
X1257843Y-163388D01*
X1259811D01*
X1260795Y-164372D01*
Y-168307D01*
X1259811Y-169291D01*
X1257843D01*
X1256859Y-168307D01*
Y-164372D01*
X1262763Y-169291D02*
Y-168307D01*
X1263747D01*
Y-169291D01*
X1262763D01*
X1267683D02*
Y-163388D01*
X1270635D01*
X1271618Y-164372D01*
Y-166340D01*
X1270635Y-167324D01*
X1267683D01*
X1277522Y-165356D02*
X1274570D01*
X1273586Y-166340D01*
Y-168307D01*
X1274570Y-169291D01*
X1277522D01*
X1279490Y-163388D02*
Y-169291D01*
X1282442D01*
X1283426Y-168307D01*
Y-167324D01*
Y-166340D01*
X1282442Y-165356D01*
X1279490D01*
X1285394Y-163388D02*
Y-169291D01*
X1288345D01*
X1289329Y-168307D01*
Y-164372D01*
X1288345Y-163388D01*
X1285394D01*
X1292281Y-169291D02*
X1294249D01*
X1295233Y-168307D01*
Y-166340D01*
X1294249Y-165356D01*
X1292281D01*
X1291297Y-166340D01*
Y-168307D01*
X1292281Y-169291D01*
X1301136Y-165356D02*
X1298185D01*
X1297201Y-166340D01*
Y-168307D01*
X1298185Y-169291D01*
X1301136D01*
D13*
X1163386Y-53150D02*
X1168633D01*
X1166010D01*
Y-37407D01*
X1163386Y-40031D01*
X1187000Y-37407D02*
X1181753Y-40031D01*
X1176505Y-45278D01*
Y-50526D01*
X1179129Y-53150D01*
X1184376D01*
X1187000Y-50526D01*
Y-47902D01*
X1184376Y-45278D01*
X1176505D01*
X1202743Y-40031D02*
X1200119Y-37407D01*
X1194872D01*
X1192248Y-40031D01*
Y-50526D01*
X1194872Y-53150D01*
X1200119D01*
X1202743Y-50526D01*
X1207991Y-37407D02*
Y-53150D01*
Y-45278D01*
X1210615Y-42654D01*
X1215862D01*
X1218486Y-45278D01*
Y-53150D01*
X1239477D02*
Y-37407D01*
X1247348D01*
X1249972Y-40031D01*
Y-45278D01*
X1247348Y-47902D01*
X1239477D01*
X1255220Y-37407D02*
Y-53150D01*
X1260467Y-47902D01*
X1265715Y-53150D01*
Y-37407D01*
X1270963Y-53150D02*
Y-37407D01*
X1276210Y-42654D01*
X1281458Y-37407D01*
Y-53150D01*
X1302448D02*
Y-37407D01*
X1310320D01*
X1312944Y-40031D01*
Y-45278D01*
X1310320Y-47902D01*
X1302448D01*
X1320815Y-53150D02*
X1326063D01*
X1328687Y-50526D01*
Y-45278D01*
X1326063Y-42654D01*
X1320815D01*
X1318191Y-45278D01*
Y-50526D01*
X1320815Y-53150D01*
X1333934Y-42654D02*
Y-50526D01*
X1336558Y-53150D01*
X1339182Y-50526D01*
X1341806Y-53150D01*
X1344430Y-50526D01*
Y-42654D01*
X1357549Y-53150D02*
X1352301D01*
X1349677Y-50526D01*
Y-45278D01*
X1352301Y-42654D01*
X1357549D01*
X1360173Y-45278D01*
Y-47902D01*
X1349677D01*
X1365420Y-42654D02*
Y-53150D01*
Y-47902D01*
X1368044Y-45278D01*
X1370668Y-42654D01*
X1373292D01*
X1178475Y-131890D02*
X1169291D01*
X1178475Y-122706D01*
Y-120411D01*
X1176179Y-118115D01*
X1171587D01*
X1169291Y-120411D01*
X1192250Y-118115D02*
X1187658Y-120411D01*
X1183066Y-125002D01*
Y-129594D01*
X1185362Y-131890D01*
X1189954D01*
X1192250Y-129594D01*
Y-127298D01*
X1189954Y-125002D01*
X1183066D01*
X1196842Y-131890D02*
X1206025Y-122706D01*
X1210617Y-131890D02*
X1215208D01*
X1212912D01*
Y-118115D01*
X1210617Y-120411D01*
X1222096D02*
X1224392Y-118115D01*
X1228983D01*
X1231279Y-120411D01*
Y-129594D01*
X1228983Y-131890D01*
X1224392D01*
X1222096Y-129594D01*
Y-120411D01*
X1235871Y-131890D02*
X1245054Y-122706D01*
X1258829Y-131890D02*
X1249646D01*
X1258829Y-122706D01*
Y-120411D01*
X1256534Y-118115D01*
X1251942D01*
X1249646Y-120411D01*
X1263421D02*
X1265717Y-118115D01*
X1270309D01*
X1272604Y-120411D01*
Y-129594D01*
X1270309Y-131890D01*
X1265717D01*
X1263421Y-129594D01*
Y-120411D01*
X1277196Y-131890D02*
X1281788D01*
X1279492D01*
Y-118115D01*
X1277196Y-120411D01*
X1288675Y-118115D02*
X1297859D01*
Y-120411D01*
X1288675Y-129594D01*
Y-131890D01*
X1332677Y-118771D02*
X1335301Y-116147D01*
X1340549D01*
X1343172Y-118771D01*
Y-129266D01*
X1340549Y-131890D01*
X1335301D01*
X1332677Y-129266D01*
Y-118771D01*
X1348420D02*
X1351044Y-116147D01*
X1356292D01*
X1358915Y-118771D01*
Y-129266D01*
X1356292Y-131890D01*
X1351044D01*
X1348420Y-129266D01*
Y-118771D01*
X978347Y-155517D02*
Y-171260D01*
X983594Y-166012D01*
X988842Y-171260D01*
Y-155517D01*
X994089Y-171260D02*
X999337D01*
X996713D01*
Y-160765D01*
X994089D01*
X1007209Y-171260D02*
Y-160765D01*
X1009832D01*
X1012456Y-163388D01*
Y-171260D01*
Y-163388D01*
X1015080Y-160765D01*
X1017704Y-163388D01*
Y-171260D01*
X1022952Y-155517D02*
Y-166012D01*
X1028199Y-171260D01*
X1033447Y-166012D01*
Y-155517D01*
X1049190Y-158141D02*
X1046566Y-155517D01*
X1041318D01*
X1038694Y-158141D01*
Y-168636D01*
X1041318Y-171260D01*
X1046566D01*
X1049190Y-168636D01*
Y-163388D01*
X1043942D01*
X1175197Y-76776D02*
Y-90551D01*
X1182084D01*
X1184380Y-88255D01*
Y-79072D01*
X1182084Y-76776D01*
X1175197D01*
X1188972Y-81368D02*
Y-90551D01*
Y-85960D01*
X1191268Y-83664D01*
X1193564Y-81368D01*
X1195860D01*
X1202747Y-90551D02*
X1207339D01*
X1205043D01*
Y-81368D01*
X1202747D01*
X1214226Y-90551D02*
X1218818D01*
X1216522D01*
Y-76776D01*
X1214226D01*
X1225706Y-90551D02*
X1230297D01*
X1228001D01*
Y-76776D01*
X1225706D01*
X1260143Y-79072D02*
X1257847Y-76776D01*
X1253256D01*
X1250960Y-79072D01*
Y-88255D01*
X1253256Y-90551D01*
X1257847D01*
X1260143Y-88255D01*
Y-83664D01*
X1255552D01*
X1264735Y-81368D02*
Y-88255D01*
X1267031Y-90551D01*
X1273918D01*
Y-81368D01*
X1278510Y-90551D02*
X1283102D01*
X1280806D01*
Y-81368D01*
X1278510D01*
X1299173Y-76776D02*
Y-90551D01*
X1292285D01*
X1289989Y-88255D01*
Y-83664D01*
X1292285Y-81368D01*
X1299173D01*
X1310652Y-90551D02*
X1306060D01*
X1303764Y-88255D01*
Y-83664D01*
X1306060Y-81368D01*
X1310652D01*
X1312948Y-83664D01*
Y-85960D01*
X1303764D01*
D23*
X1157480Y-141735D02*
Y-149606D01*
X1161416D01*
X1162728Y-148294D01*
Y-143047D01*
X1161416Y-141735D01*
X1157480D01*
X1166664Y-149606D02*
X1169287D01*
X1170599Y-148294D01*
Y-145671D01*
X1169287Y-144359D01*
X1166664D01*
X1165352Y-145671D01*
Y-148294D01*
X1166664Y-149606D01*
X1178471Y-144359D02*
X1174535D01*
X1173223Y-145671D01*
Y-148294D01*
X1174535Y-149606D01*
X1178471D01*
X1181095Y-144359D02*
Y-148294D01*
X1182407Y-149606D01*
X1186342D01*
Y-144359D01*
X1188966Y-149606D02*
Y-144359D01*
X1190278D01*
X1191590Y-145671D01*
Y-149606D01*
Y-145671D01*
X1192902Y-144359D01*
X1194214Y-145671D01*
Y-149606D01*
X1200774D02*
X1198150D01*
X1196838Y-148294D01*
Y-145671D01*
X1198150Y-144359D01*
X1200774D01*
X1202085Y-145671D01*
Y-146983D01*
X1196838D01*
X1204709Y-149606D02*
Y-144359D01*
X1208645D01*
X1209957Y-145671D01*
Y-149606D01*
X1213893Y-143047D02*
Y-144359D01*
X1212581D01*
X1215205D01*
X1213893D01*
Y-148294D01*
X1215205Y-149606D01*
X1157480Y-102365D02*
Y-110236D01*
X1161416D01*
X1162728Y-108924D01*
Y-103677D01*
X1161416Y-102365D01*
X1157480D01*
X1166664Y-104989D02*
X1169287D01*
X1170599Y-106300D01*
Y-110236D01*
X1166664D01*
X1165352Y-108924D01*
X1166664Y-107612D01*
X1170599D01*
X1174535Y-103677D02*
Y-104989D01*
X1173223D01*
X1175847D01*
X1174535D01*
Y-108924D01*
X1175847Y-110236D01*
X1183719D02*
X1181095D01*
X1179783Y-108924D01*
Y-106300D01*
X1181095Y-104989D01*
X1183719D01*
X1185030Y-106300D01*
Y-107612D01*
X1179783D01*
X1157480Y-62995D02*
Y-70866D01*
X1162728D01*
X1166664Y-65618D02*
X1169287D01*
X1170599Y-66930D01*
Y-70866D01*
X1166664D01*
X1165352Y-69554D01*
X1166664Y-68242D01*
X1170599D01*
X1173223Y-65618D02*
Y-69554D01*
X1174535Y-70866D01*
X1178471D01*
Y-72178D01*
X1177159Y-73490D01*
X1175847D01*
X1178471Y-70866D02*
Y-65618D01*
X1185030Y-70866D02*
X1182407D01*
X1181095Y-69554D01*
Y-66930D01*
X1182407Y-65618D01*
X1185030D01*
X1186342Y-66930D01*
Y-68242D01*
X1181095D01*
X1188966Y-65618D02*
Y-70866D01*
Y-68242D01*
X1190278Y-66930D01*
X1191590Y-65618D01*
X1192902D01*
X1204709Y-70866D02*
Y-62995D01*
X1209957Y-70866D01*
Y-62995D01*
X1213893Y-65618D02*
X1216516D01*
X1217828Y-66930D01*
Y-70866D01*
X1213893D01*
X1212581Y-69554D01*
X1213893Y-68242D01*
X1217828D01*
X1220452Y-70866D02*
Y-65618D01*
X1221764D01*
X1223076Y-66930D01*
Y-70866D01*
Y-66930D01*
X1224388Y-65618D01*
X1225700Y-66930D01*
Y-70866D01*
X1232259D02*
X1229636D01*
X1228324Y-69554D01*
Y-66930D01*
X1229636Y-65618D01*
X1232259D01*
X1233571Y-66930D01*
Y-68242D01*
X1228324D01*
X1157480Y-23625D02*
Y-31496D01*
X1161416D01*
X1162728Y-30184D01*
Y-24937D01*
X1161416Y-23625D01*
X1157480D01*
X1166664Y-31496D02*
X1169287D01*
X1170599Y-30184D01*
Y-27560D01*
X1169287Y-26248D01*
X1166664D01*
X1165352Y-27560D01*
Y-30184D01*
X1166664Y-31496D01*
X1178471Y-26248D02*
X1174535D01*
X1173223Y-27560D01*
Y-30184D01*
X1174535Y-31496D01*
X1178471D01*
X1181095Y-26248D02*
Y-30184D01*
X1182407Y-31496D01*
X1186342D01*
Y-26248D01*
X1188966Y-31496D02*
Y-26248D01*
X1190278D01*
X1191590Y-27560D01*
Y-31496D01*
Y-27560D01*
X1192902Y-26248D01*
X1194214Y-27560D01*
Y-31496D01*
X1200774D02*
X1198150D01*
X1196838Y-30184D01*
Y-27560D01*
X1198150Y-26248D01*
X1200774D01*
X1202085Y-27560D01*
Y-28872D01*
X1196838D01*
X1204709Y-31496D02*
Y-26248D01*
X1208645D01*
X1209957Y-27560D01*
Y-31496D01*
X1213893Y-24937D02*
Y-26248D01*
X1212581D01*
X1215205D01*
X1213893D01*
Y-30184D01*
X1215205Y-31496D01*
X960630Y-141735D02*
Y-149606D01*
X964566D01*
X965878Y-148294D01*
Y-143047D01*
X964566Y-141735D01*
X960630D01*
X972437Y-149606D02*
X969813D01*
X968501Y-148294D01*
Y-145671D01*
X969813Y-144359D01*
X972437D01*
X973749Y-145671D01*
Y-146983D01*
X968501D01*
X976373Y-149606D02*
X980309D01*
X981621Y-148294D01*
X980309Y-146983D01*
X977685D01*
X976373Y-145671D01*
X977685Y-144359D01*
X981621D01*
X986868Y-152230D02*
X988180D01*
X989492Y-150918D01*
Y-144359D01*
X985556D01*
X984244Y-145671D01*
Y-148294D01*
X985556Y-149606D01*
X989492D01*
X992116D02*
X994740D01*
X993428D01*
Y-144359D01*
X992116D01*
X998675Y-149606D02*
Y-144359D01*
X1002611D01*
X1003923Y-145671D01*
Y-149606D01*
X1010483D02*
X1007859D01*
X1006547Y-148294D01*
Y-145671D01*
X1007859Y-144359D01*
X1010483D01*
X1011794Y-145671D01*
Y-146983D01*
X1006547D01*
X1014418Y-144359D02*
Y-149606D01*
Y-146983D01*
X1015730Y-145671D01*
X1017042Y-144359D01*
X1018354D01*
X1314961Y-110236D02*
Y-102365D01*
X1318896D01*
X1320208Y-103677D01*
Y-106300D01*
X1318896Y-107612D01*
X1314961D01*
X1317584D02*
X1320208Y-110236D01*
X1326768D02*
X1324144D01*
X1322832Y-108924D01*
Y-106300D01*
X1324144Y-104989D01*
X1326768D01*
X1328080Y-106300D01*
Y-107612D01*
X1322832D01*
X1330704Y-104989D02*
X1333327Y-110236D01*
X1335951Y-104989D01*
D55*
X5512Y11811D02*
X18110D01*
X11811Y5512D02*
Y18110D01*
X375590Y11811D02*
X388189D01*
X381890Y5512D02*
Y18110D01*
X375590Y224410D02*
X388189D01*
X381890Y218110D02*
Y230709D01*
X5512Y224410D02*
X18110D01*
X11811Y218110D02*
Y230709D01*
X375591Y52165D02*
X380315D01*
X377953Y49803D02*
Y54528D01*
X375591Y65945D02*
X380315D01*
X377953Y63583D02*
Y68307D01*
X375591Y91535D02*
X380315D01*
X377953Y89173D02*
Y93898D01*
X375591Y105315D02*
X380315D01*
X377953Y102953D02*
Y107677D01*
X375591Y130905D02*
X380315D01*
X377953Y128543D02*
Y133268D01*
X375591Y144685D02*
X380315D01*
X377953Y142323D02*
Y147047D01*
X375591Y170276D02*
X380315D01*
X377953Y167913D02*
Y172638D01*
X375591Y184055D02*
X380315D01*
X377953Y181693D02*
Y186417D01*
X337106Y142717D02*
X340059D01*
X338583Y141240D02*
Y144193D01*
X337106Y128937D02*
X340059D01*
X338583Y127461D02*
Y130413D01*
X337106Y93504D02*
X340059D01*
X338583Y92028D02*
Y94980D01*
X337106Y107283D02*
X340059D01*
X338583Y105807D02*
Y108760D01*
X63583Y220472D02*
X68307D01*
X65945Y218110D02*
Y222835D01*
X49803Y220472D02*
X54528D01*
X52165Y218110D02*
Y222835D01*
X102953Y220472D02*
X107677D01*
X105315Y218110D02*
Y222835D01*
X89173Y220472D02*
X93898D01*
X91535Y218110D02*
Y222835D01*
X181693Y220472D02*
X186417D01*
X184055Y218110D02*
Y222835D01*
X167913Y220472D02*
X172638D01*
X170276Y218110D02*
Y222835D01*
X221063Y220472D02*
X225787D01*
X223425Y218110D02*
Y222835D01*
X207283Y220472D02*
X212008D01*
X209646Y218110D02*
Y222835D01*
X260433Y220472D02*
X265158D01*
X262795Y218110D02*
Y222835D01*
X246654Y220472D02*
X251378D01*
X249016Y218110D02*
Y222835D01*
X339173Y220472D02*
X343898D01*
X341535Y218110D02*
Y222835D01*
X325394Y220472D02*
X330118D01*
X327756Y218110D02*
Y222835D01*
X142323Y220472D02*
X147047D01*
X144685Y218110D02*
Y222835D01*
X128543Y220472D02*
X133268D01*
X130905Y218110D02*
Y222835D01*
X299803Y220472D02*
X304528D01*
X302165Y218110D02*
Y222835D01*
X286024Y220472D02*
X290748D01*
X288386Y218110D02*
Y222835D01*
X49803Y15748D02*
X54528D01*
X52165Y13386D02*
Y18110D01*
X63583Y15748D02*
X68307D01*
X65945Y13386D02*
Y18110D01*
X89173Y15748D02*
X93898D01*
X91535Y13386D02*
Y18110D01*
X102953Y15748D02*
X107677D01*
X105315Y13386D02*
Y18110D01*
X128543Y15748D02*
X133268D01*
X130905Y13386D02*
Y18110D01*
X142323Y15748D02*
X147047D01*
X144685Y13386D02*
Y18110D01*
X167913Y15748D02*
X172638D01*
X170276Y13386D02*
Y18110D01*
X181693Y15748D02*
X186417D01*
X184055Y13386D02*
Y18110D01*
X207283Y15748D02*
X212008D01*
X209646Y13386D02*
Y18110D01*
X221063Y15748D02*
X225787D01*
X223425Y13386D02*
Y18110D01*
X246654Y15748D02*
X251378D01*
X249016Y13386D02*
Y18110D01*
X260433Y15748D02*
X265158D01*
X262795Y13386D02*
Y18110D01*
X325394Y15748D02*
X330118D01*
X327756Y13386D02*
Y18110D01*
X339173Y15748D02*
X343898D01*
X341535Y13386D02*
Y18110D01*
X286024Y15748D02*
X290748D01*
X288386Y13386D02*
Y18110D01*
X299803Y15748D02*
X304528D01*
X302165Y13386D02*
Y18110D01*
X17913Y89055D02*
X21457D01*
X19685Y87283D02*
Y90827D01*
X17913Y79055D02*
X21457D01*
X19685Y77284D02*
Y80827D01*
X17913Y69055D02*
X21457D01*
X19685Y67283D02*
Y70827D01*
X17913Y59055D02*
X21457D01*
X19685Y57284D02*
Y60827D01*
X6102Y99055D02*
X9646D01*
X7874Y97284D02*
Y100827D01*
X6102Y89055D02*
X9646D01*
X7874Y87283D02*
Y90827D01*
X6102Y79055D02*
X9646D01*
X7874Y77284D02*
Y80827D01*
X6102Y69055D02*
X9646D01*
X7874Y67283D02*
Y70827D01*
X17913Y177165D02*
X21457D01*
X19685Y175394D02*
Y178937D01*
X17913Y167165D02*
X21457D01*
X19685Y165394D02*
Y168937D01*
X17913Y157165D02*
X21457D01*
X19685Y155394D02*
Y158937D01*
X17913Y147165D02*
X21457D01*
X19685Y145394D02*
Y148937D01*
X6102Y187165D02*
X9646D01*
X7874Y185394D02*
Y188937D01*
X6102Y177165D02*
X9646D01*
X7874Y175394D02*
Y178937D01*
X6102Y167165D02*
X9646D01*
X7874Y165394D02*
Y168937D01*
X6102Y157165D02*
X9646D01*
X7874Y155394D02*
Y158937D01*
X74213Y29528D02*
X75394D01*
X74803Y28937D02*
Y30118D01*
X62402Y165354D02*
X63583D01*
X62992Y164764D02*
Y165945D01*
X62402Y158465D02*
X63583D01*
X62992Y157874D02*
Y159055D01*
X60433Y161909D02*
X61614D01*
X61024Y161319D02*
Y162500D01*
X74606Y161909D02*
X75787D01*
X75197Y161319D02*
Y162500D01*
X72638Y158465D02*
X73819D01*
X73228Y157874D02*
Y159055D01*
X72638Y165354D02*
X73819D01*
X73228Y164764D02*
Y165945D01*
X112008Y165354D02*
X113189D01*
X112598Y164764D02*
Y165945D01*
X112008Y158465D02*
X113189D01*
X112598Y157874D02*
Y159055D01*
X113976Y161909D02*
X115157D01*
X114567Y161319D02*
Y162500D01*
X99803Y161909D02*
X100984D01*
X100394Y161319D02*
Y162500D01*
X101772Y158465D02*
X102953D01*
X102362Y157874D02*
Y159055D01*
X101772Y165354D02*
X102953D01*
X102362Y164764D02*
Y165945D01*
X151378Y165354D02*
X152559D01*
X151969Y164764D02*
Y165945D01*
X151378Y158465D02*
X152559D01*
X151969Y157874D02*
Y159055D01*
X153347Y161909D02*
X154528D01*
X153937Y161319D02*
Y162500D01*
X139173Y161909D02*
X140354D01*
X139764Y161319D02*
Y162500D01*
X141142Y158465D02*
X142323D01*
X141732Y157874D02*
Y159055D01*
X141142Y165354D02*
X142323D01*
X141732Y164764D02*
Y165945D01*
X190748Y165354D02*
X191929D01*
X191339Y164764D02*
Y165945D01*
X190748Y158465D02*
X191929D01*
X191339Y157874D02*
Y159055D01*
X192717Y161909D02*
X193898D01*
X193307Y161319D02*
Y162500D01*
X178543Y161909D02*
X179724D01*
X179134Y161319D02*
Y162500D01*
X180512Y158465D02*
X181693D01*
X181102Y157874D02*
Y159055D01*
X180512Y165354D02*
X181693D01*
X181102Y164764D02*
Y165945D01*
X230118Y165354D02*
X231299D01*
X230709Y164764D02*
Y165945D01*
X230118Y158465D02*
X231299D01*
X230709Y157874D02*
Y159055D01*
X232087Y161909D02*
X233268D01*
X232677Y161319D02*
Y162500D01*
X217913Y161909D02*
X219094D01*
X218504Y161319D02*
Y162500D01*
X219882Y158465D02*
X221063D01*
X220472Y157874D02*
Y159055D01*
X219882Y165354D02*
X221063D01*
X220472Y164764D02*
Y165945D01*
X269488Y165354D02*
X270669D01*
X270079Y164764D02*
Y165945D01*
X269488Y158465D02*
X270669D01*
X270079Y157874D02*
Y159055D01*
X271457Y161909D02*
X272638D01*
X272047Y161319D02*
Y162500D01*
X257283Y161909D02*
X258465D01*
X257874Y161319D02*
Y162500D01*
X259252Y158465D02*
X260433D01*
X259842Y157874D02*
Y159055D01*
X259252Y165354D02*
X260433D01*
X259842Y164764D02*
Y165945D01*
X308858Y165354D02*
X310039D01*
X309449Y164764D02*
Y165945D01*
X308858Y158465D02*
X310039D01*
X309449Y157874D02*
Y159055D01*
X310827Y161909D02*
X312008D01*
X311417Y161319D02*
Y162500D01*
X296654Y161909D02*
X297835D01*
X297244Y161319D02*
Y162500D01*
X298622Y158465D02*
X299803D01*
X299213Y157874D02*
Y159055D01*
X298622Y165354D02*
X299803D01*
X299213Y164764D02*
Y165945D01*
X348228Y165354D02*
X349410D01*
X348819Y164764D02*
Y165945D01*
X348228Y158465D02*
X349410D01*
X348819Y157874D02*
Y159055D01*
X348228Y161909D02*
X349410D01*
X348819Y161319D02*
Y162500D01*
X336024Y161909D02*
X337205D01*
X336614Y161319D02*
Y162500D01*
X337992Y158465D02*
X339173D01*
X338583Y157874D02*
Y159055D01*
X337992Y165354D02*
X339173D01*
X338583Y164764D02*
Y165945D01*
X330118Y77953D02*
X331299D01*
X330709Y77362D02*
Y78543D01*
X330118Y71063D02*
X331299D01*
X330709Y70472D02*
Y71653D01*
X332087Y74508D02*
X333268D01*
X332677Y73917D02*
Y75098D01*
X317913Y74508D02*
X319094D01*
X318504Y73917D02*
Y75098D01*
X319882Y71063D02*
X321063D01*
X320472Y70472D02*
Y71653D01*
X319882Y77953D02*
X321063D01*
X320472Y77362D02*
Y78543D01*
X290748Y77953D02*
X291929D01*
X291339Y77362D02*
Y78543D01*
X290748Y71063D02*
X291929D01*
X291339Y70472D02*
Y71653D01*
X292717Y74508D02*
X293898D01*
X293307Y73917D02*
Y75098D01*
X278543Y74508D02*
X279724D01*
X279134Y73917D02*
Y75098D01*
X280512Y71063D02*
X281693D01*
X281102Y70472D02*
Y71653D01*
X280512Y77953D02*
X281693D01*
X281102Y77362D02*
Y78543D01*
X251378Y77953D02*
X252559D01*
X251969Y77362D02*
Y78543D01*
X251378Y71063D02*
X252559D01*
X251969Y70472D02*
Y71653D01*
X253346Y74508D02*
X254528D01*
X253937Y73917D02*
Y75098D01*
X239173Y74508D02*
X240354D01*
X239764Y73917D02*
Y75098D01*
X241142Y71063D02*
X242323D01*
X241732Y70472D02*
Y71653D01*
X241142Y77953D02*
X242323D01*
X241732Y77362D02*
Y78543D01*
X212008Y77953D02*
X213189D01*
X212598Y77362D02*
Y78543D01*
X212008Y71063D02*
X213189D01*
X212598Y70472D02*
Y71653D01*
X213976Y74508D02*
X215158D01*
X214567Y73917D02*
Y75098D01*
X199803Y74508D02*
X200984D01*
X200394Y73917D02*
Y75098D01*
X201772Y71063D02*
X202953D01*
X202362Y70472D02*
Y71653D01*
X201772Y77953D02*
X202953D01*
X202362Y77362D02*
Y78543D01*
X172638Y77953D02*
X173819D01*
X173228Y77362D02*
Y78543D01*
X172638Y71063D02*
X173819D01*
X173228Y70472D02*
Y71653D01*
X174606Y74508D02*
X175787D01*
X175197Y73917D02*
Y75098D01*
X160433Y74508D02*
X161614D01*
X161024Y73917D02*
Y75098D01*
X162402Y71063D02*
X163583D01*
X162992Y70472D02*
Y71653D01*
X162402Y77953D02*
X163583D01*
X162992Y77362D02*
Y78543D01*
X133268Y77953D02*
X134449D01*
X133858Y77362D02*
Y78543D01*
X133268Y71063D02*
X134449D01*
X133858Y70472D02*
Y71653D01*
X135236Y74508D02*
X136417D01*
X135827Y73917D02*
Y75098D01*
X121063Y74508D02*
X122244D01*
X121653Y73917D02*
Y75098D01*
X123031Y71063D02*
X124213D01*
X123622Y70472D02*
Y71653D01*
X123031Y77953D02*
X124213D01*
X123622Y77362D02*
Y78543D01*
X93898Y77953D02*
X95079D01*
X94488Y77362D02*
Y78543D01*
X93898Y71063D02*
X95079D01*
X94488Y70472D02*
Y71653D01*
X95866Y74508D02*
X97047D01*
X96457Y73917D02*
Y75098D01*
X81693Y74508D02*
X82874D01*
X82284Y73917D02*
Y75098D01*
X83661Y71063D02*
X84842D01*
X84252Y70472D02*
Y71653D01*
X83661Y77953D02*
X84842D01*
X84252Y77362D02*
Y78543D01*
X74213Y59055D02*
X75394D01*
X74803Y58465D02*
Y59646D01*
X74213Y64961D02*
X75394D01*
X74803Y64370D02*
Y65551D01*
X74213Y53150D02*
X75394D01*
X74803Y52559D02*
Y53740D01*
X74213Y47244D02*
X75394D01*
X74803Y46654D02*
Y47835D01*
X74213Y41339D02*
X75394D01*
X74803Y40748D02*
Y41929D01*
X74213Y35433D02*
X75394D01*
X74803Y34843D02*
Y36024D01*
X74213Y23622D02*
X75394D01*
X74803Y23031D02*
Y24213D01*
X42717Y23622D02*
X43898D01*
X43307Y23031D02*
Y24213D01*
X42717Y29528D02*
X43898D01*
X43307Y28937D02*
Y30118D01*
X42717Y35433D02*
X43898D01*
X43307Y34843D02*
Y36024D01*
X42717Y41339D02*
X43898D01*
X43307Y40748D02*
Y41929D01*
X42717Y47244D02*
X43898D01*
X43307Y46654D02*
Y47835D01*
X42717Y53150D02*
X43898D01*
X43307Y52559D02*
Y53740D01*
X42717Y64961D02*
X43898D01*
X43307Y64370D02*
Y65551D01*
X42717Y59055D02*
X43898D01*
X43307Y58465D02*
Y59646D01*
X82087Y59055D02*
X83268D01*
X82677Y58465D02*
Y59646D01*
X82087Y64961D02*
X83268D01*
X82677Y64370D02*
Y65551D01*
X82087Y53150D02*
X83268D01*
X82677Y52559D02*
Y53740D01*
X82087Y47244D02*
X83268D01*
X82677Y46654D02*
Y47835D01*
X82087Y41339D02*
X83268D01*
X82677Y40748D02*
Y41929D01*
X82087Y35433D02*
X83268D01*
X82677Y34843D02*
Y36024D01*
X82087Y29528D02*
X83268D01*
X82677Y28937D02*
Y30118D01*
X82087Y23622D02*
X83268D01*
X82677Y23031D02*
Y24213D01*
X113583Y23622D02*
X114764D01*
X114173Y23031D02*
Y24213D01*
X113583Y29528D02*
X114764D01*
X114173Y28937D02*
Y30118D01*
X113583Y35433D02*
X114764D01*
X114173Y34843D02*
Y36024D01*
X113583Y41339D02*
X114764D01*
X114173Y40748D02*
Y41929D01*
X113583Y47244D02*
X114764D01*
X114173Y46654D02*
Y47835D01*
X113583Y53150D02*
X114764D01*
X114173Y52559D02*
Y53740D01*
X113583Y64961D02*
X114764D01*
X114173Y64370D02*
Y65551D01*
X113583Y59055D02*
X114764D01*
X114173Y58465D02*
Y59646D01*
X121457Y59055D02*
X122638D01*
X122047Y58465D02*
Y59646D01*
X121457Y64961D02*
X122638D01*
X122047Y64370D02*
Y65551D01*
X121457Y53150D02*
X122638D01*
X122047Y52559D02*
Y53740D01*
X121457Y47244D02*
X122638D01*
X122047Y46654D02*
Y47835D01*
X121457Y41339D02*
X122638D01*
X122047Y40748D02*
Y41929D01*
X121457Y35433D02*
X122638D01*
X122047Y34843D02*
Y36024D01*
X121457Y29528D02*
X122638D01*
X122047Y28937D02*
Y30118D01*
X121457Y23622D02*
X122638D01*
X122047Y23031D02*
Y24213D01*
X152953Y23622D02*
X154134D01*
X153543Y23031D02*
Y24213D01*
X152953Y29528D02*
X154134D01*
X153543Y28937D02*
Y30118D01*
X152953Y35433D02*
X154134D01*
X153543Y34843D02*
Y36024D01*
X152953Y41339D02*
X154134D01*
X153543Y40748D02*
Y41929D01*
X152953Y47244D02*
X154134D01*
X153543Y46654D02*
Y47835D01*
X152953Y53150D02*
X154134D01*
X153543Y52559D02*
Y53740D01*
X152953Y64961D02*
X154134D01*
X153543Y64370D02*
Y65551D01*
X152953Y59055D02*
X154134D01*
X153543Y58465D02*
Y59646D01*
X160827Y59055D02*
X162008D01*
X161417Y58465D02*
Y59646D01*
X160827Y64961D02*
X162008D01*
X161417Y64370D02*
Y65551D01*
X160827Y53150D02*
X162008D01*
X161417Y52559D02*
Y53740D01*
X160827Y47244D02*
X162008D01*
X161417Y46654D02*
Y47835D01*
X160827Y41339D02*
X162008D01*
X161417Y40748D02*
Y41929D01*
X160827Y35433D02*
X162008D01*
X161417Y34843D02*
Y36024D01*
X160827Y29528D02*
X162008D01*
X161417Y28937D02*
Y30118D01*
X160827Y23622D02*
X162008D01*
X161417Y23031D02*
Y24213D01*
X192323Y23622D02*
X193504D01*
X192913Y23031D02*
Y24213D01*
X192323Y29528D02*
X193504D01*
X192913Y28937D02*
Y30118D01*
X192323Y35433D02*
X193504D01*
X192913Y34843D02*
Y36024D01*
X192323Y41339D02*
X193504D01*
X192913Y40748D02*
Y41929D01*
X192323Y47244D02*
X193504D01*
X192913Y46654D02*
Y47835D01*
X192323Y53150D02*
X193504D01*
X192913Y52559D02*
Y53740D01*
X192323Y64961D02*
X193504D01*
X192913Y64370D02*
Y65551D01*
X192323Y59055D02*
X193504D01*
X192913Y58465D02*
Y59646D01*
X200197Y59055D02*
X201378D01*
X200787Y58465D02*
Y59646D01*
X200197Y64961D02*
X201378D01*
X200787Y64370D02*
Y65551D01*
X200197Y53150D02*
X201378D01*
X200787Y52559D02*
Y53740D01*
X200197Y47244D02*
X201378D01*
X200787Y46654D02*
Y47835D01*
X200197Y41339D02*
X201378D01*
X200787Y40748D02*
Y41929D01*
X200197Y35433D02*
X201378D01*
X200787Y34843D02*
Y36024D01*
X200197Y29528D02*
X201378D01*
X200787Y28937D02*
Y30118D01*
X200197Y23622D02*
X201378D01*
X200787Y23031D02*
Y24213D01*
X231693Y23622D02*
X232874D01*
X232283Y23031D02*
Y24213D01*
X231693Y29528D02*
X232874D01*
X232283Y28937D02*
Y30118D01*
X231693Y35433D02*
X232874D01*
X232283Y34843D02*
Y36024D01*
X231693Y41339D02*
X232874D01*
X232283Y40748D02*
Y41929D01*
X231693Y47244D02*
X232874D01*
X232283Y46654D02*
Y47835D01*
X231693Y53150D02*
X232874D01*
X232283Y52559D02*
Y53740D01*
X231693Y64961D02*
X232874D01*
X232283Y64370D02*
Y65551D01*
X231693Y59055D02*
X232874D01*
X232283Y58465D02*
Y59646D01*
X239567Y59055D02*
X240748D01*
X240158Y58465D02*
Y59646D01*
X239567Y64961D02*
X240748D01*
X240158Y64370D02*
Y65551D01*
X239567Y53150D02*
X240748D01*
X240158Y52559D02*
Y53740D01*
X239567Y47244D02*
X240748D01*
X240158Y46654D02*
Y47835D01*
X239567Y41339D02*
X240748D01*
X240158Y40748D02*
Y41929D01*
X239567Y35433D02*
X240748D01*
X240158Y34843D02*
Y36024D01*
X239567Y29528D02*
X240748D01*
X240158Y28937D02*
Y30118D01*
X239567Y23622D02*
X240748D01*
X240158Y23031D02*
Y24213D01*
X271063Y23622D02*
X272244D01*
X271654Y23031D02*
Y24213D01*
X271063Y29528D02*
X272244D01*
X271654Y28937D02*
Y30118D01*
X271063Y35433D02*
X272244D01*
X271654Y34843D02*
Y36024D01*
X271063Y41339D02*
X272244D01*
X271654Y40748D02*
Y41929D01*
X271063Y47244D02*
X272244D01*
X271654Y46654D02*
Y47835D01*
X271063Y53150D02*
X272244D01*
X271654Y52559D02*
Y53740D01*
X271063Y64961D02*
X272244D01*
X271654Y64370D02*
Y65551D01*
X271063Y59055D02*
X272244D01*
X271654Y58465D02*
Y59646D01*
X278937Y59055D02*
X280118D01*
X279528Y58465D02*
Y59646D01*
X278937Y64961D02*
X280118D01*
X279528Y64370D02*
Y65551D01*
X278937Y53150D02*
X280118D01*
X279528Y52559D02*
Y53740D01*
X278937Y47244D02*
X280118D01*
X279528Y46654D02*
Y47835D01*
X278937Y41339D02*
X280118D01*
X279528Y40748D02*
Y41929D01*
X278937Y35433D02*
X280118D01*
X279528Y34843D02*
Y36024D01*
X278937Y29528D02*
X280118D01*
X279528Y28937D02*
Y30118D01*
X278937Y23622D02*
X280118D01*
X279528Y23031D02*
Y24213D01*
X310433Y23622D02*
X311614D01*
X311024Y23031D02*
Y24213D01*
X310433Y29528D02*
X311614D01*
X311024Y28937D02*
Y30118D01*
X310433Y35433D02*
X311614D01*
X311024Y34843D02*
Y36024D01*
X310433Y41339D02*
X311614D01*
X311024Y40748D02*
Y41929D01*
X310433Y47244D02*
X311614D01*
X311024Y46654D02*
Y47835D01*
X310433Y53150D02*
X311614D01*
X311024Y52559D02*
Y53740D01*
X310433Y64961D02*
X311614D01*
X311024Y64370D02*
Y65551D01*
X310433Y59055D02*
X311614D01*
X311024Y58465D02*
Y59646D01*
X318307Y59055D02*
X319488D01*
X318898Y58465D02*
Y59646D01*
X318307Y64961D02*
X319488D01*
X318898Y64370D02*
Y65551D01*
X318307Y53150D02*
X319488D01*
X318898Y52559D02*
Y53740D01*
X318307Y47244D02*
X319488D01*
X318898Y46654D02*
Y47835D01*
X318307Y41339D02*
X319488D01*
X318898Y40748D02*
Y41929D01*
X318307Y35433D02*
X319488D01*
X318898Y34843D02*
Y36024D01*
X318307Y29528D02*
X319488D01*
X318898Y28937D02*
Y30118D01*
X318307Y23622D02*
X319488D01*
X318898Y23031D02*
Y24213D01*
X349803Y23622D02*
X350984D01*
X350394Y23031D02*
Y24213D01*
X349803Y29528D02*
X350984D01*
X350394Y28937D02*
Y30118D01*
X349803Y35433D02*
X350984D01*
X350394Y34843D02*
Y36024D01*
X349803Y41339D02*
X350984D01*
X350394Y40748D02*
Y41929D01*
X349803Y47244D02*
X350984D01*
X350394Y46654D02*
Y47835D01*
X349803Y53150D02*
X350984D01*
X350394Y52559D02*
Y53740D01*
X349803Y64961D02*
X350984D01*
X350394Y64370D02*
Y65551D01*
X349803Y59055D02*
X350984D01*
X350394Y58465D02*
Y59646D01*
X349803Y177165D02*
X350984D01*
X350394Y176575D02*
Y177756D01*
X349803Y171260D02*
X350984D01*
X350394Y170669D02*
Y171850D01*
X349803Y183071D02*
X350984D01*
X350394Y182480D02*
Y183661D01*
X349803Y188976D02*
X350984D01*
X350394Y188386D02*
Y189567D01*
X349803Y194882D02*
X350984D01*
X350394Y194291D02*
Y195472D01*
X349803Y200787D02*
X350984D01*
X350394Y200197D02*
Y201378D01*
X349803Y206693D02*
X350984D01*
X350394Y206102D02*
Y207283D01*
X349803Y212598D02*
X350984D01*
X350394Y212008D02*
Y213189D01*
X318307Y212598D02*
X319488D01*
X318898Y212008D02*
Y213189D01*
X318307Y206693D02*
X319488D01*
X318898Y206102D02*
Y207283D01*
X318307Y200787D02*
X319488D01*
X318898Y200197D02*
Y201378D01*
X318307Y194882D02*
X319488D01*
X318898Y194291D02*
Y195472D01*
X318307Y188976D02*
X319488D01*
X318898Y188386D02*
Y189567D01*
X318307Y183071D02*
X319488D01*
X318898Y182480D02*
Y183661D01*
X318307Y171260D02*
X319488D01*
X318898Y170669D02*
Y171850D01*
X318307Y177165D02*
X319488D01*
X318898Y176575D02*
Y177756D01*
X310433Y177165D02*
X311614D01*
X311024Y176575D02*
Y177756D01*
X310433Y171260D02*
X311614D01*
X311024Y170669D02*
Y171850D01*
X310433Y183071D02*
X311614D01*
X311024Y182480D02*
Y183661D01*
X310433Y188976D02*
X311614D01*
X311024Y188386D02*
Y189567D01*
X310433Y194882D02*
X311614D01*
X311024Y194291D02*
Y195472D01*
X310433Y200787D02*
X311614D01*
X311024Y200197D02*
Y201378D01*
X310433Y206693D02*
X311614D01*
X311024Y206102D02*
Y207283D01*
X310433Y212598D02*
X311614D01*
X311024Y212008D02*
Y213189D01*
X278937Y212598D02*
X280118D01*
X279528Y212008D02*
Y213189D01*
X278937Y206693D02*
X280118D01*
X279528Y206102D02*
Y207283D01*
X278937Y200787D02*
X280118D01*
X279528Y200197D02*
Y201378D01*
X278937Y194882D02*
X280118D01*
X279528Y194291D02*
Y195472D01*
X278937Y188976D02*
X280118D01*
X279528Y188386D02*
Y189567D01*
X278937Y183071D02*
X280118D01*
X279528Y182480D02*
Y183661D01*
X278937Y171260D02*
X280118D01*
X279528Y170669D02*
Y171850D01*
X278937Y177165D02*
X280118D01*
X279528Y176575D02*
Y177756D01*
X271063Y177165D02*
X272244D01*
X271654Y176575D02*
Y177756D01*
X271063Y171260D02*
X272244D01*
X271654Y170669D02*
Y171850D01*
X271063Y183071D02*
X272244D01*
X271654Y182480D02*
Y183661D01*
X271063Y188976D02*
X272244D01*
X271654Y188386D02*
Y189567D01*
X271063Y194882D02*
X272244D01*
X271654Y194291D02*
Y195472D01*
X271063Y200787D02*
X272244D01*
X271654Y200197D02*
Y201378D01*
X271063Y206693D02*
X272244D01*
X271654Y206102D02*
Y207283D01*
X271063Y212598D02*
X272244D01*
X271654Y212008D02*
Y213189D01*
X239567Y212598D02*
X240748D01*
X240158Y212008D02*
Y213189D01*
X239567Y206693D02*
X240748D01*
X240158Y206102D02*
Y207283D01*
X239567Y200787D02*
X240748D01*
X240158Y200197D02*
Y201378D01*
X239567Y194882D02*
X240748D01*
X240158Y194291D02*
Y195472D01*
X239567Y188976D02*
X240748D01*
X240158Y188386D02*
Y189567D01*
X239567Y183071D02*
X240748D01*
X240158Y182480D02*
Y183661D01*
X239567Y171260D02*
X240748D01*
X240158Y170669D02*
Y171850D01*
X239567Y177165D02*
X240748D01*
X240158Y176575D02*
Y177756D01*
X231693Y177165D02*
X232874D01*
X232283Y176575D02*
Y177756D01*
X231693Y171260D02*
X232874D01*
X232283Y170669D02*
Y171850D01*
X231693Y183071D02*
X232874D01*
X232283Y182480D02*
Y183661D01*
X231693Y188976D02*
X232874D01*
X232283Y188386D02*
Y189567D01*
X231693Y194882D02*
X232874D01*
X232283Y194291D02*
Y195472D01*
X231693Y200787D02*
X232874D01*
X232283Y200197D02*
Y201378D01*
X231693Y206693D02*
X232874D01*
X232283Y206102D02*
Y207283D01*
X231693Y212598D02*
X232874D01*
X232283Y212008D02*
Y213189D01*
X200197Y212598D02*
X201378D01*
X200787Y212008D02*
Y213189D01*
X200197Y206693D02*
X201378D01*
X200787Y206102D02*
Y207283D01*
X200197Y200787D02*
X201378D01*
X200787Y200197D02*
Y201378D01*
X200197Y194882D02*
X201378D01*
X200787Y194291D02*
Y195472D01*
X200197Y188976D02*
X201378D01*
X200787Y188386D02*
Y189567D01*
X200197Y183071D02*
X201378D01*
X200787Y182480D02*
Y183661D01*
X200197Y171260D02*
X201378D01*
X200787Y170669D02*
Y171850D01*
X200197Y177165D02*
X201378D01*
X200787Y176575D02*
Y177756D01*
X192323Y177165D02*
X193504D01*
X192913Y176575D02*
Y177756D01*
X192323Y171260D02*
X193504D01*
X192913Y170669D02*
Y171850D01*
X192323Y183071D02*
X193504D01*
X192913Y182480D02*
Y183661D01*
X192323Y188976D02*
X193504D01*
X192913Y188386D02*
Y189567D01*
X192323Y194882D02*
X193504D01*
X192913Y194291D02*
Y195472D01*
X192323Y200787D02*
X193504D01*
X192913Y200197D02*
Y201378D01*
X192323Y206693D02*
X193504D01*
X192913Y206102D02*
Y207283D01*
X192323Y212598D02*
X193504D01*
X192913Y212008D02*
Y213189D01*
X160827Y212598D02*
X162008D01*
X161417Y212008D02*
Y213189D01*
X160827Y206693D02*
X162008D01*
X161417Y206102D02*
Y207283D01*
X160827Y200787D02*
X162008D01*
X161417Y200197D02*
Y201378D01*
X160827Y194882D02*
X162008D01*
X161417Y194291D02*
Y195472D01*
X160827Y188976D02*
X162008D01*
X161417Y188386D02*
Y189567D01*
X160827Y183071D02*
X162008D01*
X161417Y182480D02*
Y183661D01*
X160827Y171260D02*
X162008D01*
X161417Y170669D02*
Y171850D01*
X160827Y177165D02*
X162008D01*
X161417Y176575D02*
Y177756D01*
X152953Y177165D02*
X154134D01*
X153543Y176575D02*
Y177756D01*
X152953Y171260D02*
X154134D01*
X153543Y170669D02*
Y171850D01*
X152953Y183071D02*
X154134D01*
X153543Y182480D02*
Y183661D01*
X152953Y188976D02*
X154134D01*
X153543Y188386D02*
Y189567D01*
X152953Y194882D02*
X154134D01*
X153543Y194291D02*
Y195472D01*
X152953Y200787D02*
X154134D01*
X153543Y200197D02*
Y201378D01*
X152953Y206693D02*
X154134D01*
X153543Y206102D02*
Y207283D01*
X152953Y212598D02*
X154134D01*
X153543Y212008D02*
Y213189D01*
X121457Y212598D02*
X122638D01*
X122047Y212008D02*
Y213189D01*
X121457Y206693D02*
X122638D01*
X122047Y206102D02*
Y207283D01*
X121457Y200787D02*
X122638D01*
X122047Y200197D02*
Y201378D01*
X121457Y194882D02*
X122638D01*
X122047Y194291D02*
Y195472D01*
X121457Y188976D02*
X122638D01*
X122047Y188386D02*
Y189567D01*
X121457Y183071D02*
X122638D01*
X122047Y182480D02*
Y183661D01*
X121457Y171260D02*
X122638D01*
X122047Y170669D02*
Y171850D01*
X121457Y177165D02*
X122638D01*
X122047Y176575D02*
Y177756D01*
X113583Y177165D02*
X114764D01*
X114173Y176575D02*
Y177756D01*
X113583Y171260D02*
X114764D01*
X114173Y170669D02*
Y171850D01*
X113583Y183071D02*
X114764D01*
X114173Y182480D02*
Y183661D01*
X113583Y188976D02*
X114764D01*
X114173Y188386D02*
Y189567D01*
X113583Y194882D02*
X114764D01*
X114173Y194291D02*
Y195472D01*
X113583Y200787D02*
X114764D01*
X114173Y200197D02*
Y201378D01*
X113583Y206693D02*
X114764D01*
X114173Y206102D02*
Y207283D01*
X113583Y212598D02*
X114764D01*
X114173Y212008D02*
Y213189D01*
X82087Y212598D02*
X83268D01*
X82677Y212008D02*
Y213189D01*
X82087Y206693D02*
X83268D01*
X82677Y206102D02*
Y207283D01*
X82087Y200787D02*
X83268D01*
X82677Y200197D02*
Y201378D01*
X82087Y194882D02*
X83268D01*
X82677Y194291D02*
Y195472D01*
X82087Y188976D02*
X83268D01*
X82677Y188386D02*
Y189567D01*
X82087Y183071D02*
X83268D01*
X82677Y182480D02*
Y183661D01*
X82087Y171260D02*
X83268D01*
X82677Y170669D02*
Y171850D01*
X82087Y177165D02*
X83268D01*
X82677Y176575D02*
Y177756D01*
X74213Y177165D02*
X75394D01*
X74803Y176575D02*
Y177756D01*
X74213Y171260D02*
X75394D01*
X74803Y170669D02*
Y171850D01*
X74213Y183071D02*
X75394D01*
X74803Y182480D02*
Y183661D01*
X74213Y188976D02*
X75394D01*
X74803Y188386D02*
Y189567D01*
X74213Y194882D02*
X75394D01*
X74803Y194291D02*
Y195472D01*
X74213Y200787D02*
X75394D01*
X74803Y200197D02*
Y201378D01*
X74213Y206693D02*
X75394D01*
X74803Y206102D02*
Y207283D01*
X74213Y212598D02*
X75394D01*
X74803Y212008D02*
Y213189D01*
X42717Y212598D02*
X43898D01*
X43307Y212008D02*
Y213189D01*
X42717Y206693D02*
X43898D01*
X43307Y206102D02*
Y207283D01*
X42717Y200787D02*
X43898D01*
X43307Y200197D02*
Y201378D01*
X42717Y194882D02*
X43898D01*
X43307Y194291D02*
Y195472D01*
X42717Y188976D02*
X43898D01*
X43307Y188386D02*
Y189567D01*
X42717Y183071D02*
X43898D01*
X43307Y182480D02*
Y183661D01*
X42717Y171260D02*
X43898D01*
X43307Y170669D02*
Y171850D01*
X42717Y177165D02*
X43898D01*
X43307Y176575D02*
Y177756D01*
X126771Y137795D02*
X127952D01*
X127362Y137204D02*
Y138385D01*
X126771Y129921D02*
X127952D01*
X127362Y129330D02*
Y130511D01*
X126771Y122047D02*
X127952D01*
X127362Y121456D02*
Y122637D01*
X126771Y114173D02*
X127952D01*
X127362Y113582D02*
Y114763D01*
X126771Y106299D02*
X127952D01*
X127362Y105708D02*
Y106889D01*
X126771Y98425D02*
X127952D01*
X127362Y97834D02*
Y99015D01*
X170276Y133071D02*
X171457D01*
X170866Y132480D02*
Y133661D01*
X91732Y118110D02*
X92913D01*
X92322Y117520D02*
Y118701D01*
X42322Y133858D02*
X43504D01*
X42913Y133267D02*
Y134449D01*
X42322Y141732D02*
X43504D01*
X42913Y141141D02*
Y142323D01*
X42323Y125985D02*
X43504D01*
X42914Y125394D02*
Y126575D01*
X41929Y117126D02*
X43110D01*
X42520Y116535D02*
Y117717D01*
X170276Y136614D02*
X171457D01*
X170866Y136024D02*
Y137205D01*
X205315Y116535D02*
X206496D01*
X205906Y115945D02*
Y117126D01*
X149409Y136614D02*
X150591D01*
X150000Y136024D02*
Y137205D01*
X149409Y133071D02*
X150591D01*
X150000Y132480D02*
Y133661D01*
X155512Y126969D02*
X156693D01*
X156103Y126378D02*
Y127559D01*
X44291Y77953D02*
X45472D01*
X44882Y77362D02*
Y78543D01*
X44291Y71063D02*
X45472D01*
X44882Y70472D02*
Y71653D01*
X42323Y74508D02*
X43504D01*
X42913Y73917D02*
Y75098D01*
X56496Y74508D02*
X57677D01*
X57087Y73917D02*
Y75098D01*
X54528Y71063D02*
X55709D01*
X55118Y70472D02*
Y71653D01*
X54528Y77953D02*
X55709D01*
X55118Y77362D02*
Y78543D01*
X19094Y109252D02*
X20276D01*
X19685Y108661D02*
Y109843D01*
M02*
