M48
;Layer_Color=9474304
;FILE_FORMAT=2:5
INCH,LZ
;TYPE=PLATED
T1F00S00C0.01181
T2F00S00C0.02953
T3F00S00C0.03543
T4F00S00C0.04724
;TYPE=NON_PLATED
T5F00S00C0.12598
%
T01
X0271654Y0023622
Y0029528
Y0035433
Y0041339
Y0047244
Y005315
Y0059055
Y0064961
X0279528
Y0059055
Y005315
Y0047244
Y0041339
Y0035433
Y0029528
Y0023622
X0311024
Y0029528
Y0035433
Y0041339
Y0047244
Y005315
Y0059055
Y0064961
X0318898
Y0059055
Y005315
Y0047244
Y0041339
Y0035433
Y0029528
Y0023622
X0350394
Y0029528
Y0035433
Y0041339
Y0047244
Y005315
Y0059055
Y0064961
X0330709Y0071063
X0332677Y0074508
X0330709Y0077953
X0320472
X0318504Y0074508
X0320472Y0071063
X0291339
X0293307Y0074508
X0291339Y0077953
X0281102
X0279134Y0074508
X0281102Y0071063
X0251969
X0253937Y0074508
X0251969Y0077953
X0241732
X0239764Y0074508
X0241732Y0071063
X0240158Y0064961
Y0059055
Y005315
Y0047244
Y0041339
Y0035433
Y0029528
Y0023622
X0232283
Y0029528
Y0035433
Y0041339
Y0047244
Y005315
Y0059055
Y0064961
X0212598Y0071063
X0214567Y0074508
X0212598Y0077953
X0202362
X0200394Y0074508
X0202362Y0071063
X0200787Y0064961
Y0059055
Y005315
Y0047244
Y0041339
Y0035433
Y0029528
Y0023622
X0192913
Y0029528
Y0035433
Y0041339
Y0047244
Y005315
Y0059055
Y0064961
X0173228Y0071063
X0175197Y0074508
X0173228Y0077953
X0162992
X0161024Y0074508
X0162992Y0071063
X0161417Y0064961
Y0059055
Y005315
Y0047244
Y0041339
Y0035433
Y0029528
Y0023622
X0153543
Y0029528
Y0035433
Y0041339
Y0047244
Y005315
Y0059055
Y0064961
X0133858Y0071063
X0135827Y0074508
X0133858Y0077953
X0123622
X0121653Y0074508
X0123622Y0071063
X0122047Y0064961
Y0059055
Y005315
Y0047244
Y0041339
Y0035433
Y0029528
Y0023622
X0114173
Y0029528
Y0035433
Y0041339
Y0047244
Y005315
Y0059055
Y0064961
X0127362Y0098425
Y0106299
Y0114173
Y0122047
Y0129921
Y0137795
X015Y0136614
Y0133071
X0156103Y0126969
X0170866Y0133071
Y0136614
X0205906Y0116535
X0092322Y011811
X0094488Y0077953
X0096457Y0074508
X0094488Y0071063
X0084252
X0082284Y0074508
X0084252Y0077953
X0082677Y0064961
Y0059055
Y005315
Y0047244
Y0041339
Y0035433
Y0029528
Y0023622
X0074803
Y0029528
Y0035433
Y0041339
Y0047244
Y005315
Y0059055
Y0064961
X0055118Y0071063
X0057087Y0074508
X0055118Y0077953
X0044882
X0042913Y0074508
X0044882Y0071063
X0043307Y0064961
Y0059055
Y005315
Y0047244
Y0041339
Y0035433
Y0029528
Y0023622
X004252Y0117126
X0042914Y0125985
X0042913Y0133858
Y0141732
X0019685Y0109252
X0043307Y017126
Y0177165
Y0183071
Y0188976
Y0194882
Y0200787
Y0206693
Y0212598
X0074803
Y0206693
Y0200787
Y0194882
Y0188976
Y0183071
Y0177165
Y017126
X0073228Y0165354
X0075197Y0161909
X0073228Y0158465
X0062992
X0061024Y0161909
X0062992Y0165354
X0082677Y017126
Y0177165
Y0183071
Y0188976
Y0194882
Y0200787
Y0206693
Y0212598
X0102362Y0165354
X0100394Y0161909
X0102362Y0158465
X0112598
X0114567Y0161909
X0112598Y0165354
X0114173Y017126
Y0177165
Y0183071
Y0188976
Y0194882
Y0200787
Y0206693
Y0212598
X0122047
Y0206693
Y0200787
Y0194882
Y0188976
Y0183071
Y0177165
Y017126
X0141732Y0165354
X0139764Y0161909
X0141732Y0158465
X0151969
X0153937Y0161909
X0151969Y0165354
X0153543Y017126
Y0177165
Y0183071
Y0188976
Y0194882
Y0200787
Y0206693
Y0212598
X0161417
Y0206693
Y0200787
Y0194882
Y0188976
Y0183071
Y0177165
Y017126
X0181102Y0165354
X0179134Y0161909
X0181102Y0158465
X0191339
X0193307Y0161909
X0191339Y0165354
X0192913Y017126
Y0177165
Y0183071
Y0188976
Y0194882
Y0200787
Y0206693
Y0212598
X0200787
Y0206693
Y0200787
Y0194882
Y0188976
Y0183071
Y0177165
Y017126
X0220472Y0165354
X0218504Y0161909
X0220472Y0158465
X0230709
X0232677Y0161909
X0230709Y0165354
X0232283Y017126
Y0177165
Y0183071
Y0188976
Y0194882
Y0200787
Y0206693
Y0212598
X0240158
Y0206693
Y0200787
Y0194882
Y0188976
Y0183071
Y0177165
Y017126
X0259842Y0165354
X0257874Y0161909
X0259842Y0158465
X0270079
X0272047Y0161909
X0270079Y0165354
X0271654Y017126
Y0177165
Y0183071
Y0188976
Y0194882
Y0200787
Y0206693
Y0212598
X0279528
Y0206693
Y0200787
Y0194882
Y0188976
Y0183071
Y0177165
Y017126
X0299213Y0165354
X0297244Y0161909
X0299213Y0158465
X0309449
X0311417Y0161909
X0309449Y0165354
X0311024Y017126
Y0177165
Y0183071
Y0188976
Y0194882
Y0200787
Y0206693
Y0212598
X0318898
Y0206693
Y0200787
Y0194882
Y0188976
Y0183071
Y0177165
Y017126
X0338583Y0165354
X0336614Y0161909
X0338583Y0158465
X0348819
X0348819Y0161909
X0348819Y0165354
X0350394Y017126
Y0177165
Y0183071
Y0188976
Y0194882
Y0200787
Y0206693
Y0212598
T02
X0338583Y0093504
Y0107283
Y0128937
Y0142717
T03
X0007874Y0069055
Y0079055
Y0089055
Y0099055
X0019685Y0089055
Y0079055
Y0069055
Y0059055
Y0147165
Y0157165
Y0167165
Y0177165
X0007874
Y0187165
Y0167165
Y0157165
T04
X0262795Y0015748
X0288386
X0302165
X0327756
X0341535
X0377953Y0052165
Y0065945
Y0091535
Y0105315
Y0130905
Y0144685
X0249016Y0015748
X0223425
X0209646
X0184055
X0170276
X0144685
X0130905
X0105315
X0091535
X0065945
X0052165
Y0220472
X0065945
X0091535
X0105315
X0130905
X0144685
X0170276
X0184055
X0209646
X0223425
X0249016
X0262795
X0288386
X0302165
X0327756
X0341535
X0377953Y0184055
Y0170276
T05
X038189Y0011811
X0011811
Y022441
X038189
M30
